<svg width="1030" height="954" viewBox="0 0 1030 954" fill="none" xmlns="http://www.w3.org/2000/svg">
<path d="M347.551 422.946C370.264 389.46 392.398 356.345 421.758 328.142C436.826 313.668 465.424 289.275 482.163 277.386C529.667 243.647 583.4 218.864 635.58 193.531C708.931 157.921 782.936 123.936 858.583 93.4749C897.817 77.6762 937.366 62.6467 976.669 47.0225" stroke="#C8C8C8" stroke-width="2" stroke-linecap="round"/>
<path d="M374.086 461.644C409.839 432.825 442.956 400.743 479.497 372.9C514.006 346.604 551.588 325.035 589.526 304.158C634.147 279.603 679.132 257.782 726.888 239.974C850.392 193.918 977.104 155.036 1102.97 116.036C1137.62 105.3 1172.67 96.8924 1207.75 87.9316" stroke="#C8C8C8" stroke-width="2" stroke-linecap="round"/>
<path d="M406.15 501.447C413.962 494.029 423.371 484.67 432.005 478.142C450.96 463.81 472.82 453.741 494.107 443.5C577.456 403.401 665.21 374.357 750.816 339.639C835.633 305.24 919.365 267.489 1006.64 239.514C1046.2 226.831 1086.71 217.229 1127.04 207.343" stroke="#C8C8C8" stroke-width="2" stroke-linecap="round"/>
<path d="M445.954 529.088C469.071 514.122 491.537 497.546 515.17 483.503C553.537 460.704 595.241 446.545 638.039 434.552C700.47 417.057 763.087 407.001 827.72 402.362C924.492 395.416 1021.8 395.9 1118.76 393.601C1134.79 393.221 1150.81 393.093 1166.84 393.093" stroke="#C8C8C8" stroke-width="2" stroke-linecap="round"/>
<path d="M460.328 554.371C569.981 524.99 681.526 506.583 795.119 501.431C919.401 495.794 1044.78 512.842 1167.01 534.058C1215.81 542.528 1264.56 553.995 1313.89 558.941" stroke="#C8C8C8" stroke-width="2" stroke-linecap="round"/>
<path d="M475.807 581.59C500.088 581.59 524.197 575.989 548.562 575.262C601.244 573.69 654.348 574.453 707 576.453C782.286 579.312 857.087 589.885 931.349 602.014C981.407 610.19 1028.69 621.885 1073.06 646.433C1089.04 655.277 1105.1 662.102 1122.62 667.296" stroke="#C8C8C8" stroke-width="2" stroke-linecap="round"/>
<path d="M499.026 610.907C532.02 613.26 564.722 625.312 595.855 635.58C653.973 654.748 711.894 675.808 767.082 702.388C794.894 715.783 821.563 731.29 848.259 746.736C866.94 757.545 901.128 779.859 919 792C964 822.569 1031.48 888.734 1037 897" stroke="#C8C8C8" stroke-width="2" stroke-linecap="round"/>
<path d="M511 647C529.991 656.221 544.23 670.78 559.029 685.141C610.724 735.309 662.299 785.956 711.992 837.921C740.889 868.141 766.812 899.719 791.432 933.13C796.208 939.612 802.849 946.529 806 954" stroke="#C8C8C8" stroke-width="2" stroke-linecap="round"/>
<path d="M508.977 683.88C524.169 701.646 537.195 720.93 549.698 740.67C572.233 776.251 594.984 812.269 607.618 852.73C617.929 885.751 625.07 919.022 625.07 953.661" stroke="#C8C8C8" stroke-width="2" stroke-linecap="round"/>
<path d="M495.709 703.782C504.244 726.97 506.728 751.734 509.936 776.102C515.547 818.712 518.49 860.724 519.718 903.629C520.407 927.701 522.144 952.252 520.353 976.33C519.972 981.449 519.36 986.06 516.288 990.147" stroke="#C8C8C8" stroke-width="2" stroke-linecap="round"/>
<path d="M469.861 729.212C471.384 754.205 472.051 778.909 470.502 803.968C467.159 858.022 461.332 912.636 437.485 962.033C429.072 979.459 419.161 995.895 407.097 1011.07C404.937 1013.78 401.747 1016.67 400.622 1020" stroke="#C8C8C8" stroke-width="2" stroke-linecap="round"/>
<path d="M438.215 750.22C434.793 770.199 431.032 790.361 424.947 809.728C415.131 840.969 398.951 870.658 380.973 897.916C355.715 936.212 316.461 964.645 279 990.147" stroke="#C8C8C8" stroke-width="2" stroke-linecap="round"/>
<path d="M326.543 379.825C343.765 357.172 359.819 333.669 376.958 310.957C420.075 253.817 466.556 202.358 521.868 156.845C549.328 134.249 570.097 117.7 599.517 97.8785C631.596 76.2654 665.638 58.8647 699.966 41.2607C722.917 29.4907 745.328 17.3788 766.594 2.79614" stroke="#C8C8C8" stroke-width="2" stroke-linecap="round"/>
<path d="M312.17 344.444C326.427 322.098 339.294 298.917 352.721 276.069C378.534 232.145 405.511 189.774 437.177 149.774C473.433 103.976 511.007 59.0465 549.785 15.3678C558.833 5.17659 568.101 -7.20887 578.633 -16" stroke="#C8C8C8" stroke-width="2" stroke-linecap="round"/>
<path d="M290.057 296.901C319.651 237.53 345.841 177.201 370.14 115.499C384.94 77.9183 401.573 41.5111 424.947 8.32446" stroke="#C8C8C8" stroke-width="2" stroke-linecap="round"/>
<path d="M689.905 452.283L300.505 512.42C290.788 513.921 284.129 523.01 285.63 532.721L321.694 766.005C323.196 775.716 332.29 782.372 342.006 780.872L731.406 720.735C741.123 719.235 747.782 710.145 746.281 700.434L710.217 467.151C708.715 457.439 699.622 450.783 689.905 452.283Z" fill="#18181B"/>
<mask id="mask0_25_2256" style="mask-type:alpha" maskUnits="userSpaceOnUse" x="285" y="452" width="462" height="330">
<path d="M689.905 452.283L300.505 512.42C290.788 513.921 284.129 523.01 285.63 532.721L321.694 766.005C323.196 775.716 332.29 782.372 342.006 780.872L731.406 720.735C741.123 719.235 747.782 710.145 746.281 700.434L710.217 467.151C708.715 457.439 699.622 450.783 689.905 452.283Z" fill="white"/>
</mask>
<g mask="url(#mask0_25_2256)">
<g opacity="0.18">
<path d="M277.439 508.319L655.837 734.344" stroke="white" stroke-width="0.603704"/>
<path d="M271.938 511.569L650.336 737.594" stroke="white" stroke-width="0.603704"/>
<path d="M266.436 514.819L644.834 740.844" stroke="white" stroke-width="0.603704"/>
<path d="M260.933 518.068L639.331 744.094" stroke="white" stroke-width="0.603704"/>
<path d="M255.433 521.318L633.829 747.346" stroke="white" stroke-width="0.603704"/>
<path d="M249.928 524.568L628.327 750.595" stroke="white" stroke-width="0.603704"/>
<path d="M244.43 527.82L622.826 753.845" stroke="white" stroke-width="0.603704"/>
<path d="M238.927 531.07L617.325 757.095" stroke="white" stroke-width="0.603704"/>
<path d="M233.425 534.32L611.821 760.345" stroke="white" stroke-width="0.603704"/>
<path d="M227.922 537.57L606.32 763.597" stroke="white" stroke-width="0.603704"/>
<path d="M222.42 540.82L600.816 766.847" stroke="white" stroke-width="0.603704"/>
<path d="M216.917 544.069L595.315 770.097" stroke="white" stroke-width="0.603704"/>
<path d="M211.415 547.321L589.813 773.347" stroke="white" stroke-width="0.603704"/>
<path d="M205.914 550.571L584.312 776.596" stroke="white" stroke-width="0.603704"/>
<path d="M200.412 553.821L578.81 779.848" stroke="white" stroke-width="0.603704"/>
<path d="M194.909 557.071L573.307 783.098" stroke="white" stroke-width="0.603704"/>
<path d="M189.408 560.321L567.807 786.348" stroke="white" stroke-width="0.603704"/>
<path d="M183.905 563.573L562.302 789.598" stroke="white" stroke-width="0.603704"/>
<path d="M178.403 566.823L556.802 792.848" stroke="white" stroke-width="0.603704"/>
<path d="M172.901 570.072L551.299 796.1" stroke="white" stroke-width="0.603704"/>
<path d="M167.4 573.322L545.799 799.35" stroke="white" stroke-width="0.603704"/>
<path d="M161.898 576.572L540.296 802.599" stroke="white" stroke-width="0.603704"/>
<path d="M156.395 579.822L534.792 805.849" stroke="white" stroke-width="0.603704"/>
<path d="M150.894 583.074L529.291 809.099" stroke="white" stroke-width="0.603704"/>
<path d="M145.393 586.324L523.791 812.349" stroke="white" stroke-width="0.603704"/>
<path d="M139.89 589.574L518.288 815.601" stroke="white" stroke-width="0.603704"/>
<path d="M134.387 592.823L512.784 818.851" stroke="white" stroke-width="0.603704"/>
<path d="M128.886 596.073L507.283 822.101" stroke="white" stroke-width="0.603704"/>
<path d="M123.384 599.325L501.781 825.35" stroke="white" stroke-width="0.603704"/>
<path d="M117.883 602.575L496.28 828.6" stroke="white" stroke-width="0.603704"/>
<path d="M112.379 605.825L490.776 831.85" stroke="white" stroke-width="0.603704"/>
<path d="M284.296 506.059L662.694 732.085" stroke="white" stroke-width="0.603704"/>
<path d="M291.151 503.8L669.549 729.825" stroke="white" stroke-width="0.603704"/>
<path d="M298.01 501.54L676.408 727.567" stroke="white" stroke-width="0.603704"/>
<path d="M304.863 499.283L683.261 725.308" stroke="white" stroke-width="0.603704"/>
<path d="M311.72 497.023L690.118 723.048" stroke="white" stroke-width="0.603704"/>
<path d="M318.577 494.763L696.975 720.789" stroke="white" stroke-width="0.603704"/>
<path d="M325.432 492.504L703.83 718.531" stroke="white" stroke-width="0.603704"/>
<path d="M332.289 490.246L710.687 716.271" stroke="white" stroke-width="0.603704"/>
<path d="M339.144 487.987L717.542 714.012" stroke="white" stroke-width="0.603704"/>
<path d="M346.001 485.727L724.399 711.752" stroke="white" stroke-width="0.603704"/>
<path d="M352.856 483.467L731.254 709.495" stroke="white" stroke-width="0.603704"/>
<path d="M359.715 481.21L738.113 707.235" stroke="white" stroke-width="0.603704"/>
<path d="M366.57 478.95L744.968 704.975" stroke="white" stroke-width="0.603704"/>
<path d="M373.425 476.691L751.823 702.716" stroke="white" stroke-width="0.603704"/>
<path d="M380.282 474.431L758.68 700.458" stroke="white" stroke-width="0.603704"/>
<path d="M387.139 472.173L765.535 698.199" stroke="white" stroke-width="0.603704"/>
<path d="M393.992 469.914L772.39 695.939" stroke="white" stroke-width="0.603704"/>
<path d="M400.849 467.654L779.247 693.682" stroke="white" stroke-width="0.603704"/>
<path d="M407.706 465.395L786.104 691.422" stroke="white" stroke-width="0.603704"/>
<path d="M414.563 463.137L792.961 689.162" stroke="white" stroke-width="0.603704"/>
<path d="M421.418 460.877L799.816 686.903" stroke="white" stroke-width="0.603704"/>
<path d="M428.275 458.618L806.673 684.645" stroke="white" stroke-width="0.603704"/>
<path d="M435.13 456.358L813.528 682.386" stroke="white" stroke-width="0.603704"/>
</g>
<path d="M689.905 452.283L300.505 512.42C290.788 513.921 284.129 523.01 285.63 532.721L321.694 766.005C323.196 775.716 332.29 782.372 342.006 780.872L731.406 720.735C741.123 719.235 747.782 710.145 746.281 700.434L710.217 467.151C708.715 457.439 699.622 450.783 689.905 452.283Z" fill="url(#paint0_linear_25_2256)"/>
<g filter="url(#filter0_f_25_2256)">
<path d="M275.003 603.594C333.302 594.591 373.261 540.056 364.253 481.787C355.244 423.518 300.681 383.58 242.382 392.584C184.082 401.587 144.124 456.122 153.132 514.391C162.14 572.66 216.704 612.598 275.003 603.594Z" fill="#B4C9FF"/>
</g>
<g filter="url(#filter1_f_25_2256)">
<path d="M826.983 885.952C885.282 876.948 925.24 822.413 916.232 764.144C907.224 705.875 852.661 665.938 794.362 674.941C736.062 683.944 696.104 738.479 705.112 796.748C714.12 855.017 768.683 894.955 826.983 885.952Z" fill="white"/>
</g>
</g>
<path d="M398.786 643.234L393.846 611.272C393.209 607.155 388.538 604.448 383.431 605.235L337.443 612.338C332.336 613.126 328.699 617.119 329.336 621.233L334.278 653.196C334.913 657.312 339.586 660.018 344.693 659.23L390.681 652.127C395.787 651.337 399.423 647.35 398.786 643.234ZM344.601 658.63C339.902 659.355 335.605 656.866 335.019 653.082L330.079 621.119C329.493 617.333 332.839 613.663 337.536 612.938L383.525 605.835C388.22 605.11 392.517 607.599 393.103 611.387L398.043 643.348C398.629 647.132 395.283 650.802 390.589 651.527L344.601 658.63Z" fill="#3F3F46"/>
<path d="M390.593 651.527L344.605 658.63C342.346 658.978 340.07 658.589 338.273 657.55C336.476 656.51 335.308 654.903 335.025 653.084L330.083 621.119C329.497 617.333 332.843 613.663 337.54 612.938L383.527 605.835C388.224 605.11 392.521 607.599 393.105 611.387L398.047 643.35C398.631 647.132 395.287 650.802 390.593 651.527Z" fill="url(#paint1_linear_25_2256)"/>
<path d="M333.563 647.745L333.47 647.148L354.647 643.876C356.05 643.658 357.326 643 358.195 642.047C359.064 641.094 359.453 639.923 359.28 638.793L357.523 627.423C357.346 626.291 356.62 625.293 355.504 624.646C354.389 624 352.974 623.758 351.57 623.972L330.394 627.244L330.301 626.645L351.478 623.375C353.078 623.129 354.692 623.405 355.964 624.141C357.236 624.88 358.063 626.018 358.266 627.309L360.023 638.677C360.22 639.968 359.776 641.302 358.785 642.389C357.794 643.477 356.339 644.226 354.739 644.476L333.563 647.745Z" fill="#383335"/>
<path d="M372.318 636.779L370.56 625.409C370.364 624.12 370.808 622.784 371.799 621.697C372.79 620.61 374.244 619.86 375.845 619.61L394.652 616.706L394.747 617.306L375.937 620.21C374.533 620.428 373.258 621.086 372.389 622.039C371.52 622.992 371.13 624.163 371.303 625.295L373.061 636.663C373.238 637.795 373.963 638.793 375.08 639.44C376.197 640.086 377.61 640.33 379.014 640.114L397.823 637.21L397.916 637.807L379.108 640.713C377.506 640.959 375.892 640.681 374.62 639.945C373.348 639.208 372.52 638.068 372.318 636.779Z" fill="#383335"/>
<path d="M371.06 626.181L370.967 625.583L357.93 627.596L358.022 628.195L371.06 626.181Z" fill="#383335"/>
<path d="M372.654 636.49L372.562 635.891L359.524 637.905L359.616 638.504L372.654 636.49Z" fill="#383335"/>
<path d="M352.25 657.756L350.257 644.861L349.514 644.977L351.507 657.87L352.25 657.756Z" fill="#383335"/>
<path d="M347.088 624.359L345.094 611.464L344.351 611.578L346.345 624.473L347.088 624.359Z" fill="#383335"/>
<path d="M385.155 652.675L383.162 639.78L382.419 639.894L384.412 652.789L385.155 652.675Z" fill="#383335"/>
<path d="M379.993 619.278L377.999 606.383L377.256 606.497L379.25 619.392L379.993 619.278Z" fill="#383335"/>
<path d="M396.001 627.664L395.908 627.067L371.773 630.794L371.866 631.392L396.001 627.664Z" fill="#383335"/>
<path d="M358.592 633.443L358.5 632.844L331.888 636.954L331.98 637.551L358.592 633.443Z" fill="#383335"/>
<path d="M659.9 702.054L651.475 703.066L649.403 665.578L657.828 664.568L659.9 702.054ZM637.049 667.06L634.063 693.371L632.026 688.027L632.028 688.029L625.893 671.795C625.893 671.795 624.888 668.518 621.236 668.956L607.956 670.547L607.925 671.19C607.925 671.19 612.177 671.665 617.575 674.345L631.271 705.488L640.051 704.435L646.116 665.973L637.049 667.06ZM710.657 695.969L718.393 695.041L704.31 658.994L697.537 659.805C694.409 660.181 694.195 663.018 694.195 663.018L688.419 698.635L697.203 697.582L697.869 691.897L708.58 690.612L710.657 695.969ZM698.789 684.044L700.47 669.72L705.707 683.215L698.789 684.044ZM683.505 670.563L683.131 662.505C683.131 662.505 679.101 661.344 675.234 661.808C671.053 662.309 661.538 665.58 663.553 675.699C665.448 685.221 677.125 683.942 678.122 688.942C679.117 693.945 668.487 694.302 664.408 691.561L664.803 699.987C664.803 699.987 668.981 701.618 674.729 700.928C680.477 700.238 688.476 695.807 686.64 686.58C684.731 676.998 672.797 677.515 671.967 673.349C671.137 669.182 679.449 668.734 683.505 670.563Z" fill="white"/>
<path d="M631.24 689.066L626.042 674.644C626.042 674.644 625.232 671.72 621.495 672.298L607.921 674.394L607.848 674.978C607.848 674.978 614.581 675.322 621.623 679.421C628.356 683.336 631.24 689.066 631.24 689.066Z" fill="#E6A540"/>
<path d="M345.769 724.18L345.519 722.569L346.073 722.482C346.486 722.419 346.795 722.252 346.999 721.983C347.212 721.704 347.288 721.366 347.227 720.971L346.191 714.279L347.959 714.006L348.985 720.633C349.075 721.227 349.028 721.767 348.839 722.252C348.659 722.74 348.35 723.143 347.915 723.465C347.491 723.787 346.96 723.995 346.323 724.094L345.769 724.18ZM352.431 723.15L350.947 713.544L357.332 712.558L357.572 714.104L352.94 714.821L353.322 717.283L357.694 716.607L357.934 718.156L353.559 718.832L353.947 721.333L358.578 720.618L358.818 722.164L352.431 723.15ZM364.734 721.41C364.122 721.504 363.538 721.48 362.978 721.337C362.428 721.193 361.932 720.954 361.494 720.616C361.061 720.27 360.717 719.842 360.464 719.337L361.824 718.48C362.141 718.993 362.544 719.376 363.031 719.625C363.517 719.867 364.036 719.946 364.586 719.861C364.897 719.814 365.154 719.726 365.365 719.596C365.581 719.456 365.736 719.291 365.829 719.101C365.933 718.91 365.964 718.694 365.927 718.452C365.884 718.17 365.762 717.949 365.561 717.796C365.369 717.631 365.097 717.525 364.745 717.474L362.809 717.165C362.025 717.048 361.407 716.786 360.957 716.381C360.507 715.975 360.234 715.458 360.137 714.831C360.051 714.281 360.11 713.774 360.31 713.312C360.521 712.849 360.849 712.464 361.295 712.157C361.747 711.841 362.288 711.634 362.917 711.536C363.493 711.448 364.038 711.469 364.551 711.601C365.064 711.725 365.52 711.941 365.919 712.247C366.326 712.546 366.652 712.923 366.9 713.377L365.553 714.246C365.29 713.794 364.95 713.468 364.531 713.267C364.112 713.061 363.652 712.994 363.153 713.071C362.862 713.116 362.61 713.208 362.404 713.346C362.194 713.475 362.038 713.64 361.938 713.841C361.844 714.031 361.816 714.246 361.854 714.487C361.895 714.753 362.017 714.977 362.221 715.157C362.424 715.328 362.711 715.442 363.08 715.499L364.932 715.78C365.736 715.912 366.361 716.167 366.808 716.547C367.264 716.926 367.541 717.437 367.641 718.083C367.726 718.633 367.659 719.14 367.441 719.606C367.22 720.069 366.88 720.462 366.418 720.779C365.958 721.097 365.396 721.307 364.734 721.41ZM374.26 719.938C373.649 720.032 373.063 720.009 372.505 719.865C371.954 719.722 371.459 719.482 371.018 719.144C370.588 718.798 370.244 718.372 369.988 717.865L371.349 717.008C371.667 717.523 372.07 717.904 372.558 718.156C373.043 718.397 373.562 718.474 374.113 718.39C374.421 718.342 374.681 718.254 374.891 718.124C375.107 717.985 375.263 717.82 375.355 717.631C375.457 717.439 375.491 717.222 375.453 716.981C375.41 716.698 375.288 716.48 375.088 716.324C374.895 716.161 374.624 716.053 374.272 716.002L372.336 715.694C371.551 715.578 370.934 715.317 370.484 714.91C370.034 714.505 369.76 713.988 369.662 713.36C369.577 712.809 369.636 712.304 369.837 711.841C370.047 711.377 370.376 710.992 370.822 710.685C371.274 710.369 371.815 710.163 372.442 710.066C373.02 709.976 373.564 709.998 374.077 710.129C374.59 710.253 375.047 710.469 375.446 710.778C375.853 711.074 376.179 711.452 376.427 711.906L375.08 712.774C374.817 712.322 374.476 711.996 374.058 711.797C373.637 711.589 373.179 711.522 372.68 711.601C372.387 711.646 372.137 711.737 371.931 711.874C371.72 712.004 371.565 712.169 371.465 712.369C371.37 712.56 371.343 712.776 371.38 713.016C371.421 713.283 371.543 713.505 371.748 713.686C371.95 713.857 372.235 713.971 372.607 714.028L374.459 714.309C375.263 714.44 375.888 714.696 376.334 715.077C376.79 715.454 377.067 715.967 377.166 716.611C377.252 717.162 377.185 717.668 376.965 718.134C376.747 718.6 376.407 718.991 375.945 719.309C375.483 719.625 374.923 719.836 374.26 719.938ZM380.331 718.841L378.845 709.235L385.232 708.249L385.47 709.797L380.838 710.512L381.219 712.974L385.593 712.3L385.833 713.847L381.459 714.523L381.845 717.024L386.476 716.309L386.716 717.857L380.331 718.841ZM397.401 716.364C396.695 716.474 396.019 716.45 395.37 716.295C394.719 716.14 394.133 715.875 393.608 715.497C393.083 715.122 392.645 714.652 392.293 714.09C391.949 713.519 391.723 712.88 391.615 712.175C391.505 711.461 391.526 710.784 391.684 710.145C391.839 709.504 392.112 708.925 392.498 708.408C392.885 707.889 393.365 707.465 393.939 707.129C394.511 706.785 395.154 706.559 395.867 706.449C396.581 706.337 397.263 706.361 397.912 706.516C398.562 706.671 399.148 706.936 399.673 707.314C400.198 707.681 400.63 708.147 400.973 708.709C401.324 709.271 401.554 709.909 401.665 710.622C401.775 711.328 401.747 712.006 401.582 712.656C401.419 713.297 401.142 713.876 400.754 714.395C400.369 714.912 399.889 715.342 399.317 715.686C398.753 716.028 398.114 716.254 397.401 716.364ZM397.153 714.766C397.627 714.692 398.049 714.544 398.419 714.318C398.788 714.087 399.095 713.796 399.341 713.45C399.596 713.104 399.769 712.711 399.86 712.275C399.96 711.837 399.972 711.377 399.897 710.896C399.823 710.414 399.673 709.984 399.447 709.605C399.229 709.218 398.946 708.895 398.598 708.64C398.258 708.377 397.876 708.194 397.456 708.092C397.035 707.99 396.589 707.974 396.115 708.047C395.651 708.119 395.232 708.267 394.863 708.491C394.493 708.717 394.18 709.005 393.927 709.363C393.681 709.709 393.508 710.1 393.41 710.538C393.308 710.966 393.294 711.422 393.369 711.904C393.443 712.385 393.595 712.819 393.821 713.206C394.049 713.595 394.332 713.916 394.67 714.171C395.018 714.426 395.403 714.609 395.826 714.719C396.247 714.821 396.689 714.837 397.153 714.766ZM405.142 715.01L403.656 705.404L407.23 704.852C407.885 704.751 408.478 704.783 409.015 704.946C409.558 705.099 410.008 705.382 410.362 705.795C410.713 706.198 410.942 706.722 411.04 707.367C411.142 708.029 411.071 708.616 410.824 709.129C410.586 709.642 410.218 710.051 409.719 710.355L412.522 713.87L410.535 714.177L407.521 710.326L408.761 710.821L406.347 711.194L406.896 714.739L405.142 715.01ZM406.109 709.646L407.953 709.361C408.272 709.312 408.537 709.21 408.752 709.053C408.964 708.887 409.117 708.685 409.212 708.442C409.306 708.198 409.331 707.929 409.286 707.638C409.239 707.337 409.135 707.088 408.972 706.893C408.809 706.689 408.602 706.545 408.35 706.461C408.099 706.369 407.814 706.347 407.495 706.396L405.649 706.681L406.109 709.646ZM419.603 712.935C418.897 713.045 418.221 713.022 417.57 712.866C416.922 712.711 416.336 712.446 415.811 712.069C415.286 711.693 414.848 711.224 414.496 710.662C414.152 710.09 413.926 709.451 413.818 708.746C413.708 708.033 413.729 707.355 413.886 706.716C414.042 706.076 414.315 705.496 414.7 704.979C415.088 704.461 415.567 704.034 416.141 703.7C416.713 703.356 417.356 703.13 418.07 703.018C418.783 702.908 419.466 702.932 420.114 703.087C420.765 703.242 421.351 703.508 421.876 703.883C422.401 704.252 422.833 704.718 423.175 705.28C423.527 705.842 423.757 706.481 423.867 707.194C423.977 707.899 423.95 708.577 423.785 709.227C423.619 709.868 423.344 710.448 422.957 710.964C422.572 711.483 422.092 711.913 421.52 712.257C420.956 712.599 420.317 712.825 419.603 712.935ZM419.355 711.338C419.829 711.263 420.25 711.116 420.622 710.89C420.991 710.658 421.298 710.367 421.543 710.021C421.799 709.675 421.97 709.282 422.062 708.846C422.161 708.408 422.175 707.948 422.1 707.467C422.025 706.986 421.876 706.555 421.65 706.176C421.431 705.787 421.148 705.467 420.8 705.211C420.46 704.948 420.079 704.765 419.658 704.663C419.238 704.559 418.791 704.545 418.318 704.618C417.854 704.691 417.435 704.838 417.065 705.062C416.696 705.288 416.383 705.577 416.129 705.932C415.884 706.28 415.711 706.671 415.61 707.109C415.51 707.538 415.496 707.994 415.571 708.475C415.646 708.956 415.797 709.391 416.023 709.778C416.251 710.167 416.534 710.487 416.873 710.742C417.221 710.998 417.606 711.18 418.029 711.291C418.449 711.393 418.892 711.408 419.355 711.338ZM430.801 711.206C430.189 711.3 429.604 711.277 429.045 711.133C428.495 710.99 427.999 710.75 427.559 710.412C427.127 710.066 426.785 709.64 426.529 709.133L427.889 708.276C428.208 708.791 428.609 709.172 429.098 709.424C429.584 709.666 430.103 709.742 430.653 709.658C430.962 709.611 431.222 709.522 431.432 709.392C431.648 709.253 431.801 709.09 431.896 708.899C431.998 708.707 432.031 708.491 431.994 708.249C431.951 707.966 431.829 707.748 431.628 707.593C431.436 707.43 431.165 707.322 430.813 707.27L428.876 706.962C428.092 706.846 427.475 706.585 427.024 706.178C426.574 705.773 426.301 705.256 426.203 704.628C426.118 704.078 426.177 703.573 426.378 703.109C426.588 702.645 426.916 702.26 427.363 701.954C427.815 701.637 428.355 701.431 428.982 701.335C429.558 701.244 430.105 701.266 430.618 701.399C431.129 701.521 431.585 701.737 431.986 702.046C432.393 702.343 432.72 702.72 432.967 703.174L431.621 704.042C431.357 703.59 431.017 703.264 430.598 703.066C430.178 702.857 429.72 702.793 429.22 702.869C428.927 702.914 428.678 703.005 428.469 703.142C428.261 703.272 428.106 703.437 428.005 703.637C427.911 703.828 427.883 704.044 427.921 704.284C427.962 704.551 428.084 704.773 428.288 704.954C428.491 705.125 428.776 705.239 429.146 705.296L430.999 705.577C431.803 705.708 432.429 705.964 432.875 706.345C433.329 706.722 433.608 707.235 433.706 707.88C433.791 708.43 433.726 708.937 433.506 709.402C433.288 709.868 432.948 710.259 432.486 710.577C432.024 710.894 431.461 711.104 430.801 711.206ZM436.122 710.226L435.908 708.846L439.533 701.447L435.147 702.124L434.908 700.578L441.527 699.554L441.739 700.936L438.128 708.331L442.901 707.595L443.141 709.143L436.122 710.226Z" fill="white"/>
<path opacity="0.5" d="M349.818 747.56L348.332 737.954L351.906 737.401C352.561 737.301 353.154 737.331 353.691 737.496C354.234 737.649 354.684 737.932 355.038 738.345C355.39 738.747 355.618 739.27 355.716 739.916C355.818 740.577 355.748 741.166 355.5 741.679C355.262 742.19 354.894 742.6 354.395 742.905L357.198 746.42L355.211 746.727L352.197 742.876L353.438 743.371L351.023 743.742L351.572 747.289L349.818 747.56ZM350.786 742.196L352.63 741.911C352.948 741.862 353.213 741.76 353.428 741.602C353.64 741.437 353.793 741.233 353.888 740.989C353.982 740.748 354.008 740.478 353.962 740.186C353.915 739.885 353.811 739.637 353.648 739.443C353.485 739.239 353.278 739.095 353.027 739.011C352.775 738.918 352.49 738.895 352.172 738.944L350.328 739.229L350.786 742.196ZM359.52 746.063L358.036 736.454L364.421 735.468L364.661 737.016L360.029 737.732L360.411 740.193L364.785 739.52L365.023 741.066L360.648 741.742L361.036 744.243L365.667 743.528L365.907 745.076L359.52 746.063ZM370.159 744.418L366.094 735.211L367.977 734.92L371.27 742.795L370.779 742.87L371.63 734.356L373.448 734.075L376.818 741.938L376.326 742.013L377.087 733.513L378.97 733.222L377.875 743.227L375.862 743.538L372.501 735.898L373.069 735.81L372.172 744.107L370.159 744.418ZM381.39 742.685L383.221 732.566L385.491 732.214L390.292 741.31L388.383 741.604L387.38 739.647L383.663 740.221L383.286 742.392L381.39 742.685ZM383.928 738.596L386.637 738.178L384.298 733.641L384.787 733.564L383.928 738.596ZM392.535 740.964L391.049 731.356L394.623 730.803C395.277 730.703 395.871 730.735 396.408 730.898C396.95 731.053 397.401 731.336 397.754 731.747C398.106 732.149 398.334 732.674 398.433 733.318C398.535 733.981 398.464 734.568 398.216 735.081C397.978 735.594 397.611 736.002 397.112 736.309L399.915 739.824L397.927 740.131L394.914 736.278L396.154 736.773L393.74 737.146L394.289 740.693L392.535 740.964ZM393.502 735.598L395.346 735.313C395.665 735.264 395.93 735.162 396.144 735.006C396.357 734.841 396.51 734.637 396.604 734.393C396.699 734.15 396.724 733.882 396.679 733.59C396.632 733.289 396.528 733.041 396.365 732.845C396.201 732.643 395.995 732.499 395.743 732.415C395.492 732.32 395.207 732.299 394.888 732.348L393.044 732.633L393.502 735.598ZM402.237 739.465L400.752 729.858L403.888 729.373C404.902 729.218 405.816 729.287 406.628 729.583C407.446 729.872 408.119 730.344 408.643 731.002C409.166 731.652 409.501 732.45 409.648 733.395C409.791 734.332 409.715 735.199 409.414 735.993C409.113 736.779 408.616 737.437 407.924 737.965C407.238 738.486 406.387 738.824 405.372 738.981L402.237 739.465ZM403.752 737.647L405.172 737.427C405.826 737.327 406.369 737.107 406.799 736.767C407.24 736.417 407.554 735.981 407.747 735.458C407.938 734.928 407.983 734.33 407.881 733.668C407.776 732.998 407.554 732.442 407.212 732.002C406.872 731.562 406.44 731.246 405.917 731.053C405.404 730.86 404.818 730.813 404.165 730.915L402.746 731.134L403.752 737.647ZM416.416 737.433C415.805 737.527 415.221 737.504 414.661 737.36C414.111 737.217 413.615 736.977 413.177 736.639C412.744 736.293 412.4 735.867 412.147 735.36L413.507 734.503C413.823 735.018 414.226 735.399 414.714 735.651C415.2 735.892 415.719 735.969 416.269 735.885C416.58 735.837 416.839 735.749 417.048 735.619C417.264 735.48 417.419 735.317 417.513 735.126C417.616 734.934 417.647 734.717 417.61 734.476C417.567 734.193 417.445 733.975 417.244 733.82C417.051 733.656 416.78 733.548 416.428 733.497L414.492 733.189C413.708 733.073 413.09 732.812 412.64 732.405C412.19 732 411.917 731.483 411.82 730.855C411.734 730.304 411.793 729.799 411.993 729.336C412.204 728.872 412.532 728.487 412.978 728.18C413.43 727.864 413.971 727.658 414.6 727.561C415.176 727.471 415.721 727.493 416.234 727.626C416.747 727.748 417.203 727.964 417.602 728.273C418.009 728.569 418.337 728.947 418.583 729.401L417.238 730.269C416.973 729.817 416.633 729.491 416.214 729.293C415.795 729.084 415.335 729.019 414.836 729.096C414.545 729.141 414.293 729.232 414.087 729.369C413.877 729.499 413.723 729.664 413.621 729.864C413.527 730.055 413.499 730.271 413.536 730.511C413.578 730.778 413.7 731 413.904 731.181C414.107 731.352 414.394 731.466 414.763 731.523L416.617 731.804C417.421 731.935 418.044 732.191 418.49 732.572C418.947 732.949 419.224 733.462 419.324 734.106C419.409 734.657 419.342 735.163 419.124 735.629C418.903 736.095 418.563 736.486 418.101 736.804C417.641 737.121 417.079 737.331 416.416 737.433ZM427.026 735.794C426.338 735.9 425.682 735.875 425.058 735.716C424.445 735.556 423.883 735.285 423.376 734.906C422.876 734.525 422.46 734.053 422.125 733.489C421.791 732.924 421.569 732.285 421.459 731.572C421.349 730.858 421.363 730.183 421.502 729.544C421.65 728.898 421.903 728.322 422.265 727.817C422.635 727.302 423.095 726.878 423.641 726.548C424.188 726.208 424.805 725.986 425.493 725.88C426.181 725.771 426.814 725.793 427.392 725.942C427.978 726.09 428.491 726.328 428.929 726.656C429.366 726.974 429.702 727.349 429.936 727.78L428.475 728.758C428.22 728.304 427.854 727.956 427.376 727.713C426.897 727.461 426.352 727.383 425.741 727.477C425.139 727.571 424.628 727.795 424.207 728.151C423.794 728.505 423.498 728.951 423.317 729.489C423.144 730.025 423.11 730.631 423.214 731.301C423.317 731.971 423.533 732.54 423.861 733.01C424.195 733.468 424.614 733.804 425.114 734.018C425.623 734.23 426.177 734.289 426.779 734.197C427.39 734.102 427.885 733.867 428.269 733.491C428.65 733.106 428.892 732.658 428.998 732.149L430.687 732.643C430.594 733.122 430.388 733.586 430.07 734.032C429.749 734.468 429.332 734.845 428.817 735.162C428.312 735.478 427.714 735.688 427.026 735.794ZM438.191 734.071C437.502 734.177 436.846 734.152 436.223 733.992C435.609 733.831 435.047 733.562 434.54 733.183C434.041 732.802 433.624 732.328 433.29 731.764C432.955 731.2 432.733 730.562 432.623 729.847C432.513 729.133 432.527 728.457 432.666 727.821C432.814 727.172 433.067 726.597 433.429 726.092C433.799 725.577 434.259 725.154 434.805 724.822C435.352 724.484 435.969 724.26 436.657 724.154C437.345 724.048 437.978 724.07 438.556 724.217C439.142 724.365 439.655 724.602 440.094 724.931C440.53 725.251 440.866 725.626 441.1 726.056L439.639 727.035C439.384 726.581 439.018 726.233 438.54 725.99C438.061 725.738 437.516 725.659 436.905 725.754C436.303 725.846 435.792 726.07 435.372 726.426C434.959 726.779 434.662 727.225 434.481 727.766C434.308 728.302 434.275 728.905 434.379 729.575C434.481 730.247 434.697 730.817 435.025 731.285C435.36 731.745 435.778 732.081 436.278 732.293C436.787 732.505 437.341 732.564 437.943 732.472C438.554 732.377 439.05 732.142 439.433 731.766C439.814 731.381 440.056 730.935 440.162 730.426L441.851 730.917C441.759 731.399 441.552 731.863 441.234 732.307C440.913 732.743 440.497 733.12 439.981 733.438C439.476 733.753 438.879 733.965 438.191 734.071ZM444.027 733.01L445.859 722.891L448.13 722.541L452.931 731.637L451.022 731.931L450.017 729.972L446.302 730.548L445.924 732.717L444.027 733.01ZM446.567 728.921L449.276 728.503L446.937 723.966L447.426 723.891L446.567 728.921ZM455.174 731.289L453.688 721.683L457.275 721.129C457.928 721.028 458.524 721.06 459.058 721.223C459.603 721.376 460.051 721.659 460.405 722.072C460.759 722.474 460.985 722.999 461.085 723.644C461.184 724.28 461.121 724.848 460.898 725.349C460.684 725.84 460.346 726.243 459.884 726.561C459.422 726.88 458.866 727.088 458.211 727.19L456.379 727.473L456.927 731.02L455.174 731.289ZM456.141 725.925L457.999 725.638C458.317 725.589 458.583 725.487 458.795 725.329C459.007 725.166 459.161 724.962 459.257 724.718C459.351 724.475 459.375 724.206 459.33 723.915C459.282 723.614 459.178 723.364 459.017 723.17C458.854 722.968 458.646 722.822 458.396 722.738C458.142 722.645 457.857 722.624 457.539 722.673L455.681 722.96L456.141 725.925ZM464.712 729.817L463.226 720.209L464.982 719.938L466.466 729.546L464.712 729.817Z" fill="white"/>
<mask id="mask1_25_2256" style="mask-type:luminance" maskUnits="userSpaceOnUse" x="518" y="455" width="185" height="98">
<path d="M691.905 455.869L518.992 482.562L529.826 552.669L702.739 525.976L691.905 455.869Z" fill="white"/>
</mask>
<g mask="url(#mask1_25_2256)">
<path d="M537.322 505.992C536.292 506.152 535.49 506.959 534.916 508.415C534.344 509.871 534.198 511.518 534.483 513.353L536.211 524.539L539.176 524.081L539.292 524.833L526.262 526.843L526.146 526.093L528.444 525.739L525.605 507.374L523.309 507.727L523.193 506.977L533.257 505.423L533.876 509.429C534.019 507.955 534.546 506.763 535.46 505.853C536.371 504.914 537.479 504.344 538.789 504.141C540.096 503.939 541.212 504.151 542.136 504.778C543.084 505.373 543.662 506.352 543.872 507.716C544.079 509.052 543.931 510.128 543.432 510.946C542.931 511.765 542.04 512.272 540.758 512.471C539.506 512.663 538.509 512.39 537.768 511.649C537.055 510.905 536.807 509.761 537.023 508.217L538.527 507.985C539.003 506.458 538.602 505.794 537.322 505.992ZM558.109 522.356C554.518 522.91 551.675 522.409 549.581 520.851C547.511 519.263 546.223 516.825 545.716 513.541C545.203 510.231 545.815 507.545 547.548 505.482C549.31 503.414 551.75 502.141 554.867 501.66C561.188 500.683 564.713 503.387 565.442 509.771L553.666 511.588L553.918 513.217C554.339 515.942 555.005 517.949 555.915 519.232C556.827 520.517 558.145 521.025 559.871 520.758C563.101 520.259 564.95 518.208 565.418 514.602L566.191 514.612C565.971 516.697 565.251 518.404 564.03 519.733C562.839 521.055 560.865 521.929 558.109 522.356ZM553.578 510.747L557.879 510.083L557.565 508.038C557.215 505.784 556.839 504.275 556.436 503.511C556.057 502.715 555.463 502.379 554.657 502.505C553.877 502.625 553.362 503.159 553.108 504.11C552.88 505.03 552.931 506.56 553.263 508.702L553.578 510.747ZM578.983 499.133L578.867 498.382L589.642 496.718L589.758 497.471L588.046 497.734L593.979 511.221L595.52 496.581L592.64 497.025L592.524 496.274L598.16 495.404L598.276 496.154L596.522 496.426L594.466 516.316L588.745 517.198L583.131 504.945L581.187 518.365L575.59 519.23L566.456 501.066L564.577 501.357L564.461 500.607L577.113 498.654L577.229 499.404L574.725 499.791L580.76 513.388L582.256 503.157L580.528 498.895L578.983 499.133ZM609.521 503.949L610.732 503.762L610.236 500.548C609.828 497.905 609.401 496.162 608.957 495.317C608.538 494.443 607.909 494.07 607.075 494.199C606.574 494.276 606.136 494.486 605.76 494.828C605.41 495.139 605.271 495.531 605.343 496.005C605.412 496.449 605.568 496.895 605.807 497.343L606.851 497.182C607.164 497.732 607.386 498.424 607.514 499.259C607.64 500.066 607.4 500.829 606.8 501.548C606.195 502.24 605.361 502.668 604.303 502.831C601.909 503.2 600.535 502.232 600.177 499.921C599.648 496.498 602.292 494.339 608.111 493.441C611.424 492.928 613.795 493.146 615.224 494.095C616.677 495.009 617.636 496.97 618.1 499.976L619.409 508.448C619.633 509.895 620.148 510.557 620.956 510.431C621.902 510.286 622.238 508.767 621.963 505.874L622.594 505.819C622.861 508.285 622.663 510.04 621.996 511.083C621.332 512.125 620.08 512.789 618.243 513.072C614.901 513.589 612.822 512.856 612.002 510.873C611.805 511.987 611.383 512.85 610.736 513.463C610.089 514.074 609.071 514.488 607.677 514.703C603.558 515.339 601.237 513.974 600.716 510.608C600.411 508.631 600.983 507.161 602.43 506.197C603.9 505.201 606.265 504.452 609.521 503.949ZM608.644 509.34C608.868 510.787 609.082 511.708 609.285 512.105C609.517 512.496 609.841 512.659 610.26 512.596C610.704 512.527 611.054 512.117 611.31 511.364C611.587 510.582 611.63 509.564 611.436 508.311L610.836 504.43L610.543 504.476C608.817 504.741 608.151 506.14 608.542 508.672L608.644 509.34ZM635.319 490.865C634.289 491.024 633.487 491.832 632.915 493.288C632.341 494.744 632.195 496.388 632.48 498.225L634.208 509.411L637.173 508.953L637.289 509.704L624.261 511.716L624.145 510.965L626.441 510.61L623.602 492.246L621.306 492.6L621.19 491.849L631.254 490.295L631.873 494.301C632.016 492.828 632.545 491.635 633.459 490.723C634.368 489.786 635.476 489.216 636.786 489.014C638.095 488.812 639.21 489.024 640.134 489.651C641.081 490.246 641.659 491.225 641.869 492.588C642.076 493.924 641.93 495.001 641.429 495.818C640.928 496.636 640.037 497.145 638.757 497.341C637.503 497.536 636.506 497.263 635.765 496.522C635.052 495.777 634.804 494.634 635.02 493.089L636.524 492.857C637.002 491.331 636.599 490.667 635.319 490.865ZM657.001 495.331C656.977 495.182 656.932 494.883 656.861 494.435C656.79 493.973 656.696 493.453 656.578 492.871C656.46 492.278 656.315 491.655 656.144 490.999C655.973 490.344 655.768 489.741 655.53 489.195C655.139 488.823 654.714 488.507 654.256 488.244C653.81 487.965 653.273 487.874 652.648 487.971C651.589 488.134 650.912 488.947 650.625 490.411C650.35 491.873 650.437 494.056 650.885 496.964C651.083 498.241 651.317 499.402 651.591 500.444C651.876 501.485 652.194 502.369 652.542 503.094C652.904 503.817 653.301 504.36 653.734 504.725C654.18 505.087 654.661 505.228 655.178 505.149C657.353 504.813 657.96 501.54 657.001 495.331ZM655.371 486.403C654.901 485.084 654.347 483.876 653.704 482.778C653.059 481.667 652.344 480.734 651.559 479.98C650.789 479.221 649.951 478.663 649.045 478.302C648.154 477.938 647.232 477.83 646.281 477.977C645.738 478.062 645.253 478.205 644.824 478.412C644.411 478.614 644.055 478.836 643.759 479.076C643.46 479.304 643.214 479.522 643.023 479.732C642.846 479.927 642.715 480.072 642.632 480.168L641.991 479.538C642.253 479.066 642.587 478.61 642.992 478.172C643.411 477.732 643.879 477.339 644.397 476.995C644.915 476.651 645.467 476.356 646.057 476.113C646.658 475.867 647.266 475.696 647.877 475.602C649.888 475.291 651.724 475.46 653.384 476.109C655.041 476.744 656.501 477.783 657.769 479.229C659.037 480.675 660.103 482.493 660.97 484.682C661.839 486.87 662.486 489.352 662.914 492.124C663.26 494.364 663.335 496.37 663.134 498.141C662.948 499.909 662.523 501.434 661.858 502.719C661.192 503.99 660.3 505.012 659.179 505.782C658.072 506.539 656.763 507.032 655.253 507.266C654.207 507.427 653.112 507.409 651.968 507.209C650.836 506.994 649.762 506.535 648.748 505.829C647.747 505.12 646.865 504.13 646.096 502.856C645.327 501.571 644.789 499.937 644.482 497.952C644.219 496.241 644.221 494.683 644.492 493.278C644.775 491.871 645.255 490.649 645.929 489.613C646.601 488.562 647.439 487.717 648.439 487.075C649.438 486.42 650.535 486.002 651.73 485.817C652.192 485.745 652.613 485.721 652.994 485.746C653.372 485.758 653.704 485.798 653.993 485.864C654.282 485.931 654.538 486.016 654.764 486.12C654.986 486.21 655.188 486.305 655.371 486.403ZM668.106 505.375L666.952 497.903L667.453 497.826C668.55 500.135 669.787 501.681 671.163 502.467C672.537 503.251 674.145 503.503 675.981 503.22C678.822 502.78 680.102 501.658 679.823 499.848C679.701 499.07 679.262 498.54 678.507 498.257C677.326 497.813 675.861 497.553 674.112 497.483C672.142 497.274 670.451 496.85 669.042 496.213C667.355 495.449 666.345 493.981 666.01 491.81C665.674 489.639 666.075 487.812 667.214 486.324C668.348 484.811 670.029 483.882 672.256 483.538C673.62 483.328 675.077 483.43 676.622 483.846C677.186 483.988 677.607 484.037 677.884 483.994C678.163 483.951 678.386 483.817 678.551 483.593C678.714 483.367 678.895 482.968 679.091 482.398L679.551 482.326L680.538 488.713L680.037 488.79C678.059 485.391 675.58 483.923 672.6 484.383C671.293 484.585 670.355 484.972 669.787 485.544C669.215 486.086 668.983 486.707 669.091 487.403C669.156 487.819 669.305 488.14 669.539 488.36C669.767 488.552 669.946 488.696 670.076 488.79C670.204 488.884 670.404 488.981 670.675 489.081C670.943 489.154 671.167 489.218 671.348 489.277C671.523 489.307 671.786 489.352 672.138 489.411C672.517 489.466 672.793 489.495 672.964 489.497C674.93 489.678 676.359 489.884 677.249 490.118C678.136 490.323 678.995 490.617 679.823 491.002C681.517 491.824 682.547 493.417 682.913 495.781C683.275 498.119 682.854 500.007 681.651 501.446C680.444 502.858 678.629 503.75 676.207 504.124C674.481 504.391 672.747 504.246 671.01 503.688C670.64 503.517 670.359 503.446 670.164 503.475C669.551 503.572 669.032 504.179 668.607 505.297L668.106 505.375Z" fill="white"/>
<path d="M609.615 537.467C608.988 537.564 608.389 537.552 607.816 537.432C607.252 537.302 606.741 537.082 606.283 536.768C605.833 536.444 605.457 536.041 605.159 535.56C604.86 535.076 604.663 534.53 604.569 533.919C604.474 533.31 604.496 532.728 604.636 532.178C604.775 531.628 605.015 531.135 605.357 530.696C605.697 530.252 606.118 529.887 606.619 529.6C607.119 529.307 607.685 529.111 608.32 529.013C608.994 528.91 609.627 528.932 610.219 529.081C610.808 529.223 611.331 529.49 611.786 529.885L610.942 530.964C610.594 530.689 610.225 530.502 609.833 530.402C609.44 530.296 609.027 530.274 608.597 530.341C608.166 530.408 607.781 530.539 607.443 530.736C607.113 530.93 606.835 531.178 606.607 531.477C606.389 531.775 606.234 532.111 606.139 532.487C606.053 532.862 606.041 533.259 606.108 533.681C606.173 534.104 606.303 534.481 606.497 534.811C606.702 535.141 606.951 535.414 607.25 535.632C607.557 535.85 607.897 536.002 608.271 536.088C608.652 536.173 609.059 536.182 609.489 536.116C609.92 536.051 610.307 535.909 610.651 535.697C610.993 535.475 611.288 535.178 611.536 534.803L612.666 535.589C612.352 536.096 611.935 536.509 611.416 536.829C610.895 537.149 610.295 537.361 609.615 537.467ZM614.51 536.591L613.541 530.323L614.939 530.107L615.204 531.832L614.962 531.353C615.084 530.901 615.33 530.535 615.696 530.254C616.067 529.973 616.557 529.785 617.158 529.692L617.375 531.089C617.31 531.084 617.251 531.084 617.196 531.093C617.139 531.093 617.084 531.097 617.029 531.107C616.472 531.192 616.055 531.425 615.778 531.805C615.499 532.176 615.409 532.683 615.507 533.324L615.977 536.365L614.51 536.591ZM622.614 535.424C621.918 535.532 621.285 535.489 620.718 535.296C620.158 535.094 619.696 534.774 619.331 534.333C618.973 533.891 618.747 533.361 618.652 532.742C618.556 532.117 618.607 531.543 618.808 531.025C619.014 530.496 619.338 530.056 619.783 529.708C620.233 529.358 620.772 529.134 621.399 529.038C622.01 528.944 622.574 528.993 623.093 529.186C623.612 529.378 624.045 529.694 624.395 530.138C624.743 530.581 624.969 531.131 625.071 531.789C625.081 531.85 625.087 531.923 625.091 532.001C625.102 532.08 625.11 532.154 625.114 532.225L619.887 533.033L619.738 532.058L624.188 531.37L623.659 531.765C623.612 531.404 623.488 531.099 623.29 530.85C623.091 530.6 622.842 530.417 622.545 530.304C622.254 530.188 621.931 530.158 621.58 530.211C621.22 530.268 620.915 530.394 620.665 530.592C620.424 530.791 620.245 531.042 620.133 531.349C620.026 531.646 620.001 531.982 620.06 532.357L620.095 532.593C620.154 532.968 620.292 533.286 620.508 533.549C620.724 533.813 621.002 533.999 621.34 534.108C621.678 534.216 622.049 534.237 622.456 534.174C622.808 534.121 623.117 534.017 623.382 533.864C623.648 533.711 623.872 533.5 624.055 533.231L624.981 534.013C624.751 534.387 624.434 534.695 624.031 534.941C623.634 535.178 623.162 535.339 622.614 535.424ZM629.952 534.292C629.349 534.385 628.784 534.335 628.258 534.145C627.739 533.944 627.304 533.626 626.956 533.192C626.608 532.756 626.384 532.213 626.284 531.565C626.184 530.915 626.235 530.331 626.433 529.81C626.634 529.292 626.952 528.861 627.389 528.521C627.833 528.181 628.358 527.963 628.959 527.871C629.484 527.789 629.972 527.834 630.424 528.005C630.874 528.168 631.258 528.464 631.572 528.897C631.887 529.329 632.101 529.913 632.215 530.649C632.329 531.376 632.303 531.997 632.142 532.512C631.981 533.017 631.71 533.42 631.33 533.718C630.953 534.017 630.493 534.208 629.952 534.292ZM629.935 533.009C630.286 532.954 630.587 532.826 630.839 532.628C631.096 532.428 631.283 532.166 631.403 531.844C631.529 531.52 631.56 531.158 631.499 530.759C631.436 530.353 631.297 530.019 631.079 529.755C630.868 529.482 630.611 529.29 630.304 529.178C630.007 529.064 629.681 529.032 629.329 529.087C628.977 529.142 628.67 529.27 628.413 529.468C628.163 529.669 627.976 529.93 627.849 530.252C627.729 530.569 627.701 530.928 627.764 531.337C627.825 531.736 627.963 532.07 628.173 532.343C628.391 532.614 628.649 532.807 628.948 532.921C629.252 533.033 629.583 533.062 629.935 533.009ZM632.018 533.889L631.79 532.41L631.592 530.734L631.216 529.085L630.615 525.187L632.069 524.963L633.416 533.673L632.018 533.889ZM635.675 533.324L634.706 527.056L636.174 526.83L637.143 533.098L635.675 533.324ZM635.286 525.908C635.012 525.951 634.773 525.9 634.566 525.755C634.366 525.609 634.248 525.415 634.21 525.173C634.173 524.922 634.226 524.702 634.373 524.511C634.527 524.311 634.741 524.189 635.014 524.148C635.288 524.104 635.524 524.154 635.722 524.291C635.927 524.419 636.046 524.605 636.084 524.847C636.125 525.107 636.072 525.338 635.928 525.545C635.783 525.743 635.569 525.865 635.286 525.908ZM641.769 532.467C641.081 532.573 640.521 532.481 640.09 532.186C639.66 531.883 639.39 531.384 639.282 530.689L638.413 525.065L639.882 524.839L640.745 530.425C640.79 530.724 640.9 530.942 641.075 531.084C641.256 531.225 641.484 531.274 641.759 531.231C642.088 531.18 642.349 531.052 642.542 530.846L643.114 531.826C642.962 531.995 642.768 532.133 642.528 532.243C642.288 532.351 642.037 532.426 641.769 532.467ZM637.782 527.83L637.601 526.657L641.783 526.01L641.964 527.185L637.782 527.83ZM652.237 530.887C651.61 530.983 651.011 530.974 650.441 530.852C649.874 530.724 649.363 530.502 648.905 530.188C648.455 529.865 648.08 529.463 647.781 528.979C647.482 528.496 647.285 527.95 647.191 527.341C647.097 526.729 647.12 526.15 647.26 525.598C647.397 525.048 647.639 524.554 647.979 524.116C648.319 523.672 648.74 523.307 649.241 523.022C649.741 522.727 650.309 522.533 650.942 522.434C651.616 522.33 652.249 522.352 652.841 522.501C653.433 522.643 653.954 522.91 654.408 523.305L653.564 524.385C653.218 524.11 652.849 523.922 652.456 523.823C652.062 523.715 651.65 523.694 651.219 523.761C650.789 523.827 650.405 523.959 650.067 524.156C649.735 524.35 649.458 524.598 649.232 524.898C649.013 525.195 648.856 525.533 648.762 525.908C648.675 526.281 648.665 526.68 648.73 527.103C648.795 527.525 648.925 527.901 649.122 528.233C649.324 528.561 649.576 528.834 649.872 529.054C650.179 529.27 650.519 529.421 650.893 529.508C651.276 529.594 651.681 529.604 652.112 529.537C652.542 529.47 652.929 529.331 653.273 529.117C653.617 528.897 653.912 528.598 654.158 528.223L655.29 529.011C654.976 529.516 654.557 529.928 654.038 530.249C653.519 530.569 652.918 530.783 652.237 530.887ZM660.938 529.423L660.744 528.156L660.62 527.899L660.276 525.68C660.209 525.25 660.03 524.938 659.735 524.743C659.438 524.539 659.03 524.478 658.505 524.56C658.151 524.613 657.811 524.723 657.484 524.884C657.164 525.048 656.902 525.244 656.698 525.476L655.957 524.495C656.254 524.185 656.623 523.933 657.066 523.737C657.516 523.531 657.99 523.389 658.491 523.313C659.399 523.171 660.134 523.283 660.695 523.645C661.263 523.998 661.617 524.627 661.758 525.535L662.324 529.209L660.938 529.423ZM658.978 529.81C658.509 529.883 658.086 529.869 657.708 529.767C657.331 529.657 657.022 529.476 656.785 529.225C656.551 528.964 656.407 528.653 656.352 528.293C656.297 527.942 656.33 527.612 656.45 527.305C656.58 526.997 656.824 526.729 657.182 526.507C657.539 526.283 658.037 526.122 658.67 526.024L660.49 525.743L660.642 526.718L658.927 526.983C658.426 527.06 658.102 527.193 657.954 527.386C657.807 527.568 657.75 527.777 657.787 528.013C657.828 528.278 657.966 528.472 658.202 528.596C658.438 528.72 658.743 528.753 659.12 528.696C659.48 528.639 659.788 528.508 660.044 528.299C660.307 528.091 660.478 527.816 660.553 527.476L660.936 528.319C660.852 528.708 660.642 529.032 660.305 529.294C659.977 529.553 659.535 529.726 658.978 529.81ZM664.536 528.869L663.567 522.599L664.965 522.385L665.232 524.11L664.988 523.631C665.112 523.179 665.356 522.813 665.721 522.533C666.095 522.25 666.582 522.063 667.186 521.971L667.4 523.366C667.335 523.36 667.276 523.362 667.221 523.37C667.164 523.372 667.109 523.375 667.054 523.383C666.5 523.47 666.081 523.702 665.804 524.081C665.525 524.454 665.434 524.961 665.535 525.602L666.005 528.641L664.536 528.869ZM672.346 527.747C671.743 527.84 671.179 527.79 670.652 527.6C670.131 527.399 669.698 527.083 669.35 526.647C669.002 526.213 668.778 525.67 668.678 525.02C668.578 524.372 668.627 523.786 668.827 523.267C669.028 522.747 669.346 522.316 669.783 521.976C670.227 521.637 670.75 521.418 671.354 521.326C671.879 521.246 672.366 521.291 672.818 521.462C673.268 521.623 673.65 521.921 673.966 522.354C674.281 522.786 674.495 523.37 674.609 524.104C674.721 524.833 674.698 525.454 674.536 525.967C674.373 526.472 674.104 526.875 673.725 527.174C673.345 527.472 672.887 527.665 672.346 527.747ZM672.329 526.464C672.681 526.409 672.981 526.283 673.231 526.085C673.489 525.885 673.677 525.623 673.795 525.299C673.921 524.977 673.955 524.615 673.892 524.214C673.829 523.808 673.689 523.474 673.473 523.21C673.262 522.939 673.005 522.747 672.698 522.633C672.4 522.519 672.075 522.489 671.721 522.542C671.369 522.597 671.065 522.725 670.807 522.926C670.557 523.124 670.369 523.385 670.243 523.709C670.123 524.024 670.095 524.385 670.158 524.792C670.219 525.191 670.355 525.527 670.565 525.798C670.784 526.069 671.043 526.262 671.34 526.376C671.647 526.49 671.975 526.519 672.329 526.464ZM674.413 527.344L674.183 525.865L673.984 524.189L673.61 522.54L673.007 518.642L674.464 518.418L675.81 527.128L674.413 527.344ZM680.619 526.386L683.049 517.597L684.553 517.365L689.534 525.01L687.936 525.256L683.609 518.341L684.218 518.247L682.193 526.144L680.619 526.386ZM682.028 524.222L682.254 522.961L686.693 522.275L687.289 523.409L682.028 524.222ZM690.904 524.798L689.634 516.581L693.018 516.058C693.745 515.946 694.386 515.968 694.94 516.123C695.501 516.276 695.957 516.552 696.305 516.944C696.655 517.339 696.877 517.838 696.969 518.442C697.063 519.045 697.002 519.587 696.788 520.069C696.574 520.55 696.222 520.949 695.734 521.265C695.253 521.58 694.649 521.792 693.922 521.904L691.384 522.297L691.954 521.475L692.432 524.562L690.904 524.798ZM691.98 521.639L691.185 521.006L693.651 520.625C694.325 520.521 694.809 520.302 695.101 519.968C695.4 519.625 695.51 519.196 695.432 518.679C695.349 518.155 695.115 517.778 694.728 517.55C694.347 517.32 693.82 517.257 693.147 517.361L690.68 517.742L691.246 516.886L691.98 521.639ZM699.639 523.45L698.369 515.233L699.896 514.997L701.166 523.214L699.639 523.45Z" fill="white"/>
</g>
<g filter="url(#filter2_d_25_2256)">
<path d="M582.445 315.875L177.026 194.148C166.91 191.111 156.245 196.845 153.206 206.956L80.2062 449.837C77.1672 459.948 82.9045 470.606 93.0207 473.644L498.44 595.37C508.556 598.408 519.221 592.673 522.26 582.562L595.26 339.682C598.299 329.571 592.562 318.912 582.445 315.875Z" fill="white"/>
</g>
<mask id="mask2_25_2256" style="mask-type:alpha" maskUnits="userSpaceOnUse" x="79" y="193" width="518" height="404">
<path d="M582.445 315.875L177.026 194.148C166.91 191.111 156.245 196.845 153.206 206.956L80.2062 449.837C77.1672 459.948 82.9045 470.606 93.0207 473.644L498.44 595.37C508.556 598.408 519.221 592.673 522.26 582.562L595.26 339.682C598.299 329.571 592.562 318.912 582.445 315.875Z" fill="white"/>
</mask>
<g mask="url(#mask2_25_2256)">
<g opacity="0.18">
<path d="M156.555 179.506L418.862 573.627" stroke="#18181B" stroke-width="0.648592"/>
<path d="M149.715 180.113L412.021 574.234" stroke="#18181B" stroke-width="0.648592"/>
<path d="M142.876 180.721L405.181 574.843" stroke="#18181B" stroke-width="0.648592"/>
<path d="M136.037 181.329L398.344 575.45" stroke="#18181B" stroke-width="0.648592"/>
<path d="M129.198 181.937L391.505 576.057" stroke="#18181B" stroke-width="0.648592"/>
<path d="M122.358 182.545L384.664 576.666" stroke="#18181B" stroke-width="0.648592"/>
<path d="M115.517 183.153L377.824 577.274" stroke="#18181B" stroke-width="0.648592"/>
<path d="M108.679 183.761L370.985 577.883" stroke="#18181B" stroke-width="0.648592"/>
<path d="M101.838 184.368L364.146 578.49" stroke="#18181B" stroke-width="0.648592"/>
<path d="M94.9996 184.976L357.306 579.097" stroke="#18181B" stroke-width="0.648592"/>
<path d="M88.1593 185.584L350.465 579.704" stroke="#18181B" stroke-width="0.648592"/>
<path d="M81.3214 186.192L343.628 580.313" stroke="#18181B" stroke-width="0.648592"/>
<path d="M74.4809 186.799L336.787 580.92" stroke="#18181B" stroke-width="0.648592"/>
<path d="M67.6414 187.407L329.947 581.527" stroke="#18181B" stroke-width="0.648592"/>
<path d="M60.8019 188.015L323.108 582.137" stroke="#18181B" stroke-width="0.648592"/>
<path d="M53.9632 188.623L316.271 582.744" stroke="#18181B" stroke-width="0.648592"/>
<path d="M47.1237 189.23L309.429 583.351" stroke="#18181B" stroke-width="0.648592"/>
<path d="M40.2842 189.838L302.59 583.96" stroke="#18181B" stroke-width="0.648592"/>
<path d="M33.4447 190.446L295.751 584.567" stroke="#18181B" stroke-width="0.648592"/>
<path d="M26.606 191.054L288.913 585.174" stroke="#18181B" stroke-width="0.648592"/>
<path d="M19.7665 191.661L282.072 585.783" stroke="#18181B" stroke-width="0.648592"/>
<path d="M12.927 192.269L275.233 586.39" stroke="#18181B" stroke-width="0.648592"/>
<path d="M6.08722 192.877L268.394 586.998" stroke="#18181B" stroke-width="0.648592"/>
<path d="M-0.751343 193.485L261.554 587.607" stroke="#18181B" stroke-width="0.648592"/>
<path d="M-7.59088 194.093L254.715 588.214" stroke="#18181B" stroke-width="0.648592"/>
<path d="M-14.4314 194.7L247.876 588.821" stroke="#18181B" stroke-width="0.648592"/>
<path d="M-21.271 195.308L241.036 589.43" stroke="#18181B" stroke-width="0.648592"/>
<path d="M-28.1085 195.916L234.197 590.037" stroke="#18181B" stroke-width="0.648592"/>
<path d="M-34.9482 196.524L227.358 590.644" stroke="#18181B" stroke-width="0.648592"/>
<path d="M-41.7887 197.131L220.519 591.254" stroke="#18181B" stroke-width="0.648592"/>
<path d="M-48.6264 197.74L213.679 591.861" stroke="#18181B" stroke-width="0.648592"/>
<path d="M164.248 180.485L426.555 574.607" stroke="#18181B" stroke-width="0.648592"/>
<path d="M171.941 181.465L434.247 575.586" stroke="#18181B" stroke-width="0.648592"/>
<path d="M179.636 182.444L441.941 576.566" stroke="#18181B" stroke-width="0.648592"/>
<path d="M187.329 183.423L449.636 577.545" stroke="#18181B" stroke-width="0.648592"/>
<path d="M195.022 184.403L457.328 578.523" stroke="#18181B" stroke-width="0.648592"/>
<path d="M202.716 185.382L465.023 579.504" stroke="#18181B" stroke-width="0.648592"/>
<path d="M210.41 186.361L472.717 580.482" stroke="#18181B" stroke-width="0.648592"/>
<path d="M218.103 187.341L480.41 581.463" stroke="#18181B" stroke-width="0.648592"/>
<path d="M225.797 188.32L488.104 582.441" stroke="#18181B" stroke-width="0.648592"/>
<path d="M233.491 189.3L495.797 583.42" stroke="#18181B" stroke-width="0.648592"/>
<path d="M241.184 190.279L503.491 584.4" stroke="#18181B" stroke-width="0.648592"/>
<path d="M248.878 191.258L511.186 585.379" stroke="#18181B" stroke-width="0.648592"/>
<path d="M256.573 192.238L518.88 586.359" stroke="#18181B" stroke-width="0.648592"/>
<path d="M264.265 193.217L526.573 587.338" stroke="#18181B" stroke-width="0.648592"/>
<path d="M271.96 194.197L534.265 588.318" stroke="#18181B" stroke-width="0.648592"/>
<path d="M279.652 195.176L541.96 589.296" stroke="#18181B" stroke-width="0.648592"/>
<path d="M287.345 196.155L549.652 590.277" stroke="#18181B" stroke-width="0.648592"/>
<path d="M295.041 197.135L557.346 591.256" stroke="#18181B" stroke-width="0.648592"/>
<path d="M302.736 198.114L565.041 592.236" stroke="#18181B" stroke-width="0.648592"/>
<path d="M310.426 199.093L572.733 593.214" stroke="#18181B" stroke-width="0.648592"/>
<path d="M318.121 200.073L580.428 594.195" stroke="#18181B" stroke-width="0.648592"/>
<path d="M325.815 201.052L588.12 595.173" stroke="#18181B" stroke-width="0.648592"/>
<path d="M333.509 202.031L595.815 596.152" stroke="#18181B" stroke-width="0.648592"/>
</g>
<path d="M582.445 315.875L177.026 194.148C166.91 191.111 156.245 196.845 153.206 206.956L80.2062 449.837C77.1672 459.948 82.9045 470.606 93.0208 473.644L498.44 595.37C508.556 598.408 519.221 592.673 522.26 582.562L595.26 339.682C598.299 329.571 592.562 318.912 582.445 315.875Z" fill="url(#paint2_linear_25_2256)"/>
<g filter="url(#filter3_f_25_2256)">
<path d="M132.396 208.689C193.094 226.914 257.081 192.508 275.314 131.842C293.548 71.1758 259.125 7.22245 198.427 -11.0019C137.729 -29.2262 73.7427 5.17955 55.5089 65.8456C37.275 126.512 71.6987 190.465 132.396 208.689Z" fill="#D2D2D2"/>
</g>
<g filter="url(#filter4_f_25_2256)">
<path d="M538.101 749.202C598.799 767.426 662.785 733.02 681.019 672.354C699.253 611.688 664.829 547.735 604.132 529.51C543.434 511.286 479.447 545.692 461.213 606.358C442.98 667.024 477.403 730.977 538.101 749.202Z" fill="#C8C8C8"/>
</g>
</g>
<path d="M211.78 366.435L221.783 333.158C223.07 328.871 219.795 324.087 214.477 322.491L166.598 308.115C161.281 306.518 155.907 308.707 154.619 312.992L144.618 346.269C143.33 350.555 146.608 355.338 151.925 356.934L199.804 371.309C205.122 372.905 210.493 370.72 211.78 366.435ZM152.112 356.311C147.221 354.843 144.207 350.441 145.391 346.501L155.393 313.224C156.578 309.282 161.52 307.269 166.411 308.738L214.291 323.114C219.18 324.582 222.193 328.983 221.008 332.926L211.008 366.203C209.822 370.142 204.88 372.154 199.993 370.687L152.112 356.311Z" fill="#3F3F46"/>
<path d="M199.993 370.689L152.114 356.312C149.763 355.606 147.735 354.176 146.475 352.337C145.214 350.498 144.825 348.4 145.392 346.504L155.395 313.225C156.58 309.283 161.522 307.271 166.413 308.739L214.293 323.115C219.18 324.582 222.195 328.984 221.01 332.926L211.008 366.205C209.824 370.142 204.882 372.156 199.993 370.689Z" fill="url(#paint3_linear_25_2256)"/>
<path d="M146.445 340.653L146.632 340.03L168.681 346.65C170.142 347.087 171.684 347.039 172.967 346.516C174.251 345.994 175.171 345.039 175.527 343.862L179.085 332.024C179.437 330.846 179.195 329.543 178.412 328.399C177.63 327.256 176.37 326.367 174.909 325.927L152.861 319.307L153.048 318.684L175.096 325.304C176.762 325.805 178.199 326.819 179.092 328.123C179.984 329.426 180.26 330.913 179.858 332.257L176.3 344.094C175.895 345.436 174.845 346.525 173.381 347.121C171.918 347.717 170.16 347.772 168.493 347.273L146.445 340.653Z" fill="#383335"/>
<path d="M189.1 347.937L192.658 336.1C193.064 334.757 194.114 333.669 195.577 333.073C197.042 332.477 198.8 332.422 200.467 332.921L220.049 338.8L219.86 339.424L200.278 333.545C198.817 333.107 197.276 333.155 195.991 333.678C194.708 334.2 193.787 335.155 193.431 336.332L189.874 348.17C189.522 349.348 189.763 350.652 190.546 351.795C191.329 352.938 192.59 353.827 194.05 354.267L213.632 360.146L213.445 360.77L193.863 354.89C192.197 354.388 190.76 353.375 189.867 352.071C188.974 350.768 188.699 349.281 189.1 347.937Z" fill="#383335"/>
<path d="M192.786 337.08L192.973 336.456L179.399 332.381L179.212 333.004L192.786 337.08Z" fill="#383335"/>
<path d="M189.561 347.812L189.748 347.189L176.174 343.114L175.987 343.737L189.561 347.812Z" fill="#383335"/>
<path d="M159.933 359L163.968 345.574L163.195 345.342L159.159 358.768L159.933 359Z" fill="#383335"/>
<path d="M170.385 324.229L174.42 310.803L173.647 310.571L169.611 323.997L170.385 324.229Z" fill="#383335"/>
<path d="M194.192 369.286L198.227 355.86L197.455 355.628L193.419 369.054L194.192 369.286Z" fill="#383335"/>
<path d="M204.642 334.515L208.678 321.089L207.906 320.857L203.87 334.283L204.642 334.515Z" fill="#383335"/>
<path d="M216.284 350.05L216.471 349.426L191.343 341.882L191.156 342.505L216.284 350.05Z" fill="#383335"/>
<path d="M177.337 338.356L177.524 337.732L149.818 329.414L149.631 330.037L177.337 338.356Z" fill="#383335"/>
<path d="M435.727 545.105L427.062 542.869L446.412 504.428L455.077 506.664L435.727 545.105ZM433.706 501.151L415.862 526.419L416.949 520.267V520.269L420.299 501.603C420.299 501.603 421.201 497.925 417.443 496.954L403.786 493.431L403.391 494.064C403.391 494.064 407.202 496.182 410.861 500.957L406.284 537.509L415.312 539.837L443.033 503.558L433.706 501.151ZM487.927 558.572L495.883 560.625L502.88 518.998L495.915 517.2C492.698 516.371 490.876 519.137 490.876 519.137L465.058 552.672L474.091 555.002L477.966 549.551L488.983 552.393L487.927 558.572ZM483.321 542.02L493.088 528.288L490.436 543.857L483.321 542.02ZM476.319 522.59L480.547 514.355C480.547 514.355 477.339 511.634 473.362 510.606C469.061 509.498 458.064 509.113 454.238 520.051C450.639 530.341 462.577 533.561 460.686 538.969C458.797 544.374 448.386 540.631 446.03 536.306L441.613 544.92C441.613 544.92 444.696 548.168 450.607 549.693C456.52 551.218 466.721 549.856 470.211 539.88C473.834 529.524 462.078 525.439 463.653 520.935C465.229 516.432 473.466 519.188 476.319 522.59Z" fill="#2566AF"/>
<path d="M415.966 518.35L417.602 501.963C417.602 501.963 418.168 498.752 414.28 497.585L400.145 493.341L399.805 493.875C399.805 493.875 406.174 497.322 411.107 504.55C415.823 511.461 415.966 518.35 415.966 518.35Z" fill="#E6A540"/>
<path d="M122.674 421.174L123.178 419.496L123.756 419.669C124.186 419.798 124.563 419.779 124.886 419.613C125.221 419.441 125.45 419.148 125.574 418.737L127.668 411.768L129.509 412.322L127.435 419.222C127.249 419.839 126.952 420.34 126.543 420.726C126.144 421.113 125.659 421.362 125.088 421.474C124.526 421.588 123.914 421.547 123.252 421.346L122.674 421.174ZM129.612 423.256L132.618 413.255L139.267 415.252L138.783 416.863L133.961 415.415L133.19 417.979L137.744 419.346L137.259 420.957L132.706 419.59L131.923 422.193L136.745 423.641L136.261 425.253L129.612 423.256ZM142.346 427.257C141.711 427.064 141.154 426.771 140.678 426.375C140.211 425.98 139.842 425.518 139.572 424.989C139.313 424.453 139.178 423.879 139.165 423.27L140.881 423.07C140.951 423.714 141.164 424.27 141.521 424.74C141.881 425.2 142.347 425.514 142.921 425.687C143.243 425.783 143.535 425.817 143.798 425.789C144.072 425.754 144.298 425.665 144.478 425.524C144.666 425.386 144.797 425.192 144.873 424.94C144.962 424.645 144.945 424.376 144.822 424.135C144.711 423.887 144.497 423.657 144.18 423.445L142.445 422.25C141.739 421.775 141.261 421.236 141.012 420.635C140.763 420.032 140.737 419.405 140.933 418.753C141.106 418.179 141.396 417.715 141.806 417.36C142.224 417.008 142.72 416.786 143.295 416.694C143.88 416.597 144.5 416.647 145.154 416.843C145.754 417.024 146.272 417.295 146.709 417.66C147.149 418.018 147.491 418.439 147.736 418.922C147.993 419.397 148.136 419.914 148.164 420.47L146.458 420.688C146.412 420.128 146.232 419.655 145.919 419.268C145.608 418.873 145.193 418.596 144.674 418.44C144.369 418.35 144.084 418.323 143.819 418.36C143.557 418.387 143.33 418.476 143.139 418.623C142.96 418.765 142.833 418.961 142.758 419.213C142.674 419.49 142.69 419.763 142.804 420.032C142.922 420.291 143.146 420.533 143.479 420.761L145.145 421.891C145.864 422.39 146.352 422.926 146.609 423.5C146.875 424.078 146.907 424.702 146.705 425.374C146.533 425.946 146.233 426.408 145.806 426.758C145.379 427.107 144.867 427.329 144.273 427.424C143.678 427.52 143.036 427.463 142.346 427.257ZM152.265 430.234C151.629 430.043 151.073 429.75 150.596 429.353C150.129 428.958 149.76 428.497 149.49 427.966C149.231 427.43 149.096 426.858 149.083 426.249L150.799 426.046C150.869 426.693 151.082 427.249 151.439 427.717C151.799 428.176 152.266 428.493 152.839 428.664C153.161 428.762 153.454 428.795 153.716 428.768C153.99 428.732 154.217 428.644 154.396 428.503C154.584 428.363 154.716 428.168 154.791 427.919C154.88 427.624 154.863 427.355 154.74 427.113C154.629 426.866 154.415 426.636 154.098 426.422L152.363 425.229C151.657 424.754 151.179 424.213 150.93 423.612C150.682 423.011 150.655 422.384 150.852 421.73C151.024 421.158 151.315 420.694 151.724 420.339C152.143 419.985 152.639 419.763 153.213 419.672C153.799 419.576 154.418 419.625 155.072 419.822C155.672 420.001 156.19 420.274 156.627 420.639C157.067 420.995 157.41 421.415 157.655 421.899C157.912 422.376 158.054 422.893 158.083 423.447L156.376 423.667C156.33 423.107 156.15 422.633 155.837 422.246C155.526 421.85 155.111 421.574 154.592 421.419C154.288 421.327 154.003 421.299 153.737 421.339C153.475 421.366 153.249 421.455 153.058 421.602C152.879 421.743 152.751 421.94 152.676 422.189C152.593 422.466 152.608 422.74 152.723 423.009C152.84 423.268 153.065 423.512 153.397 423.738L155.063 424.868C155.783 425.367 156.27 425.903 156.527 426.479C156.793 427.056 156.825 427.681 156.623 428.351C156.451 428.925 156.151 429.387 155.724 429.736C155.297 430.086 154.786 430.308 154.191 430.403C153.596 430.497 152.954 430.442 152.265 430.234ZM158.658 431.978L161.664 421.975L168.313 423.972L167.829 425.583L163.007 424.135L162.236 426.699L166.79 428.066L166.306 429.677L161.752 428.31L160.969 430.915L165.791 432.363L165.307 433.975L158.658 431.978ZM176.358 437.468C175.624 437.248 174.977 436.912 174.42 436.462C173.862 436.01 173.416 435.482 173.081 434.875C172.746 434.265 172.539 433.609 172.458 432.902C172.39 432.189 172.466 431.464 172.686 430.731C172.909 429.988 173.245 429.341 173.693 428.793C174.141 428.245 174.672 427.809 175.287 427.487C175.901 427.162 176.564 426.972 177.275 426.911C177.989 426.844 178.718 426.921 179.461 427.143C180.204 427.367 180.855 427.703 181.413 428.155C181.97 428.605 182.416 429.133 182.751 429.742C183.089 430.34 183.293 430.992 183.364 431.697C183.445 432.405 183.373 433.13 183.15 433.872C182.93 434.605 182.589 435.25 182.13 435.806C181.673 436.35 181.137 436.784 180.523 437.109C179.908 437.431 179.244 437.627 178.53 437.696C177.825 437.767 177.101 437.69 176.358 437.468ZM176.858 435.804C177.351 435.951 177.829 436.002 178.291 435.955C178.757 435.9 179.19 435.761 179.588 435.539C179.996 435.321 180.345 435.02 180.635 434.639C180.934 434.262 181.159 433.821 181.31 433.32C181.46 432.817 181.514 432.332 181.47 431.86C181.438 431.381 181.312 430.939 181.093 430.532C180.886 430.118 180.601 429.764 180.241 429.471C179.88 429.176 179.453 428.956 178.96 428.809C178.477 428.664 178.004 428.614 177.541 428.66C177.078 428.707 176.641 428.844 176.231 429.072C175.832 429.294 175.483 429.593 175.184 429.972C174.887 430.342 174.664 430.778 174.513 431.279C174.362 431.78 174.307 432.271 174.349 432.752C174.39 433.232 174.515 433.674 174.726 434.079C174.945 434.487 175.234 434.841 175.592 435.146C175.952 435.438 176.375 435.658 176.858 435.804ZM184.49 439.734L187.497 429.732L191.218 430.849C191.898 431.053 192.461 431.359 192.904 431.766C193.36 432.165 193.665 432.648 193.818 433.21C193.973 433.764 193.95 434.377 193.748 435.049C193.541 435.737 193.199 436.274 192.723 436.659C192.255 437.046 191.709 437.272 191.083 437.336L192.174 442.04L190.105 441.419L188.967 436.291L189.939 437.344L187.427 436.59L186.317 440.282L184.49 439.734ZM187.911 434.979L189.832 435.556C190.163 435.657 190.469 435.678 190.748 435.627C191.03 435.564 191.274 435.438 191.478 435.246C191.682 435.053 191.83 434.804 191.922 434.501C192.016 434.187 192.029 433.898 191.962 433.635C191.898 433.362 191.763 433.126 191.559 432.927C191.358 432.721 191.092 432.568 190.76 432.468L188.839 431.892L187.911 434.979ZM199.474 444.408C198.739 444.188 198.094 443.852 197.535 443.402C196.977 442.952 196.532 442.422 196.197 441.814C195.862 441.207 195.655 440.549 195.574 439.842C195.506 439.128 195.581 438.405 195.802 437.671C196.025 436.928 196.361 436.281 196.808 435.733C197.256 435.185 197.789 434.749 198.402 434.427C199.018 434.104 199.68 433.912 200.392 433.853C201.106 433.784 201.833 433.861 202.576 434.085C203.319 434.307 203.97 434.645 204.528 435.095C205.086 435.545 205.533 436.075 205.867 436.682C206.205 437.281 206.409 437.934 206.48 438.637C206.561 439.345 206.49 440.07 206.266 440.812C206.046 441.547 205.706 442.192 205.246 442.746C204.79 443.292 204.253 443.726 203.638 444.048C203.024 444.373 202.36 444.567 201.646 444.636C200.94 444.707 200.217 444.632 199.474 444.408ZM199.973 442.744C200.467 442.891 200.944 442.942 201.408 442.895C201.872 442.84 202.305 442.703 202.704 442.48C203.111 442.26 203.461 441.96 203.752 441.579C204.05 441.201 204.275 440.761 204.426 440.26C204.577 439.759 204.63 439.272 204.585 438.8C204.554 438.323 204.428 437.879 204.21 437.472C204.001 437.059 203.718 436.706 203.356 436.411C202.995 436.118 202.568 435.896 202.077 435.749C201.593 435.603 201.119 435.554 200.657 435.602C200.193 435.647 199.757 435.784 199.346 436.012C198.947 436.234 198.599 436.535 198.3 436.912C198.003 437.283 197.779 437.718 197.628 438.219C197.478 438.72 197.423 439.211 197.465 439.692C197.506 440.174 197.632 440.616 197.842 441.021C198.06 441.427 198.349 441.783 198.707 442.086C199.069 442.378 199.49 442.598 199.973 442.744ZM211.132 447.909C210.495 447.717 209.938 447.424 209.462 447.027C208.995 446.632 208.627 446.17 208.356 445.642C208.098 445.106 207.963 444.532 207.951 443.923L209.665 443.722C209.736 444.367 209.948 444.923 210.306 445.392C210.666 445.852 211.132 446.167 211.706 446.339C212.028 446.436 212.321 446.469 212.582 446.442C212.856 446.406 213.084 446.318 213.263 446.176C213.451 446.039 213.583 445.844 213.658 445.593C213.746 445.298 213.728 445.029 213.607 444.787C213.496 444.54 213.282 444.31 212.966 444.098L211.23 442.903C210.524 442.427 210.046 441.889 209.797 441.288C209.549 440.685 209.521 440.058 209.718 439.405C209.891 438.832 210.182 438.368 210.591 438.012C211.01 437.661 211.505 437.439 212.079 437.346C212.665 437.25 213.284 437.299 213.939 437.496C214.538 437.676 215.057 437.948 215.494 438.313C215.934 438.671 216.276 439.091 216.522 439.574C216.778 440.05 216.921 440.567 216.949 441.123L215.242 441.341C215.197 440.781 215.016 440.307 214.703 439.92C214.393 439.525 213.978 439.248 213.459 439.093C213.154 439.003 212.869 438.975 212.604 439.013C212.342 439.04 212.114 439.128 211.924 439.276C211.745 439.417 211.617 439.614 211.542 439.865C211.46 440.142 211.476 440.415 211.59 440.683C211.706 440.944 211.932 441.186 212.264 441.414L213.931 442.543C214.648 443.042 215.136 443.579 215.394 444.153C215.659 444.73 215.692 445.355 215.49 446.027C215.317 446.599 215.018 447.061 214.589 447.41C214.163 447.76 213.652 447.982 213.058 448.076C212.462 448.173 211.822 448.116 211.132 447.909ZM216.746 449.418L217.177 447.982L224.116 442.484L219.549 441.113L220.033 439.502L226.925 441.571L226.493 443.007L219.567 448.509L224.537 450.002L224.053 451.613L216.746 449.418Z" fill="#18181B"/>
<path opacity="0.5" d="M115.782 445.717L118.788 435.715L122.509 436.832C123.189 437.036 123.752 437.342 124.196 437.749C124.652 438.148 124.956 438.631 125.109 439.193C125.264 439.747 125.241 440.36 125.04 441.032C124.833 441.72 124.491 442.256 124.014 442.642C123.546 443.029 123 443.255 122.375 443.319L123.465 448.023L121.397 447.402L120.258 442.274L121.23 443.327L118.718 442.573L117.609 446.265L115.782 445.717ZM119.202 440.962L121.123 441.539C121.455 441.64 121.76 441.661 122.04 441.61C122.322 441.547 122.565 441.421 122.769 441.229C122.973 441.036 123.121 440.787 123.213 440.482C123.307 440.17 123.32 439.881 123.253 439.618C123.189 439.345 123.055 439.109 122.851 438.91C122.649 438.704 122.383 438.551 122.051 438.451L120.131 437.875L119.202 440.962ZM125.884 448.75L128.89 438.747L135.539 440.744L135.055 442.355L130.232 440.907L129.462 443.473L134.015 444.838L133.531 446.449L128.978 445.082L128.195 447.687L133.017 449.135L132.533 450.747L125.884 448.75ZM136.961 452.077L137.28 441.268L139.241 441.856L138.788 451.014L138.278 450.861L143.043 442.997L144.937 443.565L144.564 452.749L144.054 452.596L148.725 444.703L150.686 445.292L144.993 454.488L142.898 453.859L143.175 444.895L143.766 445.074L139.056 452.706L136.961 452.077ZM148.652 455.586L155.111 446.62L157.475 447.33L157.921 458.368L155.933 457.773L155.867 455.411L151.998 454.248L150.627 456.179L148.652 455.586ZM153.006 452.796L155.827 453.643L155.658 448.161L156.169 448.314L153.006 452.796ZM160.256 459.07L163.262 449.069L166.983 450.185C167.663 450.389 168.226 450.696 168.67 451.102C169.125 451.501 169.43 451.984 169.583 452.546C169.738 453.101 169.715 453.714 169.513 454.386C169.306 455.073 168.965 455.61 168.488 455.995C168.02 456.382 167.474 456.608 166.849 456.673L167.939 461.376L165.871 460.756L164.732 455.627L165.704 456.68L163.192 455.926L162.083 459.618L160.256 459.07ZM163.676 454.315L165.597 454.892C165.929 454.993 166.234 455.014 166.514 454.963C166.796 454.9 167.039 454.775 167.243 454.582C167.447 454.389 167.595 454.14 167.687 453.837C167.781 453.523 167.795 453.234 167.727 452.971C167.663 452.698 167.529 452.462 167.325 452.263C167.123 452.057 166.857 451.904 166.525 451.804L164.605 451.228L163.676 454.315ZM170.358 462.103L173.364 452.1L176.628 453.081C177.685 453.399 178.538 453.888 179.188 454.553C179.849 455.209 180.282 455.979 180.486 456.859C180.693 457.732 180.648 458.659 180.352 459.643C180.059 460.62 179.583 461.424 178.925 462.056C178.269 462.677 177.482 463.086 176.565 463.278C175.66 463.465 174.678 463.4 173.622 463.084L170.358 462.103ZM172.669 461.04L174.146 461.485C174.827 461.689 175.455 461.726 176.031 461.597C176.619 461.461 177.127 461.184 177.555 460.765C177.986 460.339 178.305 459.781 178.512 459.091C178.722 458.394 178.763 457.753 178.636 457.168C178.509 456.584 178.237 456.077 177.819 455.649C177.409 455.225 176.865 454.908 176.184 454.704L174.706 454.26L172.669 461.04ZM185.047 466.689C184.411 466.499 183.855 466.204 183.378 465.807C182.911 465.414 182.542 464.953 182.272 464.422C182.013 463.886 181.878 463.314 181.865 462.705L183.581 462.502C183.651 463.147 183.864 463.705 184.221 464.172C184.581 464.632 185.048 464.949 185.621 465.12C185.943 465.216 186.236 465.251 186.498 465.222C186.772 465.188 186.999 465.1 187.178 464.958C187.366 464.819 187.498 464.624 187.573 464.375C187.662 464.078 187.645 463.811 187.522 463.569C187.411 463.32 187.197 463.09 186.88 462.878L185.145 461.683C184.439 461.208 183.961 460.669 183.712 460.068C183.464 459.467 183.437 458.838 183.634 458.186C183.806 457.612 184.097 457.148 184.506 456.792C184.925 456.441 185.421 456.219 185.995 456.128C186.581 456.03 187.2 456.079 187.854 456.276C188.454 456.456 188.973 456.73 189.41 457.095C189.849 457.451 190.192 457.871 190.437 458.355C190.694 458.832 190.836 459.347 190.865 459.903L189.159 460.123C189.112 459.561 188.932 459.087 188.619 458.702C188.308 458.305 187.893 458.03 187.374 457.873C187.07 457.783 186.785 457.755 186.52 457.793C186.257 457.822 186.031 457.91 185.84 458.058C185.661 458.199 185.533 458.394 185.458 458.645C185.375 458.922 185.39 459.195 185.505 459.465C185.622 459.724 185.847 459.968 186.179 460.194L187.846 461.323C188.565 461.823 189.053 462.359 189.309 462.935C189.575 463.512 189.607 464.135 189.405 464.807C189.233 465.379 188.933 465.841 188.506 466.19C188.079 466.54 187.568 466.762 186.973 466.858C186.378 466.953 185.736 466.896 185.047 466.689ZM196.093 470.006C195.377 469.79 194.753 469.462 194.222 469.02C193.7 468.58 193.281 468.059 192.964 467.456C192.656 466.856 192.471 466.206 192.408 465.505C192.346 464.801 192.427 464.08 192.65 463.337C192.873 462.595 193.2 461.946 193.63 461.392C194.072 460.832 194.585 460.39 195.17 460.068C195.766 459.74 196.407 459.541 197.091 459.475C197.777 459.398 198.479 459.467 199.197 459.681C199.912 459.897 200.516 460.209 201.007 460.62C201.509 461.035 201.896 461.502 202.169 462.023C202.444 462.536 202.596 463.054 202.623 463.579L200.754 463.852C200.716 463.294 200.524 462.787 200.172 462.331C199.824 461.866 199.332 461.538 198.695 461.347C198.068 461.158 197.469 461.139 196.897 461.29C196.334 461.441 195.84 461.738 195.415 462.176C194.999 462.618 194.687 463.188 194.477 463.886C194.267 464.583 194.212 465.235 194.313 465.841C194.426 466.442 194.675 466.961 195.061 467.399C195.456 467.839 195.967 468.153 196.594 468.342C197.229 468.533 197.819 468.534 198.365 468.346C198.912 468.149 199.354 467.829 199.694 467.383L201.102 468.641C200.789 469.065 200.376 469.419 199.861 469.702C199.348 469.979 198.768 470.152 198.123 470.22C197.486 470.293 196.81 470.22 196.093 470.006ZM207.717 473.496C207.001 473.282 206.376 472.951 205.845 472.509C205.324 472.069 204.904 471.549 204.587 470.945C204.28 470.346 204.094 469.696 204.033 468.994C203.97 468.293 204.05 467.57 204.273 466.827C204.497 466.084 204.823 465.436 205.254 464.882C205.696 464.322 206.209 463.88 206.793 463.557C207.39 463.229 208.031 463.031 208.715 462.964C209.402 462.887 210.103 462.956 210.819 463.172C211.536 463.387 212.14 463.699 212.631 464.112C213.133 464.524 213.518 464.992 213.791 465.513C214.067 466.025 214.22 466.544 214.247 467.069L212.378 467.342C212.341 466.786 212.146 466.277 211.796 465.821C211.448 465.355 210.955 465.027 210.32 464.837C209.693 464.648 209.093 464.628 208.521 464.78C207.957 464.933 207.463 465.228 207.039 465.666C206.622 466.108 206.309 466.678 206.101 467.375C205.89 468.073 205.835 468.725 205.938 469.332C206.05 469.931 206.299 470.45 206.685 470.888C207.08 471.328 207.591 471.643 208.216 471.831C208.853 472.022 209.443 472.024 209.987 471.835C210.536 471.639 210.978 471.319 211.316 470.873L212.726 472.13C212.413 472.555 211.998 472.908 211.483 473.193C210.972 473.468 210.392 473.641 209.746 473.71C209.111 473.783 208.432 473.712 207.717 473.496ZM213.868 475.168L220.326 466.202L222.691 466.911L223.137 477.95L221.148 477.353L221.083 474.991L217.214 473.83L215.842 475.759L213.868 475.168ZM218.222 472.376L221.042 473.223L220.874 467.743L221.384 467.896L218.222 472.376ZM225.471 478.652L228.476 468.648L232.212 469.77C232.892 469.975 233.454 470.279 233.898 470.686C234.354 471.087 234.659 471.568 234.813 472.132C234.968 472.686 234.944 473.299 234.742 473.969C234.543 474.631 234.221 475.154 233.773 475.537C233.338 475.914 232.823 476.15 232.227 476.245C231.634 476.339 230.995 476.284 230.315 476.079L228.408 475.508L227.299 479.2L225.471 478.652ZM228.891 473.897L230.826 474.476C231.158 474.576 231.463 474.6 231.742 474.547C232.025 474.486 232.269 474.358 232.471 474.166C232.676 473.973 232.825 473.726 232.915 473.421C233.01 473.109 233.024 472.82 232.957 472.555C232.892 472.281 232.758 472.048 232.554 471.849C232.351 471.643 232.086 471.49 231.754 471.389L229.819 470.808L228.891 473.897ZM235.402 481.632L238.408 471.631L240.236 472.179L237.229 482.18L235.402 481.632Z" fill="#18181B"/>
<mask id="mask3_25_2256" style="mask-type:luminance" maskUnits="userSpaceOnUse" x="370" y="261" width="202" height="127">
<path d="M571.158 315.343L392.295 261.642L370.499 334.161L549.362 387.863L571.158 315.343Z" fill="white"/>
</mask>
<g mask="url(#mask3_25_2256)">
<path d="M399.18 292.634C398.114 292.314 396.972 292.724 395.749 293.863C394.528 295.003 393.632 296.522 393.062 298.422L389.584 309.993L392.651 310.914L392.417 311.691L378.939 307.644L379.173 306.867L381.55 307.581L387.259 288.584L384.882 287.87L385.116 287.093L395.527 290.219L394.281 294.363C395.097 293.008 396.154 292.102 397.454 291.645C398.761 291.158 400.092 291.119 401.444 291.525C402.799 291.931 403.776 292.649 404.377 293.676C405.016 294.684 405.124 295.893 404.7 297.304C404.285 298.685 403.648 299.655 402.789 300.213C401.932 300.771 400.839 300.851 399.514 300.454C398.218 300.065 397.383 299.343 397.009 298.289C396.665 297.245 396.952 296.028 397.87 294.641L399.425 295.108C400.587 293.856 400.505 293.032 399.18 292.634ZM411.685 317.946C407.969 316.831 405.463 315.042 404.161 312.581C402.897 310.099 402.775 307.16 403.798 303.763C404.826 300.338 406.65 298.03 409.269 296.839C411.917 295.657 414.852 295.55 418.078 296.519C424.614 298.482 426.767 302.705 424.536 309.19L412.355 305.533L411.848 307.216C411 310.037 410.721 312.275 411.008 313.931C411.295 315.586 412.331 316.682 414.116 317.218C417.458 318.221 420.183 317.093 422.293 313.835L423.032 314.198C421.86 316.106 420.384 317.42 418.597 318.139C416.839 318.866 414.535 318.802 411.685 317.946ZM412.658 304.682L417.107 306.018L417.741 303.902C418.443 301.571 418.776 299.945 418.738 299.023C418.738 298.082 418.321 297.486 417.486 297.235C416.68 296.993 415.937 297.272 415.257 298.072C414.614 298.852 413.959 300.35 413.293 302.567L412.658 304.682ZM442.474 305.161L442.706 304.384L453.851 307.73L453.619 308.507L451.848 307.976L451.362 323.693L459.579 310.297L456.599 309.402L456.833 308.625L462.664 310.376L462.43 311.153L460.615 310.609L449.488 328.826L443.571 327.049L443.797 312.666L435.753 324.702L429.963 322.964L429.513 301.271L427.571 300.687L427.803 299.91L440.892 303.839L440.66 304.617L438.067 303.838L437.63 319.711L443.776 310.542L444.072 305.641L442.474 305.161ZM469.68 323.827L470.932 324.203L471.933 320.878C472.755 318.144 473.146 316.269 473.105 315.252C473.103 314.216 472.67 313.568 471.805 313.309C471.286 313.153 470.769 313.155 470.25 313.313C469.768 313.451 469.456 313.764 469.308 314.254C469.169 314.714 469.114 315.215 469.139 315.756L470.219 316.08C470.268 316.754 470.162 317.523 469.902 318.386C469.653 319.221 469.071 319.847 468.16 320.264C467.26 320.652 466.261 320.682 465.166 320.353C462.691 319.61 461.811 318.044 462.53 315.655C463.594 312.114 467.134 311.248 473.154 313.055C476.58 314.084 478.764 315.383 479.706 316.952C480.685 318.501 480.707 320.83 479.773 323.938L477.139 332.703C476.688 334.199 476.881 335.073 477.717 335.324C478.696 335.618 479.716 334.308 480.781 331.396L481.416 331.633C480.54 334.132 479.541 335.73 478.42 336.429C477.3 337.129 475.788 337.193 473.889 336.622C470.433 335.585 468.766 333.923 468.888 331.638C468.184 332.619 467.38 333.256 466.476 333.549C465.571 333.843 464.4 333.773 462.959 333.341C458.697 332.061 457.089 329.68 458.136 326.197C458.75 324.154 459.976 323 461.815 322.736C463.688 322.452 466.31 322.815 469.68 323.827ZM466.356 328.618C465.908 330.115 465.689 331.101 465.703 331.576C465.746 332.059 465.984 332.366 466.415 332.496C466.877 332.634 467.402 332.4 467.993 331.793C468.62 331.165 469.13 330.204 469.519 328.909L470.726 324.894L470.423 324.803C468.638 324.267 467.35 325.308 466.564 327.928L466.356 328.618ZM500.55 323.069C499.485 322.749 498.341 323.159 497.12 324.298C495.899 325.438 495.002 326.957 494.43 328.857L490.953 340.428L494.02 341.349L493.786 342.126L480.31 338.079L480.543 337.302L482.918 338.016L488.627 319.019L486.252 318.305L486.486 317.528L496.896 320.654L495.651 324.799C496.465 323.443 497.523 322.537 498.822 322.08C500.13 321.593 501.46 321.554 502.815 321.96C504.167 322.366 505.144 323.084 505.746 324.111C506.387 325.119 506.493 326.328 506.07 327.739C505.654 329.12 505.017 330.09 504.16 330.648C503.3 331.206 502.209 331.286 500.884 330.889C499.589 330.5 498.753 329.778 498.38 328.725C498.034 327.68 498.321 326.464 499.241 325.076L500.796 325.543C501.956 324.291 501.875 323.467 500.55 323.069ZM519.385 337.331C519.433 337.177 519.525 336.868 519.664 336.404C519.808 335.926 519.955 335.381 520.111 334.768C520.268 334.141 520.415 333.473 520.551 332.763C520.689 332.053 520.767 331.38 520.791 330.743C520.585 330.206 520.321 329.706 520.001 329.242C519.698 328.768 519.224 328.434 518.577 328.24C517.48 327.911 516.456 328.385 515.505 329.662C514.567 330.944 513.647 333.088 512.743 336.096C512.346 337.417 512.039 338.642 511.823 339.772C511.618 340.906 511.518 341.903 511.522 342.762C511.538 343.625 511.671 344.331 511.919 344.881C512.182 345.435 512.581 345.792 513.114 345.952C515.365 346.628 517.455 343.754 519.385 337.331ZM521.919 327.98C522.075 326.494 522.096 325.075 521.98 323.723C521.87 322.357 521.611 321.129 521.202 320.041C520.807 318.958 520.256 318.034 519.55 317.27C518.858 316.511 518.021 315.984 517.038 315.688C516.474 315.519 515.939 315.436 515.434 315.437C514.942 315.442 514.498 315.493 514.101 315.588C513.708 315.669 513.372 315.768 513.093 315.883C512.831 315.988 512.638 316.068 512.515 316.123L512.188 315.221C512.656 314.886 513.187 314.601 513.779 314.365C514.384 314.133 515.015 313.971 515.674 313.877C516.33 313.783 516.997 313.753 517.677 313.789C518.371 313.829 519.033 313.943 519.666 314.133C521.746 314.758 523.437 315.764 524.738 317.15C526.042 318.522 526.974 320.196 527.53 322.171C528.086 324.146 528.277 326.387 528.106 328.895C527.935 331.402 527.42 334.09 526.557 336.957C525.861 339.275 525.01 341.242 524.003 342.855C523.01 344.472 521.9 345.748 520.669 346.681C519.442 347.599 518.111 348.173 516.68 348.402C515.265 348.62 513.777 348.495 512.216 348.027C511.133 347.702 510.087 347.181 509.076 346.463C508.083 345.736 507.26 344.8 506.609 343.654C505.97 342.512 505.573 341.152 505.42 339.574C505.27 337.981 505.504 336.159 506.12 334.107C506.652 332.336 507.372 330.836 508.278 329.607C509.198 328.381 510.22 327.425 511.349 326.736C512.479 326.034 513.674 325.603 514.933 325.445C516.195 325.273 517.445 325.372 518.683 325.744C519.161 325.887 519.578 326.058 519.932 326.256C520.29 326.441 520.592 326.631 520.84 326.828C521.088 327.025 521.296 327.225 521.465 327.429C521.638 327.619 521.79 327.803 521.919 327.98ZM525.466 352.108L527.789 344.38L528.308 344.536C528.305 347.265 528.784 349.323 529.747 350.711C530.713 352.099 532.146 353.078 534.047 353.648C536.984 354.53 538.733 354.036 539.296 352.165C539.538 351.359 539.359 350.647 538.761 350.027C537.827 349.057 536.536 348.135 534.882 347.263C533.08 346.157 531.645 344.973 530.581 343.712C529.309 342.2 529.008 340.321 529.685 338.076C530.359 335.831 531.586 334.254 533.367 333.345C535.156 332.407 537.202 332.284 539.506 332.976C540.916 333.4 542.272 334.168 543.57 335.279C544.047 335.674 544.431 335.914 544.72 336.001C545.007 336.087 545.282 336.06 545.543 335.919C545.807 335.778 546.163 335.477 546.617 335.017L547.09 335.159L545.105 341.765L544.588 341.609C544.244 337.427 542.53 334.873 539.449 333.948C538.095 333.541 537.013 333.483 536.205 333.774C535.403 334.035 534.896 334.526 534.68 335.246C534.55 335.677 534.546 336.053 534.67 336.373C534.802 336.663 534.91 336.884 534.988 337.033C535.069 337.183 535.219 337.369 535.435 337.591C535.659 337.783 535.844 337.949 535.991 338.087C536.146 338.197 536.38 338.361 536.691 338.58C537.031 338.807 537.283 338.961 537.448 339.042C539.258 340.119 540.54 340.975 541.291 341.608C542.052 342.213 542.742 342.891 543.363 343.643C544.619 345.212 544.879 347.22 544.144 349.667C543.416 352.084 542.144 353.71 540.322 354.544C538.511 355.35 536.353 355.376 533.846 354.624C532.061 354.088 530.459 353.152 529.04 351.816C528.763 351.482 528.525 351.284 528.322 351.224C527.689 351.034 526.911 351.38 525.985 352.264L525.466 352.108Z" fill="#0C3636"/>
<path d="M454.36 356.12C453.711 355.926 453.139 355.639 452.644 355.261C452.158 354.877 451.767 354.429 451.472 353.916C451.185 353.398 451.01 352.838 450.943 352.235C450.878 351.633 450.939 351.016 451.13 350.385C451.319 349.753 451.608 349.204 451.995 348.738C452.382 348.272 452.84 347.906 453.371 347.642C453.904 347.369 454.476 347.21 455.089 347.165C455.707 347.112 456.343 347.184 456.998 347.381C457.696 347.59 458.296 347.902 458.797 348.318C459.302 348.725 459.682 349.223 459.937 349.812L458.628 350.465C458.419 350.041 458.15 349.69 457.818 349.414C457.49 349.13 457.1 348.921 456.656 348.787C456.21 348.653 455.779 348.603 455.363 348.637C454.956 348.674 454.572 348.784 454.216 348.968C453.868 349.155 453.564 349.408 453.3 349.726C453.045 350.046 452.852 350.425 452.72 350.862C452.589 351.3 452.541 351.722 452.579 352.13C452.622 352.541 452.738 352.92 452.925 353.267C453.119 353.617 453.379 353.919 453.699 354.174C454.028 354.432 454.415 354.628 454.859 354.761C455.305 354.895 455.744 354.938 456.172 354.891C456.605 354.835 457.026 354.683 457.435 354.436L458.164 355.713C457.627 356.056 457.035 356.262 456.389 356.332C455.74 356.402 455.064 356.332 454.36 356.12ZM459.477 357.525L461.427 351.04L462.872 351.474L462.335 353.26L462.324 352.686C462.648 352.308 463.053 352.067 463.533 351.964C464.022 351.864 464.579 351.907 465.204 352.095L464.769 353.54C464.708 353.504 464.649 353.478 464.594 353.461C464.539 353.436 464.484 353.415 464.427 353.397C463.851 353.225 463.344 353.257 462.902 353.495C462.461 353.725 462.141 354.172 461.942 354.836L460.997 357.981L459.477 357.525ZM467.822 360.123C467.101 359.906 466.513 359.575 466.055 359.129C465.609 358.677 465.31 358.155 465.16 357.563C465.021 356.973 465.046 356.359 465.239 355.72C465.434 355.072 465.746 354.544 466.179 354.135C466.621 353.721 467.136 353.447 467.722 353.315C468.318 353.184 468.941 353.217 469.588 353.411C470.221 353.601 470.742 353.908 471.152 354.331C471.563 354.755 471.837 355.26 471.968 355.847C472.102 356.434 472.065 357.068 471.86 357.748C471.84 357.812 471.815 357.884 471.783 357.962C471.758 358.043 471.732 358.119 471.701 358.19L466.295 356.566L466.598 355.558L471.204 356.941L470.512 357.078C470.632 356.708 470.653 356.357 470.576 356.025C470.5 355.693 470.344 355.404 470.111 355.157C469.882 354.912 469.588 354.735 469.224 354.625C468.85 354.514 468.499 354.496 468.166 354.573C467.842 354.652 467.555 354.813 467.305 355.056C467.067 355.293 466.888 355.606 466.772 355.995L466.698 356.237C466.582 356.626 466.568 356.997 466.656 357.35C466.743 357.703 466.926 358.009 467.201 358.268C467.476 358.527 467.824 358.72 468.245 358.847C468.611 358.956 468.955 358.998 469.281 358.972C469.607 358.946 469.92 358.846 470.219 358.671L470.751 359.85C470.358 360.103 469.91 360.255 469.409 360.308C468.919 360.355 468.388 360.293 467.822 360.123ZM475.414 362.402C474.789 362.215 474.268 361.908 473.85 361.482C473.441 361.05 473.167 360.545 473.034 359.966C472.898 359.387 472.932 358.762 473.134 358.09C473.335 357.418 473.653 356.878 474.084 356.469C474.516 356.06 475.021 355.792 475.597 355.665C476.181 355.541 476.787 355.573 477.41 355.76C477.952 355.923 478.403 356.19 478.758 356.562C479.116 356.925 479.348 357.388 479.454 357.949C479.559 358.51 479.498 359.171 479.27 359.932C479.042 360.685 478.733 361.272 478.342 361.692C477.952 362.105 477.508 362.369 477.005 362.483C476.504 362.597 475.973 362.57 475.414 362.402ZM475.987 361.157C476.35 361.267 476.698 361.283 477.03 361.206C477.372 361.132 477.673 360.966 477.935 360.71C478.206 360.456 478.403 360.122 478.528 359.709C478.654 359.288 478.674 358.901 478.585 358.548C478.507 358.19 478.348 357.886 478.104 357.636C477.87 357.389 477.569 357.211 477.205 357.102C476.842 356.992 476.488 356.975 476.148 357.049C475.816 357.126 475.515 357.291 475.243 357.545C474.984 357.794 474.791 358.128 474.664 358.549C474.54 358.962 474.516 359.348 474.595 359.707C474.679 360.068 474.84 360.372 475.074 360.619C475.318 360.868 475.623 361.048 475.987 361.157ZM477.589 362.963L478.049 361.433L478.629 359.726L479.026 357.966L480.237 353.934L481.743 354.387L479.036 363.397L477.589 362.963ZM481.371 364.098L483.321 357.614L484.839 358.07L482.891 364.554L481.371 364.098ZM484.406 356.775C484.123 356.69 483.915 356.53 483.783 356.296C483.657 356.065 483.634 355.823 483.709 355.573C483.787 355.313 483.941 355.126 484.171 355.009C484.41 354.887 484.672 354.869 484.955 354.954C485.238 355.039 485.442 355.193 485.57 355.417C485.708 355.634 485.739 355.869 485.665 356.12C485.584 356.387 485.427 356.587 485.193 356.719C484.961 356.844 484.699 356.862 484.406 356.775ZM487.638 366.071C486.925 365.857 486.429 365.511 486.15 365.029C485.873 364.54 485.842 363.936 486.06 363.215L487.807 357.399L489.325 357.855L487.589 363.635C487.497 363.942 487.501 364.204 487.605 364.42C487.715 364.639 487.912 364.791 488.195 364.876C488.535 364.978 488.845 364.974 489.126 364.864L489.227 366.073C489.005 366.165 488.753 366.209 488.472 366.203C488.191 366.199 487.914 366.154 487.638 366.071ZM485.928 359.773L486.292 358.559L490.619 359.858L490.253 361.072L485.928 359.773ZM498.449 369.358C497.8 369.164 497.228 368.877 496.732 368.498C496.249 368.115 495.858 367.667 495.561 367.154C495.276 366.635 495.099 366.075 495.034 365.472C494.967 364.87 495.028 364.253 495.219 363.622C495.407 362.99 495.696 362.442 496.084 361.975C496.471 361.509 496.931 361.144 497.46 360.879C497.993 360.607 498.565 360.448 499.18 360.403C499.795 360.349 500.432 360.421 501.089 360.618C501.785 360.827 502.384 361.14 502.886 361.555C503.391 361.963 503.77 362.461 504.026 363.049L502.719 363.702C502.51 363.278 502.239 362.928 501.907 362.652C501.578 362.367 501.191 362.158 500.745 362.025C500.299 361.891 499.868 361.841 499.451 361.875C499.044 361.911 498.663 362.021 498.307 362.206C497.959 362.393 497.653 362.645 497.389 362.963C497.135 363.284 496.941 363.662 496.809 364.1C496.679 364.537 496.63 364.959 496.668 365.368C496.711 365.778 496.827 366.158 497.014 366.503C497.21 366.853 497.468 367.156 497.788 367.411C498.116 367.669 498.504 367.865 498.95 367.999C499.394 368.132 499.833 368.176 500.261 368.128C500.694 368.071 501.114 367.92 501.523 367.673L502.253 368.952C501.718 369.294 501.126 369.5 500.477 369.569C499.829 369.639 499.152 369.569 498.449 369.358ZM507.506 371.944L507.899 370.634V370.329L508.589 368.034C508.722 367.588 508.691 367.203 508.498 366.881C508.306 366.549 507.938 366.303 507.395 366.14C507.032 366.03 506.654 365.979 506.263 365.985C505.882 365.993 505.538 366.063 505.235 366.193L504.971 364.908C505.4 364.746 505.872 364.671 506.389 364.685C506.916 364.694 507.439 364.776 507.958 364.931C508.897 365.213 509.554 365.659 509.927 366.264C510.313 366.865 510.364 367.635 510.081 368.574L508.939 372.374L507.506 371.944ZM505.439 371.416C504.952 371.27 504.553 371.062 504.236 370.791C503.922 370.512 503.709 370.195 503.593 369.844C503.489 369.486 503.493 369.121 503.605 368.747C503.715 368.384 503.898 368.081 504.156 367.841C504.421 367.604 504.779 367.458 505.227 367.407C505.673 367.356 506.226 367.431 506.882 367.627L508.766 368.193L508.463 369.199L506.69 368.667C506.171 368.512 505.797 368.492 505.567 368.61C505.341 368.718 505.19 368.893 505.117 369.136C505.034 369.411 505.078 369.663 505.249 369.891C505.418 370.117 505.697 370.29 506.086 370.406C506.46 370.518 506.817 370.533 507.159 370.451C507.509 370.37 507.8 370.184 508.03 369.891L508.011 370.879C507.751 371.215 507.399 371.431 506.955 371.528C506.519 371.626 506.013 371.588 505.439 371.416ZM511.225 373.062L513.173 366.576L514.62 367.01L514.083 368.796L514.07 368.223C514.396 367.843 514.799 367.604 515.281 367.502C515.77 367.401 516.326 367.445 516.95 367.631L516.515 369.075C516.456 369.04 516.397 369.015 516.34 368.997C516.287 368.971 516.232 368.952 516.175 368.934C515.599 368.761 515.09 368.794 514.648 369.032C514.209 369.262 513.889 369.708 513.688 370.372L512.745 373.518L511.225 373.062ZM519.265 375.567C518.642 375.381 518.121 375.074 517.701 374.648C517.292 374.215 517.02 373.711 516.885 373.133C516.751 372.553 516.784 371.928 516.985 371.256C517.187 370.584 517.504 370.044 517.936 369.635C518.369 369.227 518.872 368.959 519.45 368.832C520.034 368.708 520.638 368.739 521.263 368.926C521.805 369.089 522.254 369.356 522.611 369.728C522.969 370.091 523.201 370.553 523.305 371.115C523.411 371.677 523.349 372.337 523.12 373.097C522.894 373.85 522.586 374.437 522.195 374.858C521.805 375.271 521.359 375.534 520.858 375.648C520.354 375.762 519.824 375.736 519.265 375.567ZM519.839 374.324C520.203 374.434 520.551 374.449 520.883 374.373C521.223 374.298 521.524 374.133 521.788 373.876C522.059 373.622 522.255 373.288 522.379 372.875C522.507 372.455 522.525 372.068 522.436 371.714C522.36 371.357 522.198 371.052 521.957 370.803C521.721 370.555 521.422 370.376 521.058 370.268C520.693 370.158 520.341 370.14 520.001 370.215C519.668 370.292 519.368 370.457 519.096 370.712C518.837 370.96 518.642 371.294 518.516 371.716C518.393 372.129 518.369 372.514 518.446 372.873C518.532 373.233 518.693 373.538 518.927 373.785C519.171 374.035 519.474 374.214 519.839 374.324ZM521.442 376.129L521.902 374.599L522.48 372.893L522.877 371.133L524.09 367.101L525.596 367.553L522.887 376.563L521.442 376.129ZM527.862 378.057L534.243 370.706L535.798 371.172L537.084 380.825L535.431 380.328L534.442 371.679L535.073 371.867L529.49 378.546L527.862 378.057ZM530.215 376.618L531.013 375.506L535.606 376.886L535.657 378.251L530.215 376.618ZM538.502 381.252L541.057 372.752L544.556 373.801C545.309 374.027 545.917 374.343 546.379 374.746C546.849 375.151 547.159 375.624 547.316 376.165C547.472 376.707 547.454 377.289 547.267 377.911C547.081 378.536 546.772 379.029 546.345 379.395C545.917 379.762 545.396 379.984 544.779 380.065C544.171 380.147 543.491 380.075 542.738 379.849L540.114 379.061L541.041 378.532L540.082 381.725L538.502 381.252ZM540.99 378.701L540.515 377.725L543.066 378.491C543.764 378.699 544.33 378.711 544.765 378.524C545.211 378.332 545.516 377.968 545.675 377.434C545.838 376.892 545.787 376.422 545.518 376.023C545.256 375.626 544.779 375.324 544.081 375.115L541.531 374.349L542.469 373.783L540.99 378.701ZM547.537 383.963L550.09 375.463L551.671 375.937L549.115 384.437L547.537 383.963Z" fill="#7F56D9"/>
</g>
<defs>
<filter id="filter0_f_25_2256" x="-31.6617" y="207.79" width="580.708" height="580.597" filterUnits="userSpaceOnUse" color-interpolation-filters="sRGB">
<feFlood flood-opacity="0" result="BackgroundImageFix"/>
<feBlend mode="normal" in="SourceGraphic" in2="BackgroundImageFix" result="shape"/>
<feGaussianBlur stdDeviation="91.763" result="effect1_foregroundBlur_25_2256"/>
</filter>
<filter id="filter1_f_25_2256" x="520.318" y="490.148" width="580.708" height="580.597" filterUnits="userSpaceOnUse" color-interpolation-filters="sRGB">
<feFlood flood-opacity="0" result="BackgroundImageFix"/>
<feBlend mode="normal" in="SourceGraphic" in2="BackgroundImageFix" result="shape"/>
<feGaussianBlur stdDeviation="91.763" result="effect1_foregroundBlur_25_2256"/>
</filter>
<filter id="filter2_d_25_2256" x="39.6285" y="181.1" width="596.209" height="482.376" filterUnits="userSpaceOnUse" color-interpolation-filters="sRGB">
<feFlood flood-opacity="0" result="BackgroundImageFix"/>
<feColorMatrix in="SourceAlpha" type="matrix" values="0 0 0 0 0 0 0 0 0 0 0 0 0 0 0 0 0 0 127 0" result="hardAlpha"/>
<feOffset dy="27.5289"/>
<feGaussianBlur stdDeviation="19.882"/>
<feComposite in2="hardAlpha" operator="out"/>
<feColorMatrix type="matrix" values="0 0 0 0 0.1375 0 0 0 0 0.155242 0 0 0 0 0.4125 0 0 0 0.08 0"/>
<feBlend mode="normal" in2="BackgroundImageFix" result="effect1_dropShadow_25_2256"/>
<feBlend mode="normal" in="SourceGraphic" in2="effect1_dropShadow_25_2256" result="shape"/>
</filter>
<filter id="filter3_f_25_2256" x="-146.545" y="-213.053" width="623.913" height="623.794" filterUnits="userSpaceOnUse" color-interpolation-filters="sRGB">
<feFlood flood-opacity="0" result="BackgroundImageFix"/>
<feBlend mode="normal" in="SourceGraphic" in2="BackgroundImageFix" result="shape"/>
<feGaussianBlur stdDeviation="98.5859" result="effect1_foregroundBlur_25_2256"/>
</filter>
<filter id="filter4_f_25_2256" x="259.16" y="327.459" width="623.913" height="623.794" filterUnits="userSpaceOnUse" color-interpolation-filters="sRGB">
<feFlood flood-opacity="0" result="BackgroundImageFix"/>
<feBlend mode="normal" in="SourceGraphic" in2="BackgroundImageFix" result="shape"/>
<feGaussianBlur stdDeviation="98.5859" result="effect1_foregroundBlur_25_2256"/>
</filter>
<linearGradient id="paint0_linear_25_2256" x1="613.53" y1="738.939" x2="265.288" y2="497.302" gradientUnits="userSpaceOnUse">
<stop offset="0.507336"/>
<stop offset="1" stop-opacity="0"/>
</linearGradient>
<linearGradient id="paint1_linear_25_2256" x1="359.697" y1="603.976" x2="371.347" y2="679.415" gradientUnits="userSpaceOnUse">
<stop stop-color="#F3EC58"/>
<stop offset="0.4" stop-color="#F6CA45"/>
<stop offset="0.77" stop-color="#F9B036"/>
<stop offset="1" stop-color="#FAA631"/>
</linearGradient>
<linearGradient id="paint2_linear_25_2256" x1="375.716" y1="558.524" x2="149.858" y2="163.216" gradientUnits="userSpaceOnUse">
<stop offset="0.507336" stop-color="white"/>
<stop offset="1" stop-color="white" stop-opacity="0"/>
</linearGradient>
<linearGradient id="paint3_linear_25_2256" x1="192.044" y1="310.295" x2="168.461" y2="388.841" gradientUnits="userSpaceOnUse">
<stop stop-color="#F3EC58"/>
<stop offset="0.4" stop-color="#F6CA45"/>
<stop offset="0.77" stop-color="#F9B036"/>
<stop offset="1" stop-color="#FAA631"/>
</linearGradient>
</defs>
</svg>
