<svg width="381" height="313" viewBox="0 0 381 313" fill="none" xmlns="http://www.w3.org/2000/svg">
<rect x="143.911" y="176.164" width="218.541" height="138.248" rx="9.05556" transform="rotate(-8.78356 143.911 176.164)" fill="#18181B"/>
<mask id="mask0_25_1902" style="mask-type:alpha" maskUnits="userSpaceOnUse" x="145" y="144" width="235" height="168">
<rect x="143.911" y="176.164" width="218.541" height="138.248" rx="9.05556" transform="rotate(-8.78356 143.911 176.164)" fill="white"/>
</mask>
<g mask="url(#mask0_25_1902)">
<g opacity="0.18">
<line x1="141.127" y1="172.694" x2="333.61" y2="287.728" stroke="white" stroke-width="0.603704"/>
<line x1="138.329" y1="174.348" x2="330.812" y2="289.382" stroke="white" stroke-width="0.603704"/>
<line x1="135.53" y1="176.002" x2="328.013" y2="291.036" stroke="white" stroke-width="0.603704"/>
<line x1="132.731" y1="177.656" x2="325.214" y2="292.69" stroke="white" stroke-width="0.603704"/>
<line x1="129.933" y1="179.31" x2="322.415" y2="294.345" stroke="white" stroke-width="0.603704"/>
<line x1="127.133" y1="180.964" x2="319.616" y2="295.999" stroke="white" stroke-width="0.603704"/>
<line x1="124.336" y1="182.619" x2="316.818" y2="297.653" stroke="white" stroke-width="0.603704"/>
<line x1="121.537" y1="184.273" x2="314.02" y2="299.307" stroke="white" stroke-width="0.603704"/>
<line x1="118.738" y1="185.927" x2="311.22" y2="300.961" stroke="white" stroke-width="0.603704"/>
<line x1="115.939" y1="187.581" x2="308.422" y2="302.616" stroke="white" stroke-width="0.603704"/>
<line x1="113.14" y1="189.235" x2="305.622" y2="304.27" stroke="white" stroke-width="0.603704"/>
<line x1="110.341" y1="190.889" x2="302.824" y2="305.924" stroke="white" stroke-width="0.603704"/>
<line x1="107.542" y1="192.544" x2="300.025" y2="307.578" stroke="white" stroke-width="0.603704"/>
<line x1="104.744" y1="194.198" x2="297.227" y2="309.232" stroke="white" stroke-width="0.603704"/>
<line x1="101.945" y1="195.852" x2="294.428" y2="310.887" stroke="white" stroke-width="0.603704"/>
<line x1="99.1461" y1="197.506" x2="291.629" y2="312.541" stroke="white" stroke-width="0.603704"/>
<line x1="96.3478" y1="199.16" x2="288.831" y2="314.195" stroke="white" stroke-width="0.603704"/>
<line x1="93.5486" y1="200.815" x2="286.031" y2="315.849" stroke="white" stroke-width="0.603704"/>
<line x1="90.7499" y1="202.469" x2="283.233" y2="317.503" stroke="white" stroke-width="0.603704"/>
<line x1="87.9512" y1="204.123" x2="280.434" y2="319.158" stroke="white" stroke-width="0.603704"/>
<line x1="85.1529" y1="205.777" x2="277.636" y2="320.812" stroke="white" stroke-width="0.603704"/>
<line x1="82.3542" y1="207.431" x2="274.837" y2="322.466" stroke="white" stroke-width="0.603704"/>
<line x1="79.5545" y1="209.085" x2="272.037" y2="324.12" stroke="white" stroke-width="0.603704"/>
<line x1="76.7563" y1="210.74" x2="269.239" y2="325.774" stroke="white" stroke-width="0.603704"/>
<line x1="73.9581" y1="212.394" x2="266.441" y2="327.428" stroke="white" stroke-width="0.603704"/>
<line x1="71.1589" y1="214.048" x2="263.642" y2="329.083" stroke="white" stroke-width="0.603704"/>
<line x1="68.3597" y1="215.702" x2="260.842" y2="330.737" stroke="white" stroke-width="0.603704"/>
<line x1="65.5613" y1="217.356" x2="258.044" y2="332.391" stroke="white" stroke-width="0.603704"/>
<line x1="62.7626" y1="219.011" x2="255.245" y2="334.045" stroke="white" stroke-width="0.603704"/>
<line x1="59.9644" y1="220.665" x2="252.447" y2="335.699" stroke="white" stroke-width="0.603704"/>
<line x1="57.1647" y1="222.319" x2="249.647" y2="337.353" stroke="white" stroke-width="0.603704"/>
<line x1="144.615" y1="171.544" x2="337.098" y2="286.578" stroke="white" stroke-width="0.603704"/>
<line x1="148.102" y1="170.394" x2="340.585" y2="285.428" stroke="white" stroke-width="0.603704"/>
<line x1="151.591" y1="169.244" x2="344.074" y2="284.279" stroke="white" stroke-width="0.603704"/>
<line x1="155.077" y1="168.095" x2="347.56" y2="283.129" stroke="white" stroke-width="0.603704"/>
<line x1="158.565" y1="166.945" x2="351.048" y2="281.979" stroke="white" stroke-width="0.603704"/>
<line x1="162.053" y1="165.795" x2="354.536" y2="280.829" stroke="white" stroke-width="0.603704"/>
<line x1="165.54" y1="164.645" x2="358.023" y2="279.68" stroke="white" stroke-width="0.603704"/>
<line x1="169.028" y1="163.496" x2="361.511" y2="278.53" stroke="white" stroke-width="0.603704"/>
<line x1="172.515" y1="162.346" x2="364.998" y2="277.38" stroke="white" stroke-width="0.603704"/>
<line x1="176.003" y1="161.196" x2="368.486" y2="276.23" stroke="white" stroke-width="0.603704"/>
<line x1="179.49" y1="160.046" x2="371.973" y2="275.081" stroke="white" stroke-width="0.603704"/>
<line x1="182.979" y1="158.897" x2="375.462" y2="273.931" stroke="white" stroke-width="0.603704"/>
<line x1="186.466" y1="157.747" x2="378.949" y2="272.781" stroke="white" stroke-width="0.603704"/>
<line x1="189.953" y1="156.597" x2="382.436" y2="271.631" stroke="white" stroke-width="0.603704"/>
<line x1="193.441" y1="155.447" x2="385.924" y2="270.482" stroke="white" stroke-width="0.603704"/>
<line x1="196.929" y1="154.298" x2="389.411" y2="269.332" stroke="white" stroke-width="0.603704"/>
<line x1="200.415" y1="153.148" x2="392.898" y2="268.182" stroke="white" stroke-width="0.603704"/>
<line x1="203.903" y1="151.998" x2="396.386" y2="267.033" stroke="white" stroke-width="0.603704"/>
<line x1="207.391" y1="150.848" x2="399.874" y2="265.883" stroke="white" stroke-width="0.603704"/>
<line x1="210.879" y1="149.699" x2="403.362" y2="264.733" stroke="white" stroke-width="0.603704"/>
<line x1="214.366" y1="148.549" x2="406.849" y2="263.583" stroke="white" stroke-width="0.603704"/>
<line x1="217.854" y1="147.399" x2="410.337" y2="262.434" stroke="white" stroke-width="0.603704"/>
<line x1="221.341" y1="146.249" x2="413.824" y2="261.284" stroke="white" stroke-width="0.603704"/>
</g>
<rect x="143.911" y="176.164" width="218.541" height="138.248" rx="9.05556" transform="rotate(-8.78356 143.911 176.164)" fill="url(#paint0_linear_25_1902)"/>
<g filter="url(#filter0_f_25_1902)">
<circle cx="153.973" cy="189.881" r="54.3334" transform="rotate(-8.78356 153.973 189.881)" fill="#B4C9FF"/>
</g>
<g filter="url(#filter1_f_25_1902)">
<circle cx="371.677" cy="270.475" r="54.3334" transform="rotate(-8.78356 371.677 270.475)" fill="white"/>
</g>
</g>
<path d="M202.854 241.358L200.341 225.091C200.017 222.996 197.641 221.618 195.043 222.019L171.65 225.634C169.052 226.035 167.202 228.067 167.526 230.161L170.04 246.428C170.363 248.523 172.74 249.9 175.338 249.499L198.731 245.884C201.328 245.482 203.178 243.453 202.854 241.358ZM175.291 249.194C172.901 249.563 170.715 248.296 170.417 246.37L167.904 230.103C167.606 228.176 169.308 226.308 171.697 225.939L195.091 222.324C197.479 221.955 199.665 223.222 199.963 225.15L202.476 241.416C202.774 243.342 201.072 245.21 198.684 245.579L175.291 249.194Z" fill="#3F3F46"/>
<path d="M198.686 245.579L175.293 249.194C174.144 249.371 172.986 249.173 172.072 248.644C171.158 248.115 170.564 247.297 170.42 246.371L167.906 230.103C167.608 228.176 169.31 226.308 171.699 225.939L195.092 222.324C197.481 221.955 199.667 223.222 199.964 225.15L202.478 241.417C202.775 243.342 201.074 245.21 198.686 245.579Z" fill="url(#paint1_linear_25_1902)"/>
<path d="M169.676 243.654L169.629 243.35L180.401 241.685C181.115 241.574 181.764 241.239 182.206 240.754C182.648 240.269 182.846 239.673 182.758 239.098L181.864 233.311C181.774 232.735 181.405 232.227 180.837 231.898C180.27 231.569 179.55 231.446 178.836 231.555L168.064 233.22L168.017 232.915L178.789 231.251C179.603 231.126 180.424 231.266 181.071 231.641C181.718 232.017 182.139 232.596 182.242 233.253L183.136 239.039C183.236 239.696 183.01 240.375 182.506 240.928C182.002 241.482 181.262 241.863 180.448 241.99L169.676 243.654Z" fill="#383335"/>
<path d="M189.39 238.073L188.496 232.286C188.396 231.63 188.622 230.95 189.126 230.397C189.63 229.844 190.37 229.462 191.184 229.335L200.751 227.857L200.799 228.162L191.231 229.64C190.517 229.751 189.868 230.086 189.426 230.571C188.984 231.056 188.786 231.652 188.874 232.228L189.768 238.014C189.858 238.59 190.227 239.098 190.795 239.427C191.363 239.756 192.082 239.88 192.796 239.77L202.364 238.292L202.411 238.596L192.844 240.075C192.029 240.2 191.208 240.059 190.561 239.684C189.914 239.309 189.493 238.729 189.39 238.073Z" fill="#383335"/>
<path d="M188.75 232.679L188.703 232.375L182.071 233.399L182.118 233.704L188.75 232.679Z" fill="#383335"/>
<path d="M189.561 237.926L189.514 237.621L182.882 238.646L182.929 238.951L189.561 237.926Z" fill="#383335"/>
<path d="M179.182 248.749L178.168 242.186L177.79 242.245L178.804 248.807L179.182 248.749Z" fill="#383335"/>
<path d="M176.556 231.752L175.542 225.189L175.164 225.247L176.178 231.81L176.556 231.752Z" fill="#383335"/>
<path d="M195.92 246.163L194.906 239.6L194.528 239.658L195.542 246.221L195.92 246.163Z" fill="#383335"/>
<path d="M193.294 229.166L192.28 222.603L191.902 222.661L192.916 229.224L193.294 229.166Z" fill="#383335"/>
<path d="M201.437 233.434L201.39 233.13L189.113 235.027L189.16 235.331L201.437 233.434Z" fill="#383335"/>
<path d="M182.408 236.375L182.361 236.07L168.824 238.162L168.871 238.466L182.408 236.375Z" fill="#383335"/>
<path d="M335.677 271.294L331.391 271.809L330.337 252.73L334.623 252.216L335.677 271.294ZM324.053 253.484L322.534 266.875L321.498 264.155L321.499 264.156L318.378 255.894C318.378 255.894 317.867 254.226 316.009 254.449L309.254 255.259L309.238 255.586C309.238 255.586 311.401 255.828 314.147 257.192L321.114 273.042L325.58 272.506L328.665 252.931L324.053 253.484V253.484ZM361.496 268.197L365.431 267.725L358.267 249.379L354.822 249.792C353.231 249.983 353.122 251.427 353.122 251.427L350.184 269.554L354.652 269.018L354.991 266.125L360.439 265.471L361.496 268.197ZM355.459 262.128L356.314 254.838L358.978 261.706L355.459 262.128ZM347.684 255.267L347.494 251.166C347.494 251.166 345.444 250.575 343.477 250.811C341.35 251.066 336.51 252.731 337.535 257.881C338.499 262.727 344.439 262.076 344.946 264.621C345.452 267.167 340.045 267.349 337.97 265.954L338.171 270.242C338.171 270.242 340.296 271.072 343.22 270.721C346.144 270.37 350.213 268.115 349.279 263.419C348.308 258.542 342.237 258.805 341.815 256.685C341.393 254.564 345.621 254.336 347.684 255.267V255.267Z" fill="white"/>
<path d="M321.098 264.684L318.454 257.344C318.454 257.344 318.042 255.856 316.141 256.15L309.236 257.217L309.199 257.514C309.199 257.514 312.624 257.689 316.206 259.775C319.631 261.768 321.098 264.684 321.098 264.684Z" fill="#E6A540"/>
<path d="M175.885 282.555L175.758 281.735L176.04 281.691C176.25 281.659 176.407 281.574 176.511 281.437C176.619 281.295 176.658 281.123 176.627 280.922L176.1 277.516L176.999 277.377L177.521 280.75C177.567 281.052 177.543 281.327 177.447 281.574C177.355 281.822 177.198 282.027 176.977 282.191C176.761 282.355 176.491 282.461 176.167 282.511L175.885 282.555ZM179.274 282.031L178.519 277.142L181.767 276.64L181.889 277.427L179.533 277.792L179.727 279.045L181.951 278.701L182.073 279.489L179.848 279.833L180.045 281.106L182.401 280.742L182.523 281.529L179.274 282.031ZM185.532 281.145C185.221 281.193 184.924 281.181 184.639 281.108C184.359 281.035 184.107 280.913 183.884 280.741C183.664 280.565 183.489 280.347 183.36 280.09L184.052 279.654C184.213 279.915 184.418 280.11 184.666 280.237C184.913 280.36 185.177 280.4 185.457 280.357C185.615 280.333 185.746 280.288 185.853 280.222C185.963 280.151 186.042 280.067 186.089 279.97C186.142 279.873 186.158 279.763 186.139 279.64C186.117 279.496 186.055 279.384 185.953 279.306C185.855 279.222 185.717 279.168 185.538 279.142L184.553 278.985C184.154 278.925 183.84 278.792 183.611 278.586C183.382 278.379 183.243 278.116 183.194 277.797C183.15 277.517 183.18 277.259 183.282 277.024C183.389 276.788 183.556 276.592 183.783 276.436C184.013 276.275 184.288 276.17 184.608 276.12C184.901 276.075 185.178 276.086 185.439 276.153C185.7 276.216 185.932 276.326 186.135 276.482C186.342 276.634 186.508 276.826 186.634 277.057L185.949 277.499C185.815 277.269 185.642 277.103 185.429 277.001C185.216 276.896 184.982 276.862 184.728 276.901C184.58 276.924 184.452 276.971 184.347 277.041C184.24 277.107 184.161 277.191 184.11 277.293C184.062 277.39 184.048 277.499 184.067 277.622C184.088 277.757 184.15 277.871 184.254 277.963C184.357 278.05 184.503 278.108 184.691 278.137L185.633 278.28C186.042 278.347 186.36 278.477 186.587 278.67C186.819 278.863 186.96 279.123 187.011 279.452C187.054 279.732 187.02 279.99 186.909 280.227C186.797 280.463 186.624 280.663 186.389 280.824C186.155 280.986 185.869 281.093 185.532 281.145ZM190.378 280.396C190.067 280.444 189.769 280.432 189.485 280.359C189.205 280.286 188.953 280.164 188.729 279.992C188.51 279.816 188.335 279.599 188.205 279.341L188.897 278.905C189.059 279.167 189.264 279.361 189.512 279.489C189.759 279.612 190.023 279.651 190.303 279.608C190.46 279.584 190.592 279.539 190.699 279.473C190.809 279.402 190.888 279.318 190.935 279.222C190.987 279.124 191.004 279.014 190.985 278.891C190.963 278.747 190.901 278.636 190.799 278.557C190.701 278.474 190.563 278.419 190.384 278.393L189.399 278.236C189 278.177 188.686 278.044 188.457 277.837C188.228 277.631 188.089 277.368 188.039 277.048C187.996 276.768 188.026 276.511 188.128 276.275C188.235 276.039 188.402 275.843 188.629 275.687C188.859 275.526 189.134 275.421 189.453 275.372C189.747 275.326 190.024 275.337 190.285 275.404C190.546 275.467 190.778 275.577 190.981 275.734C191.188 275.885 191.354 276.077 191.48 276.308L190.795 276.75C190.661 276.52 190.488 276.354 190.275 276.253C190.061 276.147 189.828 276.113 189.574 276.153C189.425 276.176 189.298 276.222 189.193 276.292C189.086 276.358 189.007 276.442 188.956 276.544C188.908 276.641 188.894 276.751 188.913 276.873C188.934 277.009 188.996 277.122 189.1 277.214C189.203 277.301 189.348 277.359 189.537 277.388L190.479 277.531C190.888 277.598 191.206 277.728 191.433 277.922C191.665 278.114 191.806 278.375 191.856 278.703C191.9 278.983 191.866 279.241 191.754 279.478C191.643 279.715 191.47 279.914 191.235 280.076C191 280.237 190.715 280.344 190.378 280.396ZM193.466 279.838L192.71 274.949L195.959 274.447L196.08 275.235L193.724 275.599L193.918 276.852L196.143 276.509L196.265 277.296L194.04 277.64L194.236 278.913L196.592 278.549L196.714 279.337L193.466 279.838ZM202.149 278.577C201.79 278.633 201.446 278.621 201.116 278.542C200.785 278.463 200.487 278.328 200.22 278.136C199.953 277.945 199.73 277.706 199.551 277.42C199.376 277.129 199.261 276.804 199.206 276.445C199.15 276.082 199.161 275.737 199.241 275.412C199.32 275.086 199.459 274.791 199.655 274.528C199.852 274.264 200.096 274.048 200.388 273.877C200.679 273.702 201.006 273.587 201.369 273.531C201.732 273.474 202.079 273.486 202.409 273.565C202.74 273.644 203.038 273.779 203.305 273.971C203.572 274.158 203.792 274.395 203.966 274.681C204.145 274.967 204.262 275.292 204.318 275.655C204.374 276.014 204.36 276.359 204.276 276.69C204.193 277.016 204.052 277.311 203.855 277.575C203.659 277.838 203.415 278.057 203.124 278.232C202.837 278.406 202.512 278.521 202.149 278.577ZM202.023 277.764C202.264 277.726 202.479 277.651 202.667 277.536C202.855 277.418 203.011 277.27 203.136 277.094C203.266 276.918 203.354 276.718 203.4 276.496C203.451 276.273 203.457 276.039 203.419 275.794C203.381 275.549 203.305 275.33 203.19 275.137C203.079 274.94 202.935 274.776 202.758 274.646C202.585 274.512 202.391 274.419 202.177 274.367C201.963 274.315 201.736 274.307 201.495 274.344C201.259 274.381 201.046 274.456 200.858 274.57C200.67 274.685 200.511 274.832 200.382 275.014C200.257 275.19 200.169 275.389 200.119 275.612C200.067 275.83 200.06 276.062 200.098 276.307C200.136 276.552 200.213 276.773 200.328 276.97C200.444 277.168 200.588 277.331 200.76 277.461C200.937 277.591 201.133 277.684 201.348 277.74C201.562 277.792 201.787 277.8 202.023 277.764ZM206.087 277.888L205.331 272.999L207.149 272.718C207.482 272.667 207.784 272.683 208.057 272.766C208.333 272.844 208.562 272.988 208.742 273.198C208.921 273.403 209.037 273.67 209.087 273.998C209.139 274.335 209.103 274.634 208.977 274.895C208.856 275.156 208.669 275.364 208.415 275.519L209.841 277.308L208.83 277.464L207.297 275.504L207.928 275.756L206.7 275.946L206.979 277.75L206.087 277.888ZM206.579 275.158L207.517 275.013C207.679 274.988 207.814 274.936 207.923 274.856C208.031 274.772 208.109 274.669 208.157 274.545C208.205 274.421 208.218 274.284 208.195 274.136C208.171 273.983 208.118 273.856 208.035 273.757C207.952 273.653 207.847 273.58 207.719 273.537C207.591 273.49 207.446 273.479 207.284 273.504L206.345 273.649L206.579 275.158ZM213.443 276.832C213.084 276.888 212.74 276.876 212.409 276.797C212.079 276.718 211.781 276.583 211.514 276.391C211.247 276.2 211.024 275.961 210.845 275.675C210.67 275.384 210.555 275.059 210.5 274.7C210.444 274.337 210.455 273.992 210.535 273.667C210.614 273.341 210.753 273.046 210.949 272.783C211.146 272.519 211.39 272.302 211.682 272.132C211.973 271.957 212.3 271.842 212.663 271.785C213.026 271.729 213.373 271.741 213.703 271.82C214.034 271.899 214.332 272.034 214.599 272.225C214.866 272.413 215.086 272.65 215.26 272.936C215.439 273.222 215.556 273.547 215.612 273.91C215.668 274.269 215.654 274.614 215.57 274.945C215.486 275.271 215.346 275.566 215.149 275.829C214.953 276.093 214.709 276.312 214.418 276.487C214.131 276.661 213.806 276.776 213.443 276.832ZM213.317 276.019C213.558 275.981 213.772 275.906 213.961 275.791C214.149 275.673 214.305 275.525 214.43 275.349C214.56 275.173 214.647 274.973 214.694 274.751C214.744 274.528 214.751 274.294 214.713 274.049C214.675 273.804 214.599 273.585 214.484 273.392C214.373 273.194 214.229 273.031 214.052 272.901C213.879 272.767 213.685 272.674 213.471 272.622C213.257 272.569 213.03 272.562 212.789 272.599C212.553 272.636 212.34 272.711 212.152 272.825C211.964 272.94 211.805 273.087 211.676 273.268C211.551 273.445 211.463 273.644 211.412 273.867C211.361 274.085 211.354 274.317 211.392 274.562C211.43 274.807 211.507 275.028 211.622 275.225C211.738 275.423 211.882 275.586 212.054 275.716C212.231 275.846 212.427 275.939 212.642 275.995C212.856 276.047 213.081 276.055 213.317 276.019ZM219.139 275.952C218.828 276 218.53 275.988 218.246 275.915C217.966 275.842 217.714 275.72 217.49 275.548C217.27 275.372 217.096 275.155 216.966 274.897L217.658 274.461C217.82 274.723 218.024 274.917 218.273 275.045C218.52 275.168 218.784 275.207 219.064 275.164C219.221 275.14 219.353 275.095 219.46 275.029C219.57 274.958 219.648 274.875 219.696 274.778C219.748 274.68 219.765 274.57 219.746 274.447C219.724 274.303 219.662 274.192 219.56 274.113C219.462 274.03 219.324 273.975 219.145 273.949L218.16 273.792C217.761 273.733 217.447 273.6 217.218 273.393C216.989 273.187 216.85 272.924 216.8 272.604C216.757 272.324 216.787 272.067 216.889 271.831C216.996 271.595 217.163 271.399 217.39 271.243C217.62 271.082 217.895 270.977 218.214 270.928C218.507 270.882 218.785 270.893 219.046 270.961C219.306 271.023 219.538 271.133 219.742 271.29C219.949 271.441 220.115 271.633 220.241 271.864L219.556 272.306C219.422 272.076 219.249 271.91 219.036 271.809C218.822 271.703 218.589 271.67 218.335 271.709C218.186 271.732 218.059 271.778 217.953 271.848C217.847 271.914 217.768 271.998 217.717 272.1C217.669 272.197 217.655 272.307 217.674 272.429C217.695 272.565 217.757 272.678 217.861 272.77C217.964 272.857 218.109 272.915 218.297 272.944L219.24 273.087C219.649 273.154 219.967 273.284 220.194 273.478C220.425 273.67 220.567 273.931 220.617 274.259C220.66 274.539 220.627 274.797 220.515 275.034C220.404 275.271 220.231 275.47 219.996 275.632C219.761 275.793 219.475 275.9 219.139 275.952ZM221.846 275.453L221.737 274.751L223.581 270.985L221.35 271.33L221.228 270.543L224.595 270.022L224.703 270.725L222.866 274.489L225.294 274.114L225.416 274.902L221.846 275.453Z" fill="white"/>
<path opacity="0.5" d="M177.945 294.454L177.189 289.565L179.007 289.284C179.34 289.233 179.642 289.248 179.915 289.332C180.191 289.41 180.42 289.554 180.6 289.764C180.779 289.969 180.895 290.235 180.945 290.564C180.997 290.9 180.961 291.2 180.835 291.461C180.714 291.721 180.527 291.93 180.273 292.085L181.699 293.874L180.688 294.03L179.155 292.07L179.786 292.322L178.558 292.511L178.837 294.316L177.945 294.454ZM178.437 291.724L179.375 291.579C179.537 291.554 179.672 291.502 179.781 291.422C179.889 291.338 179.967 291.234 180.015 291.11C180.063 290.987 180.076 290.85 180.053 290.701C180.029 290.548 179.976 290.422 179.893 290.323C179.81 290.219 179.705 290.146 179.577 290.103C179.449 290.056 179.304 290.044 179.142 290.069L178.204 290.214L178.437 291.724ZM182.88 293.692L182.125 288.802L185.373 288.3L185.495 289.088L183.139 289.452L183.333 290.705L185.558 290.362L185.679 291.149L183.454 291.493L183.651 292.766L186.007 292.402L186.129 293.19L182.88 293.692ZM188.292 292.855L186.224 288.169L187.182 288.021L188.857 292.029L188.607 292.067L189.04 287.734L189.965 287.591L191.679 291.593L191.429 291.631L191.816 287.305L192.774 287.157L192.217 292.249L191.193 292.407L189.483 288.519L189.772 288.474L189.316 292.697L188.292 292.855ZM194.005 291.973L194.936 286.823L196.091 286.644L198.533 291.273L197.562 291.423L197.052 290.427L195.161 290.719L194.969 291.824L194.005 291.973ZM195.296 289.892L196.674 289.679L195.484 287.37L195.733 287.331L195.296 289.892ZM199.674 291.097L198.918 286.207L200.736 285.926C201.069 285.875 201.371 285.891 201.644 285.974C201.92 286.053 202.149 286.197 202.329 286.406C202.508 286.611 202.624 286.878 202.674 287.206C202.726 287.543 202.69 287.842 202.564 288.103C202.443 288.364 202.256 288.572 202.002 288.728L203.428 290.517L202.417 290.673L200.884 288.712L201.515 288.964L200.287 289.154L200.566 290.959L199.674 291.097ZM200.166 288.366L201.104 288.221C201.266 288.196 201.401 288.144 201.51 288.065C201.618 287.981 201.696 287.877 201.744 287.753C201.792 287.629 201.805 287.493 201.782 287.344C201.758 287.191 201.705 287.065 201.622 286.965C201.539 286.862 201.434 286.789 201.306 286.746C201.178 286.698 201.033 286.687 200.871 286.712L199.933 286.857L200.166 288.366ZM204.609 290.334L203.854 285.445L205.449 285.198C205.965 285.119 206.43 285.154 206.843 285.305C207.259 285.452 207.601 285.692 207.868 286.027C208.134 286.358 208.304 286.764 208.379 287.245C208.452 287.722 208.413 288.163 208.26 288.567C208.107 288.967 207.854 289.302 207.502 289.571C207.153 289.836 206.72 290.008 206.204 290.088L204.609 290.334ZM205.38 289.409L206.102 289.297C206.435 289.246 206.711 289.134 206.93 288.961C207.154 288.783 207.314 288.561 207.412 288.295C207.509 288.025 207.532 287.721 207.48 287.384C207.427 287.043 207.314 286.76 207.14 286.536C206.967 286.312 206.747 286.151 206.481 286.053C206.22 285.955 205.922 285.931 205.59 285.983L204.868 286.094L205.38 289.409ZM211.822 289.3C211.511 289.348 211.214 289.336 210.929 289.263C210.649 289.19 210.397 289.068 210.174 288.896C209.954 288.72 209.779 288.503 209.65 288.245L210.342 287.809C210.503 288.071 210.708 288.265 210.956 288.393C211.203 288.516 211.467 288.555 211.747 288.512C211.905 288.488 212.037 288.443 212.143 288.377C212.253 288.306 212.332 288.223 212.38 288.126C212.432 288.028 212.448 287.918 212.429 287.795C212.407 287.651 212.345 287.54 212.243 287.461C212.145 287.378 212.007 287.323 211.828 287.297L210.843 287.14C210.444 287.081 210.13 286.948 209.901 286.741C209.672 286.535 209.533 286.272 209.484 285.952C209.44 285.672 209.47 285.415 209.572 285.179C209.679 284.943 209.846 284.747 210.073 284.591C210.303 284.43 210.578 284.325 210.898 284.276C211.191 284.23 211.468 284.241 211.729 284.309C211.99 284.371 212.222 284.481 212.425 284.638C212.632 284.789 212.799 284.981 212.924 285.212L212.24 285.654C212.105 285.424 211.932 285.258 211.719 285.157C211.506 285.051 211.272 285.018 211.018 285.057C210.87 285.08 210.742 285.126 210.637 285.196C210.53 285.262 210.452 285.346 210.4 285.448C210.352 285.545 210.338 285.655 210.357 285.777C210.378 285.913 210.44 286.026 210.544 286.118C210.647 286.205 210.793 286.263 210.981 286.292L211.924 286.435C212.333 286.502 212.65 286.632 212.877 286.826C213.109 287.018 213.25 287.279 213.301 287.607C213.344 287.887 213.31 288.145 213.199 288.382C213.087 288.619 212.914 288.818 212.679 288.98C212.445 289.141 212.159 289.248 211.822 289.3ZM217.219 288.466C216.869 288.52 216.535 288.507 216.218 288.426C215.906 288.345 215.62 288.207 215.362 288.014C215.108 287.82 214.896 287.58 214.726 287.293C214.556 287.005 214.443 286.68 214.387 286.317C214.331 285.954 214.338 285.61 214.409 285.285C214.484 284.956 214.613 284.663 214.797 284.406C214.985 284.144 215.219 283.928 215.497 283.76C215.775 283.587 216.089 283.474 216.439 283.42C216.789 283.365 217.111 283.376 217.405 283.452C217.703 283.527 217.964 283.648 218.187 283.815C218.409 283.977 218.58 284.168 218.699 284.387L217.956 284.885C217.826 284.654 217.64 284.477 217.397 284.353C217.153 284.225 216.876 284.185 216.565 284.233C216.259 284.281 215.999 284.395 215.785 284.576C215.575 284.756 215.424 284.983 215.332 285.257C215.244 285.53 215.227 285.838 215.28 286.179C215.332 286.52 215.442 286.81 215.609 287.049C215.779 287.282 215.992 287.453 216.246 287.562C216.505 287.67 216.787 287.7 217.093 287.653C217.404 287.605 217.656 287.485 217.851 287.294C218.045 287.098 218.168 286.87 218.222 286.611L219.081 286.862C219.034 287.106 218.929 287.342 218.767 287.569C218.604 287.791 218.392 287.983 218.13 288.144C217.873 288.305 217.569 288.412 217.219 288.466ZM222.898 287.589C222.548 287.643 222.214 287.63 221.897 287.549C221.585 287.467 221.299 287.33 221.041 287.137C220.787 286.943 220.575 286.702 220.405 286.415C220.235 286.128 220.122 285.803 220.066 285.439C220.01 285.076 220.017 284.732 220.088 284.408C220.163 284.078 220.292 283.785 220.476 283.528C220.664 283.266 220.898 283.051 221.176 282.882C221.454 282.71 221.768 282.596 222.118 282.542C222.468 282.488 222.79 282.499 223.084 282.574C223.382 282.649 223.643 282.77 223.866 282.937C224.088 283.1 224.259 283.291 224.378 283.51L223.635 284.008C223.505 283.777 223.319 283.6 223.076 283.476C222.832 283.348 222.555 283.308 222.244 283.356C221.938 283.403 221.678 283.517 221.464 283.698C221.254 283.878 221.103 284.105 221.011 284.38C220.923 284.653 220.906 284.96 220.959 285.301C221.011 285.643 221.121 285.933 221.288 286.171C221.458 286.405 221.671 286.576 221.925 286.684C222.184 286.792 222.466 286.822 222.772 286.775C223.083 286.727 223.335 286.607 223.53 286.416C223.724 286.22 223.847 285.993 223.901 285.734L224.76 285.984C224.713 286.229 224.608 286.465 224.446 286.691C224.283 286.913 224.071 287.105 223.809 287.267C223.552 287.427 223.248 287.535 222.898 287.589ZM225.867 287.049L226.799 281.899L227.954 281.721L230.396 286.35L229.425 286.5L228.914 285.503L227.024 285.796L226.832 286.9L225.867 287.049ZM227.159 284.968L228.537 284.755L227.347 282.446L227.596 282.408L227.159 284.968ZM231.537 286.173L230.781 281.284L232.606 281.002C232.938 280.951 233.241 280.967 233.513 281.05C233.79 281.128 234.018 281.272 234.198 281.482C234.378 281.687 234.493 281.954 234.544 282.282C234.594 282.606 234.562 282.895 234.449 283.15C234.34 283.4 234.168 283.605 233.933 283.767C233.698 283.929 233.415 284.035 233.082 284.087L232.15 284.231L232.429 286.036L231.537 286.173ZM232.029 283.443L232.974 283.297C233.136 283.272 233.271 283.22 233.379 283.14C233.487 283.057 233.565 282.953 233.614 282.829C233.662 282.705 233.674 282.568 233.651 282.42C233.627 282.267 233.574 282.14 233.492 282.041C233.409 281.938 233.303 281.864 233.176 281.821C233.047 281.774 232.902 281.763 232.74 281.788L231.795 281.934L232.029 283.443ZM236.389 285.424L235.633 280.534L236.526 280.396L237.281 285.286L236.389 285.424Z" fill="white"/>
<g clip-path="url(#clip0_25_1902)">
<path d="M273.324 171.51C272.8 171.591 272.392 172.002 272.1 172.743C271.809 173.484 271.735 174.322 271.88 175.256L272.759 180.949L274.267 180.716L274.326 181.099L267.698 182.122L267.639 181.74L268.808 181.56L267.364 172.213L266.196 172.393L266.137 172.011L271.256 171.22L271.571 173.259C271.644 172.509 271.912 171.902 272.377 171.439C272.84 170.961 273.404 170.671 274.07 170.568C274.735 170.465 275.303 170.573 275.773 170.892C276.255 171.195 276.549 171.693 276.656 172.387C276.761 173.067 276.686 173.615 276.432 174.031C276.177 174.448 275.724 174.706 275.072 174.807C274.435 174.905 273.928 174.766 273.551 174.389C273.188 174.01 273.062 173.428 273.172 172.642L273.937 172.524C274.179 171.747 273.975 171.409 273.324 171.51ZM283.898 179.838C282.071 180.12 280.625 179.865 279.56 179.072C278.507 178.264 277.852 177.023 277.594 175.352C277.333 173.667 277.644 172.3 278.526 171.25C279.422 170.198 280.663 169.55 282.249 169.305C285.464 168.808 287.257 170.184 287.628 173.433L281.638 174.358L281.766 175.187C281.98 176.574 282.319 177.595 282.782 178.248C283.246 178.902 283.916 179.161 284.794 179.025C286.437 178.771 287.378 177.727 287.616 175.892L288.009 175.897C287.897 176.958 287.531 177.827 286.91 178.503C286.304 179.176 285.3 179.621 283.898 179.838ZM281.593 173.93L283.781 173.592L283.621 172.551C283.443 171.404 283.252 170.636 283.047 170.247C282.854 169.842 282.552 169.671 282.142 169.735C281.745 169.796 281.483 170.068 281.354 170.552C281.238 171.02 281.264 171.799 281.433 172.889L281.593 173.93ZM294.516 168.019L294.457 167.637L299.938 166.79L299.997 167.173L299.126 167.307L302.144 174.171L302.928 166.72L301.463 166.946L301.404 166.564L304.271 166.121L304.33 166.503L303.438 166.641L302.392 176.764L299.482 177.213L296.626 170.977L295.637 177.807L292.79 178.247L288.144 169.003L287.188 169.151L287.129 168.769L293.565 167.775L293.624 168.157L292.35 168.354L295.42 175.274L296.181 170.067L295.302 167.898L294.516 168.019ZM310.05 170.47L310.666 170.375L310.414 168.739C310.206 167.394 309.989 166.507 309.763 166.077C309.55 165.632 309.23 165.442 308.806 165.508C308.551 165.547 308.328 165.654 308.137 165.828C307.959 165.986 307.888 166.186 307.925 166.427C307.96 166.653 308.039 166.88 308.161 167.108L308.692 167.026C308.851 167.306 308.964 167.658 309.029 168.083C309.093 168.494 308.971 168.882 308.666 169.248C308.358 169.6 307.934 169.818 307.396 169.901C306.178 170.089 305.479 169.596 305.297 168.42C305.028 166.678 306.373 165.579 309.333 165.122C311.018 164.861 312.224 164.972 312.951 165.455C313.69 165.92 314.178 166.918 314.414 168.448L315.08 172.76C315.194 173.496 315.456 173.833 315.867 173.769C316.348 173.695 316.519 172.922 316.379 171.45L316.7 171.422C316.836 172.677 316.735 173.57 316.396 174.101C316.058 174.631 315.421 174.969 314.487 175.113C312.787 175.376 311.729 175.003 311.312 173.994C311.212 174.561 310.997 175 310.668 175.312C310.339 175.623 309.821 175.834 309.112 175.943C307.017 176.267 305.836 175.572 305.571 173.859C305.416 172.853 305.707 172.105 306.443 171.614C307.191 171.107 308.394 170.726 310.05 170.47ZM309.604 173.214C309.718 173.95 309.827 174.419 309.93 174.621C310.048 174.82 310.213 174.903 310.426 174.871C310.652 174.836 310.83 174.627 310.96 174.244C311.101 173.846 311.123 173.328 311.024 172.69L310.719 170.715L310.57 170.738C309.692 170.873 309.353 171.585 309.552 172.874L309.604 173.214ZM323.173 163.811C322.649 163.892 322.241 164.303 321.95 165.044C321.658 165.785 321.584 166.622 321.729 167.557L322.608 173.25L324.116 173.017L324.175 173.399L317.548 174.423L317.489 174.041L318.657 173.86L317.213 164.514L316.045 164.694L315.986 164.312L321.105 163.521L321.42 165.56C321.493 164.81 321.762 164.203 322.227 163.739C322.689 163.262 323.253 162.972 323.919 162.869C324.585 162.766 325.152 162.874 325.622 163.193C326.104 163.496 326.398 163.994 326.505 164.688C326.61 165.368 326.536 165.916 326.281 166.332C326.026 166.748 325.573 167.007 324.922 167.107C324.284 167.206 323.777 167.067 323.4 166.69C323.037 166.311 322.911 165.729 323.021 164.943L323.786 164.825C324.029 164.048 323.824 163.71 323.173 163.811ZM334.202 166.084C334.19 166.008 334.167 165.856 334.131 165.628C334.095 165.393 334.047 165.128 333.987 164.832C333.927 164.53 333.853 164.213 333.766 163.879C333.679 163.546 333.575 163.239 333.454 162.961C333.255 162.772 333.039 162.611 332.806 162.477C332.579 162.335 332.306 162.289 331.988 162.338C331.449 162.421 331.105 162.835 330.959 163.58C330.819 164.324 330.863 165.435 331.091 166.915C331.192 167.565 331.311 168.156 331.45 168.686C331.595 169.216 331.757 169.666 331.934 170.035C332.118 170.403 332.32 170.679 332.54 170.865C332.767 171.049 333.012 171.121 333.275 171.081C334.381 170.91 334.69 169.244 334.202 166.084ZM333.373 161.54C333.134 160.869 332.852 160.254 332.525 159.695C332.197 159.13 331.833 158.655 331.434 158.271C331.042 157.885 330.616 157.601 330.155 157.417C329.702 157.232 329.233 157.177 328.749 157.252C328.473 157.295 328.226 157.368 328.008 157.473C327.798 157.576 327.617 157.689 327.466 157.811C327.314 157.927 327.189 158.038 327.092 158.145C327.002 158.244 326.935 158.318 326.893 158.367L326.567 158.046C326.7 157.806 326.87 157.574 327.076 157.351C327.289 157.127 327.527 156.927 327.791 156.752C328.054 156.577 328.335 156.427 328.635 156.303C328.941 156.178 329.25 156.091 329.561 156.043C330.584 155.885 331.518 155.971 332.362 156.301C333.205 156.624 333.948 157.153 334.593 157.889C335.238 158.625 335.78 159.55 336.221 160.664C336.663 161.778 336.992 163.041 337.21 164.452C337.386 165.592 337.424 166.613 337.322 167.514C337.227 168.414 337.011 169.19 336.673 169.844C336.334 170.491 335.88 171.011 335.31 171.403C334.747 171.788 334.081 172.039 333.313 172.158C332.781 172.24 332.224 172.231 331.642 172.129C331.066 172.02 330.52 171.786 330.004 171.427C329.495 171.066 329.046 170.562 328.655 169.914C328.264 169.26 327.99 168.428 327.834 167.418C327.7 166.547 327.701 165.754 327.839 165.039C327.983 164.323 328.227 163.701 328.57 163.174C328.912 162.639 329.338 162.209 329.847 161.882C330.355 161.549 330.913 161.336 331.521 161.242C331.756 161.205 331.97 161.193 332.164 161.206C332.356 161.212 332.525 161.232 332.672 161.266C332.819 161.3 332.949 161.343 333.064 161.396C333.177 161.442 333.28 161.49 333.373 161.54ZM339.851 171.196L339.264 167.393L339.519 167.354C340.077 168.529 340.706 169.316 341.406 169.716C342.105 170.115 342.923 170.243 343.857 170.099C345.302 169.875 345.953 169.304 345.811 168.383C345.749 167.987 345.526 167.717 345.142 167.573C344.541 167.347 343.796 167.215 342.906 167.179C341.904 167.073 341.044 166.857 340.327 166.533C339.469 166.144 338.955 165.397 338.785 164.292C338.614 163.187 338.818 162.257 339.397 161.5C339.974 160.73 340.829 160.257 341.962 160.082C342.656 159.975 343.397 160.027 344.183 160.239C344.47 160.311 344.684 160.336 344.825 160.314C344.967 160.292 345.08 160.224 345.164 160.11C345.247 159.995 345.339 159.792 345.439 159.502L345.673 159.465L346.175 162.716L345.92 162.755C344.914 161.025 343.653 160.278 342.137 160.512C341.472 160.615 340.995 160.812 340.706 161.103C340.415 161.379 340.297 161.695 340.352 162.049C340.385 162.261 340.461 162.424 340.58 162.536C340.696 162.634 340.787 162.707 340.853 162.755C340.918 162.803 341.02 162.852 341.158 162.903C341.294 162.94 341.408 162.973 341.5 163.003C341.589 163.018 341.723 163.041 341.902 163.071C342.095 163.099 342.235 163.114 342.322 163.115C343.322 163.207 344.049 163.312 344.502 163.431C344.953 163.535 345.39 163.685 345.811 163.881C346.673 164.299 347.197 165.11 347.383 166.313C347.567 167.503 347.353 168.464 346.741 169.196C346.127 169.915 345.204 170.369 343.972 170.559C343.094 170.695 342.212 170.621 341.328 170.337C341.14 170.25 340.997 170.214 340.898 170.229C340.586 170.278 340.322 170.587 340.106 171.156L339.851 171.196Z" fill="white"/>
<path d="M310.098 187.529C309.779 187.578 309.474 187.572 309.183 187.511C308.896 187.445 308.636 187.333 308.403 187.173C308.174 187.008 307.983 186.803 307.831 186.558C307.679 186.312 307.579 186.034 307.531 185.723C307.483 185.413 307.494 185.117 307.565 184.837C307.636 184.557 307.758 184.306 307.932 184.083C308.105 183.857 308.319 183.671 308.574 183.525C308.828 183.376 309.116 183.276 309.439 183.226C309.782 183.174 310.104 183.185 310.405 183.261C310.705 183.333 310.971 183.469 311.202 183.67L310.773 184.219C310.596 184.079 310.408 183.984 310.209 183.933C310.009 183.879 309.799 183.868 309.58 183.902C309.361 183.936 309.165 184.003 308.993 184.103C308.825 184.202 308.684 184.328 308.568 184.48C308.457 184.632 308.378 184.803 308.33 184.994C308.286 185.185 308.28 185.387 308.314 185.602C308.347 185.817 308.413 186.009 308.512 186.177C308.616 186.345 308.743 186.484 308.895 186.595C309.051 186.706 309.224 186.783 309.414 186.827C309.608 186.87 309.815 186.875 310.034 186.841C310.253 186.808 310.45 186.736 310.625 186.628C310.799 186.515 310.949 186.364 311.075 186.173L311.65 186.573C311.49 186.831 311.278 187.041 311.014 187.204C310.749 187.367 310.444 187.475 310.098 187.529ZM312.588 187.083L312.095 183.893L312.806 183.783L312.941 184.661L312.818 184.417C312.88 184.187 313.005 184.001 313.191 183.858C313.38 183.715 313.629 183.619 313.935 183.572L314.045 184.283C314.012 184.28 313.982 184.28 313.954 184.285C313.925 184.285 313.897 184.287 313.869 184.292C313.586 184.335 313.374 184.454 313.233 184.647C313.091 184.836 313.045 185.094 313.095 185.42L313.334 186.968L312.588 187.083ZM316.71 186.489C316.356 186.544 316.034 186.522 315.746 186.424C315.461 186.321 315.226 186.158 315.04 185.934C314.858 185.709 314.743 185.439 314.695 185.124C314.646 184.806 314.672 184.514 314.774 184.25C314.879 183.981 315.044 183.757 315.27 183.58C315.499 183.402 315.773 183.288 316.092 183.239C316.403 183.191 316.69 183.216 316.954 183.314C317.218 183.412 317.438 183.573 317.616 183.799C317.793 184.024 317.908 184.304 317.96 184.639C317.965 184.67 317.968 184.707 317.97 184.747C317.976 184.787 317.98 184.825 317.982 184.861L315.323 185.272L315.247 184.776L317.511 184.426L317.242 184.627C317.218 184.443 317.155 184.288 317.054 184.161C316.953 184.034 316.826 183.941 316.675 183.883C316.527 183.824 316.363 183.809 316.184 183.836C316.001 183.865 315.846 183.929 315.719 184.03C315.596 184.131 315.505 184.259 315.448 184.415C315.394 184.566 315.381 184.737 315.411 184.928L315.429 185.048C315.459 185.239 315.529 185.401 315.639 185.535C315.749 185.669 315.89 185.764 316.062 185.819C316.234 185.874 316.423 185.885 316.63 185.853C316.809 185.826 316.966 185.773 317.101 185.695C317.236 185.617 317.35 185.51 317.443 185.373L317.914 185.771C317.797 185.961 317.636 186.118 317.431 186.243C317.229 186.364 316.989 186.446 316.71 186.489ZM320.443 185.913C320.136 185.96 319.849 185.935 319.581 185.838C319.317 185.736 319.096 185.574 318.919 185.353C318.742 185.131 318.628 184.855 318.577 184.525C318.526 184.194 318.552 183.897 318.653 183.632C318.755 183.368 318.917 183.149 319.139 182.976C319.365 182.803 319.632 182.692 319.938 182.645C320.205 182.603 320.453 182.626 320.683 182.713C320.912 182.796 321.107 182.947 321.267 183.167C321.427 183.387 321.536 183.684 321.594 184.059C321.652 184.429 321.639 184.745 321.557 185.007C321.475 185.264 321.337 185.469 321.144 185.621C320.952 185.773 320.718 185.87 320.443 185.913ZM320.434 185.26C320.613 185.232 320.766 185.167 320.894 185.066C321.025 184.964 321.12 184.831 321.181 184.667C321.245 184.502 321.261 184.318 321.23 184.115C321.198 183.908 321.127 183.738 321.016 183.604C320.909 183.465 320.778 183.367 320.622 183.31C320.471 183.252 320.305 183.236 320.126 183.264C319.947 183.292 319.791 183.357 319.66 183.458C319.533 183.56 319.438 183.693 319.373 183.857C319.312 184.018 319.298 184.201 319.33 184.409C319.361 184.612 319.431 184.782 319.538 184.921C319.649 185.059 319.78 185.157 319.932 185.215C320.087 185.272 320.255 185.287 320.434 185.26ZM321.494 185.708L321.378 184.955L321.277 184.102L321.086 183.263L320.78 181.279L321.52 181.165L322.205 185.598L321.494 185.708ZM323.354 185.42L322.861 182.23L323.608 182.115L324.101 185.305L323.354 185.42ZM323.156 181.646C323.017 181.668 322.895 181.642 322.79 181.568C322.688 181.494 322.628 181.395 322.609 181.272C322.59 181.144 322.617 181.032 322.692 180.935C322.77 180.833 322.879 180.771 323.018 180.75C323.157 180.728 323.277 180.753 323.378 180.823C323.482 180.888 323.543 180.983 323.562 181.106C323.583 181.238 323.556 181.356 323.483 181.461C323.409 181.562 323.3 181.624 323.156 181.646ZM326.454 184.984C326.104 185.038 325.819 184.991 325.6 184.841C325.381 184.687 325.244 184.433 325.189 184.079L324.747 181.217L325.494 181.102L325.933 183.945C325.956 184.097 326.012 184.208 326.101 184.28C326.193 184.352 326.309 184.377 326.449 184.355C326.616 184.329 326.749 184.264 326.847 184.159L327.138 184.658C327.061 184.744 326.962 184.814 326.84 184.87C326.718 184.925 326.59 184.963 326.454 184.984ZM324.426 182.624L324.334 182.027L326.461 181.698L326.553 182.296L324.426 182.624ZM331.779 184.18C331.46 184.229 331.155 184.224 330.865 184.162C330.577 184.097 330.317 183.984 330.084 183.824C329.855 183.66 329.664 183.455 329.512 183.209C329.36 182.963 329.26 182.685 329.212 182.375C329.164 182.064 329.176 181.769 329.247 181.488C329.317 181.208 329.44 180.957 329.613 180.734C329.786 180.508 330 180.322 330.255 180.177C330.509 180.027 330.798 179.928 331.12 179.878C331.463 179.825 331.785 179.836 332.086 179.912C332.387 179.984 332.652 180.12 332.883 180.321L332.454 180.871C332.278 180.731 332.09 180.635 331.89 180.585C331.69 180.53 331.48 180.519 331.261 180.553C331.042 180.587 330.847 180.654 330.675 180.754C330.506 180.853 330.365 180.979 330.25 181.132C330.139 181.283 330.059 181.455 330.011 181.646C329.967 181.836 329.962 182.039 329.995 182.254C330.028 182.469 330.094 182.66 330.194 182.829C330.297 182.996 330.425 183.135 330.576 183.247C330.732 183.357 330.905 183.434 331.095 183.478C331.29 183.522 331.496 183.527 331.715 183.493C331.934 183.459 332.131 183.388 332.306 183.279C332.481 183.167 332.631 183.015 332.756 182.824L333.332 183.225C333.172 183.482 332.959 183.692 332.695 183.855C332.431 184.018 332.125 184.127 331.779 184.18ZM336.205 183.435L336.106 182.79L336.043 182.659L335.868 181.53C335.834 181.311 335.743 181.152 335.593 181.053C335.442 180.949 335.234 180.918 334.967 180.96C334.787 180.987 334.614 181.043 334.448 181.125C334.285 181.208 334.152 181.308 334.048 181.426L333.671 180.927C333.822 180.769 334.01 180.641 334.235 180.541C334.464 180.436 334.705 180.364 334.96 180.325C335.422 180.253 335.796 180.31 336.081 180.494C336.37 180.674 336.55 180.994 336.622 181.456L336.91 183.326L336.205 183.435ZM335.208 183.632C334.969 183.669 334.754 183.662 334.562 183.61C334.37 183.554 334.213 183.462 334.092 183.334C333.973 183.201 333.9 183.043 333.872 182.86C333.844 182.681 333.861 182.513 333.922 182.357C333.988 182.2 334.112 182.064 334.294 181.951C334.476 181.837 334.729 181.755 335.051 181.705L335.977 181.562L336.054 182.058L335.182 182.193C334.927 182.232 334.762 182.3 334.687 182.398C334.612 182.491 334.583 182.597 334.602 182.717C334.623 182.852 334.693 182.951 334.813 183.014C334.933 183.077 335.088 183.094 335.28 183.065C335.463 183.036 335.62 182.969 335.75 182.863C335.884 182.757 335.971 182.617 336.009 182.444L336.204 182.873C336.161 183.071 336.054 183.236 335.883 183.369C335.716 183.501 335.491 183.589 335.208 183.632ZM338.035 183.153L337.542 179.962L338.253 179.853L338.389 180.731L338.265 180.487C338.328 180.257 338.452 180.071 338.638 179.928C338.828 179.784 339.076 179.689 339.383 179.642L339.492 180.352C339.459 180.349 339.429 180.35 339.401 180.354C339.372 180.355 339.344 180.357 339.316 180.361C339.034 180.405 338.821 180.523 338.68 180.716C338.538 180.906 338.492 181.164 338.543 181.49L338.782 183.037L338.035 183.153ZM342.008 182.582C341.701 182.629 341.414 182.604 341.146 182.507C340.881 182.405 340.661 182.244 340.484 182.022C340.307 181.801 340.193 181.525 340.142 181.194C340.091 180.864 340.116 180.566 340.218 180.302C340.32 180.037 340.482 179.818 340.704 179.645C340.93 179.472 341.196 179.361 341.503 179.314C341.77 179.273 342.018 179.296 342.248 179.383C342.477 179.465 342.671 179.617 342.832 179.837C342.992 180.057 343.101 180.354 343.159 180.728C343.216 181.099 343.204 181.415 343.122 181.676C343.039 181.933 342.902 182.138 342.709 182.29C342.516 182.442 342.283 182.54 342.008 182.582ZM341.999 181.929C342.178 181.901 342.331 181.837 342.458 181.736C342.589 181.634 342.685 181.501 342.745 181.336C342.809 181.172 342.826 180.988 342.794 180.784C342.762 180.577 342.691 180.407 342.581 180.273C342.474 180.135 342.343 180.037 342.187 179.979C342.035 179.921 341.87 179.906 341.69 179.933C341.511 179.961 341.356 180.026 341.225 180.128C341.098 180.229 341.002 180.362 340.938 180.527C340.877 180.687 340.863 180.871 340.895 181.078C340.926 181.281 340.995 181.452 341.102 181.59C341.213 181.728 341.345 181.826 341.496 181.884C341.652 181.942 341.819 181.957 341.999 181.929ZM343.059 182.377L342.942 181.624L342.841 180.771L342.651 179.932L342.344 177.948L343.085 177.834L343.77 182.267L343.059 182.377ZM346.216 181.889L347.452 177.416L348.217 177.298L350.751 181.189L349.938 181.314L347.737 177.795L348.047 177.747L347.017 181.766L346.216 181.889ZM346.933 180.788L347.048 180.146L349.306 179.797L349.609 180.374L346.933 180.788ZM351.448 181.081L350.802 176.899L352.523 176.633C352.893 176.576 353.219 176.587 353.501 176.666C353.786 176.744 354.018 176.884 354.195 177.084C354.373 177.285 354.486 177.539 354.533 177.846C354.581 178.153 354.55 178.429 354.441 178.674C354.332 178.919 354.153 179.122 353.905 179.283C353.66 179.443 353.353 179.551 352.983 179.608L351.692 179.808L351.982 179.39L352.225 180.961L351.448 181.081ZM351.995 179.473L351.591 179.151L352.845 178.957C353.188 178.904 353.434 178.793 353.583 178.623C353.735 178.448 353.791 178.23 353.751 177.967C353.709 177.7 353.59 177.508 353.393 177.392C353.199 177.275 352.931 177.243 352.589 177.296L351.334 177.49L351.622 177.054L351.995 179.473ZM355.891 180.395L355.245 176.213L356.022 176.093L356.668 180.275L355.891 180.395Z" fill="white"/>
</g>
<g filter="url(#filter2_d_25_1902)">
<rect x="80.7318" y="10.0001" width="234.79" height="148.527" rx="9.72887" transform="rotate(16.7205 80.7318 10.0001)" fill="white"/>
</g>
<mask id="mask1_25_1902" style="mask-type:alpha" maskUnits="userSpaceOnUse" x="40" y="12" width="264" height="206">
<rect x="80.7318" y="10.0001" width="234.79" height="148.527" rx="9.72887" transform="rotate(16.7205 80.7318 10.0001)" fill="white"/>
</mask>
<g mask="url(#mask1_25_1902)">
<g opacity="0.18">
<line x1="79.636" y1="5.34688" x2="213.066" y2="205.932" stroke="#18181B" stroke-width="0.648592"/>
<line x1="76.1569" y1="5.65608" x2="209.586" y2="206.241" stroke="#18181B" stroke-width="0.648592"/>
<line x1="72.6777" y1="5.96553" x2="206.107" y2="206.551" stroke="#18181B" stroke-width="0.648592"/>
<line x1="69.1991" y1="6.27498" x2="202.629" y2="206.86" stroke="#18181B" stroke-width="0.648592"/>
<line x1="65.72" y1="6.58418" x2="199.15" y2="207.169" stroke="#18181B" stroke-width="0.648592"/>
<line x1="62.2407" y1="6.89351" x2="195.67" y2="207.479" stroke="#18181B" stroke-width="0.648592"/>
<line x1="58.7612" y1="7.20296" x2="192.191" y2="207.788" stroke="#18181B" stroke-width="0.648592"/>
<line x1="55.2825" y1="7.51228" x2="188.712" y2="208.098" stroke="#18181B" stroke-width="0.648592"/>
<line x1="51.803" y1="7.82149" x2="185.233" y2="208.407" stroke="#18181B" stroke-width="0.648592"/>
<line x1="48.3242" y1="8.13069" x2="181.754" y2="208.716" stroke="#18181B" stroke-width="0.648592"/>
<line x1="44.8447" y1="8.44026" x2="178.274" y2="209.025" stroke="#18181B" stroke-width="0.648592"/>
<line x1="41.3664" y1="8.74959" x2="174.796" y2="209.335" stroke="#18181B" stroke-width="0.648592"/>
<line x1="37.8868" y1="9.05879" x2="171.316" y2="209.644" stroke="#18181B" stroke-width="0.648592"/>
<line x1="34.4077" y1="9.36812" x2="167.837" y2="209.953" stroke="#18181B" stroke-width="0.648592"/>
<line x1="30.9286" y1="9.67756" x2="164.358" y2="210.263" stroke="#18181B" stroke-width="0.648592"/>
<line x1="27.4499" y1="9.98689" x2="160.88" y2="210.572" stroke="#18181B" stroke-width="0.648592"/>
<line x1="23.9708" y1="10.2961" x2="157.4" y2="210.881" stroke="#18181B" stroke-width="0.648592"/>
<line x1="20.4917" y1="10.6053" x2="153.921" y2="211.191" stroke="#18181B" stroke-width="0.648592"/>
<line x1="17.0126" y1="10.9147" x2="150.442" y2="211.5" stroke="#18181B" stroke-width="0.648592"/>
<line x1="13.5339" y1="11.2242" x2="146.964" y2="211.809" stroke="#18181B" stroke-width="0.648592"/>
<line x1="10.0548" y1="11.5334" x2="143.484" y2="212.119" stroke="#18181B" stroke-width="0.648592"/>
<line x1="6.57568" y1="11.8427" x2="140.005" y2="212.428" stroke="#18181B" stroke-width="0.648592"/>
<line x1="3.09643" y1="12.1522" x2="136.526" y2="212.737" stroke="#18181B" stroke-width="0.648592"/>
<line x1="-0.382209" y1="12.4615" x2="133.047" y2="213.047" stroke="#18181B" stroke-width="0.648592"/>
<line x1="-3.86133" y1="12.7707" x2="129.568" y2="213.356" stroke="#18181B" stroke-width="0.648592"/>
<line x1="-7.34095" y1="13.0799" x2="126.089" y2="213.665" stroke="#18181B" stroke-width="0.648592"/>
<line x1="-10.8201" y1="13.3895" x2="122.61" y2="213.975" stroke="#18181B" stroke-width="0.648592"/>
<line x1="-14.2982" y1="13.6988" x2="119.131" y2="214.284" stroke="#18181B" stroke-width="0.648592"/>
<line x1="-17.7774" y1="14.008" x2="115.652" y2="214.593" stroke="#18181B" stroke-width="0.648592"/>
<line x1="-21.257" y1="14.3173" x2="112.173" y2="214.903" stroke="#18181B" stroke-width="0.648592"/>
<line x1="-24.7352" y1="14.6268" x2="108.694" y2="215.212" stroke="#18181B" stroke-width="0.648592"/>
<line x1="83.5496" y1="5.84529" x2="216.979" y2="206.431" stroke="#18181B" stroke-width="0.648592"/>
<line x1="87.4626" y1="6.34382" x2="220.892" y2="206.929" stroke="#18181B" stroke-width="0.648592"/>
<line x1="91.3767" y1="6.84236" x2="224.806" y2="207.428" stroke="#18181B" stroke-width="0.648592"/>
<line x1="95.2903" y1="7.34065" x2="228.72" y2="207.926" stroke="#18181B" stroke-width="0.648592"/>
<line x1="99.2034" y1="7.83919" x2="232.633" y2="208.424" stroke="#18181B" stroke-width="0.648592"/>
<line x1="103.117" y1="8.3376" x2="236.547" y2="208.923" stroke="#18181B" stroke-width="0.648592"/>
<line x1="107.031" y1="8.83601" x2="240.461" y2="209.421" stroke="#18181B" stroke-width="0.648592"/>
<line x1="110.944" y1="9.33443" x2="244.374" y2="209.92" stroke="#18181B" stroke-width="0.648592"/>
<line x1="114.858" y1="9.83284" x2="248.288" y2="210.418" stroke="#18181B" stroke-width="0.648592"/>
<line x1="118.772" y1="10.3313" x2="252.201" y2="210.916" stroke="#18181B" stroke-width="0.648592"/>
<line x1="122.685" y1="10.8298" x2="256.115" y2="211.415" stroke="#18181B" stroke-width="0.648592"/>
<line x1="126.599" y1="11.3282" x2="260.029" y2="211.913" stroke="#18181B" stroke-width="0.648592"/>
<line x1="130.513" y1="11.8266" x2="263.943" y2="212.412" stroke="#18181B" stroke-width="0.648592"/>
<line x1="134.426" y1="12.3251" x2="267.856" y2="212.91" stroke="#18181B" stroke-width="0.648592"/>
<line x1="138.34" y1="12.8236" x2="271.769" y2="213.409" stroke="#18181B" stroke-width="0.648592"/>
<line x1="142.253" y1="13.322" x2="275.683" y2="213.907" stroke="#18181B" stroke-width="0.648592"/>
<line x1="146.166" y1="13.8204" x2="279.596" y2="214.406" stroke="#18181B" stroke-width="0.648592"/>
<line x1="150.081" y1="14.3189" x2="283.51" y2="214.904" stroke="#18181B" stroke-width="0.648592"/>
<line x1="153.995" y1="14.8173" x2="287.424" y2="215.403" stroke="#18181B" stroke-width="0.648592"/>
<line x1="157.907" y1="15.3157" x2="291.337" y2="215.901" stroke="#18181B" stroke-width="0.648592"/>
<line x1="161.821" y1="15.8143" x2="295.251" y2="216.4" stroke="#18181B" stroke-width="0.648592"/>
<line x1="165.735" y1="16.3126" x2="299.164" y2="216.898" stroke="#18181B" stroke-width="0.648592"/>
<line x1="169.649" y1="16.811" x2="303.078" y2="217.396" stroke="#18181B" stroke-width="0.648592"/>
</g>
<rect x="80.7318" y="10.0001" width="234.79" height="148.527" rx="9.72887" transform="rotate(16.7205 80.7318 10.0001)" fill="url(#paint2_linear_25_1902)"/>
<g filter="url(#filter3_f_25_1902)">
<circle cx="84.1413" cy="27.9551" r="58.3732" transform="rotate(16.7205 84.1413 27.9551)" fill="#D2D2D2"/>
</g>
<g filter="url(#filter4_f_25_1902)">
<circle cx="257.959" cy="206.812" r="58.3732" transform="rotate(16.7205 257.959 206.812)" fill="#C8C8C8"/>
</g>
</g>
<path d="M107.728 100.483L112.816 83.547C113.471 81.3654 111.805 78.9304 109.1 78.118L84.7449 70.8014C82.0399 69.9888 79.3067 71.1028 78.6515 73.2839L73.5639 90.2196C72.9086 92.4012 74.5765 94.8355 77.2809 95.6479L101.636 102.964C104.341 103.776 107.073 102.664 107.728 100.483ZM77.3762 95.3307C74.8882 94.5833 73.3548 92.3433 73.9573 90.3377L79.0448 73.402C79.6476 71.3955 82.1616 70.3713 84.6496 71.1187L109.005 78.4352C111.492 79.1822 113.025 81.4222 112.422 83.4288L107.335 100.365C106.732 102.37 104.218 103.394 101.732 102.647L77.3762 95.3307Z" fill="#3F3F46"/>
<path d="M101.732 102.648L77.3771 95.3312C76.1813 94.9716 75.1495 94.2439 74.5084 93.308C73.8673 92.372 73.6692 91.3044 73.9578 90.3395L79.0458 73.4025C79.6486 71.3959 82.1625 70.3718 84.6505 71.1192L109.006 78.4356C111.492 79.1826 113.026 81.4226 112.423 83.4292L107.335 100.366C106.733 102.37 104.219 103.395 101.732 102.648Z" fill="url(#paint3_linear_25_1902)"/>
<path d="M74.4934 87.3616L74.5887 87.0443L85.8041 90.4135C86.5476 90.6361 87.3317 90.6117 87.9846 90.3457C88.6375 90.0798 89.1058 89.5939 89.2867 88.9947L91.0965 82.9701C91.2757 82.3705 91.1527 81.707 90.7545 81.1252C90.3563 80.5435 89.7154 80.091 88.9723 79.8671L77.7569 76.4979L77.8523 76.1804L89.0677 79.5496C89.915 79.805 90.6459 80.321 91.1 80.9844C91.554 81.6478 91.6943 82.4045 91.4898 83.0883L89.68 89.1129C89.4738 89.7961 88.9398 90.3502 88.1953 90.6535C87.4508 90.9568 86.5566 90.9846 85.7088 90.7307L74.4934 87.3616Z" fill="#383335"/>
<path d="M96.1913 91.069L98.0011 85.0444C98.2074 84.3611 98.7414 83.807 99.486 83.5036C100.231 83.2003 101.125 83.1725 101.973 83.4264L111.934 86.4187L111.838 86.7362L101.877 83.7439C101.134 83.5212 100.35 83.5455 99.6966 83.8115C99.0437 84.0775 98.5754 84.5634 98.3944 85.1626L96.5846 91.1872C96.4055 91.7869 96.5285 92.4504 96.9268 93.0321C97.3251 93.6139 97.9661 94.0664 98.7091 94.2903L108.67 97.2826L108.575 97.5998L98.6138 94.6075C97.7664 94.3522 97.0355 93.8363 96.5813 93.1729C96.1271 92.5095 95.9869 91.7529 96.1913 91.069Z" fill="#383335"/>
<path d="M98.066 85.5429L98.1613 85.2257L91.2564 83.1515L91.1611 83.4687L98.066 85.5429Z" fill="#383335"/>
<path d="M96.4253 91.0053L96.5206 90.6881L89.6158 88.6139L89.5205 88.9311L96.4253 91.0053Z" fill="#383335"/>
<path d="M81.3543 96.6991L83.4069 89.8663L83.0135 89.7482L80.9609 96.581L81.3543 96.6991Z" fill="#383335"/>
<path d="M86.6709 79.0026L88.7236 72.1696L88.3303 72.0514L86.2776 78.8845L86.6709 79.0026Z" fill="#383335"/>
<path d="M98.7814 101.934L100.834 95.1013L100.441 94.9832L98.388 101.816L98.7814 101.934Z" fill="#383335"/>
<path d="M104.097 84.2376L106.15 77.4045L105.757 77.2864L103.704 84.1194L104.097 84.2376Z" fill="#383335"/>
<path d="M110.019 92.144L110.114 91.8268L97.332 87.987L97.2367 88.3042L110.019 92.144Z" fill="#383335"/>
<path d="M90.2073 86.1924L90.3026 85.8751L76.2091 81.6414L76.1138 81.9586L90.2073 86.1924Z" fill="#383335"/>
<path d="M221.645 191.416L217.237 190.278L227.08 170.714L231.488 171.852L221.645 191.416ZM220.617 169.046L211.54 181.906L212.093 178.775L212.093 178.776L213.797 169.276C213.797 169.276 214.256 167.404 212.344 166.91L205.397 165.117L205.196 165.439C205.196 165.439 207.135 166.517 208.996 168.947L206.668 187.55L211.26 188.735L225.361 170.271L220.617 169.046V169.046ZM248.198 198.27L252.245 199.315L255.804 178.129L252.261 177.214C250.625 176.792 249.698 178.2 249.698 178.2L236.565 195.267L241.16 196.453L243.131 193.679L248.735 195.125L248.198 198.27ZM245.855 189.846L250.823 182.857L249.474 190.781L245.855 189.846ZM242.293 179.957L244.444 175.766C244.444 175.766 242.812 174.381 240.789 173.858C238.601 173.294 233.007 173.098 231.061 178.665C229.23 183.902 235.303 185.541 234.341 188.293C233.38 191.044 228.084 189.139 226.886 186.938L224.639 191.322C224.639 191.322 226.207 192.975 229.214 193.751C232.222 194.527 237.411 193.834 239.186 188.757C241.029 183.486 235.049 181.407 235.85 179.115C236.652 176.823 240.842 178.226 242.293 179.957V179.957Z" fill="#2566AF"/>
<path d="M211.593 177.799L212.425 169.459C212.425 169.459 212.713 167.825 210.735 167.231L203.545 165.071L203.372 165.343C203.372 165.343 206.612 167.097 209.121 170.776C211.52 174.293 211.593 177.799 211.593 177.799Z" fill="#E6A540"/>
<path d="M62.4016 128.342L62.6582 127.488L62.952 127.576C63.1707 127.642 63.3623 127.632 63.5267 127.548C63.6972 127.46 63.8138 127.311 63.8768 127.102L64.9421 123.555L65.8782 123.837L64.8232 127.349C64.7287 127.663 64.5776 127.918 64.3698 128.114C64.1665 128.311 63.9198 128.438 63.6296 128.495C63.3439 128.553 63.0325 128.532 62.6955 128.43L62.4016 128.342ZM65.9307 129.402L67.4599 124.312L70.8422 125.328L70.5959 126.148L68.1429 125.411L67.7508 126.716L70.0672 127.412L69.8209 128.232L67.5045 127.536L67.1063 128.861L69.5593 129.598L69.313 130.418L65.9307 129.402ZM72.4085 131.438C72.0851 131.34 71.8022 131.191 71.5599 130.989C71.3222 130.788 71.1346 130.553 70.9971 130.284C70.8655 130.011 70.7966 129.719 70.7903 129.409L71.663 129.307C71.6985 129.635 71.807 129.918 71.9887 130.157C72.1717 130.391 72.409 130.551 72.7006 130.639C72.8646 130.688 73.0133 130.705 73.1468 130.691C73.2862 130.673 73.4015 130.628 73.4926 130.556C73.5883 130.486 73.6553 130.387 73.6936 130.259C73.7388 130.109 73.7302 129.972 73.6678 129.849C73.6114 129.723 73.5025 129.606 73.3413 129.498L72.4586 128.89C72.0993 128.648 71.8563 128.374 71.7298 128.068C71.6032 127.761 71.5899 127.442 71.6898 127.11C71.7774 126.818 71.9253 126.582 72.1336 126.401C72.3464 126.222 72.5988 126.109 72.8909 126.062C73.1888 126.013 73.5041 126.038 73.8366 126.138C74.1418 126.23 74.4055 126.368 74.6278 126.554C74.8514 126.736 75.0256 126.95 75.1503 127.196C75.281 127.438 75.3536 127.701 75.368 127.984L74.5001 128.095C74.4765 127.81 74.3851 127.569 74.2257 127.372C74.0677 127.171 73.8566 127.03 73.5924 126.951C73.4375 126.905 73.2926 126.891 73.1578 126.91C73.0243 126.924 72.909 126.969 72.8119 127.044C72.7208 127.116 72.6561 127.216 72.6177 127.344C72.5753 127.485 72.5832 127.624 72.6415 127.761C72.7011 127.893 72.8154 128.016 72.9844 128.132L73.8323 128.707C74.198 128.961 74.4462 129.234 74.5768 129.526C74.712 129.82 74.7283 130.138 74.6257 130.48C74.5381 130.771 74.3856 131.006 74.1682 131.184C73.9509 131.362 73.6909 131.475 73.3884 131.523C73.0859 131.572 72.7592 131.543 72.4085 131.438ZM77.4537 132.953C77.1302 132.856 76.8474 132.707 76.6051 132.505C76.3674 132.304 76.1797 132.069 76.0423 131.799C75.9107 131.526 75.8418 131.235 75.8355 130.925L76.7082 130.822C76.7436 131.151 76.8522 131.434 77.0339 131.672C77.2169 131.906 77.4542 132.067 77.7457 132.154C77.9097 132.204 78.0585 132.221 78.192 132.207C78.3314 132.189 78.4467 132.144 78.5378 132.072C78.6335 132.001 78.7005 131.902 78.7388 131.775C78.784 131.625 78.7754 131.488 78.713 131.365C78.6566 131.239 78.5477 131.122 78.3865 131.013L77.5038 130.406C77.1444 130.164 76.9015 129.889 76.775 129.583C76.6484 129.277 76.6351 128.958 76.735 128.625C76.8226 128.334 76.9705 128.098 77.1788 127.917C77.3916 127.737 77.644 127.624 77.9361 127.578C78.234 127.529 78.5493 127.554 78.8818 127.654C79.187 127.745 79.4507 127.884 79.673 128.07C79.8966 128.251 80.0708 128.465 80.1955 128.711C80.3262 128.954 80.3987 129.217 80.4132 129.499L79.5453 129.611C79.5217 129.326 79.4302 129.085 79.2709 128.888C79.1128 128.686 78.9017 128.546 78.6375 128.467C78.4827 128.42 78.3378 128.406 78.2029 128.426C78.0694 128.44 77.9542 128.485 77.8571 128.56C77.766 128.632 77.7012 128.732 77.6629 128.859C77.6205 129 77.6284 129.139 77.6867 129.276C77.7463 129.408 77.8606 129.532 78.0296 129.647L78.8774 130.222C79.2432 130.476 79.4913 130.749 79.622 131.042C79.7572 131.336 79.7735 131.654 79.6708 131.995C79.5833 132.287 79.4308 132.522 79.2134 132.7C78.996 132.878 78.7361 132.991 78.4336 133.039C78.131 133.087 77.8044 133.059 77.4537 132.953ZM80.7059 133.841L82.2351 128.75L85.6174 129.766L85.3711 130.586L82.9181 129.849L82.526 131.154L84.8424 131.85L84.5961 132.67L82.2797 131.974L81.8815 133.3L84.3345 134.037L84.0882 134.857L80.7059 133.841ZM89.7094 136.635C89.3359 136.523 89.0072 136.352 88.7235 136.123C88.4398 135.893 88.2128 135.624 88.0425 135.315C87.8722 135.005 87.7667 134.671 87.7258 134.311C87.6908 133.948 87.7295 133.579 87.8417 133.206C87.9553 132.828 88.126 132.499 88.3539 132.22C88.5818 131.941 88.852 131.719 89.1646 131.555C89.4772 131.39 89.8143 131.293 90.1761 131.262C90.5392 131.228 90.9098 131.267 91.2879 131.38C91.666 131.494 91.9969 131.665 92.2806 131.895C92.5643 132.124 92.7913 132.393 92.9616 132.703C93.1333 133.007 93.2372 133.339 93.2735 133.698C93.3144 134.058 93.2781 134.427 93.1645 134.805C93.0523 135.178 92.8793 135.506 92.6454 135.789C92.413 136.066 92.1405 136.287 91.8279 136.452C91.5153 136.616 91.1775 136.716 90.8144 136.751C90.4558 136.787 90.0875 136.748 89.7094 136.635ZM89.9639 135.788C90.2145 135.863 90.4575 135.889 90.693 135.865C90.93 135.837 91.1498 135.766 91.3526 135.653C91.5599 135.542 91.7374 135.389 91.8851 135.195C92.0373 135.003 92.1517 134.779 92.2284 134.524C92.305 134.268 92.3322 134.021 92.31 133.781C92.2937 133.537 92.2297 133.312 92.1182 133.105C92.0126 132.894 91.868 132.714 91.6845 132.565C91.5009 132.415 91.2839 132.303 91.0333 132.228C90.7874 132.154 90.5466 132.129 90.3111 132.152C90.0755 132.176 89.8534 132.246 89.6447 132.362C89.4419 132.475 89.2644 132.627 89.1122 132.82C88.9613 133.008 88.8476 133.23 88.7709 133.485C88.6943 133.74 88.6664 133.99 88.6873 134.235C88.7082 134.479 88.7721 134.704 88.8791 134.91C88.9906 135.118 89.1375 135.298 89.3196 135.453C89.5032 135.602 89.7179 135.714 89.9639 135.788ZM93.8463 137.788L95.3755 132.698L97.2682 133.266C97.6144 133.37 97.9005 133.526 98.1263 133.733C98.3582 133.936 98.513 134.182 98.5908 134.468C98.6699 134.75 98.6582 135.062 98.5556 135.404C98.4502 135.754 98.2763 136.027 98.0338 136.223C97.796 136.42 97.518 136.535 97.2 136.568L97.7547 138.962L96.7024 138.646L96.1232 136.036L96.6178 136.572L95.34 136.188L94.7756 138.067L93.8463 137.788ZM95.5864 135.368L96.5635 135.662C96.732 135.713 96.8874 135.724 97.0295 135.698C97.173 135.666 97.2967 135.602 97.4006 135.504C97.5045 135.406 97.5798 135.279 97.6263 135.125C97.6742 134.965 97.6811 134.818 97.647 134.684C97.6142 134.545 97.5459 134.425 97.4421 134.324C97.3396 134.219 97.2041 134.141 97.0356 134.09L96.0585 133.797L95.5864 135.368ZM101.468 140.167C101.094 140.055 100.766 139.884 100.482 139.655C100.198 139.426 99.9713 139.156 99.801 138.847C99.6307 138.538 99.5252 138.203 99.4843 137.843C99.4494 137.48 99.488 137.112 99.6002 136.738C99.7138 136.36 99.8845 136.031 100.112 135.752C100.34 135.473 100.611 135.251 100.923 135.087C101.236 134.923 101.573 134.825 101.935 134.795C102.298 134.76 102.668 134.799 103.046 134.913C103.424 135.026 103.755 135.198 104.039 135.427C104.323 135.656 104.55 135.926 104.72 136.235C104.892 136.54 104.996 136.872 105.032 137.23C105.073 137.59 105.037 137.959 104.923 138.337C104.811 138.711 104.638 139.039 104.404 139.321C104.172 139.599 103.899 139.82 103.586 139.984C103.274 140.149 102.936 140.248 102.573 140.283C102.214 140.319 101.846 140.281 101.468 140.167ZM101.722 139.32C101.973 139.395 102.216 139.421 102.452 139.397C102.688 139.369 102.908 139.299 103.111 139.186C103.318 139.074 103.496 138.921 103.644 138.727C103.796 138.535 103.91 138.311 103.987 138.056C104.064 137.801 104.091 137.553 104.068 137.313C104.052 137.07 103.988 136.844 103.877 136.637C103.771 136.427 103.627 136.247 103.443 136.097C103.259 135.948 103.042 135.835 102.792 135.76C102.546 135.686 102.305 135.661 102.07 135.685C101.834 135.708 101.612 135.778 101.403 135.894C101.2 136.007 101.023 136.16 100.871 136.352C100.72 136.541 100.606 136.762 100.529 137.017C100.453 137.272 100.425 137.522 100.446 137.767C100.467 138.012 100.531 138.237 100.638 138.443C100.749 138.65 100.896 138.831 101.078 138.985C101.262 139.134 101.476 139.246 101.722 139.32ZM107.398 141.949C107.074 141.851 106.791 141.702 106.549 141.5C106.311 141.299 106.124 141.064 105.986 140.795C105.855 140.522 105.786 140.23 105.78 139.92L106.652 139.818C106.688 140.146 106.796 140.429 106.978 140.668C107.161 140.902 107.398 141.062 107.69 141.15C107.854 141.199 108.003 141.216 108.136 141.202C108.275 141.184 108.391 141.139 108.482 141.067C108.578 140.997 108.645 140.898 108.683 140.77C108.728 140.62 108.719 140.483 108.657 140.36C108.601 140.234 108.492 140.117 108.331 140.009L107.448 139.401C107.089 139.159 106.846 138.885 106.719 138.579C106.593 138.272 106.579 137.953 106.679 137.621C106.767 137.329 106.915 137.093 107.123 136.912C107.336 136.733 107.588 136.62 107.88 136.573C108.178 136.524 108.493 136.549 108.826 136.649C109.131 136.741 109.395 136.879 109.617 137.065C109.841 137.247 110.015 137.461 110.14 137.707C110.27 137.949 110.343 138.212 110.357 138.495L109.489 138.606C109.466 138.321 109.374 138.08 109.215 137.883C109.057 137.682 108.846 137.541 108.582 137.462C108.427 137.416 108.282 137.402 108.147 137.421C108.014 137.435 107.898 137.48 107.801 137.555C107.71 137.627 107.645 137.727 107.607 137.855C107.565 137.996 107.573 138.135 107.631 138.271C107.69 138.404 107.805 138.527 107.974 138.643L108.822 139.218C109.187 139.472 109.435 139.745 109.566 140.037C109.701 140.331 109.718 140.649 109.615 140.991C109.527 141.282 109.375 141.517 109.157 141.695C108.94 141.873 108.68 141.986 108.378 142.034C108.075 142.083 107.749 142.054 107.398 141.949ZM110.254 142.717L110.473 141.986L114.003 139.188L111.68 138.49L111.926 137.67L115.432 138.723L115.212 139.454L111.689 142.254L114.217 143.014L113.971 143.834L110.254 142.717Z" fill="#18181B"/>
<path opacity="0.5" d="M58.8957 140.833L60.4249 135.743L62.3176 136.311C62.6638 136.415 62.9498 136.571 63.1757 136.778C63.4075 136.981 63.5623 137.227 63.6401 137.513C63.7193 137.795 63.7076 138.107 63.6049 138.449C63.4996 138.799 63.3257 139.072 63.0832 139.268C62.8453 139.465 62.5674 139.58 62.2494 139.613L62.8041 142.007L61.7518 141.691L61.1726 139.081L61.6672 139.617L60.3894 139.233L59.8249 141.112L58.8957 140.833ZM60.6357 138.413L61.6128 138.707C61.7814 138.758 61.9367 138.769 62.0789 138.743C62.2224 138.711 62.3461 138.647 62.45 138.549C62.5539 138.451 62.6291 138.324 62.6757 138.169C62.7236 138.01 62.7304 137.863 62.6963 137.729C62.6636 137.59 62.5953 137.47 62.4914 137.369C62.389 137.264 62.2535 137.186 62.0849 137.135L61.1078 136.842L60.6357 138.413ZM64.0343 142.377L65.5635 137.286L68.9457 138.302L68.6994 139.122L66.2464 138.385L65.8544 139.691L68.1707 140.386L67.9244 141.206L65.6081 140.51L65.2099 141.836L67.6628 142.573L67.4165 143.393L64.0343 142.377ZM69.6689 144.07L69.8315 138.569L70.8291 138.868L70.5985 143.529L70.3388 143.451L72.7628 139.449L73.7262 139.738L73.5366 144.412L73.2769 144.334L75.6531 140.317L76.6507 140.617L73.7549 145.297L72.689 144.977L72.8301 140.415L73.1308 140.506L70.7348 144.39L69.6689 144.07ZM75.6162 145.856L78.9015 141.293L80.104 141.654L80.3309 147.272L79.3196 146.969L79.2859 145.767L77.318 145.175L76.6206 146.158L75.6162 145.856ZM77.8308 144.436L79.2657 144.867L79.18 142.077L79.4396 142.155L77.8308 144.436ZM81.5186 147.629L83.0478 142.539L84.9405 143.107C85.2867 143.211 85.5727 143.367 85.7986 143.574C86.0304 143.777 86.1852 144.023 86.263 144.309C86.3422 144.591 86.3305 144.903 86.2278 145.245C86.1225 145.595 85.9486 145.868 85.7061 146.064C85.4683 146.261 85.1903 146.376 84.8723 146.409L85.427 148.803L84.3747 148.487L83.7955 145.877L84.2901 146.413L83.0123 146.029L82.4479 147.908L81.5186 147.629ZM83.2586 145.209L84.2357 145.503C84.4043 145.554 84.5596 145.565 84.7018 145.539C84.8453 145.507 84.969 145.443 85.0729 145.345C85.1768 145.247 85.252 145.12 85.2986 144.966C85.3465 144.806 85.3534 144.659 85.3192 144.525C85.2865 144.386 85.2182 144.266 85.1144 144.165C85.0119 144.06 84.8764 143.982 84.7078 143.931L83.7308 143.638L83.2586 145.209ZM86.6572 149.173L88.1864 144.082L89.8468 144.581C90.3843 144.743 90.8184 144.992 91.149 145.33C91.4855 145.664 91.7057 146.056 91.8094 146.504C91.9144 146.948 91.8917 147.42 91.7412 147.921C91.592 148.418 91.35 148.827 91.015 149.149C90.6814 149.465 90.2813 149.673 89.8148 149.771C89.3542 149.866 88.8551 149.833 88.3176 149.672L86.6572 149.173ZM87.8328 148.632L88.5844 148.858C88.9306 148.962 89.2502 148.981 89.5431 148.915C89.842 148.846 90.1004 148.705 90.3182 148.492C90.5374 148.275 90.6997 147.991 90.8051 147.64C90.9118 147.285 90.9329 146.959 90.8683 146.661C90.8037 146.364 90.6651 146.106 90.4524 145.888C90.2443 145.672 89.9672 145.511 89.621 145.407L88.8693 145.181L87.8328 148.632ZM94.1292 151.507C93.8058 151.41 93.5229 151.26 93.2806 151.058C93.0429 150.858 92.8553 150.623 92.7178 150.353C92.5862 150.08 92.5173 149.789 92.511 149.479L93.3837 149.376C93.4192 149.704 93.5277 149.988 93.7094 150.226C93.8924 150.46 94.1297 150.621 94.4213 150.708C94.5853 150.757 94.734 150.775 94.8675 150.76C95.0069 150.743 95.1222 150.698 95.2133 150.626C95.309 150.555 95.376 150.456 95.4143 150.329C95.4595 150.178 95.4509 150.042 95.3885 149.919C95.3321 149.792 95.2232 149.675 95.062 149.567L94.1793 148.959C93.82 148.717 93.577 148.443 93.4505 148.137C93.324 147.831 93.3106 147.511 93.4105 147.179C93.4981 146.887 93.646 146.651 93.8543 146.47C94.0671 146.291 94.3195 146.178 94.6116 146.132C94.9095 146.082 95.2248 146.107 95.5573 146.207C95.8625 146.299 96.1263 146.438 96.3485 146.624C96.5721 146.805 96.7463 147.019 96.871 147.265C97.0017 147.508 97.0743 147.77 97.0887 148.053L96.2208 148.165C96.1972 147.879 96.1058 147.638 95.9464 147.442C95.7884 147.24 95.5773 147.1 95.3131 147.02C95.1582 146.974 95.0133 146.96 94.8785 146.979C94.745 146.994 94.6297 147.039 94.5326 147.114C94.4415 147.186 94.3768 147.285 94.3384 147.413C94.296 147.554 94.3039 147.693 94.3622 147.83C94.4218 147.962 94.5361 148.086 94.7051 148.201L95.553 148.776C95.9187 149.03 96.1669 149.303 96.2975 149.596C96.4327 149.89 96.449 150.207 96.3464 150.549C96.2588 150.84 96.1063 151.075 95.8889 151.253C95.6716 151.431 95.4116 151.544 95.1091 151.593C94.8066 151.641 94.4799 151.612 94.1292 151.507ZM99.7483 153.195C99.3839 153.085 99.0667 152.918 98.7966 152.693C98.5311 152.469 98.3177 152.204 98.1566 151.897C98 151.592 97.9058 151.261 97.874 150.904C97.8423 150.546 97.8832 150.179 97.9968 149.801C98.1103 149.423 98.2765 149.093 98.4953 148.811C98.72 148.526 98.9811 148.301 99.2787 148.137C99.5821 147.97 99.9079 147.869 100.256 147.835C100.605 147.796 100.962 147.831 101.327 147.94C101.691 148.05 101.998 148.209 102.248 148.418C102.503 148.629 102.7 148.867 102.839 149.132C102.979 149.393 103.056 149.657 103.07 149.924L102.119 150.063C102.1 149.779 102.002 149.521 101.823 149.289C101.646 149.052 101.396 148.885 101.072 148.788C100.753 148.692 100.448 148.682 100.157 148.759C99.8707 148.836 99.6194 148.987 99.4033 149.21C99.1919 149.435 99.0328 149.725 98.926 150.08C98.8193 150.435 98.7916 150.767 98.843 151.075C98.9003 151.381 99.027 151.645 99.2233 151.868C99.4241 152.092 99.684 152.252 100.003 152.348C100.326 152.445 100.626 152.446 100.904 152.35C101.182 152.25 101.407 152.087 101.58 151.86L102.296 152.5C102.137 152.716 101.927 152.896 101.665 153.04C101.404 153.181 101.109 153.269 100.781 153.304C100.457 153.341 100.113 153.304 99.7483 153.195ZM105.661 154.971C105.297 154.862 104.979 154.694 104.709 154.469C104.444 154.245 104.23 153.98 104.069 153.673C103.913 153.368 103.818 153.037 103.787 152.68C103.755 152.323 103.796 151.955 103.909 151.577C104.023 151.199 104.189 150.869 104.408 150.587C104.633 150.302 104.894 150.077 105.191 149.913C105.495 149.746 105.821 149.645 106.169 149.611C106.518 149.572 106.875 149.607 107.239 149.717C107.604 149.826 107.911 149.985 108.161 150.195C108.416 150.405 108.612 150.643 108.751 150.908C108.891 151.169 108.969 151.433 108.983 151.7L108.032 151.839C108.013 151.556 107.914 151.297 107.736 151.065C107.559 150.828 107.308 150.661 106.985 150.564C106.666 150.468 106.361 150.458 106.07 150.535C105.783 150.613 105.532 150.763 105.316 150.986C105.104 151.211 104.945 151.501 104.839 151.856C104.732 152.211 104.704 152.543 104.756 152.852C104.813 153.157 104.94 153.421 105.136 153.644C105.337 153.868 105.597 154.028 105.915 154.124C106.239 154.221 106.539 154.222 106.816 154.126C107.095 154.026 107.32 153.863 107.492 153.636L108.209 154.276C108.05 154.492 107.839 154.672 107.577 154.817C107.317 154.957 107.022 155.045 106.693 155.08C106.37 155.117 106.025 155.081 105.661 154.971ZM108.79 155.822L112.075 151.259L113.278 151.62L113.505 157.238L112.493 156.934L112.46 155.732L110.492 155.141L109.794 156.123L108.79 155.822ZM111.005 154.401L112.439 154.832L112.354 152.043L112.613 152.121L111.005 154.401ZM114.692 157.595L116.221 152.504L118.121 153.075C118.467 153.179 118.753 153.334 118.979 153.541C119.211 153.745 119.366 153.99 119.444 154.277C119.523 154.559 119.511 154.871 119.408 155.212C119.307 155.549 119.143 155.815 118.915 156.01C118.694 156.202 118.432 156.322 118.129 156.37C117.827 156.418 117.502 156.39 117.156 156.286L116.186 155.995L115.622 157.874L114.692 157.595ZM116.432 155.175L117.416 155.47C117.585 155.521 117.74 155.533 117.882 155.506C118.026 155.475 118.15 155.41 118.253 155.312C118.357 155.214 118.433 155.088 118.479 154.933C118.527 154.774 118.534 154.627 118.5 154.492C118.467 154.353 118.399 154.234 118.295 154.133C118.192 154.028 118.057 153.95 117.888 153.899L116.904 153.603L116.432 155.175ZM119.744 159.112L121.273 154.022L122.203 154.301L120.673 159.391L119.744 159.112Z" fill="#18181B"/>
<g clip-path="url(#clip1_25_1902)">
<path d="M203.054 62.9226C202.512 62.7598 201.931 62.9684 201.309 63.5483C200.688 64.1282 200.232 64.9016 199.942 65.8684L198.173 71.7573L199.733 72.226L199.614 72.6215L192.758 70.5621L192.877 70.1665L194.086 70.5296L196.99 60.8613L195.781 60.4982L195.9 60.1027L201.196 61.6935L200.562 63.8029C200.977 63.113 201.515 62.6518 202.176 62.4191C202.841 62.1717 203.518 62.1514 204.206 62.3583C204.895 62.5651 205.392 62.9301 205.698 63.4532C206.023 63.9661 206.078 64.5814 205.862 65.2992C205.651 66.0024 205.327 66.496 204.89 66.78C204.454 67.0641 203.898 67.1049 203.224 66.9025C202.565 66.7045 202.14 66.3373 201.95 65.801C201.775 65.2692 201.921 64.6502 202.388 63.9442L203.179 64.1819C203.77 63.5448 203.728 63.125 203.054 62.9226ZM209.415 75.8052C207.525 75.2376 206.25 74.3273 205.588 73.0745C204.945 71.8114 204.883 70.3155 205.403 68.5869C205.926 66.8437 206.854 65.6691 208.186 65.063C209.533 64.4614 211.026 64.407 212.667 64.8998C215.992 65.8988 217.087 68.0484 215.952 71.3487L209.756 69.4873L209.498 70.3443C209.067 71.7799 208.925 72.9189 209.071 73.7614C209.217 74.6039 209.744 75.1615 210.652 75.4343C212.352 75.9448 213.738 75.3709 214.811 73.7129L215.187 73.8976C214.591 74.8688 213.84 75.5373 212.931 75.9032C212.037 76.2735 210.865 76.2409 209.415 75.8052ZM209.91 69.0545L212.173 69.7343L212.496 68.6576C212.853 67.4711 213.022 66.6434 213.003 66.1745C213.003 65.6955 212.791 65.3922 212.366 65.2645C211.956 65.1413 211.578 65.2833 211.232 65.6904C210.905 66.0873 210.572 66.8498 210.233 67.9778L209.91 69.0545ZM225.077 69.2984L225.195 68.9028L230.864 70.6058L230.746 71.0013L229.845 70.7307L229.598 78.7298L233.778 71.9122L232.262 71.4568L232.381 71.0613L235.347 71.9524L235.228 72.3479L234.305 72.0707L228.645 81.3424L225.635 80.4381L225.75 73.118L221.658 79.2434L218.713 78.3589L218.484 67.3182L217.496 67.0211L217.614 66.6256L224.272 68.6256L224.154 69.0211L222.835 68.6251L222.613 76.7033L225.739 72.0368L225.89 69.5426L225.077 69.2984ZM238.916 78.798L239.553 78.9894L240.062 77.2975C240.48 75.9058 240.679 74.9514 240.658 74.4342C240.657 73.9068 240.437 73.5771 239.997 73.4451C239.733 73.3659 239.47 73.3665 239.206 73.447C238.961 73.5172 238.802 73.6768 238.727 73.9259C238.656 74.1603 238.628 74.4152 238.641 74.6906L239.19 74.8556C239.215 75.1985 239.161 75.5896 239.029 76.0291C238.902 76.4539 238.606 76.7724 238.143 76.9847C237.685 77.1823 237.177 77.1975 236.62 77.0303C235.361 76.6518 234.913 75.8547 235.279 74.6389C235.82 72.837 237.621 72.396 240.683 73.3157C242.426 73.8393 243.537 74.5005 244.016 75.2991C244.514 76.0874 244.525 77.2727 244.05 78.8548L242.71 83.3154C242.481 84.0771 242.579 84.5218 243.004 84.6494C243.502 84.799 244.021 84.1326 244.563 82.6502L244.886 82.7712C244.44 84.0426 243.932 84.8563 243.362 85.2121C242.792 85.5679 242.023 85.6006 241.057 85.3102C239.299 84.7821 238.451 83.9365 238.513 82.7733C238.155 83.2728 237.746 83.5971 237.286 83.7463C236.826 83.8956 236.23 83.8603 235.497 83.6402C233.329 82.989 232.511 81.777 233.044 80.0045C233.356 78.9644 233.98 78.3772 234.915 78.2427C235.868 78.0981 237.202 78.2831 238.916 78.798ZM237.225 81.2367C236.997 81.9984 236.886 82.5002 236.893 82.7419C236.915 82.988 237.036 83.1441 237.255 83.2101C237.49 83.2805 237.757 83.1612 238.058 82.8522C238.377 82.5329 238.636 82.0437 238.834 81.3845L239.448 79.341L239.294 79.2948C238.386 79.0219 237.731 79.5521 237.331 80.8851L237.225 81.2367ZM254.619 78.4123C254.077 78.2495 253.495 78.4581 252.874 79.038C252.253 79.618 251.797 80.3913 251.506 81.3582L249.737 87.247L251.297 87.7157L251.178 88.1112L244.323 86.0518L244.442 85.6563L245.65 86.0193L248.554 76.351L247.346 75.988L247.465 75.5924L252.76 77.1832L252.127 79.2927C252.541 78.6028 253.079 78.1415 253.74 77.9088C254.405 77.6614 255.082 77.6411 255.771 77.848C256.459 78.0548 256.956 78.4198 257.262 78.9429C257.588 79.4558 257.642 80.0711 257.427 80.7889C257.215 81.4921 256.891 81.9857 256.455 82.2698C256.018 82.5538 255.463 82.5946 254.789 82.3922C254.13 82.1942 253.705 81.827 253.515 81.2908C253.339 80.7589 253.485 80.14 253.953 79.434L254.744 79.6716C255.334 79.0345 255.293 78.6147 254.619 78.4123ZM264.2 85.6711C264.224 85.5924 264.271 85.4352 264.342 85.1991C264.415 84.9559 264.49 84.6783 264.569 84.3665C264.649 84.0475 264.724 83.7073 264.793 83.3461C264.863 82.9848 264.903 82.6422 264.915 82.3182C264.81 82.0449 264.676 81.7901 264.513 81.554C264.359 81.3129 264.118 81.1429 263.789 81.0441C263.231 80.8765 262.71 81.1177 262.226 81.7678C261.749 82.4201 261.281 83.5115 260.821 85.0422C260.619 85.7146 260.463 86.3383 260.353 86.9134C260.249 87.4906 260.198 87.9979 260.2 88.4349C260.208 88.8741 260.276 89.2337 260.402 89.5135C260.536 89.7953 260.739 89.9771 261.01 90.0587C262.155 90.4025 263.218 88.9399 264.2 85.6711ZM265.489 80.9116C265.568 80.1555 265.579 79.4334 265.52 78.7452C265.464 78.0498 265.332 77.4252 265.124 76.8715C264.923 76.3199 264.643 75.8498 264.284 75.4612C263.932 75.0748 263.506 74.8064 263.006 74.656C262.719 74.5701 262.447 74.5274 262.19 74.528C261.94 74.5308 261.714 74.5565 261.512 74.605C261.312 74.6464 261.141 74.6965 260.999 74.7551C260.866 74.8087 260.768 74.8494 260.705 74.8773L260.539 74.418C260.777 74.2478 261.047 74.1027 261.348 73.9826C261.656 73.8647 261.977 73.7818 262.312 73.734C262.646 73.6862 262.985 73.6713 263.331 73.6893C263.684 73.7095 264.021 73.7679 264.343 73.8646C265.401 74.1826 266.261 74.6944 266.923 75.3999C267.586 76.0984 268.06 76.9502 268.343 77.9554C268.626 78.9606 268.723 80.1012 268.636 81.3774C268.549 82.6536 268.287 84.0212 267.848 85.4804C267.494 86.6605 267.061 87.6612 266.549 88.4822C266.044 89.3055 265.479 89.9545 264.853 90.4293C264.229 90.8969 263.552 91.1888 262.824 91.3052C262.104 91.4165 261.347 91.3529 260.553 91.1144C260.002 90.949 259.47 90.6838 258.956 90.3187C258.451 89.9487 258.032 89.4721 257.701 88.8891C257.376 88.308 257.174 87.6158 257.096 86.8123C257.02 86.0019 257.139 85.0744 257.452 84.0302C257.723 83.1289 258.089 82.3654 258.55 81.7396C259.018 81.116 259.538 80.6291 260.112 80.2787C260.687 79.9213 261.295 79.7022 261.935 79.6216C262.577 79.5339 263.213 79.5845 263.843 79.7736C264.086 79.8467 264.298 79.9336 264.478 80.0346C264.66 80.1283 264.814 80.2254 264.94 80.3255C265.066 80.4257 265.172 80.5277 265.258 80.6315C265.346 80.7281 265.423 80.8215 265.489 80.9116ZM267.293 93.1916L268.475 89.2584L268.739 89.3376C268.737 90.7265 268.981 91.774 269.471 92.4804C269.962 93.1868 270.691 93.6851 271.658 93.9755C273.152 94.4244 274.042 94.1728 274.328 93.2205C274.451 92.8104 274.36 92.4478 274.056 92.1326C273.581 91.6388 272.924 91.1697 272.083 90.7255C271.166 90.1626 270.436 89.5602 269.895 88.9183C269.248 88.1489 269.095 87.1929 269.439 86.0503C269.782 84.9077 270.406 84.105 271.312 83.6424C272.222 83.1651 273.263 83.1025 274.435 83.4545C275.152 83.6702 275.842 84.0609 276.502 84.6266C276.745 84.8274 276.94 84.9498 277.087 84.9938C277.233 85.0378 277.373 85.024 277.506 84.9522C277.64 84.8805 277.821 84.7274 278.052 84.4931L278.293 84.5657L277.283 87.9277L277.02 87.8484C276.845 85.7197 275.973 84.4199 274.406 83.949C273.717 83.7422 273.167 83.7127 272.756 83.8605C272.348 83.9936 272.09 84.2434 271.98 84.6096C271.914 84.8293 271.912 85.0205 271.975 85.1831C272.042 85.3311 272.097 85.4433 272.137 85.5194C272.178 85.5956 272.254 85.6902 272.364 85.803C272.478 85.9012 272.572 85.9855 272.647 86.0558C272.726 86.1115 272.845 86.1951 273.003 86.3065C273.176 86.4223 273.304 86.5007 273.388 86.5418C274.309 87.09 274.961 87.5254 275.343 87.8478C275.73 88.1556 276.081 88.5008 276.397 88.8833C277.036 89.682 277.168 90.7039 276.794 91.949C276.424 93.1796 275.777 94.007 274.85 94.4316C273.929 94.8414 272.831 94.855 271.556 94.4722C270.648 94.1993 269.833 93.7229 269.111 93.0428C268.97 92.8728 268.849 92.7724 268.746 92.7417C268.424 92.6449 268.028 92.8213 267.557 93.2708L267.293 93.1916Z" fill="#0C3636"/>
<path d="M231.123 95.2335C230.793 95.1345 230.502 94.9887 230.25 94.7962C230.003 94.6008 229.804 94.3727 229.654 94.1118C229.508 93.848 229.419 93.5629 229.385 93.2563C229.352 92.9497 229.383 92.6357 229.48 92.3144C229.576 91.993 229.723 91.7137 229.92 91.4764C230.117 91.2392 230.35 91.0532 230.62 90.9186C230.891 90.7798 231.182 90.699 231.494 90.676C231.808 90.6489 232.132 90.6855 232.465 90.7858C232.82 90.8922 233.125 91.0511 233.38 91.2626C233.637 91.47 233.83 91.7234 233.96 92.023L233.294 92.3553C233.188 92.1394 233.051 91.9611 232.882 91.8205C232.715 91.6759 232.517 91.5695 232.291 91.5014C232.064 91.4333 231.845 91.4079 231.633 91.4252C231.426 91.4436 231.231 91.4998 231.05 91.5937C230.873 91.6888 230.718 91.8173 230.584 91.9792C230.454 92.1423 230.356 92.3351 230.289 92.5576C230.222 92.7801 230.198 92.9951 230.217 93.2028C230.239 93.4117 230.298 93.6046 230.393 93.7814C230.492 93.9594 230.624 94.1134 230.787 94.2432C230.954 94.3743 231.151 94.4739 231.377 94.542C231.604 94.61 231.827 94.632 232.045 94.6077C232.265 94.5794 232.479 94.5022 232.687 94.3762L233.058 95.0265C232.785 95.2007 232.484 95.3057 232.155 95.3414C231.825 95.3772 231.481 95.3412 231.123 95.2335ZM233.726 95.9483L234.718 92.6482L235.453 92.8691L235.18 93.7776L235.174 93.4858C235.339 93.2931 235.545 93.1706 235.789 93.1183C236.038 93.0673 236.321 93.0895 236.639 93.1848L236.418 93.9202C236.387 93.902 236.357 93.8886 236.329 93.88C236.301 93.8672 236.273 93.8565 236.244 93.8478C235.951 93.7599 235.693 93.7765 235.468 93.8976C235.244 94.0145 235.081 94.2419 234.98 94.5797L234.499 96.1804L233.726 95.9483ZM237.971 97.2706C237.604 97.1604 237.305 96.9918 237.072 96.7647C236.845 96.5347 236.693 96.269 236.617 95.9678C236.546 95.6678 236.559 95.3551 236.657 95.0296C236.756 94.7 236.915 94.4312 237.135 94.2232C237.36 94.0123 237.622 93.8731 237.92 93.8057C238.223 93.7394 238.54 93.7558 238.869 93.8548C239.191 93.9514 239.456 94.1074 239.665 94.323C239.874 94.5386 240.013 94.7957 240.08 95.0945C240.148 95.3933 240.129 95.7157 240.025 96.0618C240.015 96.0947 240.002 96.1312 239.986 96.1711C239.973 96.2123 239.96 96.2509 239.944 96.2867L237.194 95.4606L237.348 94.9476L239.691 95.6512L239.339 95.7209C239.4 95.5327 239.411 95.354 239.372 95.1851C239.333 95.0161 239.254 94.8688 239.135 94.7431C239.019 94.6186 238.869 94.5285 238.684 94.4728C238.494 94.4159 238.315 94.407 238.146 94.4461C237.981 94.4864 237.835 94.5683 237.708 94.6919C237.587 94.8126 237.496 94.9718 237.437 95.1696L237.399 95.2932C237.34 95.4909 237.333 95.6796 237.378 95.8593C237.422 96.039 237.515 96.1948 237.655 96.3267C237.795 96.4586 237.972 96.5567 238.186 96.6211C238.372 96.6767 238.547 96.698 238.713 96.6849C238.879 96.6718 239.038 96.6207 239.19 96.5318L239.461 97.132C239.261 97.2605 239.033 97.3381 238.778 97.3648C238.529 97.3886 238.259 97.3572 237.971 97.2706ZM241.833 98.4305C241.515 98.3352 241.25 98.1792 241.037 97.9624C240.829 97.7427 240.69 97.4855 240.622 97.1909C240.553 96.8962 240.57 96.5779 240.673 96.236C240.775 95.894 240.937 95.619 241.156 95.411C241.376 95.203 241.633 95.0667 241.926 95.0021C242.223 94.9388 242.531 94.9548 242.848 95.0501C243.124 95.133 243.353 95.269 243.534 95.4582C243.716 95.6433 243.834 95.8786 243.888 96.1642C243.941 96.4498 243.91 96.7862 243.794 97.1735C243.678 97.5566 243.521 97.8553 243.322 98.0695C243.124 98.2796 242.898 98.4136 242.642 98.4716C242.387 98.5296 242.117 98.5159 241.833 98.4305ZM242.124 97.7971C242.309 97.8528 242.486 97.8611 242.655 97.822C242.829 97.7842 242.982 97.7 243.115 97.5694C243.253 97.4401 243.353 97.2704 243.417 97.0602C243.481 96.846 243.491 96.649 243.446 96.4694C243.406 96.2868 243.325 96.1321 243.201 96.0051C243.082 95.8794 242.929 95.7887 242.744 95.733C242.559 95.6773 242.379 95.6684 242.206 95.7062C242.037 95.7453 241.884 95.8295 241.746 95.9588C241.614 96.0853 241.516 96.2556 241.451 96.4699C241.388 96.68 241.376 96.8763 241.416 97.0589C241.459 97.2427 241.541 97.3974 241.66 97.5231C241.784 97.6501 241.939 97.7414 242.124 97.7971ZM242.939 98.7159L243.173 97.9372L243.468 97.0689L243.67 96.1728L244.286 94.121L245.052 94.3512L243.675 98.9368L242.939 98.7159ZM244.863 99.2938L245.855 95.9937L246.627 96.2257L245.636 99.5258L244.863 99.2938ZM246.407 95.5668C246.263 95.5235 246.157 95.4422 246.09 95.3231C246.026 95.2053 246.014 95.0825 246.052 94.9548C246.092 94.8229 246.17 94.7274 246.287 94.6681C246.409 94.6059 246.542 94.5965 246.686 94.6398C246.83 94.6831 246.934 94.7616 246.999 94.8754C247.069 94.9862 247.085 95.1055 247.047 95.2332C247.006 95.3692 246.926 95.471 246.807 95.5385C246.689 95.6019 246.556 95.6113 246.407 95.5668ZM248.051 100.298C247.688 100.189 247.436 100.013 247.294 99.7678C247.153 99.5189 247.137 99.2111 247.248 98.8444L248.137 95.8842L248.909 96.1162L248.026 99.0579C247.979 99.2145 247.981 99.3478 248.034 99.4578C248.09 99.5691 248.19 99.6464 248.334 99.6897C248.507 99.7417 248.665 99.7397 248.808 99.6837L248.859 100.299C248.746 100.346 248.618 100.368 248.475 100.365C248.332 100.363 248.191 100.34 248.051 100.298ZM247.181 97.0928L247.366 96.4748L249.567 97.1357L249.381 97.7537L247.181 97.0928ZM253.55 101.971C253.22 101.872 252.929 101.726 252.677 101.533C252.431 101.338 252.232 101.11 252.081 100.849C251.936 100.585 251.846 100.3 251.813 99.9933C251.779 99.6868 251.81 99.3728 251.907 99.0514C252.003 98.7301 252.15 98.4508 252.347 98.2135C252.544 97.9762 252.778 97.7903 253.047 97.6556C253.318 97.5169 253.609 97.436 253.922 97.413C254.235 97.386 254.559 97.4225 254.893 97.5228C255.247 97.6292 255.552 97.7882 255.807 97.9997C256.064 98.207 256.257 98.4605 256.387 98.7601L255.722 99.0924C255.616 98.8764 255.478 98.6982 255.309 98.5576C255.142 98.4129 254.945 98.3065 254.718 98.2385C254.491 98.1704 254.272 98.145 254.06 98.1622C253.853 98.1807 253.659 98.2368 253.478 98.3307C253.301 98.4258 253.145 98.5543 253.011 98.7162C252.882 98.8793 252.783 99.0721 252.716 99.2946C252.65 99.5171 252.625 99.7322 252.644 99.9399C252.666 100.149 252.725 100.342 252.82 100.518C252.92 100.696 253.051 100.85 253.214 100.98C253.381 101.111 253.578 101.211 253.805 101.279C254.031 101.347 254.254 101.369 254.472 101.345C254.692 101.316 254.906 101.239 255.114 101.113L255.485 101.764C255.213 101.938 254.912 102.043 254.582 102.078C254.252 102.114 253.908 102.078 253.55 101.971ZM258.157 103.287L258.357 102.62L258.357 102.465L258.708 101.297C258.776 101.07 258.76 100.874 258.662 100.71C258.564 100.541 258.377 100.416 258.101 100.333C257.916 100.277 257.724 100.251 257.525 100.254C257.331 100.258 257.156 100.294 257.002 100.36L256.868 99.7062C257.086 99.6234 257.326 99.5856 257.589 99.5927C257.857 99.5969 258.123 99.6386 258.387 99.7178C258.865 99.8614 259.199 100.088 259.389 100.396C259.585 100.702 259.611 101.094 259.467 101.572L258.886 103.506L258.157 103.287ZM257.106 103.018C256.858 102.944 256.655 102.838 256.494 102.7C256.334 102.558 256.226 102.397 256.167 102.218C256.114 102.036 256.116 101.85 256.173 101.66C256.229 101.475 256.322 101.321 256.453 101.199C256.588 101.078 256.77 101.004 256.998 100.978C257.225 100.952 257.506 100.99 257.84 101.09L258.798 101.378L258.644 101.89L257.742 101.619C257.478 101.54 257.288 101.53 257.171 101.59C257.056 101.645 256.979 101.734 256.942 101.858C256.9 101.998 256.922 102.126 257.009 102.242C257.095 102.357 257.237 102.445 257.435 102.504C257.625 102.561 257.807 102.569 257.981 102.527C258.159 102.486 258.307 102.391 258.424 102.242L258.414 102.745C258.282 102.916 258.103 103.026 257.877 103.075C257.655 103.125 257.398 103.106 257.106 103.018ZM260.049 103.856L261.04 100.555L261.776 100.776L261.503 101.685L261.496 101.393C261.662 101.2 261.867 101.078 262.112 101.026C262.361 100.975 262.644 100.997 262.961 101.092L262.74 101.827C262.71 101.809 262.68 101.796 262.651 101.787C262.624 101.774 262.596 101.764 262.567 101.755C262.274 101.667 262.015 101.684 261.79 101.805C261.567 101.922 261.404 102.149 261.302 102.487L260.822 104.088L260.049 103.856ZM264.139 105.131C263.822 105.036 263.557 104.88 263.343 104.663C263.135 104.443 262.997 104.186 262.928 103.892C262.86 103.597 262.877 103.279 262.979 102.937C263.082 102.595 263.243 102.32 263.463 102.112C263.683 101.904 263.939 101.768 264.233 101.703C264.53 101.64 264.837 101.656 265.155 101.751C265.431 101.834 265.659 101.97 265.841 102.159C266.023 102.344 266.141 102.579 266.194 102.865C266.248 103.151 266.216 103.487 266.1 103.874C265.985 104.257 265.828 104.556 265.629 104.77C265.431 104.98 265.204 105.114 264.949 105.172C264.693 105.23 264.423 105.217 264.139 105.131ZM264.431 104.498C264.616 104.554 264.793 104.562 264.962 104.523C265.135 104.485 265.288 104.401 265.422 104.27C265.56 104.141 265.66 103.971 265.723 103.761C265.788 103.547 265.797 103.35 265.752 103.17C265.713 102.988 265.631 102.833 265.508 102.706C265.388 102.58 265.236 102.489 265.051 102.434C264.865 102.378 264.686 102.369 264.513 102.407C264.344 102.446 264.191 102.53 264.053 102.66C263.921 102.786 263.822 102.956 263.758 103.171C263.695 103.381 263.683 103.577 263.722 103.76C263.766 103.943 263.848 104.098 263.967 104.224C264.091 104.351 264.245 104.442 264.431 104.498ZM265.246 105.417L265.48 104.638L265.774 103.77L265.976 102.874L266.593 100.822L267.359 101.052L265.981 105.638L265.246 105.417ZM268.512 106.398L271.758 102.657L272.549 102.894L273.203 107.807L272.362 107.554L271.859 103.152L272.18 103.248L269.34 106.647L268.512 106.398ZM269.709 105.666L270.115 105.1L272.451 105.802L272.477 106.497L269.709 105.666ZM273.924 108.024L275.224 103.698L277.004 104.232C277.387 104.347 277.696 104.508 277.931 104.713C278.17 104.919 278.328 105.16 278.408 105.435C278.487 105.711 278.478 106.007 278.383 106.324C278.288 106.642 278.131 106.893 277.914 107.079C277.696 107.266 277.431 107.379 277.117 107.42C276.808 107.462 276.462 107.425 276.079 107.31L274.744 106.909L275.216 106.64L274.728 108.265L273.924 108.024ZM275.19 106.726L274.948 106.229L276.246 106.619C276.601 106.725 276.889 106.731 277.11 106.636C277.337 106.538 277.492 106.353 277.573 106.081C277.656 105.805 277.63 105.566 277.493 105.363C277.36 105.161 277.117 105.007 276.762 104.901L275.465 104.511L275.942 104.223L275.19 106.726ZM278.52 109.404L279.819 105.078L280.623 105.319L279.323 109.645L278.52 109.404Z" fill="#7F56D9"/>
</g>
<defs>
<filter id="filter0_f_25_1902" x="-83.8943" y="-47.9863" width="475.734" height="475.734" filterUnits="userSpaceOnUse" color-interpolation-filters="sRGB">
<feFlood flood-opacity="0" result="BackgroundImageFix"/>
<feBlend mode="normal" in="SourceGraphic" in2="BackgroundImageFix" result="shape"/>
<feGaussianBlur stdDeviation="91.763" result="effect1_foregroundBlur_25_1902"/>
</filter>
<filter id="filter1_f_25_1902" x="133.81" y="32.6077" width="475.734" height="475.734" filterUnits="userSpaceOnUse" color-interpolation-filters="sRGB">
<feFlood flood-opacity="0" result="BackgroundImageFix"/>
<feBlend mode="normal" in="SourceGraphic" in2="BackgroundImageFix" result="shape"/>
<feGaussianBlur stdDeviation="91.763" result="effect1_foregroundBlur_25_1902"/>
</filter>
<filter id="filter2_d_25_1902" x="0.621147" y="0.150183" width="342.353" height="284.555" filterUnits="userSpaceOnUse" color-interpolation-filters="sRGB">
<feFlood flood-opacity="0" result="BackgroundImageFix"/>
<feColorMatrix in="SourceAlpha" type="matrix" values="0 0 0 0 0 0 0 0 0 0 0 0 0 0 0 0 0 0 127 0" result="hardAlpha"/>
<feOffset dy="27.5289"/>
<feGaussianBlur stdDeviation="19.882"/>
<feComposite in2="hardAlpha" operator="out"/>
<feColorMatrix type="matrix" values="0 0 0 0 0.1375 0 0 0 0 0.155242 0 0 0 0 0.4125 0 0 0 0.08 0"/>
<feBlend mode="normal" in2="BackgroundImageFix" result="effect1_dropShadow_25_1902"/>
<feBlend mode="normal" in="SourceGraphic" in2="effect1_dropShadow_25_1902" result="shape"/>
</filter>
<filter id="filter3_f_25_1902" x="-171.419" y="-227.605" width="511.121" height="511.121" filterUnits="userSpaceOnUse" color-interpolation-filters="sRGB">
<feFlood flood-opacity="0" result="BackgroundImageFix"/>
<feBlend mode="normal" in="SourceGraphic" in2="BackgroundImageFix" result="shape"/>
<feGaussianBlur stdDeviation="98.5859" result="effect1_foregroundBlur_25_1902"/>
</filter>
<filter id="filter4_f_25_1902" x="2.39899" y="-48.7486" width="511.121" height="511.121" filterUnits="userSpaceOnUse" color-interpolation-filters="sRGB">
<feFlood flood-opacity="0" result="BackgroundImageFix"/>
<feBlend mode="normal" in="SourceGraphic" in2="BackgroundImageFix" result="shape"/>
<feGaussianBlur stdDeviation="98.5859" result="effect1_foregroundBlur_25_1902"/>
</filter>
<linearGradient id="paint0_linear_25_1902" x1="292.724" y1="314.412" x2="136.365" y2="165.901" gradientUnits="userSpaceOnUse">
<stop offset="0.507336"/>
<stop offset="1" stop-opacity="0"/>
</linearGradient>
<linearGradient id="paint1_linear_25_1902" x1="182.97" y1="221.378" x2="188.902" y2="259.771" gradientUnits="userSpaceOnUse">
<stop stop-color="#F3EC58"/>
<stop offset="0.4" stop-color="#F6CA45"/>
<stop offset="0.77" stop-color="#F9B036"/>
<stop offset="1" stop-color="#FAA631"/>
</linearGradient>
<linearGradient id="paint2_linear_25_1902" x1="240.61" y1="158.528" x2="72.6244" y2="-1.02593" gradientUnits="userSpaceOnUse">
<stop offset="0.507336" stop-color="white"/>
<stop offset="1" stop-color="white" stop-opacity="0"/>
</linearGradient>
<linearGradient id="paint3_linear_25_1902" x1="97.6887" y1="71.9109" x2="85.6809" y2="111.883" gradientUnits="userSpaceOnUse">
<stop stop-color="#F3EC58"/>
<stop offset="0.4" stop-color="#F6CA45"/>
<stop offset="0.77" stop-color="#F9B036"/>
<stop offset="1" stop-color="#FAA631"/>
</linearGradient>
<clipPath id="clip0_25_1902">
<rect width="89" height="36.1038" fill="white" transform="translate(264 159.585) rotate(-8.78)"/>
</clipPath>
<clipPath id="clip1_25_1902">
<rect width="95" height="38.5377" fill="white" transform="translate(199.552 47.1493) rotate(16.72)"/>
</clipPath>
</defs>
</svg>
