<svg width="1568" height="1361" viewBox="0 0 1568 1361" fill="none" xmlns="http://www.w3.org/2000/svg">
<g filter="url(#filter0_f_25_811)">
<rect x="413.92" y="208.756" width="925.52" height="515.014" transform="rotate(16.72 413.92 208.756)" fill="url(#paint0_linear_25_811)"/>
</g>
<g filter="url(#filter1_d_25_811)">
<rect x="367.602" y="103" width="1074.73" height="679.873" rx="44.5332" transform="rotate(16.7205 367.602 103)" fill="white"/>
</g>
<mask id="mask0_25_811" style="mask-type:alpha" maskUnits="userSpaceOnUse" x="182" y="113" width="1204" height="940">
<rect x="367.602" y="103" width="1074.73" height="679.873" rx="44.5332" transform="rotate(16.7205 367.602 103)" fill="white"/>
</mask>
<g mask="url(#mask0_25_811)">
<g opacity="0.18">
<line x1="362.585" y1="81.7001" x2="973.349" y2="999.864" stroke="#18181B" stroke-width="2.96888"/>
<line x1="346.66" y1="83.1153" x2="957.424" y2="1001.28" stroke="#18181B" stroke-width="2.96888"/>
<line x1="330.734" y1="84.5318" x2="941.498" y2="1002.7" stroke="#18181B" stroke-width="2.96888"/>
<line x1="314.811" y1="85.9483" x2="925.575" y2="1004.11" stroke="#18181B" stroke-width="2.96888"/>
<line x1="298.885" y1="87.3637" x2="909.649" y2="1005.53" stroke="#18181B" stroke-width="2.96888"/>
<line x1="282.961" y1="88.7796" x2="893.725" y2="1006.94" stroke="#18181B" stroke-width="2.96888"/>
<line x1="267.032" y1="90.1961" x2="877.796" y2="1008.36" stroke="#18181B" stroke-width="2.96888"/>
<line x1="251.11" y1="91.612" x2="861.874" y2="1009.78" stroke="#18181B" stroke-width="2.96888"/>
<line x1="235.182" y1="93.0273" x2="845.946" y2="1011.19" stroke="#18181B" stroke-width="2.96888"/>
<line x1="219.259" y1="94.4427" x2="830.023" y2="1012.61" stroke="#18181B" stroke-width="2.96888"/>
<line x1="203.331" y1="95.8597" x2="814.095" y2="1014.02" stroke="#18181B" stroke-width="2.96888"/>
<line x1="187.41" y1="97.2757" x2="798.174" y2="1015.44" stroke="#18181B" stroke-width="2.96888"/>
<line x1="171.482" y1="98.691" x2="782.246" y2="1016.85" stroke="#18181B" stroke-width="2.96888"/>
<line x1="155.557" y1="100.107" x2="766.321" y2="1018.27" stroke="#18181B" stroke-width="2.96888"/>
<line x1="139.631" y1="101.523" x2="750.395" y2="1019.69" stroke="#18181B" stroke-width="2.96888"/>
<line x1="123.707" y1="102.939" x2="734.471" y2="1021.1" stroke="#18181B" stroke-width="2.96888"/>
<line x1="107.782" y1="104.355" x2="718.546" y2="1022.52" stroke="#18181B" stroke-width="2.96888"/>
<line x1="91.8563" y1="105.77" x2="702.62" y2="1023.93" stroke="#18181B" stroke-width="2.96888"/>
<line x1="75.9315" y1="107.187" x2="686.696" y2="1025.35" stroke="#18181B" stroke-width="2.96888"/>
<line x1="60.0077" y1="108.603" x2="670.772" y2="1026.77" stroke="#18181B" stroke-width="2.96888"/>
<line x1="44.0829" y1="110.018" x2="654.847" y2="1028.18" stroke="#18181B" stroke-width="2.96888"/>
<line x1="28.1569" y1="111.434" x2="638.921" y2="1029.6" stroke="#18181B" stroke-width="2.96888"/>
<line x1="12.2321" y1="112.851" x2="622.996" y2="1031.01" stroke="#18181B" stroke-width="2.96888"/>
<line x1="-3.69177" y1="114.267" x2="607.072" y2="1032.43" stroke="#18181B" stroke-width="2.96888"/>
<line x1="-19.6166" y1="115.682" x2="591.147" y2="1033.85" stroke="#18181B" stroke-width="2.96888"/>
<line x1="-35.5448" y1="117.097" x2="575.219" y2="1035.26" stroke="#18181B" stroke-width="2.96888"/>
<line x1="-51.4696" y1="118.514" x2="559.294" y2="1036.68" stroke="#18181B" stroke-width="2.96888"/>
<line x1="-67.3912" y1="119.93" x2="543.373" y2="1038.09" stroke="#18181B" stroke-width="2.96888"/>
<line x1="-83.3173" y1="121.346" x2="527.447" y2="1039.51" stroke="#18181B" stroke-width="2.96888"/>
<line x1="-99.2443" y1="122.762" x2="511.52" y2="1040.93" stroke="#18181B" stroke-width="2.96888"/>
<line x1="-115.166" y1="124.178" x2="495.598" y2="1042.34" stroke="#18181B" stroke-width="2.96888"/>
<line x1="380.499" y1="83.9815" x2="991.263" y2="1002.15" stroke="#18181B" stroke-width="2.96888"/>
<line x1="398.412" y1="86.2635" x2="1009.18" y2="1004.43" stroke="#18181B" stroke-width="2.96888"/>
<line x1="416.327" y1="88.5455" x2="1027.09" y2="1006.71" stroke="#18181B" stroke-width="2.96888"/>
<line x1="434.241" y1="90.8264" x2="1045.01" y2="1008.99" stroke="#18181B" stroke-width="2.96888"/>
<line x1="452.153" y1="93.1084" x2="1062.92" y2="1011.27" stroke="#18181B" stroke-width="2.96888"/>
<line x1="470.069" y1="95.3899" x2="1080.83" y2="1013.55" stroke="#18181B" stroke-width="2.96888"/>
<line x1="487.984" y1="97.6712" x2="1098.75" y2="1015.83" stroke="#18181B" stroke-width="2.96888"/>
<line x1="505.895" y1="99.9527" x2="1116.66" y2="1018.12" stroke="#18181B" stroke-width="2.96888"/>
<line x1="523.812" y1="102.234" x2="1134.58" y2="1020.4" stroke="#18181B" stroke-width="2.96888"/>
<line x1="541.726" y1="104.516" x2="1152.49" y2="1022.68" stroke="#18181B" stroke-width="2.96888"/>
<line x1="559.64" y1="106.798" x2="1170.4" y2="1024.96" stroke="#18181B" stroke-width="2.96888"/>
<line x1="577.556" y1="109.079" x2="1188.32" y2="1027.24" stroke="#18181B" stroke-width="2.96888"/>
<line x1="595.473" y1="111.361" x2="1206.24" y2="1029.52" stroke="#18181B" stroke-width="2.96888"/>
<line x1="613.382" y1="113.643" x2="1224.15" y2="1031.81" stroke="#18181B" stroke-width="2.96888"/>
<line x1="631.298" y1="115.924" x2="1242.06" y2="1034.09" stroke="#18181B" stroke-width="2.96888"/>
<line x1="649.213" y1="118.205" x2="1259.98" y2="1036.37" stroke="#18181B" stroke-width="2.96888"/>
<line x1="667.125" y1="120.487" x2="1277.89" y2="1038.65" stroke="#18181B" stroke-width="2.96888"/>
<line x1="685.041" y1="122.769" x2="1295.8" y2="1040.93" stroke="#18181B" stroke-width="2.96888"/>
<line x1="702.956" y1="125.05" x2="1313.72" y2="1043.21" stroke="#18181B" stroke-width="2.96888"/>
<line x1="720.867" y1="127.332" x2="1331.63" y2="1045.5" stroke="#18181B" stroke-width="2.96888"/>
<line x1="738.782" y1="129.614" x2="1349.55" y2="1047.78" stroke="#18181B" stroke-width="2.96888"/>
<line x1="756.696" y1="131.895" x2="1367.46" y2="1050.06" stroke="#18181B" stroke-width="2.96888"/>
<line x1="774.612" y1="134.176" x2="1385.38" y2="1052.34" stroke="#18181B" stroke-width="2.96888"/>
</g>
<rect x="367.602" y="103" width="1074.73" height="679.873" rx="44.5332" transform="rotate(16.7205 367.602 103)" fill="url(#paint1_linear_25_811)"/>
<g filter="url(#filter2_f_25_811)">
<circle cx="383.208" cy="185.188" r="267.199" transform="rotate(16.7205 383.208 185.188)" fill="#D2D2D2"/>
</g>
<g filter="url(#filter3_f_25_811)">
<circle cx="1178.85" cy="1003.89" r="267.199" transform="rotate(16.7205 1178.85 1003.89)" fill="#C8C8C8"/>
</g>
</g>
<path d="M491.175 517.177L514.463 439.655C517.463 429.669 509.835 418.523 497.456 414.804L385.971 381.314C373.589 377.594 361.078 382.693 358.079 392.677L334.791 470.199C331.791 480.185 339.426 491.328 351.805 495.047L463.29 528.537C475.67 532.254 488.176 527.161 491.175 517.177ZM352.241 493.594C340.852 490.173 333.833 479.92 336.591 470.739L359.879 393.217C362.638 384.033 374.146 379.344 385.535 382.766L497.02 416.256C508.403 419.676 515.422 429.929 512.663 439.114L489.375 516.636C486.617 525.817 475.109 530.505 463.727 527.085L352.241 493.594Z" fill="#3F3F46"/>
<path d="M463.729 527.087L352.245 493.596C346.772 491.95 342.049 488.619 339.114 484.335C336.179 480.051 335.273 475.164 336.594 470.747L359.884 393.22C362.643 384.035 374.15 379.347 385.539 382.768L497.023 416.258C508.406 419.677 515.425 429.931 512.665 439.116L489.376 516.644C486.62 525.818 475.112 530.506 463.729 527.087Z" fill="url(#paint2_linear_25_811)"/>
<path d="M339.045 457.116L339.482 455.664L390.819 471.086C394.222 472.105 397.812 471.994 400.8 470.776C403.789 469.559 405.932 467.335 406.76 464.592L415.045 437.015C415.865 434.27 415.302 431.233 413.479 428.57C411.656 425.907 408.723 423.836 405.321 422.811L353.984 407.389L354.42 405.935L405.758 421.357C409.636 422.527 412.982 424.889 415.06 427.925C417.139 430.962 417.781 434.425 416.845 437.556L408.561 465.133C407.617 468.26 405.173 470.796 401.765 472.185C398.357 473.573 394.264 473.7 390.383 472.538L339.045 457.116Z" fill="#383335"/>
<path d="M438.366 474.087L446.65 446.51C447.594 443.382 450.039 440.845 453.447 439.457C456.855 438.068 460.949 437.941 464.83 439.103L510.425 452.8L509.988 454.254L464.393 440.557C460.99 439.537 457.4 439.649 454.411 440.866C451.422 442.083 449.279 444.308 448.451 447.05L440.166 474.628C439.346 477.373 439.91 480.41 441.733 483.073C443.556 485.736 446.49 487.807 449.891 488.832L495.486 502.529L495.05 503.981L449.455 490.284C445.576 489.116 442.23 486.754 440.151 483.717C438.072 480.68 437.43 477.217 438.366 474.087Z" fill="#383335"/>
<path d="M446.946 448.791L447.383 447.339L415.776 437.845L415.34 439.297L446.946 448.791Z" fill="#383335"/>
<path d="M439.438 473.795L439.874 472.343L408.267 462.849L407.831 464.301L439.438 473.795Z" fill="#383335"/>
<path d="M370.451 499.858L379.846 468.582L378.046 468.041L368.65 499.317L370.451 499.858Z" fill="#383335"/>
<path d="M394.787 418.854L404.183 387.576L402.383 387.035L392.987 418.313L394.787 418.854Z" fill="#383335"/>
<path d="M450.222 523.821L459.617 492.544L457.817 492.004L448.421 523.28L450.222 523.821Z" fill="#383335"/>
<path d="M474.554 442.816L483.95 411.539L482.15 410.998L472.754 442.276L474.554 442.816Z" fill="#383335"/>
<path d="M501.66 479.008L502.096 477.555L443.587 459.979L443.151 461.431L501.66 479.008Z" fill="#383335"/>
<path d="M410.974 451.764L411.41 450.312L346.898 430.932L346.462 432.384L410.974 451.764Z" fill="#383335"/>
<path d="M1012.62 933.416L992.446 928.207L1037.5 838.657L1057.68 843.866L1012.62 933.416ZM1007.92 831.02L966.367 889.887L968.896 875.554L968.896 875.56L976.697 832.072C976.697 832.072 978.798 823.504 970.048 821.245L938.249 813.036L937.327 814.511C937.327 814.511 946.204 819.444 954.723 830.567L944.065 915.721L965.087 921.147L1029.63 836.626L1007.92 831.02V831.02ZM1134.17 964.792L1152.69 969.574L1168.98 872.597L1152.77 868.41C1145.28 866.477 1141.03 872.922 1141.03 872.922L1080.92 951.046L1101.95 956.475L1110.97 943.776L1136.62 950.397L1134.17 964.792ZM1123.44 926.233L1146.18 894.239L1140.01 930.509L1123.44 926.233ZM1107.14 880.965L1116.98 861.779C1116.98 861.779 1109.51 855.439 1100.25 853.048C1090.24 850.464 1064.63 849.566 1055.72 875.049C1047.34 899.025 1075.14 906.527 1070.74 919.12C1066.34 931.714 1042.09 922.996 1036.61 912.922L1026.33 932.986C1026.33 932.986 1033.5 940.552 1047.27 944.105C1061.04 947.659 1084.79 944.484 1092.91 921.248C1101.35 897.118 1073.98 887.603 1077.65 877.112C1081.32 866.619 1100.49 873.039 1107.14 880.965V880.965Z" fill="#2566AF"/>
<path d="M966.608 871.088L970.417 832.91C970.417 832.91 971.737 825.433 962.681 822.713L929.771 812.826L928.977 814.068C928.977 814.068 943.81 822.098 955.292 838.938C966.273 855.036 966.608 871.088 966.608 871.088Z" fill="#E6A540"/>
<path d="M284.041 643.555L285.215 639.646L286.56 640.05C287.561 640.35 288.438 640.307 289.191 639.919C289.971 639.517 290.505 638.836 290.793 637.877L295.67 621.645L299.955 622.932L295.125 639.008C294.693 640.447 294.001 641.614 293.05 642.511C292.12 643.413 290.99 643.995 289.662 644.255C288.354 644.521 286.929 644.423 285.386 643.959L284.041 643.555ZM300.195 648.408L307.195 625.107L322.677 629.758L321.55 633.511L310.321 630.138L308.527 636.112L319.129 639.297L318.002 643.05L307.399 639.865L305.576 645.933L316.805 649.306L315.677 653.059L300.195 648.408ZM329.847 657.725C328.366 657.28 327.071 656.596 325.962 655.671C324.874 654.753 324.015 653.677 323.386 652.442C322.784 651.193 322.468 649.859 322.44 648.441L326.434 647.97C326.596 649.474 327.093 650.771 327.925 651.862C328.763 652.932 329.849 653.668 331.184 654.069C331.934 654.294 332.615 654.374 333.226 654.307C333.864 654.226 334.392 654.021 334.809 653.691C335.247 653.368 335.554 652.915 335.729 652.331C335.936 651.643 335.897 651.017 335.611 650.454C335.353 649.876 334.855 649.34 334.117 648.846L330.076 646.064C328.431 644.956 327.319 643.701 326.74 642.299C326.161 640.898 326.1 639.436 326.557 637.914C326.958 636.579 327.635 635.498 328.588 634.671C329.562 633.849 330.718 633.333 332.055 633.12C333.419 632.894 334.862 633.009 336.384 633.466C337.781 633.886 338.988 634.521 340.005 635.372C341.029 636.203 341.826 637.181 342.397 638.307C342.995 639.419 343.327 640.621 343.394 641.914L339.421 642.426C339.313 641.12 338.894 640.017 338.165 639.116C337.441 638.194 336.475 637.551 335.266 637.188C334.557 636.975 333.894 636.912 333.276 637C332.665 637.066 332.138 637.271 331.693 637.615C331.276 637.945 330.98 638.401 330.804 638.985C330.61 639.631 330.647 640.267 330.913 640.893C331.186 641.498 331.709 642.064 332.483 642.592L336.364 645.224C338.038 646.387 339.174 647.637 339.772 648.976C340.391 650.321 340.465 651.776 339.996 653.34C339.595 654.674 338.897 655.749 337.902 656.564C336.907 657.379 335.717 657.897 334.332 658.117C332.947 658.338 331.452 658.207 329.847 657.725ZM352.94 664.662C351.46 664.218 350.165 663.533 349.056 662.609C347.968 661.691 347.109 660.614 346.48 659.38C345.878 658.13 345.562 656.797 345.534 655.379L349.528 654.908C349.69 656.411 350.187 657.709 351.019 658.8C351.857 659.87 352.943 660.605 354.278 661.006C355.028 661.232 355.709 661.311 356.32 661.245C356.958 661.163 357.486 660.958 357.903 660.629C358.341 660.306 358.648 659.852 358.823 659.269C359.03 658.58 358.991 657.955 358.705 657.392C358.447 656.814 357.948 656.278 357.21 655.783L353.17 653.001C351.525 651.893 350.413 650.638 349.834 649.237C349.255 647.835 349.194 646.373 349.651 644.851C350.052 643.517 350.729 642.436 351.682 641.608C352.656 640.787 353.812 640.27 355.149 640.058C356.513 639.831 357.956 639.946 359.478 640.404C360.875 640.823 362.082 641.459 363.099 642.31C364.123 643.14 364.92 644.119 365.491 645.245C366.089 646.357 366.421 647.559 366.488 648.852L362.515 649.363C362.407 648.058 361.988 646.955 361.259 646.054C360.535 645.132 359.569 644.489 358.36 644.126C357.651 643.913 356.988 643.85 356.37 643.937C355.759 644.004 355.232 644.209 354.787 644.553C354.37 644.882 354.074 645.339 353.898 645.923C353.704 646.569 353.74 647.205 354.007 647.831C354.28 648.436 354.803 649.002 355.577 649.53L359.458 652.162C361.132 653.324 362.268 654.575 362.866 655.914C363.485 657.259 363.559 658.714 363.089 660.277C362.689 661.612 361.991 662.687 360.996 663.502C360.001 664.317 358.811 664.834 357.426 665.055C356.041 665.275 354.546 665.145 352.94 664.662ZM367.827 668.725L374.827 645.424L390.309 650.075L389.182 653.828L377.953 650.455L376.159 656.429L386.762 659.614L385.634 663.367L375.031 660.182L373.209 666.25L384.437 669.623L383.31 673.376L367.827 668.725ZM409.04 681.515C407.33 681.001 405.826 680.22 404.527 679.17C403.229 678.121 402.189 676.888 401.41 675.472C400.631 674.056 400.147 672.524 399.96 670.876C399.8 669.214 399.977 667.528 400.491 665.818C401.011 664.088 401.792 662.583 402.835 661.305C403.879 660.028 405.116 659.012 406.546 658.26C407.977 657.508 409.521 657.062 411.176 656.923C412.839 656.763 414.535 656.943 416.266 657.463C417.996 657.983 419.511 658.768 420.81 659.817C422.109 660.866 423.148 662.099 423.927 663.515C424.713 664.911 425.189 666.429 425.355 668.07C425.542 669.718 425.375 671.407 424.856 673.138C424.342 674.847 423.55 676.349 422.48 677.641C421.416 678.913 420.168 679.925 418.737 680.677C417.307 681.429 415.76 681.885 414.098 682.045C412.457 682.212 410.771 682.035 409.04 681.515ZM410.205 677.637C411.352 677.981 412.465 678.099 413.543 677.991C414.627 677.862 415.634 677.54 416.562 677.023C417.511 676.512 418.323 675.813 418.999 674.925C419.696 674.043 420.22 673.018 420.571 671.85C420.921 670.683 421.046 669.549 420.944 668.45C420.869 667.337 420.577 666.305 420.066 665.356C419.583 664.393 418.921 663.569 418.081 662.885C417.241 662.2 416.247 661.686 415.1 661.341C413.975 661.003 412.872 660.888 411.794 660.996C410.716 661.104 409.699 661.424 408.744 661.955C407.816 662.472 407.003 663.171 406.307 664.053C405.616 664.914 405.095 665.928 404.745 667.096C404.394 668.264 404.266 669.408 404.362 670.527C404.457 671.647 404.75 672.679 405.239 673.621C405.75 674.57 406.422 675.398 407.256 676.103C408.096 676.787 409.079 677.298 410.205 677.637ZM427.977 686.794L434.976 663.493L443.64 666.096C445.225 666.572 446.534 667.283 447.568 668.23C448.629 669.163 449.338 670.285 449.694 671.597C450.056 672.888 450.003 674.315 449.533 675.879C449.051 677.485 448.255 678.735 447.145 679.629C446.056 680.529 444.784 681.056 443.328 681.21L445.867 692.169L441.05 690.722L438.399 678.775L440.663 681.228L434.814 679.471L432.23 688.072L427.977 686.794ZM435.942 675.718L440.414 677.061C441.186 677.293 441.897 677.348 442.547 677.225C443.204 677.081 443.771 676.785 444.246 676.337C444.722 675.889 445.066 675.31 445.279 674.601C445.498 673.872 445.53 673.199 445.374 672.584C445.224 671.948 444.911 671.399 444.436 670.938C443.967 670.456 443.347 670.099 442.575 669.868L438.103 668.524L435.942 675.718ZM462.864 697.684C461.154 697.17 459.65 696.389 458.351 695.339C457.052 694.29 456.013 693.057 455.234 691.641C454.454 690.224 453.971 688.693 453.784 687.045C453.624 685.383 453.801 683.697 454.315 681.987C454.835 680.257 455.616 678.752 456.659 677.474C457.702 676.196 458.939 675.181 460.37 674.429C461.801 673.677 463.344 673.231 465 673.092C466.662 672.932 468.359 673.112 470.089 673.632C471.82 674.152 473.335 674.936 474.633 675.986C475.932 677.035 476.971 678.268 477.751 679.684C478.536 681.08 479.012 682.598 479.179 684.239C479.366 685.887 479.199 687.576 478.679 689.307C478.166 691.016 477.374 692.518 476.304 693.81C475.24 695.082 473.992 696.094 472.561 696.846C471.13 697.598 469.584 698.054 467.922 698.214C466.281 698.381 464.595 698.204 462.864 697.684ZM464.029 693.805C465.176 694.15 466.288 694.268 467.367 694.16C468.451 694.031 469.457 693.708 470.385 693.192C471.335 692.681 472.147 691.982 472.823 691.094C473.52 690.212 474.044 689.187 474.394 688.019C474.745 686.852 474.87 685.718 474.768 684.619C474.693 683.506 474.401 682.474 473.89 681.525C473.407 680.562 472.745 679.738 471.905 679.053C471.065 678.369 470.071 677.855 468.924 677.51C467.798 677.172 466.696 677.057 465.618 677.165C464.54 677.273 463.523 677.593 462.568 678.124C461.64 678.641 460.827 679.34 460.13 680.222C459.44 681.083 458.919 682.097 458.568 683.265C458.218 684.433 458.09 685.577 458.185 686.696C458.281 687.816 458.574 688.848 459.063 689.79C459.574 690.739 460.246 691.566 461.08 692.272C461.92 692.956 462.903 693.467 464.029 693.805ZM490.007 705.838C488.527 705.393 487.232 704.709 486.123 703.784C485.035 702.866 484.176 701.79 483.547 700.555C482.945 699.306 482.629 697.972 482.6 696.554L486.595 696.083C486.757 697.587 487.254 698.884 488.086 699.975C488.924 701.045 490.01 701.781 491.344 702.182C492.095 702.407 492.776 702.487 493.387 702.42C494.025 702.339 494.553 702.134 494.97 701.804C495.408 701.481 495.715 701.028 495.89 700.444C496.097 699.756 496.057 699.13 495.772 698.567C495.513 697.989 495.015 697.453 494.277 696.959L490.237 694.177C488.592 693.069 487.48 691.814 486.901 690.412C486.321 689.011 486.26 687.549 486.718 686.027C487.119 684.692 487.796 683.611 488.749 682.784C489.723 681.962 490.879 681.446 492.215 681.233C493.579 681.007 495.022 681.122 496.545 681.579C497.942 681.999 499.149 682.634 500.166 683.485C501.19 684.316 501.987 685.294 502.558 686.42C503.156 687.532 503.488 688.735 503.554 690.027L499.582 690.539C499.474 689.233 499.055 688.13 498.325 687.229C497.602 686.307 496.636 685.664 495.426 685.301C494.718 685.088 494.054 685.025 493.437 685.113C492.826 685.179 492.298 685.384 491.854 685.728C491.437 686.058 491.141 686.514 490.965 687.098C490.771 687.744 490.807 688.38 491.074 689.006C491.347 689.611 491.87 690.177 492.644 690.705L496.525 693.337C498.199 694.5 499.335 695.75 499.933 697.089C500.552 698.434 500.626 699.889 500.156 701.453C499.755 702.787 499.057 703.862 498.062 704.677C497.067 705.492 495.878 706.01 494.493 706.23C493.108 706.451 491.613 706.32 490.007 705.838ZM503.08 709.356L504.086 706.009L520.244 693.2L509.609 690.005L510.737 686.252L526.782 691.072L525.777 694.418L509.65 707.237L521.222 710.714L520.095 714.467L503.08 709.356Z" fill="#18181B"/>
<path opacity="0.5" d="M267.993 700.732L274.993 677.431L283.656 680.034C285.241 680.51 286.55 681.221 287.584 682.168C288.645 683.101 289.354 684.223 289.71 685.535C290.073 686.826 290.019 688.253 289.549 689.817C289.067 691.423 288.271 692.673 287.161 693.567C286.072 694.467 284.8 694.994 283.344 695.148L285.883 706.107L281.067 704.66L278.415 692.713L280.679 695.166L274.83 693.409L272.246 702.01L267.993 700.732ZM275.958 689.656L280.43 690.999C281.202 691.231 281.913 691.286 282.564 691.163C283.221 691.019 283.787 690.723 284.262 690.275C284.738 689.827 285.082 689.248 285.295 688.539C285.515 687.81 285.546 687.137 285.39 686.522C285.24 685.886 284.927 685.337 284.452 684.876C283.983 684.394 283.363 684.037 282.591 683.806L278.119 682.462L275.958 689.656ZM291.514 707.798L298.514 684.497L313.996 689.148L312.869 692.901L301.64 689.528L299.846 695.502L310.449 698.687L309.321 702.44L298.718 699.255L296.895 705.323L308.124 708.696L306.996 712.449L291.514 707.798ZM317.306 715.546L318.051 690.366L322.617 691.738L321.561 713.074L320.373 712.717L331.469 694.397L335.879 695.722L335.01 717.114L333.822 716.757L344.699 698.371L349.265 699.743L336.01 721.165L331.131 719.699L331.777 698.82L333.153 699.233L322.186 717.012L317.306 715.546ZM344.53 723.724L359.568 702.838L365.073 704.491L366.111 730.207L361.482 728.817L361.328 723.315L352.32 720.609L349.128 725.106L344.53 723.724ZM354.667 717.222L361.235 719.195L360.843 706.426L362.031 706.783L354.667 717.222ZM371.548 731.841L378.547 708.539L387.211 711.142C388.796 711.618 390.105 712.33 391.139 713.277C392.2 714.209 392.909 715.332 393.265 716.643C393.627 717.934 393.574 719.362 393.104 720.926C392.621 722.531 391.825 723.781 390.716 724.675C389.627 725.576 388.355 726.103 386.899 726.257L389.438 737.215L384.621 735.768L381.97 723.821L384.234 726.274L378.385 724.517L375.801 733.118L371.548 731.841ZM379.512 720.764L383.985 722.108C384.757 722.339 385.468 722.394 386.118 722.271C386.775 722.128 387.342 721.832 387.817 721.383C388.293 720.935 388.637 720.357 388.85 719.648C389.069 718.918 389.101 718.245 388.945 717.63C388.795 716.994 388.482 716.446 388.007 715.984C387.538 715.503 386.918 715.146 386.146 714.914L381.674 713.57L379.512 720.764ZM395.069 738.907L402.069 715.605L409.669 717.889C412.13 718.628 414.117 719.77 415.63 721.316C417.17 722.847 418.178 724.639 418.653 726.691C419.134 728.722 419.03 730.885 418.341 733.178C417.658 735.451 416.55 737.323 415.017 738.795C413.49 740.246 411.658 741.196 409.523 741.646C407.414 742.081 405.13 741.929 402.669 741.19L395.069 738.907ZM400.45 736.431L403.891 737.465C405.475 737.941 406.938 738.028 408.279 737.726C409.647 737.41 410.83 736.765 411.827 735.791C412.831 734.797 413.573 733.497 414.056 731.891C414.544 730.265 414.641 728.771 414.345 727.409C414.05 726.047 413.415 724.868 412.441 723.87C411.489 722.879 410.22 722.146 408.635 721.67L405.195 720.636L400.45 736.431ZM429.272 749.59C427.791 749.146 426.496 748.461 425.387 747.537C424.299 746.619 423.44 745.543 422.811 744.308C422.209 743.059 421.893 741.725 421.865 740.307L425.859 739.836C426.021 741.34 426.518 742.637 427.35 743.728C428.188 744.798 429.274 745.533 430.609 745.934C431.359 746.16 432.04 746.239 432.651 746.173C433.289 746.092 433.817 745.886 434.234 745.557C434.672 745.234 434.979 744.781 435.154 744.197C435.361 743.509 435.322 742.883 435.036 742.32C434.778 741.742 434.28 741.206 433.541 740.712L429.501 737.929C427.856 736.821 426.744 735.566 426.165 734.165C425.586 732.763 425.525 731.301 425.982 729.779C426.383 728.445 427.06 727.364 428.013 726.536C428.987 725.715 430.143 725.198 431.48 724.986C432.844 724.759 434.287 724.875 435.809 725.332C437.206 725.751 438.413 726.387 439.43 727.238C440.454 728.068 441.251 729.047 441.822 730.173C442.42 731.285 442.752 732.487 442.819 733.78L438.846 734.292C438.738 732.986 438.319 731.883 437.59 730.982C436.866 730.06 435.9 729.417 434.691 729.054C433.982 728.841 433.319 728.778 432.701 728.865C432.09 728.932 431.563 729.137 431.118 729.481C430.701 729.81 430.405 730.267 430.229 730.851C430.035 731.497 430.071 732.133 430.338 732.759C430.611 733.364 431.134 733.93 431.908 734.458L435.789 737.09C437.463 738.252 438.599 739.503 439.197 740.842C439.816 742.187 439.89 743.642 439.421 745.206C439.02 746.54 438.322 747.615 437.327 748.43C436.332 749.245 435.142 749.763 433.757 749.983C432.372 750.204 430.877 750.073 429.272 749.59ZM454.993 757.317C453.325 756.816 451.872 756.05 450.636 755.02C449.421 753.995 448.444 752.781 447.707 751.377C446.99 749.98 446.559 748.464 446.413 746.829C446.268 745.194 446.455 743.511 446.975 741.78C447.495 740.05 448.256 738.539 449.257 737.249C450.286 735.944 451.481 734.916 452.843 734.166C454.232 733.401 455.723 732.94 457.317 732.782C458.916 732.603 460.55 732.764 462.218 733.265C463.886 733.766 465.292 734.496 466.437 735.453C467.602 736.417 468.503 737.506 469.138 738.72C469.78 739.913 470.133 741.122 470.197 742.346L465.846 742.982C465.759 741.683 465.307 740.502 464.49 739.438C463.679 738.353 462.533 737.588 461.053 737.144C459.593 736.705 458.197 736.661 456.865 737.011C455.553 737.367 454.402 738.056 453.414 739.077C452.446 740.105 451.717 741.432 451.229 743.058C450.74 744.685 450.613 746.204 450.849 747.616C451.111 749.013 451.691 750.222 452.589 751.242C453.509 752.268 454.698 753 456.158 753.439C457.638 753.884 459.012 753.887 460.281 753.45C461.555 752.991 462.586 752.244 463.375 751.208L466.655 754.137C465.927 755.123 464.963 755.948 463.764 756.61C462.571 757.252 461.223 757.654 459.719 757.816C458.236 757.985 456.661 757.818 454.993 757.317ZM482.057 765.448C480.389 764.946 478.937 764.181 477.701 763.15C476.485 762.126 475.509 760.912 474.771 759.508C474.054 758.11 473.623 756.594 473.478 754.959C473.333 753.324 473.52 751.641 474.04 749.911C474.56 748.18 475.32 746.669 476.322 745.379C477.35 744.074 478.546 743.046 479.908 742.296C481.297 741.531 482.788 741.07 484.381 740.912C485.981 740.733 487.615 740.894 489.283 741.396C490.951 741.897 492.357 742.626 493.502 743.584C494.667 744.548 495.567 745.636 496.203 746.85C496.845 748.043 497.198 749.252 497.262 750.476L492.911 751.113C492.824 749.813 492.371 748.632 491.554 747.568C490.744 746.483 489.598 745.719 488.118 745.274C486.658 744.835 485.262 744.791 483.929 745.141C482.617 745.497 481.467 746.186 480.478 747.207C479.51 748.235 478.782 749.562 478.293 751.189C477.805 752.815 477.678 754.334 477.913 755.746C478.175 757.143 478.756 758.352 479.654 759.372C480.573 760.398 481.763 761.131 483.222 761.569C484.703 762.014 486.077 762.018 487.345 761.58C488.619 761.122 489.651 760.375 490.44 759.338L493.72 762.267C492.992 763.254 492.028 764.078 490.829 764.741C489.636 765.383 488.287 765.785 486.784 765.947C485.301 766.115 483.725 765.949 482.057 765.448ZM496.38 769.341L511.418 748.454L516.923 750.108L517.961 775.824L513.332 774.433L513.178 768.931L504.17 766.225L500.978 770.722L496.38 769.341ZM506.517 762.838L513.085 764.811L512.693 752.043L513.881 752.4L506.517 762.838ZM523.398 777.457L530.397 754.156L539.092 756.768C540.677 757.244 541.986 757.956 543.02 758.903C544.081 759.835 544.79 760.957 545.146 762.269C545.509 763.56 545.455 764.988 544.985 766.551C544.522 768.094 543.769 769.312 542.728 770.204C541.715 771.082 540.515 771.631 539.131 771.851C537.746 772.072 536.261 771.944 534.676 771.468L530.235 770.134L527.651 778.735L523.398 777.457ZM531.363 766.381L535.866 767.734C536.638 767.965 537.349 768.02 538 767.897C538.657 767.753 539.223 767.457 539.699 767.009C540.174 766.561 540.518 765.983 540.731 765.274C540.951 764.544 540.982 763.871 540.826 763.256C540.676 762.62 540.364 762.071 539.888 761.61C539.419 761.128 538.799 760.772 538.027 760.54L533.524 759.187L531.363 766.381ZM546.522 784.404L553.522 761.103L557.776 762.38L550.776 785.682L546.522 784.404Z" fill="#18181B"/>
<g clip-path="url(#clip0_25_811)">
<path d="M927.525 345.249C925.044 344.503 922.381 345.458 919.537 348.113C916.692 350.767 914.605 354.307 913.276 358.733L905.179 385.689L912.32 387.834L911.776 389.645L880.395 380.218L880.938 378.407L886.47 380.069L899.765 335.813L894.233 334.151L894.777 332.341L919.017 339.623L916.116 349.278C918.015 346.12 920.477 344.009 923.502 342.944C926.547 341.811 929.645 341.719 932.797 342.665C935.948 343.612 938.224 345.283 939.625 347.677C941.113 350.025 941.364 352.842 940.377 356.127C939.41 359.346 937.927 361.605 935.928 362.906C933.929 364.206 931.387 364.393 928.303 363.466C925.285 362.56 923.341 360.879 922.47 358.425C921.666 355.99 922.335 353.157 924.475 349.925L928.096 351.013C930.8 348.097 930.609 346.175 927.525 345.249ZM956.64 404.218C947.99 401.62 942.15 397.453 939.121 391.718C936.179 385.937 935.897 379.089 938.274 371.177C940.671 363.197 944.917 357.82 951.014 355.046C957.178 352.292 964.015 352.043 971.525 354.299C986.747 358.872 991.759 368.711 986.563 383.819L958.199 375.298L957.021 379.221C955.047 385.792 954.395 391.006 955.064 394.862C955.733 398.719 958.146 401.271 962.304 402.52C970.082 404.857 976.427 402.23 981.339 394.64L983.059 395.486C980.334 399.931 976.893 402.992 972.734 404.666C968.643 406.361 963.278 406.212 956.64 404.218ZM958.904 373.317L969.264 376.429L970.745 371.5C972.376 366.069 973.149 362.28 973.062 360.134C973.063 357.941 972.092 356.553 970.147 355.969C968.269 355.405 966.539 356.054 964.955 357.918C963.459 359.735 961.936 363.225 960.385 368.388L958.904 373.317ZM1028.33 374.433L1028.87 372.623L1054.82 380.418L1054.28 382.229L1050.16 380.99L1049.03 417.605L1068.16 386.398L1061.22 384.313L1061.76 382.503L1075.34 386.582L1074.8 388.392L1070.57 387.123L1044.67 429.564L1030.89 425.425L1031.41 391.917L1012.68 419.956L999.203 415.907L998.155 365.369L993.629 364.009L994.172 362.199L1024.65 371.354L1024.1 373.164L1018.07 371.351L1017.05 408.329L1031.36 386.968L1032.05 375.551L1028.33 374.433ZM1091.68 417.917L1094.6 418.793L1096.92 411.048C1098.84 404.678 1099.75 400.31 1099.65 397.942C1099.65 395.528 1098.64 394.019 1096.63 393.415C1095.42 393.052 1094.21 393.055 1093.01 393.423C1091.89 393.745 1091.15 394.475 1090.81 395.615C1090.49 396.688 1090.36 397.855 1090.42 399.116L1092.93 399.871C1093.05 401.441 1092.8 403.231 1092.2 405.243C1091.61 407.187 1090.26 408.645 1088.14 409.617C1086.04 410.522 1083.72 410.591 1081.17 409.826C1075.4 408.093 1073.36 404.444 1075.03 398.879C1077.51 390.631 1085.75 388.612 1099.77 392.822C1107.75 395.219 1112.83 398.245 1115.02 401.901C1117.3 405.51 1117.35 410.935 1115.18 418.177L1109.04 438.595C1108 442.082 1108.45 444.117 1110.39 444.702C1112.67 445.386 1115.05 442.336 1117.53 435.55L1119 436.104C1116.96 441.924 1114.64 445.649 1112.03 447.277C1109.42 448.906 1105.9 449.056 1101.48 447.726C1093.43 445.309 1089.55 441.438 1089.83 436.114C1088.2 438.4 1086.32 439.885 1084.22 440.568C1082.11 441.251 1079.38 441.089 1076.03 440.082C1066.11 437.101 1062.36 431.553 1064.8 423.44C1066.23 418.679 1069.08 415.991 1073.36 415.375C1077.73 414.713 1083.83 415.56 1091.68 417.917ZM1083.94 429.08C1082.89 432.567 1082.39 434.863 1082.42 435.97C1082.52 437.097 1083.07 437.811 1084.08 438.113C1085.15 438.435 1086.37 437.889 1087.75 436.475C1089.21 435.013 1090.4 432.774 1091.3 429.757L1094.11 420.403L1093.41 420.191C1089.25 418.942 1086.26 421.369 1084.42 427.471L1083.94 429.08ZM1163.56 416.152C1161.08 415.407 1158.41 416.361 1155.57 419.016C1152.73 421.67 1150.64 425.21 1149.31 429.636L1141.21 456.592L1148.35 458.737L1147.81 460.548L1116.43 451.121L1116.97 449.31L1122.5 450.972L1135.8 406.716L1130.27 405.054L1130.81 403.244L1155.05 410.526L1152.15 420.181C1154.05 417.023 1156.51 414.912 1159.53 413.847C1162.58 412.714 1165.68 412.622 1168.83 413.568C1171.98 414.515 1174.26 416.186 1175.66 418.58C1177.15 420.928 1177.4 423.745 1176.41 427.03C1175.44 430.249 1173.96 432.508 1171.96 433.809C1169.96 435.109 1167.42 435.296 1164.34 434.369C1161.32 433.463 1159.37 431.782 1158.5 429.328C1157.7 426.893 1158.37 424.06 1160.51 420.828L1164.13 421.916C1166.83 419 1166.64 417.078 1163.56 416.152ZM1207.41 449.378C1207.52 449.018 1207.74 448.298 1208.06 447.218C1208.4 446.104 1208.74 444.834 1209.1 443.406C1209.47 441.946 1209.81 440.389 1210.13 438.736C1210.45 437.082 1210.63 435.514 1210.69 434.031C1210.21 432.779 1209.59 431.613 1208.84 430.532C1208.14 429.429 1207.04 428.651 1205.53 428.198C1202.98 427.431 1200.59 428.535 1198.38 431.511C1196.2 434.497 1194.05 439.493 1191.95 446.5C1191.02 449.578 1190.31 452.432 1189.8 455.065C1189.33 457.707 1189.1 460.029 1189.1 462.029C1189.14 464.04 1189.45 465.686 1190.03 466.966C1190.64 468.256 1191.57 469.089 1192.81 469.462C1198.05 471.036 1202.92 464.341 1207.41 449.378ZM1213.32 427.592C1213.68 424.131 1213.72 420.825 1213.46 417.675C1213.2 414.492 1212.59 411.633 1211.64 409.099C1210.72 406.574 1209.44 404.422 1207.8 402.643C1206.19 400.874 1204.24 399.646 1201.95 398.958C1200.64 398.564 1199.39 398.369 1198.21 398.372C1197.07 398.384 1196.03 398.502 1195.11 398.724C1194.2 398.914 1193.41 399.143 1192.76 399.411C1192.15 399.656 1191.7 399.843 1191.41 399.97L1190.65 397.868C1191.74 397.089 1192.98 396.425 1194.36 395.875C1195.77 395.335 1197.24 394.956 1198.77 394.737C1200.3 394.518 1201.85 394.45 1203.44 394.532C1205.05 394.625 1206.59 394.892 1208.07 395.335C1212.91 396.79 1216.85 399.133 1219.88 402.363C1222.91 405.56 1225.08 409.459 1226.38 414.06C1227.67 418.661 1228.12 423.883 1227.72 429.724C1227.32 435.566 1226.12 441.826 1224.11 448.505C1222.49 453.907 1220.51 458.488 1218.17 462.246C1215.86 466.015 1213.27 468.985 1210.4 471.159C1207.55 473.299 1204.45 474.635 1201.11 475.168C1197.82 475.677 1194.35 475.386 1190.72 474.295C1188.2 473.537 1185.76 472.324 1183.41 470.652C1181.1 468.959 1179.18 466.777 1177.66 464.108C1176.18 461.448 1175.26 458.28 1174.9 454.602C1174.55 450.892 1175.09 446.647 1176.53 441.867C1177.77 437.741 1179.44 434.247 1181.55 431.382C1183.69 428.528 1186.08 426.299 1188.7 424.695C1191.33 423.059 1194.11 422.056 1197.05 421.687C1199.99 421.285 1202.9 421.517 1205.78 422.383C1206.89 422.717 1207.86 423.115 1208.69 423.578C1209.52 424.007 1210.23 424.451 1210.8 424.909C1211.38 425.368 1211.86 425.835 1212.26 426.31C1212.66 426.752 1213.01 427.179 1213.32 427.592ZM1221.57 483.803L1226.98 465.799L1228.19 466.161C1228.18 472.519 1229.3 477.314 1231.54 480.547C1233.79 483.781 1237.12 486.062 1241.55 487.391C1248.39 489.446 1252.46 488.294 1253.77 483.935C1254.34 482.058 1253.92 480.398 1252.53 478.955C1250.36 476.695 1247.35 474.548 1243.5 472.514C1239.3 469.937 1235.96 467.18 1233.48 464.242C1230.52 460.72 1229.82 456.344 1231.39 451.114C1232.96 445.884 1235.82 442.21 1239.97 440.092C1244.13 437.907 1248.9 437.621 1254.26 439.232C1257.55 440.219 1260.7 442.007 1263.73 444.597C1264.84 445.516 1265.73 446.077 1266.4 446.278C1267.07 446.479 1267.71 446.416 1268.32 446.088C1268.93 445.759 1269.77 445.059 1270.82 443.986L1271.92 444.318L1267.3 459.707L1266.1 459.345C1265.29 449.601 1261.31 443.651 1254.13 441.495C1250.98 440.549 1248.46 440.414 1246.58 441.09C1244.71 441.7 1243.53 442.843 1243.02 444.519C1242.72 445.525 1242.72 446.4 1243 447.145C1243.31 447.822 1243.56 448.335 1243.75 448.684C1243.93 449.033 1244.28 449.465 1244.78 449.982C1245.31 450.431 1245.74 450.817 1246.08 451.139C1246.44 451.394 1246.99 451.777 1247.71 452.287C1248.5 452.817 1249.09 453.176 1249.47 453.364C1253.69 455.873 1256.67 457.866 1258.42 459.342C1260.19 460.751 1261.8 462.331 1263.25 464.082C1266.17 467.738 1266.77 472.416 1265.06 478.115C1263.37 483.748 1260.41 487.535 1256.17 489.479C1251.95 491.355 1246.92 491.417 1241.09 489.664C1236.93 488.415 1233.2 486.235 1229.89 483.122C1229.25 482.343 1228.69 481.884 1228.22 481.743C1226.75 481.3 1224.93 482.108 1222.78 484.165L1221.57 483.803Z" fill="#0C3636"/>
<path d="M1056 493.149C1054.5 492.696 1053.16 492.029 1052.01 491.148C1050.88 490.253 1049.97 489.209 1049.28 488.015C1048.62 486.808 1048.21 485.502 1048.05 484.099C1047.9 482.696 1048.04 481.258 1048.48 479.787C1048.93 478.316 1049.6 477.038 1050.5 475.952C1051.4 474.866 1052.47 474.015 1053.7 473.398C1054.94 472.763 1056.28 472.393 1057.71 472.288C1059.14 472.164 1060.62 472.331 1062.15 472.79C1063.77 473.277 1065.17 474.005 1066.34 474.973C1067.51 475.922 1068.4 477.082 1068.99 478.454L1065.95 479.975C1065.46 478.986 1064.83 478.17 1064.06 477.527C1063.29 476.865 1062.39 476.378 1061.35 476.066C1060.31 475.754 1059.31 475.638 1058.34 475.717C1057.39 475.801 1056.5 476.059 1055.67 476.488C1054.86 476.924 1054.15 477.512 1053.54 478.253C1052.95 479 1052.5 479.882 1052.19 480.901C1051.88 481.919 1051.77 482.903 1051.86 483.854C1051.96 484.81 1052.23 485.693 1052.67 486.503C1053.12 487.317 1053.72 488.022 1054.47 488.617C1055.23 489.217 1056.13 489.672 1057.17 489.984C1058.21 490.296 1059.23 490.396 1060.23 490.285C1061.23 490.155 1062.21 489.802 1063.17 489.225L1064.86 492.202C1063.62 492.999 1062.24 493.48 1060.73 493.643C1059.22 493.807 1057.65 493.642 1056 493.149ZM1067.92 496.421L1072.46 481.315L1075.83 482.327L1074.58 486.485L1074.55 485.15C1075.31 484.267 1076.25 483.706 1077.37 483.467C1078.51 483.234 1079.8 483.335 1081.25 483.771L1080.24 487.138C1080.1 487.055 1079.97 486.993 1079.83 486.954C1079.71 486.895 1079.58 486.846 1079.45 486.806C1078.11 486.404 1076.92 486.48 1075.89 487.034C1074.87 487.57 1074.12 488.61 1073.66 490.157L1071.46 497.484L1067.92 496.421ZM1087.35 502.474C1085.67 501.97 1084.3 501.198 1083.24 500.158C1082.2 499.105 1081.5 497.89 1081.16 496.511C1080.83 495.137 1080.89 493.706 1081.34 492.216C1081.79 490.707 1082.52 489.477 1083.52 488.525C1084.55 487.559 1085.75 486.922 1087.12 486.614C1088.51 486.31 1089.96 486.385 1091.46 486.839C1092.93 487.281 1094.15 487.995 1095.11 488.982C1096.06 489.968 1096.7 491.146 1097.01 492.513C1097.32 493.881 1097.23 495.356 1096.76 496.941C1096.71 497.092 1096.65 497.258 1096.58 497.441C1096.52 497.63 1096.46 497.806 1096.39 497.97L1083.8 494.189L1084.5 491.841L1095.22 495.062L1093.62 495.381C1093.9 494.519 1093.95 493.701 1093.77 492.928C1093.59 492.154 1093.23 491.48 1092.68 490.905C1092.15 490.335 1091.46 489.922 1090.61 489.667C1089.75 489.407 1088.93 489.366 1088.15 489.545C1087.4 489.729 1086.73 490.105 1086.15 490.67C1085.59 491.223 1085.18 491.951 1084.91 492.857L1084.74 493.422C1084.46 494.328 1084.43 495.192 1084.64 496.014C1084.84 496.836 1085.27 497.549 1085.91 498.153C1086.55 498.757 1087.36 499.206 1088.34 499.501C1089.19 499.756 1089.99 499.853 1090.75 499.793C1091.51 499.733 1092.24 499.499 1092.93 499.092L1094.17 501.84C1093.26 502.428 1092.22 502.783 1091.05 502.905C1089.9 503.014 1088.67 502.87 1087.35 502.474ZM1105.03 507.784C1103.58 507.347 1102.36 506.633 1101.39 505.641C1100.43 504.635 1099.8 503.458 1099.49 502.109C1099.17 500.76 1099.25 499.303 1099.72 497.738C1100.19 496.173 1100.93 494.914 1101.93 493.962C1102.94 493.01 1104.11 492.386 1105.46 492.09C1106.82 491.8 1108.22 491.874 1109.68 492.31C1110.94 492.689 1111.99 493.312 1112.82 494.178C1113.65 495.025 1114.19 496.102 1114.44 497.41C1114.68 498.717 1114.54 500.257 1114.01 502.029C1113.48 503.783 1112.76 505.151 1111.85 506.131C1110.94 507.093 1109.9 507.706 1108.73 507.972C1107.57 508.237 1106.33 508.174 1105.03 507.784ZM1106.36 504.884C1107.21 505.139 1108.02 505.177 1108.8 504.998C1109.59 504.825 1110.29 504.44 1110.9 503.842C1111.53 503.25 1111.99 502.473 1112.28 501.511C1112.57 500.53 1112.62 499.629 1112.41 498.807C1112.23 497.971 1111.86 497.263 1111.29 496.681C1110.75 496.106 1110.05 495.691 1109.2 495.436C1108.35 495.181 1107.53 495.14 1106.74 495.313C1105.97 495.492 1105.26 495.878 1104.63 496.47C1104.03 497.048 1103.58 497.828 1103.28 498.809C1102.99 499.771 1102.94 500.669 1103.12 501.505C1103.32 502.346 1103.69 503.055 1104.24 503.63C1104.81 504.211 1105.51 504.629 1106.36 504.884ZM1110.1 509.09L1111.17 505.525L1112.51 501.551L1113.44 497.449L1116.26 488.057L1119.77 489.111L1113.46 510.101L1110.1 509.09ZM1118.9 511.735L1123.44 496.629L1126.98 497.691L1122.44 512.797L1118.9 511.735ZM1125.97 494.675C1125.31 494.477 1124.82 494.105 1124.52 493.56C1124.23 493.02 1124.17 492.458 1124.34 491.873C1124.53 491.27 1124.88 490.833 1125.42 490.561C1125.97 490.277 1126.58 490.233 1127.24 490.432C1127.9 490.63 1128.38 490.989 1128.68 491.51C1129 492.018 1129.07 492.564 1128.9 493.148C1128.71 493.771 1128.34 494.236 1127.8 494.545C1127.26 494.836 1126.65 494.879 1125.97 494.675ZM1133.49 516.334C1131.83 515.835 1130.68 515.025 1130.03 513.905C1129.38 512.765 1129.31 511.356 1129.82 509.678L1133.89 496.128L1137.42 497.19L1133.38 510.655C1133.16 511.372 1133.17 511.982 1133.41 512.486C1133.67 512.995 1134.13 513.349 1134.79 513.547C1135.58 513.785 1136.31 513.776 1136.96 513.52L1137.19 516.335C1136.67 516.55 1136.09 516.651 1135.43 516.64C1134.78 516.628 1134.13 516.526 1133.49 516.334ZM1129.51 501.66L1130.36 498.831L1140.43 501.856L1139.58 504.685L1129.51 501.66ZM1158.66 523.988C1157.15 523.535 1155.82 522.867 1154.67 521.986C1153.54 521.092 1152.63 520.047 1151.94 518.853C1151.28 517.646 1150.87 516.341 1150.71 514.937C1150.56 513.534 1150.7 512.097 1151.14 510.626C1151.58 509.155 1152.26 507.876 1153.16 506.79C1154.06 505.704 1155.13 504.853 1156.36 504.237C1157.6 503.601 1158.94 503.231 1160.37 503.126C1161.8 503.002 1163.28 503.17 1164.81 503.628C1166.43 504.116 1167.83 504.843 1169 505.811C1170.17 506.76 1171.06 507.921 1171.65 509.292L1168.6 510.813C1168.12 509.825 1167.49 509.009 1166.72 508.365C1165.95 507.703 1165.05 507.216 1164.01 506.904C1162.97 506.593 1161.97 506.476 1161 506.555C1160.05 506.64 1159.16 506.897 1158.33 507.327C1157.52 507.762 1156.81 508.35 1156.2 509.091C1155.6 509.838 1155.15 510.721 1154.85 511.739C1154.54 512.757 1154.43 513.742 1154.52 514.692C1154.62 515.649 1154.89 516.532 1155.32 517.341C1155.78 518.156 1156.38 518.86 1157.13 519.455C1157.89 520.055 1158.79 520.511 1159.83 520.822C1160.87 521.134 1161.89 521.234 1162.89 521.123C1163.89 520.994 1164.87 520.64 1165.83 520.063L1167.52 523.04C1166.28 523.838 1164.9 524.318 1163.39 524.482C1161.88 524.645 1160.3 524.481 1158.66 523.988ZM1179.75 530.014L1180.67 526.959L1180.67 526.249L1182.27 520.902C1182.58 519.865 1182.51 518.97 1182.06 518.217C1181.62 517.446 1180.76 516.87 1179.5 516.491C1178.65 516.236 1177.77 516.116 1176.86 516.13C1175.97 516.151 1175.17 516.312 1174.46 516.613L1173.85 513.623C1174.85 513.244 1175.95 513.071 1177.15 513.103C1178.38 513.123 1179.6 513.314 1180.8 513.676C1182.99 514.333 1184.52 515.368 1185.39 516.781C1186.29 518.181 1186.41 519.975 1185.75 522.163L1183.09 531.017L1179.75 530.014ZM1174.94 528.785C1173.81 528.445 1172.88 527.959 1172.14 527.327C1171.41 526.676 1170.91 525.94 1170.64 525.119C1170.4 524.286 1170.41 523.435 1170.67 522.567C1170.93 521.719 1171.35 521.014 1171.95 520.454C1172.57 519.9 1173.4 519.564 1174.45 519.445C1175.49 519.327 1176.77 519.497 1178.3 519.956L1182.69 521.273L1181.98 523.621L1177.85 522.38C1176.64 522.018 1175.77 521.972 1175.24 522.244C1174.71 522.496 1174.36 522.905 1174.19 523.471C1174 524.112 1174.1 524.698 1174.5 525.228C1174.89 525.758 1175.54 526.159 1176.45 526.431C1177.32 526.692 1178.15 526.726 1178.95 526.534C1179.76 526.348 1180.44 525.913 1180.97 525.231L1180.93 527.531C1180.32 528.315 1179.5 528.819 1178.47 529.043C1177.46 529.273 1176.28 529.187 1174.94 528.785ZM1188.41 532.616L1192.95 517.51L1196.32 518.521L1195.07 522.68L1195.04 521.344C1195.8 520.462 1196.74 519.901 1197.86 519.662C1199 519.429 1200.29 519.53 1201.74 519.966L1200.73 523.332C1200.59 523.249 1200.46 523.188 1200.33 523.148C1200.2 523.09 1200.07 523.041 1199.94 523.001C1198.6 522.599 1197.41 522.675 1196.38 523.229C1195.36 523.764 1194.62 524.805 1194.15 526.352L1191.95 533.678L1188.41 532.616ZM1207.14 538.456C1205.68 538.02 1204.47 537.305 1203.49 536.313C1202.54 535.307 1201.91 534.13 1201.59 532.781C1201.28 531.433 1201.36 529.976 1201.83 528.41C1202.3 526.845 1203.03 525.586 1204.04 524.634C1205.05 523.682 1206.22 523.058 1207.56 522.763C1208.92 522.473 1210.33 522.546 1211.78 522.982C1213.05 523.362 1214.09 523.984 1214.92 524.85C1215.76 525.698 1216.3 526.775 1216.54 528.082C1216.79 529.389 1216.64 530.929 1216.11 532.702C1215.58 534.456 1214.87 535.823 1213.95 536.803C1213.05 537.765 1212.01 538.379 1210.84 538.644C1209.67 538.91 1208.44 538.847 1207.14 538.456ZM1208.47 535.557C1209.32 535.811 1210.13 535.849 1210.9 535.671C1211.69 535.497 1212.4 535.112 1213.01 534.514C1213.64 533.922 1214.1 533.145 1214.39 532.183C1214.68 531.203 1214.73 530.301 1214.52 529.479C1214.34 528.643 1213.97 527.935 1213.4 527.354C1212.85 526.778 1212.16 526.363 1211.31 526.108C1210.46 525.853 1209.64 525.812 1208.85 525.986C1208.07 526.165 1207.37 526.55 1206.74 527.142C1206.14 527.721 1205.69 528.501 1205.39 529.481C1205.1 530.443 1205.05 531.342 1205.23 532.177C1205.43 533.019 1205.8 533.727 1206.35 534.302C1206.91 534.884 1207.62 535.302 1208.47 535.557ZM1212.2 539.762L1213.27 536.198L1214.62 532.223L1215.54 528.121L1218.37 518.729L1221.87 519.783L1215.57 540.773L1212.2 539.762ZM1227.15 544.253L1242.01 527.128L1245.63 528.215L1248.62 550.703L1244.78 549.547L1242.47 529.394L1243.94 529.836L1230.94 545.392L1227.15 544.253ZM1232.63 540.902L1234.49 538.314L1245.18 541.526L1245.3 544.709L1232.63 540.902ZM1251.93 551.695L1257.87 531.893L1266.02 534.34C1267.78 534.867 1269.19 535.6 1270.26 536.54C1271.36 537.485 1272.09 538.588 1272.45 539.848C1272.81 541.108 1272.77 542.464 1272.34 543.917C1271.9 545.369 1271.18 546.521 1270.19 547.373C1269.19 548.225 1267.98 548.744 1266.54 548.931C1265.13 549.122 1263.54 548.955 1261.79 548.428L1255.68 546.593L1257.84 545.36L1255.6 552.8L1251.93 551.695ZM1257.72 545.756L1256.61 543.481L1262.56 545.265C1264.18 545.753 1265.5 545.778 1266.51 545.343C1267.55 544.895 1268.26 544.048 1268.63 542.803C1269.01 541.54 1268.89 540.444 1268.26 539.516C1267.65 538.593 1266.54 537.888 1264.92 537.401L1258.98 535.617L1261.16 534.299L1257.72 545.756ZM1272.96 558.014L1278.91 538.212L1282.59 539.317L1276.64 559.119L1272.96 558.014Z" fill="#7F56D9"/>
</g>
<defs>
<filter id="filter0_f_25_811" x="57.9317" y="0.93425" width="1450.2" height="1175.15" filterUnits="userSpaceOnUse" color-interpolation-filters="sRGB">
<feFlood flood-opacity="0" result="BackgroundImageFix"/>
<feBlend mode="normal" in="SourceGraphic" in2="BackgroundImageFix" result="shape"/>
<feGaussianBlur stdDeviation="103.911" result="effect1_foregroundBlur_25_811"/>
</filter>
<filter id="filter1_d_25_811" x="0.901093" y="57.9126" width="1567.09" height="1302.53" filterUnits="userSpaceOnUse" color-interpolation-filters="sRGB">
<feFlood flood-opacity="0" result="BackgroundImageFix"/>
<feColorMatrix in="SourceAlpha" type="matrix" values="0 0 0 0 0 0 0 0 0 0 0 0 0 0 0 0 0 0 127 0" result="hardAlpha"/>
<feOffset dy="126.012"/>
<feGaussianBlur stdDeviation="91.0083"/>
<feComposite in2="hardAlpha" operator="out"/>
<feColorMatrix type="matrix" values="0 0 0 0 0.1375 0 0 0 0 0.155242 0 0 0 0 0.4125 0 0 0 0.08 0"/>
<feBlend mode="normal" in2="BackgroundImageFix" result="effect1_dropShadow_25_811"/>
<feBlend mode="normal" in="SourceGraphic" in2="effect1_dropShadow_25_811" result="shape"/>
</filter>
<filter id="filter2_f_25_811" x="-786.601" y="-984.621" width="2339.62" height="2339.62" filterUnits="userSpaceOnUse" color-interpolation-filters="sRGB">
<feFlood flood-opacity="0" result="BackgroundImageFix"/>
<feBlend mode="normal" in="SourceGraphic" in2="BackgroundImageFix" result="shape"/>
<feGaussianBlur stdDeviation="451.27" result="effect1_foregroundBlur_25_811"/>
</filter>
<filter id="filter3_f_25_811" x="9.03973" y="-165.918" width="2339.62" height="2339.62" filterUnits="userSpaceOnUse" color-interpolation-filters="sRGB">
<feFlood flood-opacity="0" result="BackgroundImageFix"/>
<feBlend mode="normal" in="SourceGraphic" in2="BackgroundImageFix" result="shape"/>
<feGaussianBlur stdDeviation="451.27" result="effect1_foregroundBlur_25_811"/>
</filter>
<linearGradient id="paint0_linear_25_811" x1="408.852" y1="466.263" x2="1333.36" y2="466.263" gradientUnits="userSpaceOnUse">
<stop stop-color="#44BCFF"/>
<stop offset="0.234375" stop-color="#44B0FF"/>
<stop offset="0.489583" stop-color="#FF44EC"/>
<stop offset="0.739583" stop-color="#FF44EC"/>
<stop offset="1" stop-color="#FF675E"/>
</linearGradient>
<linearGradient id="paint1_linear_25_811" x1="1099.43" y1="782.873" x2="330.491" y2="52.5291" gradientUnits="userSpaceOnUse">
<stop offset="0.507336" stop-color="white"/>
<stop offset="1" stop-color="white" stop-opacity="0"/>
</linearGradient>
<linearGradient id="paint2_linear_25_811" x1="445.22" y1="386.392" x2="390.255" y2="569.361" gradientUnits="userSpaceOnUse">
<stop stop-color="#F3EC58"/>
<stop offset="0.4" stop-color="#F6CA45"/>
<stop offset="0.77" stop-color="#F9B036"/>
<stop offset="1" stop-color="#FAA631"/>
</linearGradient>
<clipPath id="clip0_25_811">
<rect width="434.855" height="176.404" fill="white" transform="translate(911.492 273.047) rotate(16.72)"/>
</clipPath>
</defs>
</svg>
