<svg width="953" height="938" viewBox="0 0 953 938" fill="none" xmlns="http://www.w3.org/2000/svg">
<g filter="url(#filter0_f_99_415)">
<path d="M480.703 328.923C622.376 278.323 676.866 136.011 734.531 260.327C792.196 384.643 513.52 717.116 371.847 767.716C230.174 818.316 279.152 567.881 221.487 443.565C163.822 319.249 339.029 379.523 480.703 328.923Z" fill="url(#paint0_linear_99_415)"/>
</g>
<path d="M793.206 459.477L418.423 517.392C409.071 518.837 402.662 527.59 404.107 536.943L438.818 761.611C440.263 770.963 449.015 777.374 458.367 775.929L833.15 718.013C842.502 716.568 848.912 707.815 847.467 698.462L812.756 473.795C811.311 464.442 802.558 458.031 793.206 459.477Z" fill="black"/>
<mask id="mask0_99_415" style="mask-type:alpha" maskUnits="userSpaceOnUse" x="403" y="459" width="445" height="318">
<path d="M793.206 459.477L418.423 517.392C409.071 518.837 402.662 527.59 404.107 536.943L438.818 761.611C440.263 770.963 449.015 777.374 458.367 775.929L833.15 718.013C842.502 716.568 848.912 707.815 847.467 698.462L812.756 473.795C811.311 464.442 802.558 458.031 793.206 459.477Z" fill="white"/>
</mask>
<g mask="url(#mask0_99_415)">
<g opacity="0.18">
<path d="M396.223 513.442L760.417 731.12" stroke="white" stroke-width="2.76341"/>
<path d="M390.928 516.572L755.122 734.25" stroke="white" stroke-width="2.76341"/>
<path d="M385.634 519.702L749.828 737.379" stroke="white" stroke-width="2.76341"/>
<path d="M380.336 522.832L744.532 740.509" stroke="white" stroke-width="2.76341"/>
<path d="M375.042 525.962L739.238 743.642" stroke="white" stroke-width="2.76341"/>
<path d="M369.746 529.093L733.943 746.771" stroke="white" stroke-width="2.76341"/>
<path d="M364.452 532.223L728.648 749.901" stroke="white" stroke-width="2.76341"/>
<path d="M359.156 535.353L723.352 753.03" stroke="white" stroke-width="2.76341"/>
<path d="M353.86 538.483L718.058 756.16" stroke="white" stroke-width="2.76341"/>
<path d="M348.565 541.614L712.763 759.293" stroke="white" stroke-width="2.76341"/>
<path d="M343.268 544.744L707.463 762.423" stroke="white" stroke-width="2.76341"/>
<path d="M337.974 547.874L702.168 765.552" stroke="white" stroke-width="2.76341"/>
<path d="M332.678 551.004L696.873 768.681" stroke="white" stroke-width="2.76341"/>
<path d="M327.383 554.135L691.578 771.811" stroke="white" stroke-width="2.76341"/>
<path d="M322.088 557.264L686.283 774.94" stroke="white" stroke-width="2.76341"/>
<path d="M316.791 560.395L680.988 778.074" stroke="white" stroke-width="2.76341"/>
<path d="M311.497 563.525L675.693 781.203" stroke="white" stroke-width="2.76341"/>
<path d="M306.2 566.655L670.397 784.333" stroke="white" stroke-width="2.76341"/>
<path d="M300.904 569.785L665.098 787.462" stroke="white" stroke-width="2.76341"/>
<path d="M295.609 572.915L659.803 790.591" stroke="white" stroke-width="2.76341"/>
<path d="M290.314 576.046L654.508 793.725" stroke="white" stroke-width="2.76341"/>
<path d="M285.019 579.177L649.213 796.854" stroke="white" stroke-width="2.76341"/>
<path d="M279.722 582.306L643.918 799.984" stroke="white" stroke-width="2.76341"/>
<path d="M274.427 585.436L638.623 803.113" stroke="white" stroke-width="2.76341"/>
<path d="M269.133 588.565L633.328 806.242" stroke="white" stroke-width="2.76341"/>
<path d="M263.836 591.695L628.033 809.376" stroke="white" stroke-width="2.76341"/>
<path d="M258.54 594.828L622.734 812.506" stroke="white" stroke-width="2.76341"/>
<path d="M253.245 597.958L617.443 815.635" stroke="white" stroke-width="2.76341"/>
<path d="M247.95 601.087L612.148 818.764" stroke="white" stroke-width="2.76341"/>
<path d="M242.655 604.216L606.853 821.894" stroke="white" stroke-width="2.76341"/>
<path d="M237.358 607.346L601.553 825.027" stroke="white" stroke-width="2.76341"/>
<path d="M402.822 511.266L767.019 728.942" stroke="white" stroke-width="2.76341"/>
<path d="M409.421 509.091L773.616 726.767" stroke="white" stroke-width="2.76341"/>
<path d="M416.021 506.915L780.217 724.593" stroke="white" stroke-width="2.76341"/>
<path d="M422.618 504.739L786.814 722.418" stroke="white" stroke-width="2.76341"/>
<path d="M429.218 502.564L793.412 720.24" stroke="white" stroke-width="2.76341"/>
<path d="M435.817 500.388L800.013 718.065" stroke="white" stroke-width="2.76341"/>
<path d="M442.415 498.213L806.61 715.891" stroke="white" stroke-width="2.76341"/>
<path d="M449.014 496.037L813.211 713.716" stroke="white" stroke-width="2.76341"/>
<path d="M455.613 493.861L819.809 711.538" stroke="white" stroke-width="2.76341"/>
<path d="M462.211 491.685L826.405 709.363" stroke="white" stroke-width="2.76341"/>
<path d="M468.809 489.51L833.007 707.189" stroke="white" stroke-width="2.76341"/>
<path d="M475.41 487.334L839.608 705.01" stroke="white" stroke-width="2.76341"/>
<path d="M482.009 485.158L846.205 702.836" stroke="white" stroke-width="2.76341"/>
<path d="M488.607 482.983L852.802 700.662" stroke="white" stroke-width="2.76341"/>
<path d="M495.205 480.807L859.399 698.483" stroke="white" stroke-width="2.76341"/>
<path d="M501.805 478.632L866.001 696.308" stroke="white" stroke-width="2.76341"/>
<path d="M508.402 476.456L872.597 694.134" stroke="white" stroke-width="2.76341"/>
<path d="M515.002 474.281L879.199 691.959" stroke="white" stroke-width="2.76341"/>
<path d="M521.601 472.104L885.797 689.781" stroke="white" stroke-width="2.76341"/>
<path d="M528.2 469.929L892.397 687.606" stroke="white" stroke-width="2.76341"/>
<path d="M534.799 467.753L898.995 685.432" stroke="white" stroke-width="2.76341"/>
<path d="M541.397 465.578L905.591 683.258" stroke="white" stroke-width="2.76341"/>
<path d="M547.996 463.402L912.194 681.079" stroke="white" stroke-width="2.76341"/>
</g>
<path d="M793.206 459.477L418.423 517.392C409.071 518.837 402.662 527.59 404.107 536.943L438.818 761.611C440.263 770.963 449.015 777.374 458.367 775.929L833.15 718.013C842.502 716.568 848.912 707.815 847.467 698.462L812.756 473.795C811.311 464.442 802.558 458.031 793.206 459.477Z" fill="url(#paint1_linear_99_415)"/>
<g filter="url(#filter1_f_99_415)">
<path d="M436.227 647.573C492.338 638.902 530.796 586.382 522.126 530.265C513.456 474.148 460.941 435.686 404.83 444.356C348.719 453.027 310.26 505.548 318.93 561.665C327.6 617.782 380.115 656.244 436.227 647.573Z" fill="#B4C9FF"/>
</g>
<g filter="url(#filter2_f_99_415)">
<path d="M848.143 800.079C904.255 791.408 942.713 738.887 934.043 682.77C925.373 626.653 872.858 588.191 816.747 596.862C760.635 605.533 722.177 658.053 730.847 714.17C739.517 770.287 792.032 808.749 848.143 800.079Z" fill="white"/>
</g>
</g>
<path d="M513.017 643.373L508.261 612.592C507.648 608.627 503.153 606.019 498.238 606.779L453.976 613.621C449.06 614.382 445.561 618.222 446.173 622.187L450.929 652.968C451.541 656.932 456.039 659.537 460.953 658.78L505.215 651.939C510.13 651.178 513.629 647.337 513.017 643.373ZM460.864 658.202C456.343 658.9 452.207 656.502 451.643 652.856L446.888 622.075C446.324 618.429 449.544 614.894 454.065 614.196L498.327 607.358C502.846 606.659 506.982 609.057 507.546 612.703L512.302 643.485C512.865 647.131 509.645 650.665 505.126 651.364L460.864 658.202Z" fill="black"/>
<path d="M505.13 651.364L460.868 658.202C458.695 658.537 456.503 658.165 454.774 657.16C453.045 656.16 451.921 654.613 451.648 652.861L446.892 622.075C446.329 618.429 449.548 614.894 454.07 614.196L498.331 607.358C502.85 606.66 506.986 609.057 507.55 612.703L512.306 643.485C512.868 647.131 509.649 650.666 505.13 651.364Z" fill="url(#paint2_linear_99_415)"/>
<path d="M450.239 647.718L450.15 647.144L470.533 643.993C471.883 643.783 473.111 643.15 473.947 642.232C474.783 641.315 475.159 640.186 474.992 639.099L473.3 628.148C473.131 627.057 472.432 626.098 471.358 625.473C470.284 624.853 468.922 624.618 467.571 624.824L447.189 627.974L447.1 627.4L467.482 624.25C469.022 624.01 470.575 624.279 471.8 624.99C473.025 625.697 473.822 626.796 474.015 628.036L475.707 638.987C475.897 640.227 475.469 641.513 474.515 642.563C473.562 643.609 472.162 644.332 470.621 644.572L450.239 647.718Z" fill="black"/>
<path d="M487.542 637.16L485.85 626.209C485.66 624.965 486.088 623.679 487.042 622.633C487.995 621.587 489.396 620.864 490.936 620.624L509.038 617.825L509.127 618.404L491.025 621.203C489.675 621.409 488.447 622.046 487.61 622.964C486.774 623.881 486.398 625.006 486.565 626.097L488.256 637.048C488.427 638.135 489.125 639.098 490.2 639.723C491.274 640.343 492.635 640.578 493.987 640.368L512.089 637.573L512.178 638.148L494.076 640.946C492.535 641.182 490.982 640.917 489.757 640.206C488.532 639.495 487.735 638.4 487.542 637.16Z" fill="black"/>
<path d="M486.331 626.953L486.242 626.375L473.693 628.313L473.783 628.892L486.331 626.953Z" fill="black"/>
<path d="M487.865 636.879L487.776 636.304L475.228 638.243L475.316 638.818L487.865 636.879Z" fill="black"/>
<path d="M468.227 657.362L466.308 644.94L465.594 645.052L467.512 657.47L468.227 657.362Z" fill="black"/>
<path d="M463.257 625.196L461.338 612.778L460.623 612.889L462.542 625.308L463.257 625.196Z" fill="black"/>
<path d="M499.897 652.468L497.978 640.049L497.264 640.157L499.182 652.575L499.897 652.468Z" fill="black"/>
<path d="M494.926 620.302L493.008 607.883L492.293 607.995L494.212 620.413L494.926 620.302Z" fill="black"/>
<path d="M510.334 628.379L510.245 627.805L487.016 631.393L487.104 631.972L510.334 628.379Z" fill="black"/>
<path d="M474.33 633.944L474.241 633.369L448.628 637.325L448.717 637.904L474.33 633.944Z" fill="black"/>
<path d="M764.329 700.021L756.223 700.996L754.226 664.895L762.336 663.919L764.329 700.021ZM742.334 666.321L739.461 691.662L737.502 686.515L731.599 670.881C731.599 670.881 730.632 667.726 727.115 668.148L714.334 669.682L714.305 670.298C714.305 670.298 718.397 670.757 723.593 673.336L736.775 703.328L745.224 702.315L751.064 665.275L742.334 666.321ZM813.183 694.163L820.628 693.27L807.074 658.553L800.555 659.335C797.546 659.694 797.339 662.431 797.339 662.431L791.78 696.73L800.233 695.717L800.873 690.24L811.182 689.004L813.183 694.163ZM801.762 682.679L803.378 668.884L808.417 681.877L801.762 682.679ZM787.051 669.694L786.691 661.935C786.691 661.935 782.81 660.815 779.09 661.261C775.064 661.745 765.908 664.895 767.846 674.643C769.669 683.812 780.908 682.58 781.867 687.396C782.826 692.212 772.596 692.555 768.669 689.917L769.049 698.032C769.049 698.032 773.071 699.603 778.602 698.938C784.137 698.272 791.833 694.006 790.064 685.122C788.229 675.891 776.742 676.391 775.944 672.377C775.146 668.363 783.145 667.933 787.051 669.694Z" fill="white"/>
<path d="M736.746 687.516L731.744 673.625C731.744 673.625 730.963 670.81 727.367 671.364L714.301 673.386L714.23 673.948C714.23 673.948 720.712 674.279 727.491 678.222C733.968 681.997 736.746 687.516 736.746 687.516Z" fill="#F4B459"/>
<path d="M462.012 721.488L461.771 719.934L462.306 719.851C462.703 719.789 463 719.628 463.198 719.372C463.402 719.103 463.475 718.777 463.416 718.396L462.42 711.951L464.121 711.687L465.107 718.07C465.196 718.644 465.149 719.161 464.967 719.632C464.794 720.099 464.498 720.488 464.079 720.798C463.669 721.108 463.158 721.311 462.545 721.406L462.012 721.488ZM468.425 720.496L466.995 711.244L473.142 710.294L473.373 711.782L468.915 712.472L469.281 714.845L473.49 714.196L473.721 715.684L469.512 716.333L469.884 718.743L474.342 718.057L474.572 719.546L468.425 720.496ZM480.265 718.818C479.677 718.909 479.114 718.888 478.576 718.748C478.046 718.611 477.569 718.38 477.147 718.053C476.73 717.718 476.4 717.309 476.155 716.821L477.464 715.994C477.77 716.49 478.157 716.858 478.626 717.102C479.095 717.334 479.594 717.408 480.124 717.326C480.422 717.28 480.671 717.197 480.873 717.073C481.08 716.937 481.23 716.78 481.32 716.594C481.419 716.412 481.45 716.201 481.414 715.97C481.372 715.697 481.255 715.486 481.062 715.337C480.877 715.18 480.615 715.077 480.277 715.027L478.413 714.729C477.658 714.618 477.064 714.366 476.631 713.977C476.198 713.584 475.934 713.088 475.841 712.485C475.759 711.951 475.815 711.468 476.009 711.021C476.211 710.575 476.527 710.203 476.956 709.909C477.392 709.603 477.912 709.405 478.516 709.31C479.071 709.223 479.595 709.244 480.09 709.372C480.583 709.492 481.022 709.698 481.407 709.996C481.798 710.281 482.113 710.645 482.35 711.083L481.055 711.918C480.801 711.484 480.473 711.17 480.071 710.976C479.667 710.777 479.225 710.715 478.745 710.79C478.463 710.831 478.223 710.922 478.022 711.054C477.822 711.178 477.672 711.335 477.575 711.53C477.485 711.712 477.457 711.918 477.493 712.15C477.533 712.41 477.651 712.625 477.847 712.795C478.042 712.96 478.318 713.072 478.674 713.125L480.457 713.398C481.231 713.522 481.833 713.77 482.262 714.134C482.7 714.502 482.967 714.994 483.063 715.614C483.145 716.143 483.08 716.631 482.87 717.082C482.659 717.528 482.332 717.904 481.888 718.21C481.443 718.516 480.902 718.719 480.265 718.818ZM489.434 717.4C488.846 717.491 488.283 717.47 487.745 717.334C487.215 717.193 486.738 716.962 486.315 716.639C485.899 716.304 485.569 715.891 485.324 715.403L486.633 714.581C486.939 715.077 487.326 715.445 487.795 715.684C488.264 715.916 488.763 715.99 489.293 715.912C489.591 715.866 489.84 715.779 490.041 715.655C490.249 715.519 490.399 715.362 490.489 715.18C490.588 714.994 490.619 714.787 490.583 714.556C490.541 714.279 490.424 714.068 490.231 713.923C490.046 713.762 489.784 713.659 489.446 713.609L487.582 713.316C486.827 713.2 486.233 712.952 485.8 712.559C485.366 712.171 485.103 711.67 485.009 711.067C484.928 710.538 484.984 710.05 485.178 709.603C485.38 709.157 485.696 708.785 486.125 708.491C486.561 708.185 487.081 707.987 487.685 707.892C488.24 707.809 488.764 707.83 489.259 707.954C489.751 708.074 490.19 708.28 490.575 708.578C490.967 708.867 491.282 709.227 491.519 709.665L490.224 710.5C489.97 710.066 489.642 709.752 489.24 709.562C488.836 709.359 488.394 709.297 487.914 709.372C487.632 709.413 487.391 709.504 487.192 709.636C486.99 709.76 486.841 709.918 486.744 710.112C486.653 710.294 486.626 710.505 486.662 710.736C486.702 710.992 486.819 711.207 487.016 711.381C487.211 711.546 487.486 711.654 487.843 711.707L489.626 711.98C490.4 712.109 491.002 712.352 491.431 712.72C491.869 713.084 492.136 713.576 492.232 714.196C492.313 714.725 492.249 715.217 492.039 715.664C491.828 716.11 491.501 716.491 491.056 716.796C490.612 717.102 490.071 717.305 489.434 717.4ZM495.276 716.346L493.847 707.094L499.994 706.143L500.224 707.636L495.766 708.322L496.132 710.695L500.342 710.046L500.572 711.534L496.363 712.187L496.735 714.593L501.193 713.907L501.423 715.395L495.276 716.346ZM511.707 713.961C511.028 714.064 510.376 714.043 509.751 713.894C509.126 713.746 508.561 713.489 508.056 713.125C507.55 712.762 507.129 712.311 506.791 711.77C506.46 711.22 506.242 710.604 506.138 709.926C506.031 709.24 506.053 708.586 506.204 707.97C506.355 707.354 506.616 706.796 506.988 706.296C507.36 705.8 507.822 705.387 508.374 705.064C508.925 704.734 509.544 704.514 510.231 704.411C510.918 704.304 511.574 704.324 512.199 704.473C512.824 704.622 513.389 704.878 513.894 705.242C514.398 705.598 514.815 706.044 515.145 706.59C515.483 707.127 515.705 707.743 515.811 708.429C515.915 709.107 515.889 709.76 515.732 710.389C515.573 711.005 515.307 711.563 514.935 712.063C514.563 712.559 514.102 712.977 513.551 713.307C513.008 713.634 512.394 713.853 511.707 713.961ZM511.469 712.419C511.924 712.348 512.33 712.208 512.686 711.989C513.041 711.765 513.337 711.488 513.574 711.154C513.819 710.819 513.986 710.443 514.073 710.021C514.169 709.599 514.181 709.157 514.109 708.694C514.038 708.231 513.893 707.813 513.676 707.45C513.466 707.078 513.193 706.767 512.859 706.519C512.531 706.267 512.165 706.089 511.76 705.99C511.354 705.895 510.924 705.879 510.469 705.949C510.022 706.019 509.62 706.16 509.264 706.379C508.907 706.594 508.607 706.875 508.363 707.218C508.127 707.549 507.96 707.925 507.865 708.347C507.767 708.76 507.755 709.202 507.826 709.665C507.898 710.128 508.043 710.546 508.262 710.918C508.48 711.294 508.753 711.6 509.079 711.848C509.413 712.092 509.784 712.27 510.191 712.377C510.596 712.472 511.022 712.489 511.469 712.419ZM519.157 712.654L517.728 703.402L521.167 702.873C521.796 702.774 522.369 702.807 522.885 702.964C523.408 703.113 523.84 703.382 524.181 703.779C524.52 704.167 524.738 704.672 524.834 705.296C524.933 705.932 524.863 706.499 524.626 706.991C524.397 707.487 524.043 707.879 523.562 708.173L526.26 711.559L524.347 711.852L521.448 708.144L522.64 708.619L520.318 708.979L520.846 712.394L519.157 712.654ZM520.088 707.491L521.864 707.214C522.17 707.168 522.426 707.069 522.631 706.92C522.836 706.759 522.983 706.565 523.074 706.329C523.165 706.094 523.189 705.837 523.145 705.556C523.101 705.267 523 705.027 522.844 704.837C522.687 704.643 522.487 704.502 522.246 704.423C522.003 704.333 521.728 704.312 521.422 704.357L519.646 704.634L520.088 707.491ZM533.076 710.658C532.397 710.761 531.745 710.74 531.12 710.591C530.495 710.443 529.93 710.186 529.425 709.822C528.92 709.459 528.498 709.008 528.16 708.466C527.83 707.917 527.611 707.301 527.507 706.623C527.4 705.937 527.422 705.283 527.573 704.667C527.724 704.051 527.985 703.493 528.357 702.993C528.729 702.497 529.192 702.088 529.743 701.761C530.294 701.431 530.913 701.216 531.6 701.108C532.287 701.001 532.943 701.021 533.568 701.174C534.193 701.323 534.758 701.579 535.263 701.939C535.767 702.294 536.184 702.745 536.514 703.287C536.852 703.828 537.074 704.44 537.18 705.126C537.285 705.808 537.259 706.462 537.101 707.086C536.942 707.702 536.677 708.26 536.304 708.76C535.932 709.26 535.471 709.674 534.92 710.004C534.377 710.335 533.763 710.55 533.076 710.658ZM532.838 709.12C533.293 709.049 533.699 708.905 534.055 708.69C534.411 708.462 534.707 708.185 534.943 707.851C535.188 707.516 535.355 707.14 535.442 706.718C535.538 706.296 535.55 705.854 535.479 705.391C535.407 704.928 535.262 704.514 535.045 704.147C534.835 703.774 534.562 703.464 534.228 703.221C533.9 702.964 533.534 702.786 533.129 702.691C532.724 702.592 532.293 702.576 531.838 702.646C531.391 702.716 530.989 702.861 530.633 703.076C530.276 703.291 529.976 703.572 529.733 703.915C529.496 704.246 529.33 704.626 529.234 705.048C529.137 705.461 529.124 705.899 529.195 706.362C529.267 706.825 529.412 707.243 529.631 707.619C529.85 707.991 530.122 708.301 530.448 708.545C530.783 708.793 531.153 708.967 531.56 709.074C531.965 709.173 532.391 709.186 532.838 709.12ZM543.854 708.992C543.264 709.082 542.701 709.062 542.163 708.921C541.633 708.785 541.156 708.553 540.734 708.227C540.317 707.896 539.987 707.483 539.742 706.995L541.051 706.172C541.357 706.664 541.744 707.032 542.214 707.276C542.682 707.507 543.181 707.582 543.709 707.499C544.007 707.454 544.259 707.371 544.458 707.247C544.668 707.111 544.817 706.953 544.908 706.767C545.007 706.586 545.036 706.375 545.003 706.143C544.958 705.87 544.842 705.66 544.648 705.511C544.466 705.354 544.201 705.25 543.862 705.201L542 704.903C541.245 704.791 540.651 704.539 540.218 704.151C539.785 703.758 539.521 703.262 539.428 702.658C539.346 702.129 539.402 701.641 539.596 701.195C539.798 700.748 540.114 700.376 540.543 700.083C540.979 699.777 541.499 699.579 542.103 699.483C542.658 699.401 543.183 699.421 543.676 699.545C544.168 699.665 544.61 699.872 544.995 700.17C545.388 700.455 545.702 700.819 545.937 701.257L544.644 702.092C544.387 701.658 544.061 701.344 543.66 701.154C543.254 700.951 542.812 700.889 542.332 700.963C542.05 701.005 541.81 701.096 541.61 701.228C541.409 701.352 541.259 701.509 541.162 701.703C541.072 701.885 541.044 702.092 541.08 702.328C541.12 702.584 541.238 702.799 541.434 702.968C541.629 703.134 541.905 703.245 542.261 703.299L544.044 703.572C544.817 703.696 545.421 703.944 545.851 704.308C546.289 704.676 546.553 705.168 546.648 705.788C546.731 706.317 546.669 706.809 546.458 707.255C546.247 707.702 545.921 708.078 545.474 708.384C545.032 708.69 544.491 708.892 543.854 708.992ZM548.975 708.049L548.769 706.718L552.257 699.595L548.037 700.248L547.806 698.756L554.175 697.772L554.382 699.099L550.906 706.226L555.498 705.515L555.73 707.003L548.975 708.049Z" fill="white"/>
<path opacity="0.5" d="M465.91 744.002L464.48 734.75L467.92 734.221C468.549 734.122 469.122 734.15 469.637 734.312C470.161 734.456 470.593 734.729 470.934 735.126C471.273 735.515 471.491 736.019 471.587 736.639C471.686 737.28 471.616 737.846 471.379 738.338C471.15 738.83 470.796 739.227 470.315 739.52L473.012 742.906L471.1 743.2L468.201 739.492L469.393 739.967L467.071 740.327L467.598 743.741L465.91 744.002ZM466.841 738.838L468.616 738.561C468.923 738.516 469.179 738.417 469.384 738.264C469.589 738.107 469.736 737.908 469.827 737.677C469.918 737.441 469.942 737.185 469.898 736.904C469.854 736.61 469.753 736.375 469.597 736.184C469.439 735.99 469.24 735.85 468.998 735.771C468.756 735.68 468.481 735.659 468.175 735.705L466.399 735.982L466.841 738.838ZM475.248 742.559L473.819 733.307L479.966 732.356L480.196 733.849L475.738 734.539L476.104 736.908L480.314 736.259L480.544 737.747L476.335 738.4L476.707 740.81L481.165 740.12L481.395 741.608L475.248 742.559ZM485.488 740.976L481.575 732.108L483.388 731.827L486.556 739.413L486.084 739.487L486.902 731.286L488.653 731.017L491.896 738.59L491.424 738.661L492.155 730.475L493.968 730.194L492.914 739.83L490.977 740.128L487.742 732.77L488.288 732.687L487.425 740.678L485.488 740.976ZM496.296 739.305L498.058 729.562L500.244 729.223L504.865 737.983L503.027 738.268L502.062 736.383L498.485 736.933L498.122 739.024L496.296 739.305ZM498.74 735.37L501.347 734.965L499.096 730.595L499.568 730.525L498.74 735.37ZM507.023 737.648L505.593 728.396L509.033 727.867C509.663 727.768 510.235 727.801 510.751 727.958C511.274 728.107 511.706 728.375 512.047 728.772C512.386 729.161 512.604 729.665 512.7 730.289C512.799 730.926 512.73 731.492 512.492 731.984C512.263 732.48 511.909 732.873 511.429 733.167L514.126 736.552L512.214 736.846L509.314 733.138L510.506 733.613L508.184 733.973L508.712 737.387L507.023 737.648ZM507.954 732.484L509.729 732.208C510.036 732.162 510.292 732.063 510.497 731.914C510.702 731.753 510.85 731.558 510.941 731.323C511.032 731.087 511.055 730.831 511.012 730.55C510.967 730.26 510.866 730.021 510.71 729.83C510.553 729.636 510.353 729.496 510.112 729.417C509.869 729.326 509.595 729.305 509.288 729.351L507.513 729.628L507.954 732.484ZM516.362 736.205L514.932 726.953L517.95 726.49C518.927 726.337 519.806 726.403 520.587 726.693C521.376 726.966 522.023 727.425 522.527 728.057C523.031 728.681 523.353 729.45 523.494 730.36C523.633 731.265 523.559 732.096 523.27 732.865C522.98 733.621 522.502 734.254 521.835 734.762C521.174 735.262 520.356 735.589 519.379 735.742L516.362 736.205ZM517.82 734.456L519.186 734.246C519.815 734.146 520.338 733.936 520.753 733.609C521.176 733.27 521.48 732.852 521.665 732.348C521.849 731.835 521.891 731.261 521.793 730.624C521.693 729.979 521.479 729.442 521.15 729.02C520.822 728.594 520.406 728.293 519.903 728.107C519.408 727.921 518.846 727.875 518.217 727.974L516.851 728.185L517.82 734.456ZM530.009 734.25C529.421 734.341 528.858 734.32 528.32 734.179C527.789 734.043 527.313 733.811 526.89 733.485C526.474 733.15 526.143 732.741 525.899 732.253L527.208 731.426C527.513 731.922 527.9 732.29 528.37 732.534C528.838 732.766 529.337 732.84 529.867 732.757C530.165 732.712 530.415 732.629 530.616 732.505C530.824 732.369 530.973 732.212 531.063 732.026C531.162 731.844 531.194 731.633 531.158 731.401C531.116 731.129 530.998 730.918 530.806 730.769C530.62 730.612 530.359 730.508 530.02 730.459L528.156 730.161C527.402 730.05 526.808 729.797 526.374 729.409C525.941 729.016 525.677 728.52 525.584 727.916C525.502 727.387 525.558 726.899 525.752 726.453C525.954 726.007 526.27 725.635 526.699 725.341C527.135 725.035 527.655 724.837 528.26 724.742C528.814 724.655 529.339 724.675 529.833 724.804C530.326 724.923 530.765 725.13 531.15 725.428C531.542 725.713 531.856 726.077 532.094 726.515L530.799 727.35C530.545 726.916 530.217 726.602 529.814 726.408C529.41 726.209 528.968 726.147 528.488 726.222C528.207 726.263 527.966 726.354 527.766 726.486C527.565 726.61 527.416 726.767 527.318 726.961C527.228 727.143 527.201 727.35 527.237 727.582C527.276 727.842 527.394 728.057 527.59 728.227C527.786 728.392 528.061 728.503 528.417 728.557L530.201 728.83C530.975 728.954 531.576 729.202 532.006 729.566C532.444 729.934 532.71 730.426 532.806 731.046C532.888 731.575 532.824 732.063 532.614 732.513C532.403 732.96 532.075 733.336 531.631 733.642C531.187 733.948 530.646 734.15 530.009 734.25ZM540.22 732.671C539.558 732.774 538.927 732.749 538.327 732.596C537.735 732.443 537.195 732.183 536.706 731.815C536.226 731.451 535.825 730.996 535.503 730.451C535.182 729.909 534.968 729.293 534.862 728.607C534.756 727.916 534.77 727.267 534.904 726.651C535.045 726.031 535.29 725.473 535.638 724.99C535.994 724.494 536.435 724.084 536.962 723.766C537.489 723.439 538.083 723.224 538.745 723.121C539.407 723.022 540.016 723.038 540.572 723.183C541.136 723.324 541.63 723.555 542.052 723.869C542.472 724.179 542.795 724.539 543.02 724.952L541.614 725.895C541.369 725.461 541.016 725.122 540.556 724.89C540.095 724.646 539.57 724.572 538.983 724.663C538.403 724.75 537.911 724.969 537.506 725.308C537.11 725.651 536.824 726.081 536.65 726.598C536.484 727.119 536.451 727.697 536.551 728.342C536.651 728.991 536.858 729.537 537.174 729.992C537.496 730.43 537.898 730.756 538.379 730.959C538.868 731.166 539.403 731.224 539.982 731.133C540.57 731.042 541.048 730.814 541.416 730.455C541.783 730.083 542.017 729.653 542.119 729.161L543.742 729.636C543.655 730.099 543.457 730.546 543.149 730.976C542.841 731.393 542.439 731.757 541.944 732.063C541.457 732.369 540.883 732.571 540.22 732.671ZM550.964 731.013C550.302 731.116 549.674 731.087 549.07 730.934C548.479 730.781 547.942 730.521 547.45 730.157C546.971 729.789 546.57 729.334 546.247 728.793C545.929 728.247 545.714 727.631 545.607 726.945C545.503 726.259 545.516 725.606 545.648 724.994C545.788 724.37 546.036 723.816 546.384 723.328C546.739 722.832 547.181 722.427 547.706 722.104C548.235 721.778 548.827 721.563 549.492 721.463C550.153 721.36 550.761 721.381 551.319 721.521C551.881 721.666 552.373 721.893 552.795 722.212C553.216 722.518 553.539 722.877 553.766 723.295L552.361 724.237C552.113 723.799 551.761 723.464 551.303 723.229C550.84 722.985 550.315 722.91 549.728 723.001C549.149 723.092 548.657 723.307 548.252 723.65C547.855 723.989 547.57 724.419 547.396 724.94C547.231 725.457 547.198 726.04 547.297 726.685C547.396 727.329 547.603 727.879 547.921 728.33C548.244 728.772 548.645 729.095 549.124 729.301C549.612 729.504 550.149 729.562 550.728 729.471C551.315 729.38 551.794 729.157 552.162 728.793C552.526 728.421 552.762 727.991 552.865 727.503L554.489 727.974C554.399 728.437 554.2 728.884 553.894 729.314C553.588 729.735 553.183 730.095 552.691 730.401C552.204 730.707 551.629 730.909 550.964 731.013ZM556.585 729.992L558.346 720.244L560.533 719.909L565.154 728.669L563.315 728.95L562.347 727.065L558.772 727.619L558.408 729.711L556.585 729.992ZM559.028 726.052L561.636 725.651L559.384 721.281L559.855 721.207L559.028 726.052ZM567.312 728.334L565.882 719.082L569.333 718.549C569.961 718.45 570.536 718.483 571.053 718.64C571.573 718.789 572.007 719.057 572.346 719.454C572.685 719.843 572.904 720.347 572.999 720.971C573.095 721.583 573.037 722.129 572.822 722.613C572.615 723.084 572.289 723.472 571.846 723.778C571.4 724.084 570.862 724.287 570.234 724.386L568.473 724.659L568.998 728.074L567.312 728.334ZM568.242 723.167L570.032 722.89C570.337 722.844 570.594 722.745 570.796 722.596C571.003 722.435 571.148 722.241 571.239 722.005C571.329 721.769 571.354 721.513 571.313 721.232C571.268 720.942 571.168 720.703 571.011 720.513C570.854 720.318 570.652 720.178 570.412 720.099C570.168 720.008 569.895 719.988 569.589 720.033L567.799 720.31L568.242 723.167ZM576.492 726.916L575.062 717.664L576.753 717.404L578.179 726.656L576.492 726.916Z" fill="white"/>
<mask id="mask1_99_415" style="mask-type:luminance" maskUnits="userSpaceOnUse" x="628" y="462" width="178" height="95">
<path d="M795.134 462.93L628.711 488.636L639.138 556.154L805.561 530.448L795.134 462.93Z" fill="white"/>
</mask>
<g mask="url(#mask1_99_415)">
<path d="M646.349 511.202C645.361 511.355 644.588 512.133 644.038 513.535C643.485 514.937 643.344 516.523 643.617 518.291L645.283 529.064L648.135 528.623L648.246 529.347L635.709 531.284L635.598 530.56L637.805 530.219L635.077 512.532L632.866 512.874L632.754 512.15L642.439 510.654L643.034 514.513C643.175 513.092 643.683 511.944 644.559 511.067C645.436 510.164 646.502 509.615 647.763 509.42C649.023 509.225 650.098 509.43 650.987 510.033C651.896 510.606 652.454 511.549 652.657 512.862C652.855 514.148 652.715 515.185 652.231 515.973C651.752 516.761 650.892 517.25 649.66 517.44C648.453 517.627 647.494 517.363 646.779 516.65C646.093 515.933 645.857 514.832 646.064 513.345L647.511 513.122C647.969 511.652 647.585 511.012 646.349 511.202ZM666.36 526.961C662.904 527.495 660.168 527.012 658.15 525.512C656.158 523.982 654.918 521.635 654.43 518.473C653.938 515.284 654.525 512.697 656.195 510.711C657.89 508.72 660.238 507.493 663.239 507.029C669.323 506.09 672.713 508.694 673.416 514.841L662.081 516.592L662.325 518.159C662.73 520.785 663.371 522.717 664.247 523.953C665.124 525.19 666.393 525.68 668.054 525.423C671.163 524.943 672.944 522.967 673.395 519.495L674.135 519.504C673.924 521.512 673.234 523.155 672.06 524.434C670.911 525.709 669.009 526.551 666.36 526.961ZM661.999 515.782L666.136 515.142L665.835 513.172C665.5 511.002 665.136 509.549 664.747 508.813C664.384 508.046 663.813 507.723 663.036 507.843C662.284 507.959 661.788 508.475 661.548 509.39C661.325 510.274 661.375 511.748 661.693 513.812L661.999 515.782ZM686.449 504.597L686.337 503.873L696.708 502.271L696.82 502.995L695.17 503.249L700.883 516.237L702.367 502.138L699.593 502.566L699.482 501.843L704.909 501.005L705.021 501.728L703.33 501.989L701.35 521.144L695.844 521.995L690.442 510.194L688.569 523.118L683.183 523.95L674.391 506.459L672.585 506.738L672.473 506.015L684.65 504.134L684.762 504.857L682.352 505.23L688.16 518.325L689.598 508.473L687.937 504.367L686.449 504.597ZM715.842 509.234L717.008 509.054L716.528 505.959C716.136 503.413 715.726 501.734 715.301 500.922C714.896 500.079 714.292 499.72 713.486 499.844C713.002 499.919 712.581 500.121 712.221 500.451C711.882 500.75 711.75 501.127 711.82 501.583C711.886 502.012 712.035 502.441 712.267 502.872L713.271 502.717C713.573 503.247 713.784 503.914 713.912 504.718C714.032 505.494 713.8 506.23 713.221 506.923C712.639 507.589 711.837 508.001 710.82 508.158C708.513 508.514 707.191 507.58 706.848 505.356C706.339 502.06 708.885 499.979 714.486 499.114C717.673 498.621 719.955 498.831 721.331 499.744C722.729 500.625 723.65 502.513 724.097 505.407L725.358 513.567C725.572 514.961 726.069 515.597 726.846 515.477C727.759 515.337 728.082 513.874 727.817 511.089L728.425 511.036C728.681 513.411 728.491 515.1 727.85 516.105C727.209 517.109 726.002 517.747 724.237 518.021C721.021 518.518 719.017 517.812 718.231 515.903C718.037 516.975 717.632 517.806 717.012 518.396C716.388 518.986 715.408 519.384 714.069 519.592C710.101 520.204 707.869 518.889 707.368 515.647C707.075 513.744 707.625 512.328 709.018 511.4C710.431 510.44 712.705 509.718 715.842 509.234ZM714.999 514.427C715.214 515.82 715.416 516.708 715.615 517.089C715.838 517.466 716.148 517.623 716.553 517.561C716.979 517.495 717.318 517.1 717.562 516.377C717.83 515.622 717.872 514.642 717.686 513.436L717.107 509.697L716.826 509.741C715.164 509.998 714.524 511.345 714.9 513.784L714.999 514.427ZM740.672 496.633C739.68 496.786 738.907 497.564 738.358 498.966C737.804 500.368 737.667 501.953 737.94 503.722L739.602 514.495L742.454 514.054L742.565 514.778L730.028 516.715L729.917 515.991L732.128 515.649L729.396 497.963L727.185 498.305L727.073 497.581L736.758 496.085L737.353 499.944C737.494 498.523 738.002 497.375 738.878 496.498C739.755 495.594 740.821 495.045 742.082 494.851C743.343 494.656 744.417 494.861 745.306 495.464C746.215 496.037 746.773 496.98 746.976 498.293C747.174 499.579 747.034 500.616 746.55 501.404C746.071 502.192 745.211 502.681 743.979 502.871C742.772 503.057 741.813 502.794 741.102 502.081C740.412 501.364 740.176 500.262 740.383 498.776L741.83 498.553C742.289 497.082 741.904 496.442 740.672 496.633ZM761.538 500.935C761.518 500.791 761.472 500.504 761.406 500.072C761.336 499.627 761.245 499.125 761.133 498.566C761.018 497.995 760.877 497.394 760.716 496.762C760.55 496.131 760.352 495.552 760.125 495.025C759.749 494.668 759.339 494.363 758.897 494.109C758.467 493.84 757.95 493.753 757.351 493.846C756.33 494.003 755.681 494.787 755.4 496.196C755.136 497.604 755.222 499.707 755.652 502.508C755.842 503.737 756.07 504.855 756.33 505.859C756.607 506.862 756.913 507.712 757.248 508.411C757.595 509.107 757.979 509.63 758.397 509.982C758.823 510.331 759.286 510.467 759.786 510.39C761.877 510.067 762.464 506.915 761.538 500.935ZM759.968 492.336C759.517 491.066 758.984 489.902 758.364 488.846C757.744 487.776 757.058 486.878 756.301 486.15C755.561 485.421 754.751 484.882 753.883 484.534C753.023 484.185 752.139 484.081 751.221 484.222C750.7 484.303 750.229 484.442 749.82 484.639C749.423 484.835 749.08 485.049 748.795 485.28C748.505 485.499 748.27 485.709 748.088 485.912C747.914 486.099 747.79 486.239 747.712 486.332L747.092 485.724C747.344 485.269 747.666 484.832 748.055 484.41C748.46 483.985 748.91 483.608 749.406 483.276C749.907 482.945 750.44 482.661 751.006 482.427C751.585 482.19 752.168 482.026 752.759 481.935C754.693 481.636 756.458 481.798 758.058 482.422C759.654 483.034 761.059 484.035 762.278 485.428C763.498 486.82 764.527 488.571 765.362 490.679C766.197 492.787 766.817 495.176 767.23 497.846C767.565 500.005 767.635 501.936 767.441 503.64C767.263 505.343 766.854 506.813 766.213 508.05C765.573 509.275 764.713 510.258 763.634 511.001C762.568 511.728 761.311 512.204 759.856 512.428C758.852 512.584 757.798 512.566 756.694 512.374C755.603 512.168 754.573 511.724 753.598 511.045C752.635 510.363 751.783 509.409 751.043 508.183C750.303 506.944 749.787 505.37 749.489 503.459C749.237 501.811 749.237 500.31 749.497 498.957C749.77 497.602 750.233 496.425 750.882 495.427C751.531 494.416 752.337 493.602 753.3 492.984C754.259 492.353 755.313 491.95 756.467 491.771C756.913 491.703 757.318 491.68 757.682 491.704C758.046 491.715 758.368 491.753 758.645 491.817C758.922 491.881 759.17 491.964 759.385 492.064C759.6 492.152 759.794 492.242 759.968 492.336ZM772.228 510.608L771.116 503.413L771.599 503.338C772.653 505.562 773.844 507.052 775.171 507.807C776.493 508.563 778.039 508.804 779.809 508.531C782.541 508.109 783.773 507.027 783.504 505.285C783.388 504.535 782.967 504.024 782.239 503.752C781.102 503.324 779.693 503.076 778.006 503.007C776.113 502.806 774.485 502.399 773.129 501.785C771.504 501.048 770.533 499.634 770.211 497.544C769.888 495.453 770.273 493.693 771.368 492.261C772.459 490.803 774.08 489.909 776.221 489.577C777.535 489.374 778.936 489.474 780.425 489.875C780.966 490.011 781.371 490.058 781.64 490.017C781.908 489.975 782.119 489.846 782.28 489.63C782.438 489.413 782.611 489.029 782.801 488.479L783.244 488.41L784.194 494.561L783.711 494.635C781.805 491.363 779.42 489.948 776.551 490.391C775.295 490.585 774.39 490.958 773.844 491.508C773.294 492.033 773.071 492.63 773.174 493.299C773.236 493.702 773.381 494.008 773.604 494.221C773.827 494.406 773.997 494.544 774.121 494.635C774.245 494.725 774.439 494.819 774.7 494.916C774.96 494.985 775.175 495.048 775.349 495.104C775.518 495.133 775.77 495.176 776.109 495.234C776.473 495.287 776.737 495.315 776.903 495.317C778.796 495.491 780.168 495.69 781.028 495.914C781.88 496.111 782.706 496.395 783.504 496.766C785.137 497.557 786.129 499.091 786.48 501.369C786.827 503.62 786.422 505.438 785.265 506.824C784.103 508.184 782.355 509.043 780.024 509.403C778.362 509.66 776.696 509.52 775.022 508.983C774.666 508.818 774.394 508.75 774.208 508.779C773.621 508.87 773.121 509.455 772.711 510.533L772.228 510.608Z" fill="white"/>
<path d="M715.933 541.515C715.33 541.608 714.751 541.597 714.201 541.481C713.66 541.356 713.168 541.143 712.725 540.841C712.291 540.53 711.932 540.142 711.642 539.677C711.357 539.212 711.167 538.685 711.076 538.098C710.985 537.51 711.006 536.951 711.138 536.421C711.275 535.891 711.506 535.415 711.833 534.994C712.163 534.566 712.564 534.213 713.048 533.938C713.532 533.656 714.077 533.467 714.685 533.373C715.334 533.273 715.941 533.294 716.512 533.438C717.082 533.574 717.582 533.832 718.021 534.212L717.21 535.252C716.876 534.987 716.52 534.807 716.144 534.711C715.764 534.607 715.367 534.587 714.953 534.651C714.54 534.715 714.168 534.842 713.842 535.031C713.523 535.219 713.255 535.457 713.04 535.746C712.829 536.033 712.676 536.357 712.585 536.718C712.502 537.079 712.494 537.462 712.556 537.869C712.618 538.276 712.746 538.639 712.932 538.957C713.126 539.274 713.37 539.537 713.656 539.748C713.949 539.957 714.28 540.103 714.639 540.186C715.007 540.268 715.396 540.277 715.813 540.213C716.227 540.15 716.599 540.015 716.929 539.809C717.26 539.596 717.541 539.31 717.781 538.949L718.868 539.706C718.566 540.193 718.165 540.591 717.665 540.9C717.165 541.208 716.586 541.413 715.933 541.515ZM720.641 540.671L719.711 534.634L721.055 534.426L721.311 536.088L721.079 535.626C721.195 535.191 721.431 534.839 721.782 534.568C722.142 534.297 722.613 534.116 723.192 534.026L723.402 535.372C723.336 535.366 723.283 535.367 723.229 535.375C723.175 535.376 723.121 535.38 723.068 535.389C722.534 535.471 722.133 535.695 721.865 536.061C721.596 536.419 721.509 536.907 721.604 537.525L722.055 540.453L720.641 540.671ZM728.441 539.547C727.772 539.651 727.164 539.61 726.618 539.424C726.081 539.229 725.635 538.92 725.283 538.496C724.94 538.07 724.721 537.56 724.63 536.964C724.535 536.362 724.589 535.81 724.779 535.31C724.977 534.8 725.291 534.378 725.717 534.042C726.151 533.704 726.672 533.489 727.271 533.396C727.862 533.305 728.404 533.353 728.904 533.538C729.404 533.723 729.822 534.029 730.157 534.456C730.491 534.882 730.71 535.412 730.806 536.045C730.818 536.105 730.822 536.174 730.826 536.25C730.839 536.326 730.847 536.398 730.851 536.467L725.821 537.244L725.676 536.305L729.958 535.644L729.45 536.024C729.404 535.675 729.284 535.381 729.094 535.141C728.904 534.9 728.664 534.725 728.375 534.615C728.098 534.504 727.788 534.475 727.449 534.527C727.102 534.58 726.808 534.703 726.569 534.895C726.333 535.085 726.164 535.327 726.056 535.622C725.953 535.908 725.928 536.231 725.986 536.593L726.019 536.819C726.077 537.181 726.209 537.489 726.416 537.742C726.627 537.995 726.891 538.174 727.218 538.278C727.54 538.382 727.9 538.404 728.292 538.344C728.631 538.291 728.929 538.191 729.185 538.044C729.437 537.897 729.652 537.693 729.83 537.435L730.723 538.188C730.5 538.547 730.194 538.845 729.805 539.082C729.425 539.31 728.97 539.466 728.441 539.547ZM735.505 538.456C734.927 538.546 734.381 538.499 733.877 538.315C733.377 538.122 732.959 537.816 732.624 537.397C732.29 536.978 732.07 536.456 731.975 535.83C731.88 535.204 731.926 534.641 732.12 534.141C732.314 533.64 732.62 533.227 733.038 532.899C733.468 532.571 733.972 532.362 734.551 532.272C735.055 532.194 735.526 532.237 735.96 532.402C736.394 532.558 736.762 532.845 737.064 533.261C737.37 533.678 737.576 534.24 737.684 534.948C737.791 535.649 737.771 536.247 737.613 536.742C737.456 537.229 737.196 537.616 736.832 537.904C736.468 538.192 736.026 538.376 735.505 538.456ZM735.489 537.22C735.828 537.168 736.117 537.046 736.357 536.854C736.605 536.662 736.787 536.41 736.903 536.099C737.022 535.787 737.055 535.439 736.993 535.055C736.936 534.663 736.799 534.34 736.593 534.087C736.39 533.825 736.138 533.64 735.844 533.531C735.559 533.421 735.245 533.392 734.906 533.444C734.567 533.497 734.274 533.619 734.026 533.812C733.786 534.003 733.604 534.255 733.484 534.567C733.368 534.871 733.339 535.218 733.401 535.61C733.459 535.994 733.592 536.317 733.794 536.58C734.005 536.84 734.253 537.026 734.538 537.136C734.832 537.244 735.15 537.273 735.489 537.22ZM737.494 538.068L737.275 536.644L737.084 535.029L736.721 533.441L736.142 529.688L737.543 529.472L738.841 537.86L737.494 538.068ZM741.015 537.524L740.081 531.487L741.495 531.269L742.429 537.306L741.015 537.524ZM740.639 530.382C740.375 530.423 740.143 530.374 739.945 530.235C739.755 530.095 739.643 529.908 739.606 529.674C739.569 529.433 739.618 529.221 739.763 529.037C739.908 528.844 740.114 528.728 740.379 528.687C740.643 528.646 740.871 528.692 741.061 528.825C741.255 528.948 741.371 529.127 741.408 529.361C741.445 529.61 741.396 529.833 741.259 530.033C741.119 530.224 740.912 530.341 740.639 530.382ZM746.881 536.699C746.215 536.802 745.678 536.711 745.265 536.428C744.847 536.137 744.591 535.656 744.488 534.986L743.648 529.57L745.062 529.352L745.893 534.733C745.938 535.02 746.042 535.231 746.211 535.367C746.385 535.502 746.604 535.549 746.868 535.509C747.187 535.46 747.439 535.336 747.621 535.138L748.175 536.083C748.03 536.244 747.84 536.377 747.608 536.482C747.381 536.587 747.137 536.66 746.881 536.699ZM743.041 532.234L742.867 531.103L746.893 530.482L747.067 531.612L743.041 532.234ZM756.954 535.178C756.351 535.271 755.776 535.26 755.226 535.144C754.681 535.02 754.189 534.807 753.747 534.504C753.313 534.193 752.953 533.805 752.668 533.34C752.379 532.875 752.188 532.349 752.097 531.761C752.006 531.173 752.027 530.614 752.164 530.084C752.296 529.554 752.527 529.079 752.858 528.657C753.185 528.229 753.59 527.877 754.073 527.602C754.553 527.319 755.098 527.131 755.71 527.036C756.355 526.936 756.967 526.958 757.537 527.101C758.103 527.237 758.608 527.495 759.046 527.876L758.232 528.915C757.897 528.65 757.541 528.47 757.165 528.374C756.785 528.27 756.388 528.25 755.975 528.315C755.561 528.379 755.189 528.505 754.867 528.694C754.549 528.883 754.28 529.121 754.061 529.409C753.85 529.696 753.701 530.02 753.61 530.382C753.528 530.742 753.515 531.125 753.577 531.532C753.643 531.939 753.767 532.302 753.953 532.62C754.152 532.937 754.392 533.201 754.681 533.411C754.974 533.62 755.301 533.766 755.661 533.85C756.028 533.932 756.421 533.941 756.834 533.877C757.248 533.813 757.62 533.678 757.955 533.472C758.281 533.26 758.566 532.973 758.802 532.612L759.893 533.37C759.592 533.857 759.186 534.254 758.686 534.563C758.186 534.871 757.612 535.076 756.954 535.178ZM765.329 533.768L765.143 532.547L765.023 532.3L764.692 530.163C764.626 529.748 764.453 529.447 764.171 529.26C763.886 529.064 763.489 529.006 762.985 529.084C762.646 529.136 762.32 529.241 762.005 529.397C761.695 529.553 761.443 529.742 761.249 529.966L760.534 529.023C760.819 528.724 761.175 528.48 761.6 528.291C762.034 528.093 762.493 527.956 762.973 527.882C763.849 527.747 764.556 527.854 765.097 528.202C765.643 528.542 765.982 529.15 766.118 530.024L766.664 533.562L765.329 533.768ZM763.444 534.141C762.989 534.211 762.584 534.196 762.22 534.098C761.857 533.992 761.559 533.818 761.332 533.576C761.109 533.325 760.968 533.026 760.914 532.68C760.861 532.34 760.894 532.023 761.009 531.727C761.133 531.43 761.369 531.174 761.712 530.959C762.059 530.743 762.535 530.589 763.146 530.494L764.899 530.224L765.044 531.162L763.394 531.417C762.911 531.491 762.601 531.62 762.456 531.804C762.316 531.981 762.262 532.182 762.295 532.408C762.336 532.664 762.468 532.852 762.696 532.971C762.923 533.091 763.217 533.123 763.576 533.067C763.923 533.013 764.221 532.886 764.469 532.686C764.721 532.485 764.887 532.22 764.961 531.892L765.329 532.704C765.246 533.079 765.044 533.392 764.721 533.643C764.403 533.892 763.977 534.058 763.444 534.141ZM768.793 533.234L767.859 527.197L769.206 526.989L769.462 528.651L769.227 528.189C769.347 527.754 769.582 527.401 769.934 527.131C770.293 526.859 770.76 526.679 771.343 526.589L771.55 527.935C771.488 527.929 771.43 527.93 771.376 527.938C771.323 527.939 771.269 527.943 771.215 527.951C770.682 528.034 770.281 528.258 770.012 528.623C769.743 528.981 769.657 529.469 769.752 530.087L770.202 533.015L768.793 533.234ZM776.308 532.154C775.729 532.243 775.183 532.196 774.679 532.012C774.179 531.819 773.761 531.513 773.426 531.094C773.092 530.675 772.877 530.153 772.778 529.527C772.682 528.902 772.728 528.339 772.922 527.838C773.116 527.338 773.422 526.924 773.84 526.597C774.27 526.268 774.774 526.059 775.353 525.969C775.857 525.892 776.328 525.935 776.762 526.099C777.196 526.256 777.564 526.543 777.866 526.959C778.172 527.375 778.378 527.937 778.486 528.646C778.593 529.346 778.573 529.944 778.416 530.439C778.259 530.926 777.998 531.314 777.634 531.601C777.271 531.889 776.828 532.073 776.308 532.154ZM776.291 530.918C776.63 530.865 776.919 530.743 777.159 530.552C777.407 530.359 777.589 530.107 777.705 529.797C777.825 529.484 777.858 529.136 777.796 528.752C777.738 528.36 777.601 528.038 777.395 527.784C777.192 527.523 776.944 527.337 776.647 527.228C776.361 527.118 776.047 527.089 775.708 527.142C775.369 527.194 775.076 527.317 774.828 527.509C774.588 527.701 774.406 527.952 774.286 528.265C774.171 528.568 774.142 528.916 774.204 529.308C774.261 529.692 774.394 530.015 774.596 530.277C774.807 530.538 775.055 530.723 775.34 530.833C775.634 530.942 775.952 530.97 776.291 530.918ZM778.296 531.766L778.077 530.341L777.887 528.727L777.527 527.139L776.944 523.386L778.345 523.169L779.643 531.558L778.296 531.766ZM784.273 530.842L786.608 522.379L788.055 522.155L792.85 529.517L791.312 529.755L787.15 523.094L787.737 523.004L785.786 530.608L784.273 530.842ZM785.629 528.758L785.844 527.544L790.118 526.884L790.692 527.976L785.629 528.758ZM794.173 529.313L792.949 521.4L796.206 520.897C796.905 520.789 797.521 520.809 798.054 520.958C798.596 521.107 799.034 521.37 799.369 521.751C799.703 522.131 799.918 522.611 800.009 523.191C800.096 523.772 800.038 524.294 799.832 524.758C799.629 525.222 799.29 525.606 798.819 525.91C798.356 526.213 797.773 526.419 797.074 526.527L794.632 526.904L795.181 526.113L795.64 529.086L794.173 529.313ZM795.206 526.272L794.441 525.661L796.814 525.294C797.463 525.193 797.926 524.983 798.211 524.661C798.496 524.331 798.604 523.918 798.525 523.42C798.451 522.915 798.224 522.553 797.852 522.333C797.484 522.111 796.975 522.051 796.33 522.151L793.954 522.518L794.499 521.693L795.206 526.272ZM802.576 528.015L801.357 520.101L802.824 519.874L804.048 527.788L802.576 528.015Z" fill="white"/>
</g>
<g filter="url(#filter3_d_99_415)">
<path d="M689.782 328.106L299.58 210.876C289.843 207.951 279.579 213.473 276.654 223.211L206.394 457.121C203.469 466.859 208.991 477.124 218.727 480.049L608.929 597.279C618.665 600.204 628.93 594.682 631.855 584.944L702.115 351.034C705.04 341.297 699.518 331.031 689.782 328.106Z" fill="white"/>
</g>
<mask id="mask2_99_415" style="mask-type:alpha" maskUnits="userSpaceOnUse" x="205" y="210" width="498" height="389">
<path d="M689.782 328.106L299.58 210.876C289.843 207.951 279.579 213.473 276.654 223.211L206.394 457.121C203.469 466.859 208.991 477.124 218.727 480.049L608.929 597.279C618.665 600.204 628.93 594.682 631.855 584.944L702.115 351.034C705.04 341.297 699.518 331.031 689.782 328.106Z" fill="white"/>
</mask>
<g mask="url(#mask2_99_415)">
<g opacity="0.18">
<path d="M279.877 196.774L532.339 576.339" stroke="black" stroke-width="2.96888"/>
<path d="M273.294 197.359L525.756 576.924" stroke="black" stroke-width="2.96888"/>
<path d="M266.711 197.945L519.172 577.511" stroke="black" stroke-width="2.96888"/>
<path d="M260.129 198.53L512.591 578.094" stroke="black" stroke-width="2.96888"/>
<path d="M253.546 199.115L506.008 578.681" stroke="black" stroke-width="2.96888"/>
<path d="M246.964 199.701L499.425 579.264" stroke="black" stroke-width="2.96888"/>
<path d="M240.38 200.286L492.841 579.851" stroke="black" stroke-width="2.96888"/>
<path d="M233.798 200.872L486.26 580.438" stroke="black" stroke-width="2.96888"/>
<path d="M227.214 201.457L479.675 581.021" stroke="black" stroke-width="2.96888"/>
<path d="M220.632 202.042L473.093 581.607" stroke="black" stroke-width="2.96888"/>
<path d="M214.049 202.628L466.51 582.19" stroke="black" stroke-width="2.96888"/>
<path d="M207.468 203.213L459.929 582.778" stroke="black" stroke-width="2.96888"/>
<path d="M200.884 203.798L453.345 583.36" stroke="black" stroke-width="2.96888"/>
<path d="M194.301 204.384L446.762 583.947" stroke="black" stroke-width="2.96888"/>
<path d="M187.718 204.969L440.179 584.534" stroke="black" stroke-width="2.96888"/>
<path d="M181.135 205.554L433.597 585.117" stroke="black" stroke-width="2.96888"/>
<path d="M174.553 206.14L427.014 585.704" stroke="black" stroke-width="2.96888"/>
<path d="M167.97 206.725L420.431 586.287" stroke="black" stroke-width="2.96888"/>
<path d="M161.388 207.31L413.849 586.874" stroke="black" stroke-width="2.96888"/>
<path d="M154.806 207.896L407.267 587.461" stroke="black" stroke-width="2.96888"/>
<path d="M148.223 208.481L400.684 588.044" stroke="black" stroke-width="2.96888"/>
<path d="M141.64 209.066L394.101 588.631" stroke="black" stroke-width="2.96888"/>
<path d="M135.057 209.652L387.518 589.214" stroke="black" stroke-width="2.96888"/>
<path d="M128.475 210.237L380.936 589.801" stroke="black" stroke-width="2.96888"/>
<path d="M121.893 210.822L374.354 590.388" stroke="black" stroke-width="2.96888"/>
<path d="M115.309 211.407L367.77 590.971" stroke="black" stroke-width="2.96888"/>
<path d="M108.726 211.993L361.187 591.558" stroke="black" stroke-width="2.96888"/>
<path d="M102.144 212.578L354.606 592.141" stroke="black" stroke-width="2.96888"/>
<path d="M95.5615 213.164L348.023 592.728" stroke="black" stroke-width="2.96888"/>
<path d="M88.9778 213.749L341.439 593.315" stroke="black" stroke-width="2.96888"/>
<path d="M82.3965 214.334L334.858 593.898" stroke="black" stroke-width="2.96888"/>
<path d="M287.281 197.717L539.743 577.284" stroke="black" stroke-width="2.96888"/>
<path d="M294.686 198.661L547.149 578.226" stroke="black" stroke-width="2.96888"/>
<path d="M302.091 199.604L554.552 579.169" stroke="black" stroke-width="2.96888"/>
<path d="M309.496 200.547L561.96 580.111" stroke="black" stroke-width="2.96888"/>
<path d="M316.9 201.49L569.363 581.054" stroke="black" stroke-width="2.96888"/>
<path d="M324.306 202.433L576.766 581.996" stroke="black" stroke-width="2.96888"/>
<path d="M331.711 203.376L584.173 582.939" stroke="black" stroke-width="2.96888"/>
<path d="M339.114 204.32L591.576 583.885" stroke="black" stroke-width="2.96888"/>
<path d="M346.52 205.263L598.984 584.828" stroke="black" stroke-width="2.96888"/>
<path d="M353.925 206.206L606.386 585.771" stroke="black" stroke-width="2.96888"/>
<path d="M361.33 207.149L613.79 586.713" stroke="black" stroke-width="2.96888"/>
<path d="M368.735 208.093L621.197 587.656" stroke="black" stroke-width="2.96888"/>
<path d="M376.142 209.036L628.605 588.598" stroke="black" stroke-width="2.96888"/>
<path d="M383.545 209.979L636.008 589.545" stroke="black" stroke-width="2.96888"/>
<path d="M390.95 210.922L643.411 590.487" stroke="black" stroke-width="2.96888"/>
<path d="M398.355 211.865L650.818 591.43" stroke="black" stroke-width="2.96888"/>
<path d="M405.76 212.808L658.222 592.372" stroke="black" stroke-width="2.96888"/>
<path d="M413.165 213.752L665.625 593.315" stroke="black" stroke-width="2.96888"/>
<path d="M420.57 214.695L673.032 594.258" stroke="black" stroke-width="2.96888"/>
<path d="M427.974 215.638L680.435 595.204" stroke="black" stroke-width="2.96888"/>
<path d="M435.379 216.582L687.842 596.147" stroke="black" stroke-width="2.96888"/>
<path d="M442.784 217.525L695.246 597.089" stroke="black" stroke-width="2.96888"/>
<path d="M450.19 218.468L702.653 598.032" stroke="black" stroke-width="2.96888"/>
</g>
<path d="M689.782 328.106L299.581 210.876C289.844 207.951 279.58 213.473 276.655 223.211L206.395 457.121C203.47 466.859 208.992 477.124 218.728 480.049L608.93 597.279C618.666 600.204 628.93 594.682 631.855 584.944L702.116 351.034C705.041 341.297 699.519 331.031 689.782 328.106Z" fill="url(#paint3_linear_99_415)"/>
<g filter="url(#filter4_f_99_415)">
<path d="M256.625 345.344C315.045 362.895 376.63 329.76 394.179 271.335C411.729 212.91 378.597 151.318 320.177 133.767C261.758 116.216 200.173 149.351 182.623 207.776C165.074 266.202 198.206 327.793 256.625 345.344Z" fill="#D2D2D2"/>
</g>
<g filter="url(#filter5_f_99_415)">
<path d="M585.507 683.791C643.927 701.343 705.512 668.208 723.061 609.782C740.611 551.357 707.479 489.766 649.059 472.214C590.64 454.663 529.055 487.798 511.505 546.224C493.956 604.649 527.087 666.24 585.507 683.791Z" fill="#C8C8C8"/>
</g>
</g>
<path d="M333.029 376.798L342.655 344.751C343.895 340.623 340.742 336.015 335.625 334.478L289.542 320.633C284.424 319.096 279.253 321.203 278.013 325.331L268.387 357.378C267.147 361.506 270.303 366.113 275.42 367.65L321.502 381.495C326.62 383.031 331.789 380.926 333.029 376.798ZM275.6 367.049C270.892 365.635 267.991 361.397 269.131 357.601L278.757 325.554C279.897 321.757 284.654 319.819 289.362 321.234L335.445 335.078C340.15 336.492 343.051 340.731 341.911 344.528L332.285 376.575C331.145 380.37 326.388 382.308 321.683 380.894L275.6 367.049Z" fill="black"/>
<path d="M321.684 380.895L275.601 367.05C273.339 366.37 271.387 364.993 270.173 363.222C268.96 361.451 268.586 359.431 269.132 357.605L278.759 325.555C279.899 321.758 284.656 319.82 289.363 321.235L335.446 335.079C340.151 336.493 343.052 340.731 341.911 344.529L332.285 376.578C331.146 380.371 326.389 382.309 321.684 380.895Z" fill="url(#paint4_linear_99_415)"/>
<path d="M270.146 351.969L270.326 351.369L291.546 357.745C292.953 358.166 294.437 358.12 295.672 357.616C296.908 357.113 297.793 356.194 298.136 355.06L301.56 343.66C301.899 342.525 301.667 341.27 300.913 340.169C300.16 339.068 298.947 338.212 297.541 337.788L276.321 331.413L276.501 330.812L297.722 337.187C299.325 337.671 300.708 338.647 301.567 339.902C302.426 341.158 302.691 342.589 302.304 343.883L298.88 355.284C298.49 356.576 297.48 357.625 296.071 358.199C294.662 358.773 292.97 358.825 291.366 358.345L270.146 351.969Z" fill="black"/>
<path d="M311.2 358.985L314.624 347.585C315.014 346.292 316.025 345.243 317.434 344.669C318.843 344.095 320.535 344.043 322.139 344.523L340.986 350.185L340.805 350.786L321.958 345.124C320.552 344.702 319.068 344.749 317.832 345.252C316.597 345.755 315.711 346.675 315.369 347.808L311.944 359.209C311.605 360.344 311.838 361.599 312.592 362.7C313.345 363.801 314.558 364.657 315.964 365.081L334.811 370.743L334.631 371.343L315.784 365.681C314.18 365.198 312.797 364.222 311.938 362.966C311.079 361.711 310.813 360.279 311.2 358.985Z" fill="black"/>
<path d="M314.746 348.528L314.927 347.928L301.862 344.003L301.682 344.603L314.746 348.528Z" fill="black"/>
<path d="M311.643 358.864L311.823 358.264L298.758 354.339L298.578 354.94L311.643 358.864Z" fill="black"/>
<path d="M283.127 369.639L287.011 356.709L286.267 356.486L282.383 369.415L283.127 369.639Z" fill="black"/>
<path d="M293.187 336.152L297.071 323.222L296.327 322.999L292.443 335.929L293.187 336.152Z" fill="black"/>
<path d="M316.101 379.545L319.984 366.615L319.24 366.392L315.356 379.321L316.101 379.545Z" fill="black"/>
<path d="M326.158 346.058L330.042 333.128L329.298 332.904L325.414 345.834L326.158 346.058Z" fill="black"/>
<path d="M337.363 361.019L337.543 360.419L313.358 353.153L313.178 353.753L337.363 361.019Z" fill="black"/>
<path d="M299.877 349.757L300.057 349.157L273.391 341.145L273.211 341.745L299.877 349.757Z" fill="black"/>
<path d="M548.57 548.869L540.231 546.716L558.854 509.697L567.196 511.85L548.57 548.869ZM546.627 506.539L529.451 530.875L530.496 524.95V524.952L533.721 506.974C533.721 506.974 534.589 503.432 530.973 502.499L517.828 499.105L517.447 499.715C517.447 499.715 521.117 501.754 524.638 506.352L520.232 541.554L528.922 543.798L555.601 508.857L546.627 506.539ZM598.813 561.84L606.468 563.817L613.202 523.727L606.501 521.996C603.405 521.197 601.649 523.862 601.649 523.862L576.802 556.158L585.495 558.402L589.223 553.152L599.826 555.889L598.813 561.84ZM594.378 545.9L603.777 532.674L601.227 547.668L594.378 545.9ZM587.64 527.186L591.707 519.255C591.707 519.255 588.62 516.634 584.792 515.646C580.654 514.578 570.068 514.206 566.385 524.741C562.922 534.652 574.413 537.754 572.594 542.96C570.775 548.166 560.751 544.562 558.486 540.397L554.237 548.692C554.237 548.692 557.201 551.819 562.893 553.288C568.584 554.757 578.402 553.445 581.758 543.839C585.247 533.864 573.933 529.931 575.45 525.594C576.967 521.256 584.891 523.91 587.64 527.186Z" fill="#2566AF"/>
<path d="M529.551 523.103L531.125 507.321C531.125 507.321 531.671 504.23 527.928 503.105L514.324 499.018L513.996 499.532C513.996 499.532 520.127 502.851 524.873 509.813C529.413 516.467 529.551 523.103 529.551 523.103Z" fill="#F4B459"/>
<path d="M247.409 429.042L247.894 427.426L248.45 427.593C248.864 427.717 249.227 427.7 249.538 427.539C249.86 427.373 250.081 427.092 250.2 426.695L252.216 419.985L253.987 420.517L251.991 427.163C251.812 427.758 251.526 428.24 251.133 428.611C250.749 428.984 250.282 429.224 249.733 429.332C249.192 429.442 248.603 429.401 247.965 429.209L247.409 429.042ZM254.087 431.049L256.98 421.416L263.38 423.339L262.914 424.89L258.272 423.496L257.531 425.965L261.913 427.282L261.447 428.834L257.064 427.517L256.311 430.025L260.952 431.42L260.486 432.971L254.087 431.049ZM266.343 434.9C265.731 434.716 265.196 434.433 264.737 434.051C264.288 433.672 263.933 433.227 263.673 432.716C263.424 432.2 263.293 431.648 263.282 431.062L264.932 430.867C264.999 431.489 265.205 432.025 265.549 432.476C265.895 432.919 266.344 433.223 266.896 433.389C267.206 433.482 267.487 433.515 267.74 433.487C268.004 433.454 268.222 433.369 268.394 433.233C268.575 433.099 268.702 432.912 268.775 432.67C268.86 432.386 268.844 432.127 268.726 431.894C268.619 431.655 268.413 431.434 268.108 431.23L266.438 430.08C265.758 429.622 265.298 429.103 265.059 428.523C264.82 427.944 264.794 427.34 264.983 426.71C265.149 426.158 265.429 425.712 265.823 425.37C266.225 425.03 266.703 424.817 267.256 424.729C267.82 424.635 268.416 424.683 269.045 424.872C269.623 425.045 270.122 425.308 270.542 425.66C270.965 426.003 271.295 426.407 271.531 426.873C271.778 427.333 271.915 427.829 271.943 428.364L270.301 428.576C270.256 428.036 270.083 427.58 269.782 427.207C269.482 426.826 269.083 426.56 268.583 426.41C268.29 426.322 268.016 426.296 267.761 426.333C267.508 426.36 267.29 426.445 267.106 426.587C266.934 426.723 266.812 426.912 266.739 427.153C266.659 427.42 266.674 427.683 266.784 427.942C266.897 428.192 267.113 428.426 267.433 428.644L269.037 429.732C269.729 430.213 270.199 430.73 270.446 431.283C270.702 431.839 270.732 432.441 270.538 433.087C270.373 433.639 270.084 434.083 269.673 434.42C269.262 434.757 268.77 434.971 268.197 435.062C267.625 435.154 267.007 435.099 266.343 434.9ZM275.889 437.768C275.277 437.584 274.742 437.301 274.283 436.919C273.834 436.54 273.479 436.094 273.219 435.584C272.97 435.068 272.839 434.517 272.828 433.93L274.478 433.736C274.545 434.357 274.751 434.894 275.095 435.345C275.441 435.787 275.89 436.091 276.442 436.256C276.752 436.35 277.033 436.383 277.286 436.355C277.55 436.321 277.768 436.237 277.94 436.101C278.121 435.967 278.248 435.779 278.321 435.538C278.406 435.254 278.39 434.995 278.272 434.762C278.165 434.524 277.959 434.302 277.654 434.097L275.984 432.947C275.304 432.489 274.844 431.97 274.605 431.391C274.366 430.812 274.34 430.207 274.529 429.578C274.695 429.027 274.975 428.58 275.369 428.237C275.771 427.898 276.249 427.684 276.802 427.597C277.366 427.503 277.962 427.55 278.591 427.74C279.169 427.913 279.668 428.176 280.088 428.528C280.511 428.871 280.841 429.275 281.077 429.741C281.324 430.201 281.461 430.698 281.489 431.232L279.847 431.443C279.802 430.904 279.629 430.448 279.328 430.075C279.028 429.694 278.629 429.428 278.129 429.278C277.836 429.19 277.562 429.164 277.307 429.2C277.054 429.228 276.836 429.313 276.652 429.455C276.48 429.591 276.358 429.78 276.285 430.021C276.205 430.288 276.22 430.551 276.33 430.81C276.443 431.06 276.659 431.294 276.979 431.512L278.583 432.6C279.275 433.081 279.745 433.598 279.992 434.151C280.248 434.708 280.278 435.309 280.084 435.955C279.919 436.507 279.63 436.951 279.219 437.288C278.808 437.625 278.316 437.839 277.743 437.93C277.171 438.021 276.553 437.968 275.889 437.768ZM282.042 439.447L284.936 429.815L291.335 431.738L290.87 433.289L286.228 431.895L285.487 434.364L289.869 435.681L289.403 437.233L285.02 435.916L284.267 438.424L288.908 439.819L288.442 441.37L282.042 439.447ZM299.078 444.735C298.371 444.522 297.749 444.199 297.213 443.765C296.676 443.332 296.246 442.822 295.924 442.237C295.602 441.651 295.402 441.018 295.325 440.337C295.259 439.65 295.332 438.953 295.544 438.246C295.759 437.531 296.082 436.908 296.513 436.38C296.945 435.852 297.456 435.432 298.047 435.121C298.639 434.81 299.277 434.626 299.961 434.569C300.648 434.502 301.349 434.577 302.065 434.792C302.78 435.007 303.406 435.331 303.943 435.765C304.48 436.199 304.91 436.708 305.232 437.294C305.556 437.871 305.753 438.498 305.822 439.177C305.899 439.858 305.83 440.556 305.616 441.272C305.403 441.978 305.076 442.599 304.633 443.133C304.194 443.659 303.678 444.078 303.086 444.388C302.495 444.699 301.856 444.888 301.169 444.954C300.49 445.023 299.794 444.95 299.078 444.735ZM299.56 443.132C300.034 443.274 300.494 443.323 300.939 443.278C301.387 443.225 301.804 443.092 302.187 442.878C302.58 442.667 302.915 442.378 303.195 442.011C303.483 441.646 303.699 441.222 303.844 440.739C303.989 440.257 304.041 439.788 303.999 439.334C303.968 438.874 303.847 438.447 303.636 438.055C303.436 437.657 303.162 437.316 302.815 437.033C302.468 436.75 302.057 436.538 301.583 436.395C301.118 436.255 300.662 436.208 300.216 436.252C299.771 436.297 299.35 436.429 298.956 436.649C298.572 436.863 298.236 437.151 297.948 437.516C297.663 437.872 297.447 438.291 297.303 438.774C297.158 439.257 297.105 439.73 297.144 440.192C297.184 440.655 297.305 441.082 297.507 441.471C297.718 441.864 297.996 442.206 298.341 442.498C298.688 442.78 299.094 442.992 299.56 443.132ZM306.906 446.917L309.799 437.285L313.38 438.361C314.035 438.557 314.576 438.851 315.004 439.243C315.442 439.629 315.735 440.092 315.882 440.635C316.032 441.168 316.01 441.758 315.816 442.405C315.617 443.069 315.288 443.586 314.829 443.955C314.379 444.327 313.853 444.545 313.251 444.609L314.301 449.139L312.309 448.541L311.214 443.602L312.149 444.616L309.732 443.89L308.664 447.445L306.906 446.917ZM310.198 442.338L312.047 442.894C312.366 442.989 312.66 443.012 312.928 442.961C313.2 442.902 313.434 442.779 313.631 442.594C313.827 442.409 313.969 442.17 314.058 441.877C314.148 441.575 314.161 441.297 314.097 441.043C314.035 440.78 313.905 440.553 313.709 440.362C313.515 440.163 313.259 440.015 312.94 439.92L311.091 439.364L310.198 442.338ZM321.326 451.419C320.62 451.207 319.998 450.884 319.461 450.45C318.924 450.016 318.494 449.506 318.172 448.921C317.85 448.335 317.65 447.702 317.573 447.021C317.507 446.334 317.58 445.637 317.793 444.93C318.008 444.215 318.33 443.593 318.761 443.064C319.193 442.536 319.704 442.116 320.295 441.805C320.887 441.495 321.525 441.31 322.209 441.253C322.896 441.187 323.598 441.261 324.313 441.476C325.028 441.691 325.655 442.015 326.191 442.449C326.728 442.883 327.158 443.393 327.48 443.978C327.804 444.555 328.001 445.183 328.07 445.861C328.147 446.542 328.078 447.24 327.864 447.956C327.651 448.662 327.324 449.283 326.882 449.817C326.442 450.343 325.926 450.762 325.335 451.073C324.743 451.383 324.104 451.572 323.417 451.638C322.739 451.707 322.042 451.634 321.326 451.419ZM321.808 449.815C322.282 449.958 322.742 450.007 323.188 449.962C323.636 449.909 324.052 449.775 324.435 449.562C324.828 449.351 325.163 449.062 325.443 448.695C325.731 448.33 325.948 447.906 326.092 447.424C326.237 446.941 326.289 446.472 326.247 446.018C326.216 445.558 326.095 445.131 325.884 444.739C325.684 444.341 325.411 444 325.063 443.717C324.716 443.434 324.305 443.222 323.831 443.079C323.366 442.939 322.91 442.892 322.465 442.937C322.019 442.981 321.599 443.113 321.204 443.333C320.82 443.547 320.484 443.836 320.196 444.2C319.911 444.556 319.696 444.975 319.551 445.458C319.406 445.941 319.353 446.414 319.392 446.877C319.432 447.34 319.553 447.766 319.755 448.156C319.966 448.548 320.244 448.89 320.589 449.182C320.936 449.464 321.342 449.676 321.808 449.815ZM332.546 454.79C331.934 454.606 331.399 454.323 330.941 453.941C330.491 453.561 330.136 453.116 329.876 452.606C329.627 452.09 329.496 451.538 329.484 450.952L331.136 450.757C331.203 451.379 331.408 451.915 331.752 452.366C332.098 452.808 332.547 453.113 333.099 453.278C333.409 453.371 333.691 453.405 333.943 453.377C334.207 453.343 334.425 453.259 334.597 453.122C334.779 452.989 334.905 452.801 334.978 452.56C335.063 452.276 335.047 452.017 334.929 451.784C334.822 451.545 334.616 451.323 334.311 451.119L332.641 449.969C331.961 449.511 331.501 448.992 331.262 448.413C331.022 447.834 330.997 447.229 331.186 446.6C331.352 446.048 331.632 445.601 332.026 445.259C332.429 444.92 332.906 444.706 333.459 444.618C334.022 444.525 334.619 444.572 335.249 444.761C335.826 444.935 336.325 445.197 336.745 445.549C337.169 445.893 337.498 446.297 337.734 446.763C337.981 447.222 338.118 447.72 338.146 448.254L336.504 448.465C336.459 447.925 336.286 447.469 335.984 447.097C335.685 446.716 335.286 446.45 334.786 446.3C334.493 446.212 334.219 446.186 333.964 446.222C333.711 446.249 333.493 446.334 333.309 446.476C333.137 446.613 333.015 446.801 332.942 447.043C332.862 447.31 332.877 447.573 332.987 447.832C333.1 448.082 333.316 448.316 333.636 448.534L335.24 449.622C335.932 450.103 336.402 450.619 336.649 451.173C336.905 451.729 336.935 452.331 336.741 452.977C336.575 453.529 336.287 453.973 335.876 454.31C335.464 454.647 334.973 454.861 334.4 454.952C333.828 455.043 333.21 454.989 332.546 454.79ZM337.95 456.244L338.366 454.86L345.045 449.565L340.649 448.245L341.115 446.693L347.747 448.686L347.332 450.069L340.666 455.368L345.449 456.806L344.983 458.357L337.95 456.244Z" fill="black"/>
<path opacity="0.5" d="M240.775 452.679L243.669 443.046L247.25 444.122C247.905 444.319 248.446 444.613 248.873 445.005C249.312 445.39 249.605 445.854 249.752 446.397C249.902 446.93 249.88 447.52 249.686 448.167C249.486 448.831 249.157 449.347 248.699 449.717C248.248 450.089 247.723 450.307 247.121 450.37L248.17 454.901L246.18 454.303L245.083 449.364L246.019 450.378L243.601 449.652L242.533 453.207L240.775 452.679ZM244.068 448.1L245.916 448.655C246.235 448.751 246.529 448.774 246.798 448.723C247.07 448.664 247.304 448.541 247.5 448.356C247.697 448.171 247.839 447.931 247.927 447.638C248.018 447.337 248.031 447.059 247.967 446.805C247.905 446.542 247.775 446.315 247.579 446.124C247.385 445.925 247.129 445.777 246.81 445.682L244.961 445.126L244.068 448.1ZM250.498 455.6L253.391 445.967L259.791 447.89L259.325 449.442L254.684 448.047L253.942 450.517L258.325 451.834L257.858 453.385L253.476 452.068L252.722 454.577L257.364 455.971L256.897 457.523L250.498 455.6ZM261.159 458.803L261.467 448.394L263.354 448.961L262.918 457.781L262.427 457.633L267.013 450.06L268.836 450.608L268.477 459.451L267.986 459.304L272.482 451.703L274.369 452.27L268.89 461.126L266.874 460.52L267.141 451.888L267.71 452.059L263.176 459.409L261.159 458.803ZM272.412 462.184L278.628 453.55L280.904 454.233L281.333 464.864L279.419 464.289L279.356 462.015L275.632 460.896L274.313 462.755L272.412 462.184ZM276.602 459.496L279.317 460.311L279.155 455.033L279.646 455.18L276.602 459.496ZM283.58 465.539L286.473 455.906L290.055 456.982C290.71 457.179 291.251 457.473 291.678 457.865C292.117 458.25 292.41 458.714 292.557 459.256C292.707 459.79 292.685 460.38 292.49 461.027C292.291 461.69 291.962 462.207 291.503 462.577C291.053 462.949 290.527 463.167 289.926 463.231L290.975 467.761L288.984 467.163L287.888 462.224L288.824 463.238L286.406 462.511L285.338 466.067L283.58 465.539ZM286.872 460.96L288.721 461.516C289.04 461.611 289.334 461.634 289.603 461.583C289.874 461.524 290.109 461.402 290.305 461.216C290.502 461.031 290.644 460.792 290.732 460.499C290.823 460.197 290.836 459.919 290.771 459.664C290.709 459.402 290.58 459.175 290.384 458.984C290.19 458.785 289.933 458.638 289.614 458.542L287.766 457.986L286.872 460.96ZM293.303 468.46L296.196 458.827L299.338 459.771C300.355 460.077 301.176 460.549 301.802 461.188C302.438 461.821 302.855 462.562 303.051 463.41C303.25 464.25 303.207 465.144 302.922 466.092C302.64 467.032 302.182 467.805 301.548 468.414C300.917 469.014 300.16 469.407 299.277 469.593C298.406 469.772 297.461 469.71 296.444 469.404L293.303 468.46ZM295.527 467.437L296.949 467.864C297.604 468.061 298.209 468.097 298.763 467.972C299.329 467.841 299.818 467.575 300.23 467.172C300.645 466.761 300.951 466.224 301.151 465.56C301.353 464.888 301.393 464.27 301.271 463.707C301.149 463.144 300.886 462.657 300.484 462.244C300.09 461.834 299.565 461.531 298.91 461.335L297.488 460.907L295.527 467.437ZM307.441 472.877C306.828 472.693 306.293 472.41 305.835 472.028C305.385 471.648 305.03 471.204 304.77 470.693C304.521 470.177 304.391 469.625 304.379 469.039L306.03 468.844C306.097 469.466 306.302 470.002 306.646 470.453C306.993 470.896 307.441 471.199 307.993 471.365C308.303 471.459 308.585 471.491 308.837 471.464C309.101 471.43 309.319 471.345 309.492 471.209C309.673 471.076 309.8 470.889 309.872 470.647C309.958 470.363 309.941 470.104 309.823 469.871C309.717 469.632 309.511 469.411 309.205 469.206L307.535 468.056C306.855 467.598 306.396 467.079 306.156 466.5C305.917 465.92 305.892 465.316 306.081 464.687C306.246 464.135 306.526 463.688 306.92 463.346C307.323 463.007 307.801 462.793 308.353 462.705C308.917 462.612 309.514 462.659 310.143 462.848C310.72 463.022 311.219 463.285 311.64 463.636C312.063 463.979 312.392 464.384 312.628 464.85C312.875 465.309 313.013 465.806 313.04 466.341L311.398 466.552C311.353 466.013 311.18 465.557 310.879 465.184C310.58 464.803 310.18 464.537 309.681 464.387C309.388 464.299 309.113 464.273 308.858 464.309C308.605 464.337 308.388 464.421 308.204 464.564C308.031 464.7 307.909 464.889 307.836 465.13C307.756 465.397 307.771 465.66 307.881 465.919C307.994 466.169 308.21 466.403 308.53 466.621L310.134 467.709C310.826 468.189 311.296 468.707 311.543 469.26C311.799 469.816 311.83 470.418 311.636 471.064C311.47 471.616 311.182 472.06 310.77 472.397C310.359 472.734 309.867 472.948 309.295 473.039C308.722 473.13 308.104 473.076 307.441 472.877ZM318.073 476.071C317.383 475.864 316.782 475.547 316.272 475.121C315.769 474.698 315.365 474.196 315.061 473.615C314.764 473.038 314.586 472.411 314.526 471.735C314.466 471.059 314.543 470.364 314.758 469.648C314.973 468.933 315.288 468.308 315.702 467.775C316.127 467.235 316.621 466.81 317.184 466.5C317.758 466.184 318.374 465.994 319.033 465.928C319.694 465.854 320.37 465.921 321.059 466.128C321.748 466.335 322.33 466.637 322.803 467.032C323.285 467.431 323.657 467.881 323.919 468.383C324.185 468.876 324.331 469.376 324.357 469.882L322.559 470.145C322.523 469.608 322.336 469.12 321.998 468.68C321.663 468.231 321.189 467.915 320.577 467.731C319.974 467.55 319.397 467.532 318.846 467.676C318.304 467.824 317.828 468.108 317.42 468.531C317.02 468.955 316.718 469.504 316.517 470.176C316.315 470.849 316.262 471.477 316.36 472.061C316.468 472.638 316.708 473.138 317.079 473.559C317.459 473.984 317.951 474.286 318.554 474.468C319.166 474.652 319.734 474.653 320.258 474.472C320.785 474.283 321.211 473.974 321.537 473.545L322.893 474.756C322.592 475.164 322.194 475.505 321.698 475.779C321.205 476.044 320.648 476.21 320.026 476.277C319.413 476.347 318.762 476.278 318.073 476.071ZM329.26 479.432C328.57 479.225 327.97 478.908 327.459 478.482C326.956 478.059 326.553 477.557 326.248 476.977C325.951 476.399 325.773 475.772 325.713 475.096C325.653 474.42 325.731 473.724 325.946 473.009C326.161 472.294 326.475 471.669 326.889 471.136C327.314 470.596 327.808 470.171 328.371 469.861C328.945 469.545 329.562 469.354 330.22 469.289C330.882 469.215 331.557 469.282 332.246 469.489C332.936 469.696 333.517 469.998 333.99 470.394C334.472 470.792 334.844 471.242 335.107 471.744C335.372 472.237 335.518 472.737 335.545 473.243L333.746 473.506C333.71 472.969 333.523 472.481 333.185 472.041C332.85 471.592 332.377 471.276 331.765 471.092C331.161 470.911 330.584 470.893 330.033 471.037C329.491 471.185 329.016 471.469 328.607 471.891C328.207 472.316 327.906 472.865 327.704 473.538C327.502 474.21 327.449 474.838 327.547 475.421C327.655 475.999 327.895 476.499 328.266 476.92C328.646 477.345 329.138 477.648 329.741 477.829C330.353 478.013 330.921 478.014 331.445 477.833C331.972 477.644 332.399 477.335 332.725 476.906L334.08 478.117C333.78 478.525 333.381 478.866 332.885 479.14C332.392 479.405 331.835 479.571 331.213 479.638C330.6 479.708 329.949 479.639 329.26 479.432ZM335.18 481.042L341.396 472.407L343.672 473.091L344.101 483.722L342.187 483.147L342.124 480.872L338.4 479.753L337.081 481.612L335.18 481.042ZM339.37 478.353L342.085 479.169L341.923 473.891L342.414 474.038L339.37 478.353ZM346.348 484.397L349.241 474.764L352.835 475.844C353.49 476.041 354.031 476.335 354.459 476.726C354.897 477.112 355.19 477.576 355.338 478.118C355.488 478.652 355.465 479.242 355.271 479.888C355.08 480.526 354.768 481.03 354.338 481.398C353.919 481.761 353.423 481.988 352.851 482.079C352.279 482.17 351.665 482.118 351.01 481.921L349.174 481.369L348.106 484.925L346.348 484.397ZM349.64 479.818L351.502 480.377C351.821 480.473 352.115 480.495 352.384 480.445C352.655 480.385 352.889 480.263 353.086 480.077C353.282 479.892 353.425 479.653 353.513 479.36C353.604 479.058 353.616 478.78 353.552 478.526C353.49 478.263 353.361 478.036 353.164 477.846C352.97 477.646 352.714 477.499 352.395 477.403L350.534 476.844L349.64 479.818ZM355.906 487.268L358.8 477.636L360.558 478.164L357.665 487.797L355.906 487.268Z" fill="black"/>
<mask id="mask3_99_415" style="mask-type:luminance" maskUnits="userSpaceOnUse" x="485" y="275" width="194" height="123">
<path d="M678.918 327.594L506.769 275.876L485.791 345.718L657.94 397.436L678.918 327.594Z" fill="white"/>
</mask>
<g mask="url(#mask3_99_415)">
<path d="M513.396 305.724C512.371 305.416 511.27 305.811 510.095 306.908C508.919 308.005 508.056 309.469 507.507 311.299L504.16 322.442L507.111 323.329L506.886 324.077L493.915 320.18L494.139 319.432L496.426 320.119L501.922 301.823L499.635 301.136L499.86 300.388L509.88 303.399L508.68 307.39C509.465 306.084 510.483 305.212 511.733 304.771C512.992 304.303 514.273 304.265 515.576 304.656C516.878 305.048 517.819 305.738 518.398 306.728C519.013 307.699 519.117 308.863 518.709 310.221C518.309 311.552 517.696 312.486 516.87 313.024C516.043 313.561 514.993 313.638 513.718 313.255C512.47 312.881 511.667 312.186 511.307 311.171C510.975 310.165 511.251 308.993 512.136 307.657L513.632 308.107C514.75 306.902 514.671 306.107 513.396 305.724ZM525.431 330.102C521.856 329.028 519.442 327.305 518.19 324.934C516.974 322.544 516.857 319.714 517.84 316.443C518.83 313.144 520.585 310.921 523.106 309.774C525.654 308.636 528.48 308.533 531.584 309.466C537.876 311.356 539.948 315.423 537.8 321.669L526.076 318.146L525.589 319.768C524.773 322.485 524.503 324.64 524.78 326.234C525.056 327.829 526.054 328.883 527.772 329.4C530.987 330.366 533.61 329.28 535.641 326.142L536.352 326.492C535.225 328.33 533.803 329.595 532.084 330.287C530.393 330.988 528.175 330.926 525.431 330.102ZM526.367 317.327L530.649 318.614L531.262 316.576C531.936 314.331 532.255 312.765 532.219 311.878C532.22 310.971 531.818 310.397 531.014 310.156C530.238 309.923 529.523 310.191 528.868 310.962C528.25 311.713 527.62 313.155 526.979 315.29L526.367 317.327ZM555.064 317.789L555.288 317.041L566.014 320.263L565.791 321.012L564.088 320.499L563.621 335.636L571.528 322.735L568.66 321.873L568.883 321.125L574.496 322.811L574.273 323.559L572.525 323.035L561.819 340.58L556.123 338.869L556.338 325.017L548.596 336.608L543.025 334.934L542.592 314.042L540.721 313.48L540.945 312.731L553.543 316.516L553.316 317.264L550.824 316.515L550.402 331.801L556.317 322.971L556.602 318.251L555.064 317.789ZM581.25 335.765L582.457 336.127L583.416 332.925C584.21 330.292 584.586 328.486 584.545 327.507C584.545 326.509 584.127 325.886 583.297 325.636C582.796 325.486 582.296 325.487 581.8 325.639C581.337 325.772 581.031 326.074 580.891 326.545C580.759 326.989 580.705 327.471 580.73 327.993L581.767 328.305C581.817 328.954 581.713 329.694 581.465 330.526C581.222 331.329 580.664 331.932 579.787 332.334C578.919 332.708 577.96 332.736 576.906 332.42C574.521 331.704 573.678 330.195 574.368 327.895C575.393 324.485 578.799 323.65 584.595 325.391C587.893 326.382 589.993 327.633 590.898 329.144C591.841 330.636 591.861 332.879 590.964 335.872L588.426 344.313C587.996 345.755 588.182 346.596 588.984 346.838C589.927 347.12 590.911 345.86 591.936 343.054L592.543 343.283C591.7 345.689 590.741 347.229 589.662 347.902C588.583 348.576 587.128 348.638 585.301 348.088C581.974 347.089 580.37 345.488 580.486 343.287C579.812 344.232 579.035 344.846 578.167 345.129C577.295 345.411 576.166 345.344 574.781 344.928C570.681 343.695 569.131 341.402 570.14 338.048C570.731 336.08 571.909 334.969 573.678 334.714C575.484 334.44 578.006 334.79 581.25 335.765ZM578.051 340.38C577.617 341.821 577.41 342.77 577.423 343.228C577.464 343.694 577.691 343.989 578.109 344.114C578.551 344.247 579.056 344.021 579.626 343.437C580.229 342.832 580.721 341.907 581.093 340.659L582.255 336.793L581.966 336.705C580.246 336.189 579.01 337.192 578.25 339.714L578.051 340.38ZM610.962 335.035C609.937 334.727 608.834 335.122 607.66 336.219C606.486 337.316 605.622 338.78 605.072 340.609L601.724 351.753L604.675 352.64L604.452 353.388L591.481 349.491L591.704 348.743L593.99 349.43L599.488 331.134L597.202 330.447L597.425 329.699L607.445 332.709L606.246 336.701C607.031 335.395 608.048 334.523 609.297 334.082C610.557 333.614 611.839 333.576 613.141 333.967C614.443 334.358 615.385 335.049 615.964 336.039C616.58 337.01 616.683 338.174 616.274 339.532C615.873 340.863 615.261 341.797 614.434 342.335C613.608 342.872 612.558 342.949 611.285 342.566C610.036 342.191 609.23 341.497 608.871 340.482C608.54 339.476 608.817 338.304 609.702 336.968L611.198 337.418C612.314 336.213 612.235 335.418 610.962 335.035ZM629.088 348.771C629.133 348.622 629.224 348.324 629.357 347.878C629.497 347.417 629.638 346.892 629.786 346.302C629.939 345.698 630.08 345.055 630.212 344.371C630.344 343.688 630.419 343.039 630.444 342.426C630.245 341.909 629.989 341.427 629.679 340.98C629.39 340.524 628.935 340.202 628.311 340.015C627.257 339.698 626.269 340.154 625.355 341.385C624.454 342.619 623.565 344.684 622.697 347.581C622.313 348.853 622.02 350.033 621.809 351.122C621.614 352.214 621.519 353.174 621.519 354.001C621.536 354.832 621.664 355.512 621.904 356.041C622.156 356.575 622.54 356.919 623.053 357.073C625.219 357.724 627.232 354.956 629.088 348.771ZM631.531 339.764C631.68 338.334 631.696 336.967 631.589 335.665C631.481 334.349 631.229 333.167 630.836 332.12C630.456 331.076 629.927 330.186 629.249 329.451C628.584 328.719 627.778 328.212 626.831 327.927C626.289 327.764 625.773 327.684 625.285 327.685C624.814 327.69 624.384 327.739 624.004 327.831C623.627 327.909 623.301 328.004 623.032 328.115C622.78 328.216 622.594 328.293 622.474 328.346L622.16 327.477C622.611 327.155 623.123 326.88 623.694 326.653C624.276 326.43 624.884 326.273 625.517 326.182C626.149 326.092 626.79 326.064 627.447 326.098C628.112 326.136 628.749 326.246 629.361 326.43C631.361 327.031 632.99 328 634.242 329.335C635.495 330.657 636.392 332.268 636.929 334.17C637.462 336.072 637.648 338.231 637.483 340.646C637.318 343.061 636.822 345.649 635.991 348.41C635.321 350.643 634.503 352.537 633.536 354.09C632.581 355.648 631.51 356.876 630.324 357.775C629.146 358.66 627.864 359.212 626.484 359.432C625.124 359.643 623.689 359.522 622.189 359.071C621.147 358.758 620.139 358.256 619.167 357.565C618.213 356.865 617.419 355.963 616.791 354.86C616.179 353.76 615.799 352.451 615.65 350.93C615.505 349.397 615.728 347.642 616.324 345.666C616.836 343.96 617.526 342.516 618.399 341.331C619.283 340.151 620.271 339.23 621.354 338.567C622.441 337.891 623.59 337.476 624.806 337.323C626.021 337.157 627.224 337.253 628.414 337.611C628.873 337.749 629.274 337.914 629.617 338.105C629.96 338.282 630.254 338.466 630.489 338.655C630.729 338.845 630.927 339.038 631.093 339.234C631.258 339.417 631.403 339.594 631.531 339.764ZM634.941 363.002L637.177 355.559L637.677 355.709C637.673 358.337 638.136 360.319 639.062 361.656C639.992 362.993 641.369 363.936 643.2 364.485C646.027 365.335 647.709 364.858 648.251 363.056C648.487 362.28 648.313 361.594 647.738 360.998C646.841 360.063 645.597 359.176 644.006 358.335C642.27 357.27 640.889 356.13 639.864 354.915C638.64 353.459 638.351 351.65 639 349.488C639.649 347.326 640.831 345.807 642.547 344.932C644.266 344.029 646.238 343.91 648.454 344.576C649.813 344.984 651.116 345.724 652.368 346.794C652.827 347.174 653.195 347.406 653.472 347.489C653.749 347.572 654.013 347.546 654.265 347.411C654.517 347.275 654.865 346.985 655.299 346.542L655.753 346.679L653.844 353.041L653.348 352.891C653.013 348.863 651.368 346.403 648.4 345.512C647.098 345.121 646.056 345.065 645.279 345.344C644.506 345.597 644.018 346.069 643.807 346.762C643.683 347.178 643.683 347.54 643.799 347.848C643.927 348.127 644.031 348.34 644.109 348.484C644.184 348.628 644.328 348.807 644.535 349.02C644.754 349.206 644.932 349.366 645.072 349.499C645.221 349.604 645.448 349.762 645.746 349.973C646.073 350.192 646.316 350.341 646.474 350.418C648.218 351.456 649.45 352.28 650.173 352.89C650.905 353.472 651.57 354.125 652.17 354.849C653.377 356.361 653.625 358.294 652.918 360.65C652.219 362.979 650.996 364.545 649.243 365.348C647.499 366.124 645.419 366.149 643.01 365.425C641.29 364.908 639.748 364.007 638.38 362.72C638.116 362.398 637.884 362.209 637.69 362.15C637.082 361.967 636.33 362.301 635.441 363.151L634.941 363.002Z" fill="#0C3636"/>
<path d="M566.503 366.865C565.882 366.678 565.329 366.402 564.853 366.038C564.386 365.668 564.01 365.237 563.725 364.743C563.452 364.244 563.283 363.704 563.216 363.124C563.154 362.544 563.212 361.95 563.394 361.342C563.58 360.733 563.857 360.205 564.229 359.756C564.601 359.307 565.043 358.955 565.552 358.7C566.064 358.438 566.618 358.285 567.209 358.241C567.8 358.19 568.412 358.259 569.045 358.449C569.714 358.65 570.293 358.951 570.777 359.351C571.26 359.744 571.628 360.223 571.872 360.79L570.615 361.419C570.413 361.01 570.152 360.673 569.834 360.407C569.516 360.134 569.144 359.932 568.714 359.803C568.284 359.674 567.871 359.626 567.47 359.659C567.077 359.694 566.709 359.8 566.366 359.978C566.031 360.158 565.738 360.401 565.486 360.707C565.242 361.016 565.056 361.381 564.928 361.802C564.799 362.223 564.754 362.63 564.791 363.023C564.833 363.418 564.944 363.783 565.126 364.118C565.312 364.454 565.56 364.746 565.87 364.992C566.184 365.24 566.556 365.428 566.986 365.557C567.416 365.686 567.838 365.727 568.251 365.681C568.664 365.628 569.069 365.482 569.466 365.243L570.165 366.474C569.652 366.803 569.082 367.002 568.458 367.07C567.834 367.137 567.185 367.069 566.503 366.865ZM571.43 368.218L573.306 361.973L574.699 362.392L574.183 364.11L574.17 363.559C574.484 363.194 574.873 362.962 575.336 362.863C575.807 362.767 576.34 362.808 576.94 362.988L576.522 364.38C576.464 364.346 576.411 364.32 576.353 364.304C576.303 364.28 576.249 364.26 576.196 364.243C575.642 364.077 575.15 364.108 574.724 364.337C574.303 364.559 573.992 364.989 573.802 365.628L572.893 368.657L571.43 368.218ZM579.461 370.72C578.767 370.512 578.2 370.193 577.762 369.763C577.332 369.327 577.043 368.825 576.903 368.255C576.766 367.687 576.791 367.096 576.977 366.48C577.163 365.856 577.465 365.347 577.878 364.954C578.304 364.554 578.8 364.291 579.366 364.164C579.941 364.038 580.54 364.069 581.16 364.257C581.768 364.44 582.272 364.735 582.669 365.143C583.061 365.55 583.326 366.037 583.454 366.602C583.582 367.168 583.545 367.778 583.351 368.433C583.33 368.495 583.305 368.564 583.276 368.64C583.252 368.718 583.227 368.79 583.198 368.858L577.994 367.295L578.283 366.325L582.714 367.656L582.053 367.788C582.169 367.432 582.189 367.094 582.115 366.774C582.04 366.454 581.892 366.175 581.664 365.938C581.445 365.702 581.16 365.531 580.809 365.426C580.453 365.318 580.114 365.301 579.792 365.375C579.482 365.452 579.205 365.607 578.965 365.841C578.734 366.069 578.564 366.37 578.453 366.745L578.382 366.978C578.267 367.353 578.254 367.71 578.341 368.05C578.424 368.389 578.601 368.684 578.866 368.934C579.13 369.184 579.465 369.369 579.87 369.491C580.222 369.597 580.552 369.637 580.867 369.612C581.181 369.587 581.482 369.49 581.768 369.322L582.28 370.458C581.904 370.701 581.474 370.848 580.991 370.898C580.515 370.943 580.007 370.884 579.461 370.72ZM586.769 372.915C586.17 372.735 585.666 372.44 585.265 372.029C584.868 371.614 584.607 371.127 584.479 370.569C584.347 370.012 584.38 369.409 584.574 368.762C584.769 368.115 585.075 367.595 585.488 367.201C585.905 366.808 586.389 366.55 586.947 366.428C587.509 366.308 588.088 366.338 588.691 366.518C589.212 366.675 589.646 366.933 589.989 367.291C590.332 367.641 590.556 368.086 590.659 368.627C590.758 369.167 590.7 369.804 590.481 370.536C590.262 371.261 589.964 371.827 589.588 372.232C589.212 372.63 588.782 372.883 588.299 372.993C587.819 373.103 587.307 373.077 586.769 372.915ZM587.319 371.717C587.67 371.822 588.005 371.838 588.328 371.764C588.654 371.692 588.943 371.533 589.196 371.286C589.456 371.041 589.646 370.72 589.766 370.322C589.886 369.917 589.907 369.544 589.82 369.204C589.745 368.859 589.592 368.566 589.357 368.325C589.134 368.088 588.844 367.916 588.493 367.811C588.142 367.705 587.803 367.688 587.476 367.76C587.158 367.834 586.864 367.993 586.604 368.238C586.356 368.477 586.17 368.8 586.046 369.205C585.926 369.603 585.905 369.974 585.98 370.32C586.062 370.667 586.215 370.96 586.443 371.198C586.678 371.438 586.968 371.611 587.319 371.717ZM588.865 373.455L589.307 371.981L589.861 370.339L590.246 368.643L591.411 364.76L592.862 365.196L590.254 373.873L588.865 373.455ZM592.502 374.549L594.379 368.304L595.842 368.743L593.966 374.988L592.502 374.549ZM595.425 367.496C595.152 367.414 594.95 367.261 594.826 367.035C594.706 366.812 594.681 366.58 594.751 366.338C594.83 366.089 594.974 365.908 595.198 365.795C595.425 365.678 595.677 365.66 595.95 365.742C596.223 365.824 596.421 365.972 596.545 366.188C596.677 366.398 596.706 366.623 596.636 366.865C596.557 367.122 596.405 367.315 596.181 367.442C595.958 367.563 595.706 367.58 595.425 367.496ZM598.533 376.45C597.847 376.244 597.372 375.909 597.103 375.446C596.834 374.974 596.805 374.392 597.016 373.698L598.699 368.097L600.158 368.536L598.488 374.102C598.397 374.399 598.401 374.651 598.5 374.859C598.608 375.07 598.798 375.216 599.071 375.298C599.397 375.396 599.699 375.392 599.968 375.287L600.063 376.45C599.848 376.539 599.608 376.581 599.335 376.576C599.067 376.571 598.798 376.529 598.533 376.45ZM596.888 370.384L597.239 369.214L601.402 370.465L601.051 371.634L596.888 370.384ZM608.937 379.614C608.313 379.427 607.764 379.151 607.288 378.786C606.821 378.417 606.445 377.985 606.16 377.491C605.887 376.992 605.717 376.453 605.651 375.872C605.589 375.292 605.647 374.698 605.829 374.09C606.011 373.482 606.292 372.953 606.664 372.504C607.036 372.055 607.478 371.704 607.987 371.449C608.499 371.186 609.053 371.033 609.644 370.99C610.235 370.938 610.847 371.008 611.48 371.197C612.149 371.399 612.728 371.7 613.211 372.1C613.695 372.492 614.063 372.972 614.307 373.539L613.046 374.168C612.848 373.759 612.587 373.422 612.269 373.156C611.951 372.882 611.579 372.681 611.149 372.552C610.719 372.423 610.306 372.375 609.905 372.407C609.512 372.442 609.144 372.549 608.801 372.726C608.466 372.906 608.173 373.149 607.921 373.456C607.673 373.764 607.487 374.129 607.363 374.55C607.234 374.971 607.189 375.378 607.226 375.771C607.267 376.167 607.379 376.532 607.557 376.866C607.747 377.203 607.995 377.494 608.305 377.74C608.619 377.988 608.991 378.177 609.421 378.305C609.851 378.434 610.273 378.476 610.686 378.43C611.099 378.376 611.504 378.23 611.901 377.991L612.6 379.222C612.087 379.552 611.517 379.75 610.893 379.818C610.268 379.886 609.615 379.818 608.937 379.614ZM617.655 382.105L618.035 380.842V380.549L618.697 378.338C618.825 377.91 618.796 377.54 618.61 377.228C618.428 376.91 618.073 376.671 617.552 376.515C617.2 376.409 616.837 376.36 616.46 376.366C616.093 376.374 615.762 376.441 615.468 376.565L615.216 375.329C615.63 375.172 616.084 375.101 616.58 375.114C617.089 375.122 617.593 375.201 618.089 375.351C618.994 375.623 619.627 376.051 619.986 376.635C620.358 377.213 620.408 377.955 620.135 378.86L619.036 382.52L617.655 382.105ZM615.667 381.597C615.2 381.456 614.815 381.256 614.509 380.994C614.208 380.725 614.001 380.421 613.889 380.082C613.79 379.737 613.794 379.385 613.902 379.027C614.009 378.676 614.183 378.385 614.431 378.153C614.687 377.924 615.03 377.785 615.464 377.736C615.894 377.687 616.423 377.757 617.056 377.947L618.87 378.492L618.577 379.462L616.87 378.949C616.369 378.8 616.01 378.781 615.791 378.893C615.572 378.997 615.427 379.166 615.357 379.4C615.278 379.665 615.32 379.908 615.485 380.127C615.646 380.346 615.915 380.511 616.291 380.624C616.651 380.732 616.994 380.746 617.324 380.666C617.659 380.59 617.94 380.41 618.159 380.128L618.143 381.079C617.891 381.403 617.552 381.611 617.126 381.704C616.708 381.799 616.221 381.763 615.667 381.597ZM621.235 383.181L623.111 376.936L624.504 377.354L623.988 379.073L623.975 378.521C624.289 378.156 624.678 377.924 625.141 377.826C625.612 377.729 626.145 377.771 626.745 377.951L626.327 379.343C626.269 379.308 626.216 379.283 626.162 379.267C626.108 379.243 626.054 379.223 626.001 379.206C625.447 379.04 624.955 379.071 624.529 379.3C624.107 379.521 623.802 379.952 623.607 380.591L622.698 383.62L621.235 383.181ZM628.977 385.595C628.373 385.415 627.873 385.119 627.468 384.709C627.075 384.293 626.815 383.807 626.683 383.249C626.555 382.692 626.588 382.089 626.782 381.442C626.976 380.795 627.278 380.275 627.695 379.881C628.113 379.487 628.597 379.23 629.15 379.108C629.713 378.988 630.295 379.018 630.895 379.198C631.42 379.355 631.85 379.612 632.193 379.97C632.54 380.321 632.763 380.766 632.862 381.306C632.966 381.847 632.904 382.483 632.685 383.216C632.465 383.941 632.172 384.507 631.792 384.912C631.42 385.309 630.99 385.563 630.506 385.673C630.023 385.783 629.514 385.757 628.977 385.595ZM629.527 384.397C629.878 384.502 630.213 384.517 630.531 384.444C630.858 384.372 631.151 384.213 631.403 383.965C631.664 383.721 631.854 383.399 631.974 383.002C632.093 382.597 632.114 382.224 632.027 381.884C631.953 381.538 631.8 381.246 631.564 381.005C631.337 380.767 631.052 380.596 630.701 380.49C630.349 380.385 630.01 380.368 629.684 380.44C629.361 380.514 629.072 380.673 628.811 380.918C628.563 381.157 628.377 381.48 628.253 381.885C628.134 382.282 628.113 382.654 628.187 382.999C628.27 383.347 628.423 383.64 628.65 383.878C628.882 384.118 629.175 384.291 629.527 384.397ZM631.068 386.135L631.511 384.662L632.069 383.018L632.449 381.323L633.619 377.44L635.065 377.876L632.461 386.553L631.068 386.135ZM637.248 387.991L643.39 380.912L644.887 381.361L646.123 390.658L644.535 390.18L643.581 381.849L644.188 382.032L638.815 388.462L637.248 387.991ZM639.513 386.606L640.282 385.536L644.701 386.864L644.75 388.18L639.513 386.606ZM647.491 391.068L649.946 382.882L653.315 383.893C654.043 384.111 654.625 384.414 655.068 384.803C655.522 385.194 655.824 385.65 655.973 386.17C656.122 386.691 656.105 387.252 655.927 387.853C655.746 388.453 655.448 388.929 655.039 389.281C654.625 389.633 654.125 389.848 653.53 389.925C652.947 390.004 652.29 389.935 651.567 389.717L649.041 388.959L649.934 388.449L649.008 391.525L647.491 391.068ZM649.884 388.613L649.425 387.672L651.885 388.41C652.555 388.612 653.1 388.622 653.518 388.442C653.947 388.257 654.241 387.907 654.394 387.392C654.551 386.87 654.501 386.417 654.241 386.033C653.989 385.652 653.53 385.36 652.86 385.159L650.405 384.421L651.306 383.877L649.884 388.613ZM656.184 393.68L658.643 385.494L660.164 385.951L657.705 394.137L656.184 393.68Z" fill="#7F56D9"/>
</g>
<path d="M855.199 774.403C853.954 766.671 853.946 763.079 863.346 762.515C867.165 762.286 870.244 764.562 873.752 762.537C877.255 760.515 877.786 754.158 878.715 750.691C879.768 746.762 887.326 749.831 887.072 745.609" stroke="black" stroke-width="4" stroke-linecap="round"/>
<path d="M247 159.077C248.449 161.896 253.177 174.833 258.58 172.885C260.517 172.186 261.721 168.466 261.941 166.599C262.156 164.772 261.326 162.632 261.034 160.833C260.89 159.945 259.709 157.729 260.482 158.191C263.484 159.982 267.781 170.647 271.184 170.292C274.765 169.919 276.507 161.94 276.16 159.095C275.919 157.114 274.724 151.307 275.498 153.146C277.226 157.252 279.347 165.981 283.981 167.779C289.997 170.111 297.133 164.627 301.303 161.364" stroke="black" stroke-width="4" stroke-linecap="round"/>
<defs>
<filter id="filter0_f_99_415" x="0.209106" y="0.702393" width="952.066" height="983.672" filterUnits="userSpaceOnUse" color-interpolation-filters="sRGB">
<feFlood flood-opacity="0" result="BackgroundImageFix"/>
<feBlend mode="normal" in="SourceGraphic" in2="BackgroundImageFix" result="shape"/>
<feGaussianBlur stdDeviation="105" result="effect1_foregroundBlur_99_415"/>
</filter>
<filter id="filter1_f_99_415" x="-522.366" y="-396.94" width="1885.79" height="1885.81" filterUnits="userSpaceOnUse" color-interpolation-filters="sRGB">
<feFlood flood-opacity="0" result="BackgroundImageFix"/>
<feBlend mode="normal" in="SourceGraphic" in2="BackgroundImageFix" result="shape"/>
<feGaussianBlur stdDeviation="420.038" result="effect1_foregroundBlur_99_415"/>
</filter>
<filter id="filter2_f_99_415" x="-110.45" y="-244.435" width="1885.79" height="1885.81" filterUnits="userSpaceOnUse" color-interpolation-filters="sRGB">
<feFlood flood-opacity="0" result="BackgroundImageFix"/>
<feBlend mode="normal" in="SourceGraphic" in2="BackgroundImageFix" result="shape"/>
<feGaussianBlur stdDeviation="420.038" result="effect1_foregroundBlur_99_415"/>
</filter>
<filter id="filter3_d_99_415" x="23.5939" y="154.088" width="861.321" height="752.002" filterUnits="userSpaceOnUse" color-interpolation-filters="sRGB">
<feFlood flood-opacity="0" result="BackgroundImageFix"/>
<feColorMatrix in="SourceAlpha" type="matrix" values="0 0 0 0 0 0 0 0 0 0 0 0 0 0 0 0 0 0 127 0" result="hardAlpha"/>
<feOffset dy="126.012"/>
<feGaussianBlur stdDeviation="91.0083"/>
<feComposite in2="hardAlpha" operator="out"/>
<feColorMatrix type="matrix" values="0 0 0 0 0.1375 0 0 0 0 0.155242 0 0 0 0 0.4125 0 0 0 0.08 0"/>
<feBlend mode="normal" in2="BackgroundImageFix" result="effect1_dropShadow_99_415"/>
<feBlend mode="normal" in="SourceGraphic" in2="effect1_dropShadow_99_415" result="shape"/>
</filter>
<filter id="filter4_f_99_415" x="-724.615" y="-773.472" width="2026.03" height="2026.06" filterUnits="userSpaceOnUse" color-interpolation-filters="sRGB">
<feFlood flood-opacity="0" result="BackgroundImageFix"/>
<feBlend mode="normal" in="SourceGraphic" in2="BackgroundImageFix" result="shape"/>
<feGaussianBlur stdDeviation="451.27" result="effect1_foregroundBlur_99_415"/>
</filter>
<filter id="filter5_f_99_415" x="-395.734" y="-435.025" width="2026.03" height="2026.06" filterUnits="userSpaceOnUse" color-interpolation-filters="sRGB">
<feFlood flood-opacity="0" result="BackgroundImageFix"/>
<feBlend mode="normal" in="SourceGraphic" in2="BackgroundImageFix" result="shape"/>
<feGaussianBlur stdDeviation="451.27" result="effect1_foregroundBlur_99_415"/>
</filter>
<linearGradient id="paint0_linear_99_415" x1="597.863" y1="689.449" x2="455.948" y2="292.105" gradientUnits="userSpaceOnUse">
<stop stop-color="#44BCFF"/>
<stop offset="0.234375" stop-color="#44B0FF"/>
<stop offset="0.489583" stop-color="#FF44EC"/>
<stop offset="0.739583" stop-color="#FF44EC"/>
<stop offset="1" stop-color="#FF675E"/>
</linearGradient>
<linearGradient id="paint1_linear_99_415" x1="719.7" y1="735.544" x2="384.392" y2="503.027" gradientUnits="userSpaceOnUse">
<stop offset="0.507336"/>
<stop offset="1" stop-opacity="0"/>
</linearGradient>
<linearGradient id="paint2_linear_99_415" x1="475.395" y1="605.568" x2="486.621" y2="678.218" gradientUnits="userSpaceOnUse">
<stop stop-color="#F3EC58"/>
<stop offset="0.4" stop-color="#F6CA45"/>
<stop offset="0.77" stop-color="#F9B036"/>
<stop offset="1" stop-color="#FAA631"/>
</linearGradient>
<linearGradient id="paint3_linear_99_415" x1="490.812" y1="561.792" x2="273.229" y2="181.202" gradientUnits="userSpaceOnUse">
<stop offset="0.507336" stop-color="white"/>
<stop offset="1" stop-color="white" stop-opacity="0"/>
</linearGradient>
<linearGradient id="paint4_linear_99_415" x1="314.033" y1="322.733" x2="291.309" y2="398.37" gradientUnits="userSpaceOnUse">
<stop stop-color="#F3EC58"/>
<stop offset="0.4" stop-color="#F6CA45"/>
<stop offset="0.77" stop-color="#F9B036"/>
<stop offset="1" stop-color="#FAA631"/>
</linearGradient>
</defs>
</svg>
