<svg width="1813" height="736" viewBox="0 0 1813 736" fill="none" xmlns="http://www.w3.org/2000/svg">
<path d="M150.623 269.26C139.822 269.26 130.335 276.27 122.162 290.292C113.989 304.314 109.902 320.964 109.902 340.244V457.676H140.99V465.563H4.37842V457.676H28.4605V264.878H4.37842V256.991H109.902V299.056C113.696 284.158 120.994 272.765 131.795 264.878C142.595 256.699 154.855 252.609 168.575 252.609C182.294 252.609 193.386 256.552 201.852 264.44C210.609 272.035 214.987 282.989 214.987 297.303C214.987 311.325 211.776 322.133 205.355 329.728C198.933 337.323 189.008 341.121 175.58 341.121C162.445 341.121 152.666 336.739 146.244 327.975C140.114 319.212 139.384 307.089 144.055 291.607H159.818C167.115 276.709 164.05 269.26 150.623 269.26ZM337.608 469.945C299.952 469.945 271.638 460.305 252.664 441.025C233.982 421.454 224.641 394.431 224.641 359.962C224.641 325.2 235.149 298.617 256.166 280.214C277.475 261.811 304.477 252.609 337.17 252.609C403.433 252.609 435.25 285.91 432.623 352.513H309.147V369.602C309.147 398.231 312.796 419.845 320.094 434.452C327.391 449.059 340.089 456.361 358.187 456.361C392.049 456.361 414.233 438.249 424.741 402.027L432.623 403.342C427.078 424.374 417.007 440.734 402.411 452.417C388.108 464.101 366.506 469.945 337.608 469.945ZM309.585 343.75H354.684V322.279C354.684 298.617 353.224 282.551 350.306 274.08C347.679 265.316 342.133 260.934 333.667 260.934C325.494 260.934 319.364 265.608 315.277 274.956C311.482 284.011 309.585 299.786 309.585 322.279V343.75ZM588.134 264.878V256.991H701.101V264.878H683.148L722.556 412.543L761.525 264.878H731.313V256.991H790.423V264.878H772.033L719.491 465.563H659.504L621.411 331.043L580.252 465.563H521.579L456.777 264.878H437.073V256.991H569.744V264.878H543.472L583.755 413.858L615.281 311.325L604.334 264.878H588.134ZM893.244 362.591H905.942V328.852C905.942 301.1 904.338 282.551 901.126 273.203C898.208 263.563 892.369 258.743 883.612 258.743C878.357 258.743 873.541 260.204 869.162 263.125C865.075 265.754 863.032 269.552 863.032 274.518C863.032 279.191 863.908 284.011 865.659 288.978H876.606C878.942 295.112 880.109 302.561 880.109 311.325C880.109 319.796 876.459 327.245 869.162 333.672C861.866 339.806 852.671 342.873 841.577 342.873C816.472 342.873 803.922 330.751 803.922 306.505C803.922 270.574 834.425 252.609 895.434 252.609C930.172 252.609 954.106 258.597 967.242 270.574C980.669 282.259 987.384 303.876 987.384 335.424V424.374C987.384 439.563 991.615 447.159 1000.08 447.159C1010.01 447.159 1015.84 432.114 1017.6 402.027L1024.16 402.465C1023 428.171 1018.18 445.845 1009.71 455.485C1001.25 465.125 987.384 469.945 968.118 469.945C933.089 469.945 912.948 459.137 907.694 437.519C903.9 448.621 898.208 456.799 890.617 462.057C883.027 467.315 871.937 469.945 857.34 469.945C814.139 469.945 792.537 452.27 792.537 416.925C792.537 396.184 800.71 382.018 817.057 374.422C833.696 366.535 859.092 362.591 893.244 362.591ZM875.73 416.487C875.73 431.676 876.459 441.463 877.919 445.845C879.671 450.227 882.736 452.417 887.114 452.417C891.784 452.417 896.019 448.765 899.812 441.463C903.9 433.867 905.942 423.498 905.942 410.353V369.602H902.877C884.778 369.602 875.73 382.895 875.73 409.476V416.487ZM1178.13 269.26C1167.33 269.26 1157.84 276.27 1149.67 290.292C1141.5 304.314 1137.41 320.964 1137.41 340.244V457.676H1168.5V465.563H1031.89V457.676H1055.97V264.878H1031.89V256.991H1137.41V299.056C1141.2 284.158 1148.5 272.765 1159.3 264.878C1170.1 256.699 1182.36 252.609 1196.08 252.609C1209.8 252.609 1220.89 256.552 1229.36 264.44C1238.12 272.035 1242.5 282.989 1242.5 297.303C1242.5 311.325 1239.28 322.133 1232.86 329.728C1226.44 337.323 1216.52 341.121 1203.09 341.121C1189.95 341.121 1180.17 336.739 1173.75 327.975C1167.62 319.212 1166.89 307.089 1171.56 291.607H1187.33C1194.62 276.709 1191.56 269.26 1178.13 269.26ZM1393.1 349.384C1393.1 347.816 1393.1 344.681 1393.1 339.972C1393.1 335.122 1392.96 329.631 1392.67 323.498C1392.39 317.222 1391.89 310.589 1391.18 303.6C1390.46 296.611 1389.33 290.121 1387.76 284.13C1384.34 279.708 1380.49 275.786 1376.21 272.363C1372.08 268.797 1366.73 267.014 1360.18 267.014C1349.06 267.014 1340.86 274.288 1335.59 288.837C1330.46 303.386 1327.9 325.922 1327.9 356.446C1327.9 369.855 1328.46 382.121 1329.61 393.246C1330.89 404.372 1332.74 413.93 1335.16 421.916C1337.73 429.903 1340.94 436.109 1344.78 440.532C1348.78 444.951 1353.48 447.163 1358.89 447.163C1381.7 447.163 1393.1 414.57 1393.1 349.384ZM1390.54 255.246C1387.83 240.983 1384.05 227.718 1379.21 215.451C1374.36 203.042 1368.51 192.344 1361.67 183.358C1354.97 174.372 1347.28 167.312 1338.58 162.177C1330.03 157.042 1320.77 154.474 1310.79 154.474C1305.09 154.474 1299.89 155.187 1295.18 156.614C1290.62 158.04 1286.63 159.752 1283.21 161.749C1279.79 163.603 1276.94 165.457 1274.66 167.312C1272.52 169.023 1270.95 170.307 1269.96 171.163L1264.4 163.674C1267.82 159.253 1271.95 155.116 1276.8 151.265C1281.78 147.414 1287.2 144.133 1293.05 141.423C1298.89 138.713 1305.02 136.573 1311.43 135.005C1317.99 133.436 1324.48 132.651 1330.89 132.651C1351.98 132.651 1370.51 137.287 1386.47 146.558C1402.44 155.687 1415.76 168.667 1426.45 185.498C1437.14 202.329 1445.2 222.654 1450.61 246.474C1456.03 270.294 1458.74 296.753 1458.74 325.851C1458.74 349.384 1456.31 370.068 1451.47 387.896C1446.77 405.728 1439.99 420.704 1431.16 432.83C1422.32 444.811 1411.56 453.866 1398.88 460C1386.33 465.991 1372.15 468.986 1356.33 468.986C1345.36 468.986 1334.17 467.062 1322.76 463.208C1311.5 459.216 1301.24 452.797 1291.98 443.955C1282.85 435.109 1275.37 423.556 1269.53 409.291C1263.68 394.886 1260.76 377.27 1260.76 356.446C1260.76 338.474 1263.26 322.499 1268.24 308.521C1273.38 294.543 1280.22 282.775 1288.77 273.219C1297.32 263.519 1307.23 256.173 1318.49 251.181C1329.75 246.046 1341.65 243.479 1354.19 243.479C1359.04 243.479 1363.38 243.907 1367.23 244.763C1371.08 245.476 1374.43 246.403 1377.28 247.544C1380.13 248.685 1382.63 249.969 1384.76 251.395C1386.9 252.679 1388.83 253.963 1390.54 255.246ZM1490.93 469.945V391.511H1496.19C1503.78 416.925 1513.99 434.743 1526.84 444.968C1539.68 455.194 1555.74 460.305 1575 460.305C1604.78 460.305 1619.66 450.812 1619.66 431.823C1619.66 423.645 1616.01 417.51 1608.72 413.42C1597.33 406.994 1582.74 402.027 1564.93 398.522C1545.08 393.264 1528.44 386.253 1515.01 377.489C1498.96 366.973 1490.93 350.322 1490.93 327.537C1490.93 304.752 1497.94 286.64 1511.95 273.203C1525.96 259.474 1544.64 252.609 1568 252.609C1582.3 252.609 1597.04 255.968 1612.22 262.687C1617.76 265.024 1622 266.192 1624.92 266.192C1627.83 266.192 1630.32 265.17 1632.36 263.125C1634.4 261.08 1636.89 257.283 1639.8 251.733H1644.62V318.774H1639.37C1624.48 280.798 1601.42 261.811 1570.18 261.811C1556.46 261.811 1546.25 264.293 1539.53 269.26C1532.82 273.933 1529.46 279.922 1529.46 287.225C1529.46 291.607 1530.49 295.112 1532.53 297.741C1534.57 300.078 1536.18 301.831 1537.35 302.999C1538.51 304.168 1540.41 305.482 1543.04 306.943C1545.66 308.111 1547.85 309.134 1549.61 310.01C1551.36 310.594 1553.98 311.471 1557.49 312.639C1561.28 313.807 1564.05 314.538 1565.81 314.83C1585.66 319.796 1599.96 324.178 1608.72 327.975C1617.47 331.481 1625.79 335.862 1633.67 341.121C1649.73 352.222 1657.76 370.187 1657.76 395.016C1657.76 419.554 1650.46 438.249 1635.86 451.103C1621.27 463.663 1601.27 469.945 1575.88 469.945C1557.78 469.945 1540.26 465.71 1523.33 457.237C1519.83 454.899 1517.06 453.732 1515.01 453.732C1508.59 453.732 1502.32 459.137 1496.19 469.945H1490.93Z" fill="#0C3636"/>
<path d="M841.15 706.423C834.582 706.423 828.466 705.355 822.801 703.219C817.218 701.001 812.333 697.92 808.146 693.976C804.041 689.95 800.84 685.226 798.541 679.804C796.242 674.381 795.093 668.466 795.093 662.058C795.093 655.649 796.242 649.734 798.541 644.311C800.84 638.889 804.082 634.206 808.269 630.262C812.456 626.237 817.341 623.156 822.924 621.02C828.507 618.801 834.623 617.692 841.273 617.692C848.333 617.692 854.778 618.925 860.607 621.389C866.436 623.772 871.362 627.346 875.385 632.111L865.04 641.847C861.921 638.478 858.431 635.972 854.573 634.329C850.714 632.604 846.527 631.741 842.012 631.741C837.496 631.741 833.35 632.481 829.574 633.96C825.88 635.438 822.637 637.533 819.845 640.245C817.136 642.956 815.002 646.16 813.442 649.857C811.964 653.554 811.225 657.621 811.225 662.058C811.225 666.494 811.964 670.561 813.442 674.258C815.002 677.955 817.136 681.159 819.845 683.871C822.637 686.582 825.88 688.677 829.574 690.156C833.35 691.635 837.496 692.374 842.012 692.374C846.527 692.374 850.714 691.552 854.573 689.909C858.431 688.184 861.921 685.596 865.04 682.145L875.385 692.004C871.362 696.687 866.436 700.261 860.607 702.726C854.778 705.191 848.292 706.423 841.15 706.423ZM892.666 705.191V639.382H907.321V657.498L905.597 652.199C907.567 647.762 910.646 644.394 914.833 642.093C919.102 639.793 924.397 638.643 930.719 638.643V653.308C930.062 653.143 929.446 653.061 928.872 653.061C928.297 652.979 927.722 652.938 927.148 652.938C921.319 652.938 916.68 654.663 913.232 658.114C909.784 661.483 908.06 666.535 908.06 673.272V705.191H892.666ZM977.508 706.053C970.201 706.053 963.798 704.616 958.297 701.74C952.878 698.782 948.65 694.757 945.613 689.663C942.657 684.569 941.18 678.777 941.18 672.286C941.18 665.714 942.616 659.922 945.49 654.91C948.445 649.816 952.468 645.831 957.558 642.956C962.73 640.08 968.6 638.643 975.168 638.643C981.572 638.643 987.278 640.039 992.286 642.833C997.294 645.626 1001.23 649.57 1004.11 654.663C1006.98 659.757 1008.42 665.755 1008.42 672.656C1008.42 673.313 1008.38 674.053 1008.29 674.874C1008.29 675.696 1008.25 676.476 1008.17 677.216H953.371V666.987H1000.04L994.01 670.191C994.092 666.412 993.312 663.085 991.67 660.209C990.028 657.334 987.77 655.074 984.897 653.431C982.105 651.788 978.863 650.966 975.168 650.966C971.392 650.966 968.067 651.788 965.193 653.431C962.402 655.074 960.185 657.375 958.543 660.332C956.983 663.208 956.203 666.617 956.203 670.561V673.026C956.203 676.969 957.107 680.461 958.913 683.501C960.719 686.541 963.264 688.882 966.548 690.525C969.832 692.169 973.608 692.99 977.877 692.99C981.572 692.99 984.897 692.415 987.852 691.265C990.808 690.115 993.435 688.307 995.734 685.842L1003.98 695.332C1001.03 698.782 997.294 701.452 992.778 703.342C988.345 705.15 983.255 706.053 977.508 706.053ZM1054.45 706.053C1048.13 706.053 1042.43 704.657 1037.34 701.863C1032.33 698.988 1028.39 695.044 1025.51 690.033C1022.64 685.021 1021.2 679.105 1021.2 672.286C1021.2 665.467 1022.64 659.552 1025.51 654.54C1028.39 649.529 1032.33 645.626 1037.34 642.833C1042.43 640.039 1048.13 638.643 1054.45 638.643C1059.95 638.643 1064.88 639.875 1069.23 642.34C1073.58 644.722 1077.03 648.378 1079.58 653.308C1082.12 658.237 1083.39 664.563 1083.39 672.286C1083.39 679.927 1082.16 686.253 1079.7 691.265C1077.24 696.194 1073.83 699.891 1069.48 702.356C1065.13 704.821 1060.12 706.053 1054.45 706.053ZM1056.3 692.867C1060 692.867 1063.28 692.045 1066.15 690.402C1069.11 688.759 1071.45 686.376 1073.17 683.254C1074.98 680.132 1075.88 676.476 1075.88 672.286C1075.88 668.014 1074.98 664.358 1073.17 661.318C1071.45 658.196 1069.11 655.814 1066.15 654.17C1063.28 652.527 1060 651.706 1056.3 651.706C1052.61 651.706 1049.28 652.527 1046.33 654.17C1043.45 655.814 1041.11 658.196 1039.31 661.318C1037.58 664.358 1036.72 668.014 1036.72 672.286C1036.72 676.476 1037.58 680.132 1039.31 683.254C1041.11 686.376 1043.45 688.759 1046.33 690.402C1049.28 692.045 1052.61 692.867 1056.3 692.867ZM1076.25 705.191V689.663L1076.87 672.163L1075.64 654.663V613.749H1090.91V705.191H1076.25ZM1114.59 705.191V639.382H1129.98V705.191H1114.59ZM1122.35 628.537C1119.47 628.537 1117.09 627.633 1115.2 625.826C1113.4 624.018 1112.49 621.841 1112.49 619.294C1112.49 616.665 1113.4 614.488 1115.2 612.763C1117.09 610.955 1119.47 610.052 1122.35 610.052C1125.22 610.052 1127.56 610.914 1129.37 612.64C1131.25 614.283 1132.2 616.378 1132.2 618.925C1132.2 621.636 1131.29 623.936 1129.49 625.826C1127.68 627.633 1125.3 628.537 1122.35 628.537ZM1178.36 706.053C1171.13 706.053 1165.55 704.205 1161.61 700.508C1157.67 696.728 1155.7 691.183 1155.7 683.871V624.84H1171.09V683.501C1171.09 686.623 1171.87 689.047 1173.43 690.772C1175.07 692.497 1177.33 693.36 1180.2 693.36C1183.65 693.36 1186.53 692.456 1188.83 690.649L1193.14 701.617C1191.33 703.096 1189.11 704.205 1186.49 704.944C1183.86 705.684 1181.15 706.053 1178.36 706.053ZM1144.86 652.199V639.875H1188.7V652.199H1144.86ZM1288.05 706.423C1281.48 706.423 1275.37 705.355 1269.7 703.219C1264.12 701.001 1259.23 697.92 1255.05 693.976C1250.94 689.95 1247.74 685.226 1245.44 679.804C1243.14 674.381 1241.99 668.466 1241.99 662.058C1241.99 655.649 1243.14 649.734 1245.44 644.311C1247.74 638.889 1250.98 634.206 1255.17 630.262C1259.36 626.237 1264.24 623.156 1269.83 621.02C1275.41 618.801 1281.52 617.692 1288.17 617.692C1295.23 617.692 1301.68 618.925 1307.51 621.389C1313.34 623.772 1318.26 627.346 1322.29 632.111L1311.94 641.847C1308.82 638.478 1305.33 635.972 1301.47 634.329C1297.62 632.604 1293.43 631.741 1288.91 631.741C1284.4 631.741 1280.25 632.481 1276.48 633.96C1272.78 635.438 1269.54 637.533 1266.75 640.245C1264.04 642.956 1261.9 646.16 1260.34 649.857C1258.86 653.554 1258.13 657.621 1258.13 662.058C1258.13 666.494 1258.86 670.561 1260.34 674.258C1261.9 677.955 1264.04 681.159 1266.75 683.871C1269.54 686.582 1272.78 688.677 1276.48 690.156C1280.25 691.635 1284.4 692.374 1288.91 692.374C1293.43 692.374 1297.62 691.552 1301.47 689.909C1305.33 688.184 1308.82 685.596 1311.94 682.145L1322.29 692.004C1318.26 696.687 1313.34 700.261 1307.51 702.726C1301.68 705.191 1295.19 706.423 1288.05 706.423ZM1379.48 705.191V691.881L1378.62 689.047V665.755C1378.62 661.236 1377.27 657.744 1374.56 655.28C1371.85 652.733 1367.74 651.459 1362.24 651.459C1358.55 651.459 1354.9 652.034 1351.28 653.185C1347.75 654.335 1344.76 655.937 1342.29 657.991L1336.26 646.776C1339.79 644.065 1343.98 642.052 1348.82 640.738C1353.75 639.341 1358.84 638.643 1364.09 638.643C1373.61 638.643 1380.96 640.943 1386.13 645.544C1391.39 650.063 1394.02 657.087 1394.02 666.617V705.191H1379.48ZM1358.8 706.053C1353.87 706.053 1349.56 705.232 1345.87 703.589C1342.17 701.863 1339.3 699.522 1337.24 696.564C1335.27 693.524 1334.29 690.115 1334.29 686.335C1334.29 682.638 1335.15 679.311 1336.88 676.353C1338.68 673.395 1341.6 671.054 1345.62 669.329C1349.64 667.603 1354.98 666.741 1361.63 666.741H1380.72V676.969H1362.74C1357.48 676.969 1353.95 677.832 1352.15 679.557C1350.34 681.2 1349.44 683.254 1349.44 685.719C1349.44 688.513 1350.54 690.731 1352.76 692.374C1354.98 694.017 1358.06 694.839 1362 694.839C1365.77 694.839 1369.14 693.976 1372.1 692.251C1375.13 690.525 1377.31 687.979 1378.62 684.61L1381.21 693.853C1379.73 697.714 1377.06 700.713 1373.2 702.849C1369.43 704.985 1364.62 706.053 1358.8 706.053ZM1417.19 705.191V639.382H1431.85V657.498L1430.12 652.199C1432.09 647.762 1435.17 644.394 1439.36 642.093C1443.63 639.793 1448.92 638.643 1455.24 638.643V653.308C1454.59 653.143 1453.97 653.061 1453.4 653.061C1452.82 652.979 1452.25 652.938 1451.67 652.938C1445.84 652.938 1441.2 654.663 1437.76 658.114C1434.31 661.483 1432.58 666.535 1432.58 673.272V705.191H1417.19ZM1498.95 706.053C1492.63 706.053 1486.92 704.657 1481.83 701.863C1476.83 698.988 1472.88 695.044 1470.01 690.033C1467.14 685.021 1465.7 679.105 1465.7 672.286C1465.7 665.467 1467.14 659.552 1470.01 654.54C1472.88 649.529 1476.83 645.626 1481.83 642.833C1486.92 640.039 1492.63 638.643 1498.95 638.643C1504.45 638.643 1509.38 639.875 1513.73 642.34C1518.08 644.722 1521.53 648.378 1524.07 653.308C1526.62 658.237 1527.89 664.563 1527.89 672.286C1527.89 679.927 1526.66 686.253 1524.2 691.265C1521.73 696.194 1518.33 699.891 1513.97 702.356C1509.62 704.821 1504.62 706.053 1498.95 706.053ZM1500.8 692.867C1504.49 692.867 1507.78 692.045 1510.65 690.402C1513.61 688.759 1515.95 686.376 1517.67 683.254C1519.48 680.132 1520.38 676.476 1520.38 672.286C1520.38 668.014 1519.48 664.358 1517.67 661.318C1515.95 658.196 1513.61 655.814 1510.65 654.17C1507.78 652.527 1504.49 651.706 1500.8 651.706C1497.1 651.706 1493.78 652.527 1490.82 654.17C1487.95 655.814 1485.61 658.196 1483.8 661.318C1482.08 664.358 1481.22 668.014 1481.22 672.286C1481.22 676.476 1482.08 680.132 1483.8 683.254C1485.61 686.376 1487.95 688.759 1490.82 690.402C1493.78 692.045 1497.1 692.867 1500.8 692.867ZM1520.75 705.191V689.663L1521.36 672.163L1520.13 654.663V613.749H1535.4V705.191H1520.75ZM1585.83 705.191L1624.62 618.925H1640.38L1679.3 705.191H1662.55L1629.18 627.428H1635.58L1602.33 705.191H1585.83ZM1603.68 685.226L1607.99 672.656H1654.54L1658.85 685.226H1603.68ZM1693.68 705.191V618.925H1729.14C1736.78 618.925 1743.31 620.157 1748.72 622.622C1754.22 625.086 1758.45 628.619 1761.41 633.22C1764.36 637.821 1765.84 643.285 1765.84 649.611C1765.84 655.937 1764.36 661.4 1761.41 666.001C1758.45 670.602 1754.22 674.135 1748.72 676.6C1743.31 679.064 1736.78 680.297 1729.14 680.297H1702.54L1709.69 672.779V705.191H1693.68ZM1709.69 674.505L1702.54 666.741H1728.4C1735.47 666.741 1740.76 665.262 1744.29 662.304C1747.9 659.264 1749.71 655.033 1749.71 649.611C1749.71 644.106 1747.9 639.875 1744.29 636.917C1740.76 633.96 1735.47 632.481 1728.4 632.481H1702.54L1709.69 624.594V674.505ZM1785.25 705.191V618.925H1801.26V705.191H1785.25Z" fill="#025464"/>
</svg>
