<svg width="154" height="63" viewBox="0 0 154 63" fill="none" xmlns="http://www.w3.org/2000/svg">
<path d="M12.7943 22.8546C11.8769 22.8546 11.0711 23.4497 10.3768 24.6398C9.68259 25.83 9.33545 27.2433 9.33545 28.8798V38.8474H11.9761V39.5168H0.37207V38.8474H2.41766V22.4827H0.37207V21.8132H9.33545V25.3837C9.65777 24.1191 10.2777 23.1521 11.1951 22.4827C12.1125 21.7884 13.1539 21.4413 14.3192 21.4413C15.4846 21.4413 16.4268 21.776 17.1459 22.4455C17.8897 23.0902 18.2616 24.02 18.2616 25.2349C18.2616 26.4251 17.9889 27.3425 17.4434 27.9872C16.8979 28.6318 16.0549 28.9542 14.9143 28.9542C13.7985 28.9542 12.9679 28.5822 12.4224 27.8384C11.9017 27.0945 11.8398 26.0656 12.2365 24.7514H13.5754C14.1953 23.4869 13.9349 22.8546 12.7943 22.8546ZM28.6773 39.8887C25.4787 39.8887 23.0736 39.0705 21.4619 37.434C19.8751 35.7729 19.0816 33.4792 19.0816 30.5534C19.0816 27.6028 19.9742 25.3465 21.7595 23.7844C23.5695 22.2223 25.8631 21.4413 28.6401 21.4413C34.2686 21.4413 36.9712 24.2679 36.748 29.9212H26.2598V31.3717C26.2598 33.8017 26.5697 35.6363 27.1896 36.8762C27.8094 38.116 28.888 38.7358 30.4253 38.7358C33.3016 38.7358 35.1859 37.1984 36.0786 34.1239L36.748 34.2355C36.277 36.0207 35.4216 37.4093 34.1818 38.4011C32.9669 39.3928 31.132 39.8887 28.6773 39.8887ZM26.297 29.1773H30.1278V27.3549C30.1278 25.3465 30.0037 23.9828 29.7558 23.2637C29.5327 22.5199 29.0617 22.1479 28.3425 22.1479C27.6483 22.1479 27.1276 22.5447 26.7805 23.3381C26.4581 24.1067 26.297 25.4457 26.297 27.3549V29.1773ZM49.9575 22.4827V21.8132H59.5531V22.4827H58.0282L61.3755 35.0165L64.6857 22.4827H62.1194V21.8132H67.1404V22.4827H65.5783L61.1152 39.5168H56.0198L52.7841 28.0987L49.288 39.5168H44.3042L38.7997 22.4827H37.1261V21.8132H48.3954V22.4827H46.1638L49.5855 35.1281L52.2634 26.4251L51.3336 22.4827H49.9575ZM75.8742 30.7766H76.9528V27.9128C76.9528 25.5572 76.8165 23.9828 76.5437 23.1893C76.2958 22.3711 75.7998 21.962 75.056 21.962C74.6097 21.962 74.2005 22.086 73.8286 22.3339C73.4814 22.5571 73.3079 22.8794 73.3079 23.3009C73.3079 23.6976 73.3823 24.1067 73.5311 24.5283H74.4609C74.6593 25.049 74.7584 25.6812 74.7584 26.4251C74.7584 27.1441 74.4484 27.7764 73.8286 28.3219C73.2088 28.8426 72.4278 29.1029 71.4855 29.1029C69.353 29.1029 68.2869 28.074 68.2869 26.016C68.2869 22.9662 70.8779 21.4413 76.0602 21.4413C79.0109 21.4413 81.0439 21.9496 82.1597 22.9662C83.3002 23.958 83.8706 25.7928 83.8706 28.4707V36.0207C83.8706 37.31 84.23 37.9547 84.9492 37.9547C85.7921 37.9547 86.2881 36.6777 86.4369 34.1239L86.9947 34.1611C86.8957 36.343 86.4865 37.8432 85.7674 38.6614C85.0482 39.4796 83.8706 39.8887 82.2341 39.8887C79.2587 39.8887 77.5479 38.9714 77.1015 37.1365C76.7793 38.0788 76.2958 38.773 75.651 39.2193C75.0063 39.6656 74.0643 39.8887 72.8244 39.8887C69.1549 39.8887 67.3199 38.3886 67.3199 35.3885C67.3199 33.6279 68.0141 32.4256 69.4027 31.7808C70.816 31.1113 72.9732 30.7766 75.8742 30.7766ZM74.3865 35.3513C74.3865 36.6405 74.4484 37.4712 74.5725 37.8432C74.7212 38.2151 74.9816 38.4011 75.3535 38.4011C75.7501 38.4011 76.1099 38.091 76.4321 37.4712C76.7793 36.8265 76.9528 35.9463 76.9528 34.8306V31.3717H76.6924C75.1551 31.3717 74.3865 32.4999 74.3865 34.7562V35.3513ZM100.073 22.8546C99.1558 22.8546 98.3498 23.4497 97.6556 24.6398C96.9614 25.83 96.6142 27.2433 96.6142 28.8798V38.8474H99.2549V39.5168H87.6508V38.8474H89.6964V22.4827H87.6508V21.8132H96.6142V25.3837C96.9365 24.1191 97.5565 23.1521 98.4738 22.4827C99.3912 21.7884 100.433 21.4413 101.598 21.4413C102.763 21.4413 103.705 21.776 104.425 22.4455C105.168 23.0902 105.54 24.02 105.54 25.2349C105.54 26.4251 105.268 27.3425 104.722 27.9872C104.177 28.6318 103.334 28.9542 102.193 28.9542C101.077 28.9542 100.247 28.5822 99.7012 27.8384C99.1805 27.0945 99.1186 26.0656 99.5152 24.7514H100.854C101.474 23.4869 101.214 22.8546 100.073 22.8546ZM118.333 29.6556C118.333 29.5225 118.333 29.2564 118.333 28.8567C118.333 28.445 118.321 27.9789 118.297 27.4583C118.273 26.9256 118.23 26.3627 118.17 25.7694C118.109 25.1762 118.012 24.6253 117.879 24.1168C117.589 23.7415 117.262 23.4086 116.898 23.118C116.547 22.8153 116.093 22.664 115.536 22.664C114.592 22.664 113.896 23.2814 113.448 24.5164C113.012 25.7513 112.794 27.6641 112.794 30.255C112.794 31.3932 112.843 32.4343 112.94 33.3786C113.048 34.323 113.206 35.1342 113.412 35.8121C113.629 36.49 113.902 37.0168 114.229 37.3922C114.568 37.7673 114.968 37.955 115.427 37.955C117.365 37.955 118.333 35.1886 118.333 29.6556ZM118.115 21.6652C117.885 20.4545 117.564 19.3285 117.153 18.2873C116.741 17.234 116.245 16.326 115.663 15.5633C115.095 14.8006 114.441 14.2013 113.702 13.7654C112.976 13.3296 112.189 13.1116 111.342 13.1116C110.857 13.1116 110.415 13.1722 110.016 13.2932C109.628 13.4143 109.289 13.5596 108.999 13.7291C108.708 13.8865 108.466 14.0439 108.272 14.2013C108.091 14.3465 107.958 14.4555 107.873 14.5281L107.401 13.8925C107.691 13.5172 108.042 13.1661 108.454 12.8392C108.878 12.5123 109.338 12.2339 109.834 12.0039C110.33 11.7738 110.851 11.5922 111.396 11.459C111.953 11.3259 112.504 11.2593 113.048 11.2593C114.84 11.2593 116.414 11.6528 117.77 12.4397C119.126 13.2146 120.258 14.3163 121.166 15.7449C122.074 17.1735 122.758 18.8988 123.218 20.9206C123.678 22.9424 123.909 25.1883 123.909 27.6581C123.909 29.6556 123.703 31.4112 123.291 32.9245C122.892 34.438 122.316 35.7092 121.566 36.7384C120.815 37.7554 119.901 38.524 118.824 39.0447C117.758 39.5531 116.553 39.8074 115.21 39.8074C114.277 39.8074 113.327 39.6441 112.359 39.3169C111.402 38.9781 110.53 38.4333 109.743 37.6828C108.969 36.9319 108.333 35.9513 107.836 34.7405C107.34 33.5178 107.092 32.0225 107.092 30.255C107.092 28.7296 107.304 27.3736 107.728 26.1871C108.163 25.0006 108.744 24.0018 109.471 23.1906C110.197 22.3674 111.039 21.7439 111.995 21.3201C112.952 20.8843 113.962 20.6664 115.028 20.6664C115.44 20.6664 115.809 20.7027 116.136 20.7753C116.462 20.8358 116.747 20.9146 116.989 21.0114C117.231 21.1082 117.443 21.2172 117.625 21.3383C117.807 21.4472 117.97 21.5562 118.115 21.6652ZM126.643 39.8887V33.2313H127.089C127.734 35.3885 128.602 36.9009 129.693 37.7688C130.784 38.6367 132.148 39.0705 133.784 39.0705C136.313 39.0705 137.578 38.2648 137.578 36.653C137.578 35.9588 137.268 35.4381 136.648 35.0909C135.681 34.5455 134.441 34.1239 132.929 33.8264C131.242 33.3801 129.829 32.785 128.689 32.0411C127.325 31.1485 126.643 29.7352 126.643 27.8012C126.643 25.8672 127.238 24.3299 128.428 23.1893C129.618 22.024 131.205 21.4413 133.189 21.4413C134.404 21.4413 135.656 21.7264 136.945 22.2967C137.416 22.4951 137.776 22.5943 138.024 22.5943C138.272 22.5943 138.483 22.5075 138.656 22.3339C138.83 22.1604 139.041 21.838 139.288 21.3669H139.698V27.0574H139.251C137.987 23.834 136.028 22.2223 133.375 22.2223C132.209 22.2223 131.342 22.4331 130.771 22.8546C130.201 23.2513 129.916 23.7596 129.916 24.3795C129.916 24.7514 130.003 25.049 130.176 25.2721C130.35 25.4705 130.486 25.6193 130.585 25.7184C130.685 25.8176 130.846 25.9292 131.069 26.0532C131.292 26.1523 131.478 26.2391 131.627 26.3135C131.776 26.3631 131.999 26.4375 132.296 26.5367C132.619 26.6358 132.854 26.6978 133.003 26.7226C134.689 27.1441 135.904 27.5161 136.648 27.8384C137.392 28.1359 138.098 28.5079 138.768 28.9542C140.131 29.8965 140.813 31.4214 140.813 33.5288C140.813 35.6116 140.194 37.1984 138.954 38.2895C137.714 39.3556 136.016 39.8887 133.858 39.8887C132.321 39.8887 130.833 39.5293 129.395 38.8102C129.098 38.6117 128.862 38.5126 128.689 38.5126C128.143 38.5126 127.61 38.9714 127.089 39.8887H126.643Z" fill="white"/>
<path d="M71.4488 59.9613C70.8909 59.9613 70.3714 59.8706 69.8902 59.6893C69.416 59.501 69.0011 59.2395 68.6454 58.9048C68.2967 58.5631 68.0248 58.1621 67.8295 57.7018C67.6343 57.2416 67.5366 56.7395 67.5366 56.1955C67.5366 55.6516 67.6343 55.1495 67.8295 54.6892C68.0248 54.229 68.3002 53.8315 68.6559 53.4968C69.0115 53.155 69.4265 52.8935 69.9007 52.7122C70.3749 52.5239 70.8944 52.4298 71.4593 52.4298C72.059 52.4298 72.6064 52.5344 73.1015 52.7436C73.5967 52.9458 74.0151 53.2492 74.3568 53.6537L73.4781 54.48C73.2131 54.1941 72.9167 53.9814 72.589 53.8419C72.2612 53.6955 71.9056 53.6223 71.522 53.6223C71.1385 53.6223 70.7863 53.685 70.4655 53.8106C70.1517 53.9361 69.8763 54.1139 69.6392 54.344C69.409 54.5742 69.2277 54.8461 69.0952 55.16C68.9697 55.4738 68.9069 55.819 68.9069 56.1955C68.9069 56.5721 68.9697 56.9173 69.0952 57.2311C69.2277 57.5449 69.409 57.8169 69.6392 58.047C69.8763 58.2771 70.1517 58.455 70.4655 58.5805C70.7863 58.706 71.1385 58.7688 71.522 58.7688C71.9056 58.7688 72.2612 58.699 72.589 58.5596C72.9167 58.4131 73.2131 58.1935 73.4781 57.9006L74.3568 58.7374C74.0151 59.1349 73.5967 59.4382 73.1015 59.6475C72.6064 59.8567 72.0555 59.9613 71.4488 59.9613ZM75.8247 59.8567V54.2708H77.0695V55.8085L76.9231 55.3587C77.0904 54.9821 77.3519 54.6962 77.7076 54.5009C78.0702 54.3057 78.52 54.2081 79.057 54.2081V55.4528C79.0012 55.4389 78.9489 55.4319 78.9001 55.4319C78.8513 55.425 78.8024 55.4215 78.7536 55.4215C78.2585 55.4215 77.8645 55.5679 77.5716 55.8608C77.2787 56.1467 77.1323 56.5756 77.1323 57.1474V59.8567H75.8247ZM83.0313 59.9299C82.4107 59.9299 81.8668 59.8078 81.3995 59.5638C80.9393 59.3127 80.5801 58.971 80.3221 58.5387C80.0711 58.1063 79.9455 57.6147 79.9455 57.0637C79.9455 56.5059 80.0676 56.0142 80.3116 55.5888C80.5627 55.1565 80.9044 54.8183 81.3368 54.5742C81.7761 54.3301 82.2747 54.2081 82.8326 54.2081C83.3765 54.2081 83.8612 54.3266 84.2866 54.5637C84.712 54.8008 85.0467 55.1355 85.2908 55.5679C85.5349 56.0003 85.6569 56.5093 85.6569 57.0951C85.6569 57.1509 85.6534 57.2137 85.6464 57.2834C85.6464 57.3531 85.6429 57.4194 85.636 57.4822H80.9811V56.6139H84.9456L84.433 56.8859C84.44 56.5651 84.3738 56.2827 84.2343 56.0386C84.0948 55.7946 83.903 55.6028 83.659 55.4633C83.4219 55.3238 83.1464 55.2541 82.8326 55.2541C82.5118 55.2541 82.2294 55.3238 81.9853 55.4633C81.7482 55.6028 81.5599 55.798 81.4204 56.0491C81.2879 56.2932 81.2217 56.5826 81.2217 56.9173V57.1265C81.2217 57.4612 81.2984 57.7576 81.4518 58.0156C81.6052 58.2737 81.8214 58.4724 82.1004 58.6119C82.3793 58.7514 82.7001 58.8211 83.0627 58.8211C83.3765 58.8211 83.659 58.7723 83.91 58.6746C84.1611 58.577 84.3842 58.4236 84.5795 58.2144L85.2803 59.0198C85.0293 59.3127 84.712 59.5394 84.3284 59.6998C83.9519 59.8532 83.5195 59.9299 83.0313 59.9299ZM89.5673 59.9299C89.0304 59.9299 88.5457 59.8113 88.1133 59.5742C87.688 59.3302 87.3532 58.9954 87.1091 58.57C86.8651 58.1446 86.743 57.6425 86.743 57.0637C86.743 56.4849 86.8651 55.9828 87.1091 55.5574C87.3532 55.1321 87.688 54.8008 88.1133 54.5637C88.5457 54.3266 89.0304 54.2081 89.5673 54.2081C90.0346 54.2081 90.453 54.3127 90.8226 54.5219C91.1922 54.7241 91.4851 55.0344 91.7013 55.4528C91.9174 55.8713 92.0255 56.4082 92.0255 57.0637C92.0255 57.7123 91.9209 58.2493 91.7117 58.6746C91.5025 59.0931 91.2131 59.4069 90.8435 59.6161C90.4739 59.8253 90.0485 59.9299 89.5673 59.9299ZM89.7242 58.8106C90.038 58.8106 90.317 58.7409 90.5611 58.6014C90.8121 58.4619 91.0109 58.2597 91.1573 57.9947C91.3107 57.7297 91.3874 57.4194 91.3874 57.0637C91.3874 56.7011 91.3107 56.3908 91.1573 56.1328C91.0109 55.8678 90.8121 55.6655 90.5611 55.5261C90.317 55.3866 90.038 55.3169 89.7242 55.3169C89.4104 55.3169 89.128 55.3866 88.877 55.5261C88.6329 55.6655 88.4341 55.8678 88.2807 56.1328C88.1343 56.3908 88.061 56.7011 88.061 57.0637C88.061 57.4194 88.1343 57.7297 88.2807 57.9947C88.4341 58.2597 88.6329 58.4619 88.877 58.6014C89.128 58.7409 89.4104 58.8106 89.7242 58.8106ZM91.4188 59.8567V58.5387L91.4711 57.0533L91.3665 55.5679V52.0951H92.6636V59.8567H91.4188ZM94.6752 59.8567V54.2708H95.9827V59.8567H94.6752ZM95.3342 53.3503C95.0901 53.3503 94.8879 53.2736 94.7275 53.1202C94.5741 52.9668 94.4974 52.782 94.4974 52.5658C94.4974 52.3426 94.5741 52.1578 94.7275 52.0114C94.8879 51.858 95.0901 51.7812 95.3342 51.7812C95.5783 51.7812 95.777 51.8545 95.9304 52.0009C96.0908 52.1404 96.171 52.3182 96.171 52.5344C96.171 52.7645 96.0943 52.9598 95.9409 53.1202C95.7875 53.2736 95.5852 53.3503 95.3342 53.3503ZM100.092 59.9299C99.4783 59.9299 99.004 59.773 98.6693 59.4592C98.3346 59.1384 98.1672 58.6677 98.1672 58.047V53.0365H99.4748V58.0156C99.4748 58.2806 99.541 58.4864 99.6735 58.6328C99.813 58.7792 100.005 58.8525 100.249 58.8525C100.542 58.8525 100.786 58.7758 100.981 58.6223L101.347 59.5533C101.194 59.6788 101.005 59.773 100.782 59.8357C100.559 59.8985 100.329 59.9299 100.092 59.9299ZM97.2467 55.3587V54.3127H100.971V55.3587H97.2467ZM109.41 59.9613C108.852 59.9613 108.332 59.8706 107.851 59.6893C107.377 59.501 106.962 59.2395 106.606 58.9048C106.257 58.5631 105.985 58.1621 105.79 57.7018C105.595 57.2416 105.497 56.7395 105.497 56.1955C105.497 55.6516 105.595 55.1495 105.79 54.6892C105.985 54.229 106.261 53.8315 106.617 53.4968C106.972 53.155 107.387 52.8935 107.861 52.7122C108.336 52.5239 108.855 52.4298 109.42 52.4298C110.02 52.4298 110.567 52.5344 111.062 52.7436C111.557 52.9458 111.976 53.2492 112.317 53.6537L111.439 54.48C111.174 54.1941 110.877 53.9814 110.55 53.8419C110.222 53.6955 109.866 53.6223 109.483 53.6223C109.099 53.6223 108.747 53.685 108.426 53.8106C108.112 53.9361 107.837 54.1139 107.6 54.344C107.37 54.5742 107.188 54.8461 107.056 55.16C106.93 55.4738 106.868 55.819 106.868 56.1955C106.868 56.5721 106.93 56.9173 107.056 57.2311C107.188 57.5449 107.37 57.8169 107.6 58.047C107.837 58.2771 108.112 58.455 108.426 58.5805C108.747 58.706 109.099 58.7688 109.483 58.7688C109.866 58.7688 110.222 58.699 110.55 58.5596C110.877 58.4131 111.174 58.1935 111.439 57.9006L112.317 58.7374C111.976 59.1349 111.557 59.4382 111.062 59.6475C110.567 59.8567 110.016 59.9613 109.41 59.9613ZM117.176 59.8567V58.7269L117.103 58.4864V56.5093C117.103 56.1258 116.988 55.8294 116.758 55.6202C116.528 55.404 116.179 55.2959 115.712 55.2959C115.398 55.2959 115.087 55.3448 114.781 55.4424C114.481 55.54 114.226 55.676 114.017 55.8503L113.504 54.8984C113.804 54.6683 114.16 54.4975 114.571 54.3859C114.99 54.2673 115.422 54.2081 115.869 54.2081C116.677 54.2081 117.302 54.4033 117.741 54.7938C118.187 55.1774 118.41 55.7736 118.41 56.5826V59.8567H117.176ZM115.419 59.9299C115 59.9299 114.634 59.8601 114.32 59.7207C114.007 59.5742 113.762 59.3755 113.588 59.1244C113.421 58.8664 113.337 58.577 113.337 58.2562C113.337 57.9424 113.41 57.66 113.557 57.4089C113.71 57.1579 113.958 56.9591 114.299 56.8127C114.641 56.6662 115.094 56.593 115.659 56.593H117.281V57.4612H115.753C115.307 57.4612 115.007 57.5345 114.854 57.6809C114.7 57.8204 114.624 57.9947 114.624 58.2039C114.624 58.441 114.718 58.6293 114.906 58.7688C115.094 58.9083 115.356 58.978 115.691 58.978C116.011 58.978 116.297 58.9048 116.548 58.7583C116.806 58.6119 116.991 58.3957 117.103 58.1098L117.322 58.8943C117.197 59.2221 116.97 59.4766 116.643 59.6579C116.322 59.8392 115.914 59.9299 115.419 59.9299ZM120.379 59.8567V54.2708H121.624V55.8085L121.477 55.3587C121.645 54.9821 121.906 54.6962 122.262 54.5009C122.624 54.3057 123.074 54.2081 123.611 54.2081V55.4528C123.555 55.4389 123.503 55.4319 123.454 55.4319C123.405 55.425 123.357 55.4215 123.308 55.4215C122.813 55.4215 122.419 55.5679 122.126 55.8608C121.833 56.1467 121.687 56.5756 121.687 57.1474V59.8567H120.379ZM127.324 59.9299C126.787 59.9299 126.302 59.8113 125.87 59.5742C125.444 59.3302 125.11 58.9954 124.866 58.57C124.622 58.1446 124.499 57.6425 124.499 57.0637C124.499 56.4849 124.622 55.9828 124.866 55.5574C125.11 55.1321 125.444 54.8008 125.87 54.5637C126.302 54.3266 126.787 54.2081 127.324 54.2081C127.791 54.2081 128.209 54.3127 128.579 54.5219C128.949 54.7241 129.242 55.0344 129.458 55.4528C129.674 55.8713 129.782 56.4082 129.782 57.0637C129.782 57.7123 129.677 58.2493 129.468 58.6746C129.259 59.0931 128.97 59.4069 128.6 59.6161C128.23 59.8253 127.805 59.9299 127.324 59.9299ZM127.481 58.8106C127.794 58.8106 128.073 58.7409 128.318 58.6014C128.569 58.4619 128.767 58.2597 128.914 57.9947C129.067 57.7297 129.144 57.4194 129.144 57.0637C129.144 56.7011 129.067 56.3908 128.914 56.1328C128.767 55.8678 128.569 55.6655 128.318 55.5261C128.073 55.3866 127.794 55.3169 127.481 55.3169C127.167 55.3169 126.884 55.3866 126.633 55.5261C126.389 55.6655 126.191 55.8678 126.037 56.1328C125.891 56.3908 125.817 56.7011 125.817 57.0637C125.817 57.4194 125.891 57.7297 126.037 57.9947C126.191 58.2597 126.389 58.4619 126.633 58.6014C126.884 58.7409 127.167 58.8106 127.481 58.8106ZM129.175 59.8567V58.5387L129.228 57.0533L129.123 55.5679V52.0951H130.42V59.8567H129.175ZM134.703 59.8567L137.998 52.5344H139.337L142.643 59.8567H141.22L138.385 53.2562H138.929L136.105 59.8567H134.703ZM136.22 58.1621L136.586 57.0951H140.54L140.906 58.1621H136.22ZM143.864 59.8567V52.5344H146.877C147.525 52.5344 148.08 52.639 148.54 52.8482C149.007 53.0574 149.366 53.3573 149.617 53.7478C149.869 54.1383 149.994 54.6021 149.994 55.139C149.994 55.676 149.869 56.1397 149.617 56.5303C149.366 56.9208 149.007 57.2206 148.54 57.4299C148.08 57.6391 147.525 57.7437 146.877 57.7437H144.617L145.224 57.1056V59.8567H143.864ZM145.224 57.252L144.617 56.593H146.814C147.414 56.593 147.864 56.4675 148.163 56.2165C148.47 55.9584 148.624 55.5993 148.624 55.139C148.624 54.6718 148.47 54.3127 148.163 54.0616C147.864 53.8106 147.414 53.685 146.814 53.685H144.617L145.224 53.0156V57.252ZM151.643 59.8567V52.5344H153.003V59.8567H151.643Z" fill="#FB1EE6"/>
</svg>
