<svg width="530" height="215" viewBox="0 0 530 215" fill="none" xmlns="http://www.w3.org/2000/svg">
<path d="M44.032 78.656C40.8747 78.656 38.1013 80.704 35.712 84.8C33.3227 88.896 32.128 93.76 32.128 99.392V133.696H41.216V136H1.28V133.696H8.32V77.376H1.28V75.072H32.128V87.36C33.2373 83.008 35.3707 79.68 38.528 77.376C41.6853 74.9867 45.2693 73.792 49.28 73.792C53.2907 73.792 56.5333 74.944 59.008 77.248C61.568 79.4667 62.848 82.6667 62.848 86.848C62.848 90.944 61.9093 94.1013 60.032 96.32C58.1547 98.5387 55.2533 99.648 51.328 99.648C47.488 99.648 44.6293 98.368 42.752 95.808C40.96 93.248 40.7467 89.7067 42.112 85.184H46.72C48.8533 80.832 47.9573 78.656 44.032 78.656ZM98.694 137.28C87.686 137.28 79.4087 134.464 73.862 128.832C68.4007 123.115 65.67 115.221 65.67 105.152C65.67 94.9973 68.742 87.232 74.886 81.856C81.1153 76.48 89.0087 73.792 98.566 73.792C117.937 73.792 127.238 83.52 126.47 102.976H90.374V107.968C90.374 116.331 91.4407 122.645 93.574 126.912C95.7073 131.179 99.4193 133.312 104.71 133.312C114.609 133.312 121.094 128.021 124.166 117.44L126.47 117.824C124.849 123.968 121.905 128.747 117.638 132.16C113.457 135.573 107.142 137.28 98.694 137.28ZM90.502 100.416H103.686V94.144C103.686 87.232 103.259 82.5387 102.406 80.064C101.638 77.504 100.017 76.224 97.542 76.224C95.1527 76.224 93.3607 77.5893 92.166 80.32C91.0567 82.9653 90.502 87.5733 90.502 94.144V100.416ZM171.931 77.376V75.072H204.955V77.376H199.707L211.227 120.512L222.619 77.376H213.787V75.072H231.067V77.376H225.691L210.331 136H192.795L181.659 96.704L169.627 136H152.475L133.531 77.376H127.771V75.072H166.555V77.376H158.875L170.651 120.896L179.867 90.944L176.667 77.376H171.931ZM261.125 105.92H264.837V96.064C264.837 87.9573 264.368 82.5387 263.429 79.808C262.576 76.992 260.869 75.584 258.309 75.584C256.773 75.584 255.365 76.0107 254.085 76.864C252.89 77.632 252.293 78.7413 252.293 80.192C252.293 81.5573 252.549 82.9653 253.061 84.416H256.261C256.944 86.208 257.285 88.384 257.285 90.944C257.285 93.4187 256.218 95.5947 254.085 97.472C251.952 99.264 249.264 100.16 246.021 100.16C238.682 100.16 235.013 96.6187 235.013 89.536C235.013 79.04 243.93 73.792 261.765 73.792C271.92 73.792 278.917 75.5413 282.757 79.04C286.682 82.4533 288.645 88.768 288.645 97.984V123.968C288.645 128.405 289.882 130.624 292.357 130.624C295.258 130.624 296.965 126.229 297.477 117.44L299.397 117.568C299.056 125.077 297.648 130.24 295.173 133.056C292.698 135.872 288.645 137.28 283.013 137.28C272.773 137.28 266.885 134.123 265.349 127.808C264.24 131.051 262.576 133.44 260.357 134.976C258.138 136.512 254.896 137.28 250.629 137.28C238 137.28 231.685 132.117 231.685 121.792C231.685 115.733 234.074 111.595 238.853 109.376C243.717 107.072 251.141 105.92 261.125 105.92ZM256.005 121.664C256.005 126.101 256.218 128.96 256.645 130.24C257.157 131.52 258.053 132.16 259.333 132.16C260.698 132.16 261.936 131.093 263.045 128.96C264.24 126.741 264.837 123.712 264.837 119.872V107.968H263.941C258.65 107.968 256.005 111.851 256.005 119.616V121.664ZM344.407 78.656C341.25 78.656 338.476 80.704 336.087 84.8C333.698 88.896 332.503 93.76 332.503 99.392V133.696H341.591V136H301.655V133.696H308.695V77.376H301.655V75.072H332.503V87.36C333.612 83.008 335.746 79.68 338.903 77.376C342.06 74.9867 345.644 73.792 349.655 73.792C353.666 73.792 356.908 74.944 359.383 77.248C361.943 79.4667 363.223 82.6667 363.223 86.848C363.223 90.944 362.284 94.1013 360.407 96.32C358.53 98.5387 355.628 99.648 351.703 99.648C347.863 99.648 345.004 98.368 343.127 95.808C341.335 93.248 341.122 89.7067 342.487 85.184H347.095C349.228 80.832 348.332 78.656 344.407 78.656ZM407.25 102.062C407.25 101.604 407.25 100.688 407.25 99.3125C407.25 97.8958 407.208 96.2917 407.125 94.5C407.042 92.6667 406.896 90.7292 406.688 88.6875C406.479 86.6458 406.146 84.75 405.688 83C404.688 81.7083 403.562 80.5625 402.312 79.5625C401.104 78.5208 399.542 78 397.625 78C394.375 78 391.979 80.125 390.438 84.375C388.938 88.625 388.188 95.2083 388.188 104.125C388.188 108.042 388.354 111.625 388.688 114.875C389.062 118.125 389.604 120.917 390.312 123.25C391.062 125.583 392 127.396 393.125 128.688C394.292 129.979 395.667 130.625 397.25 130.625C403.917 130.625 407.25 121.104 407.25 102.062ZM406.5 74.5625C405.708 70.3958 404.604 66.5208 403.188 62.9375C401.771 59.3125 400.062 56.1875 398.062 53.5625C396.104 50.9375 393.854 48.875 391.312 47.375C388.812 45.875 386.104 45.125 383.188 45.125C381.521 45.125 380 45.3333 378.625 45.75C377.292 46.1667 376.125 46.6667 375.125 47.25C374.125 47.7917 373.292 48.3333 372.625 48.875C372 49.375 371.542 49.75 371.25 50L369.625 47.8125C370.625 46.5208 371.833 45.3125 373.25 44.1875C374.708 43.0625 376.292 42.1042 378 41.3125C379.708 40.5208 381.5 39.8958 383.375 39.4375C385.292 38.9792 387.188 38.75 389.062 38.75C395.229 38.75 400.646 40.1042 405.312 42.8125C409.979 45.4792 413.875 49.2708 417 54.1875C420.125 59.1042 422.479 65.0417 424.062 72C425.646 78.9583 426.438 86.6875 426.438 95.1875C426.438 102.062 425.729 108.104 424.312 113.312C422.938 118.521 420.958 122.896 418.375 126.438C415.792 129.938 412.646 132.583 408.938 134.375C405.271 136.125 401.125 137 396.5 137C393.292 137 390.021 136.438 386.688 135.312C383.396 134.146 380.396 132.271 377.688 129.688C375.021 127.104 372.833 123.729 371.125 119.562C369.417 115.354 368.562 110.208 368.562 104.125C368.562 98.875 369.292 94.2083 370.75 90.125C372.25 86.0417 374.25 82.6042 376.75 79.8125C379.25 76.9792 382.146 74.8333 385.438 73.375C388.729 71.875 392.208 71.125 395.875 71.125C397.292 71.125 398.562 71.25 399.688 71.5C400.812 71.7083 401.792 71.9792 402.625 72.3125C403.458 72.6458 404.188 73.0208 404.812 73.4375C405.438 73.8125 406 74.1875 406.5 74.5625ZM435.849 137.28V114.368H437.385C439.604 121.792 442.59 126.997 446.345 129.984C450.1 132.971 454.793 134.464 460.425 134.464C469.129 134.464 473.481 131.691 473.481 126.144C473.481 123.755 472.414 121.963 470.281 120.768C466.953 118.891 462.686 117.44 457.481 116.416C451.678 114.88 446.814 112.832 442.889 110.272C438.196 107.2 435.849 102.336 435.849 95.68C435.849 89.024 437.897 83.7333 441.993 79.808C446.089 75.7973 451.55 73.792 458.377 73.792C462.558 73.792 466.868 74.7733 471.305 76.736C472.926 77.4187 474.164 77.76 475.017 77.76C475.87 77.76 476.596 77.4613 477.193 76.864C477.79 76.2667 478.516 75.1573 479.369 73.536H480.777V93.12H479.241C474.889 82.0267 468.148 76.48 459.017 76.48C455.006 76.48 452.02 77.2053 450.057 78.656C448.094 80.0213 447.113 81.7707 447.113 83.904C447.113 85.184 447.412 86.208 448.009 86.976C448.606 87.6587 449.076 88.1707 449.417 88.512C449.758 88.8533 450.313 89.2373 451.081 89.664C451.849 90.0053 452.489 90.304 453.001 90.56C453.513 90.7307 454.281 90.9867 455.305 91.328C456.414 91.6693 457.225 91.8827 457.737 91.968C463.54 93.4187 467.721 94.6987 470.281 95.808C472.841 96.832 475.273 98.112 477.577 99.648C482.27 102.891 484.617 108.139 484.617 115.392C484.617 122.56 482.484 128.021 478.217 131.776C473.95 135.445 468.105 137.28 460.681 137.28C455.39 137.28 450.27 136.043 445.321 133.568C444.297 132.885 443.486 132.544 442.889 132.544C441.012 132.544 439.177 134.123 437.385 137.28H435.849Z" fill="#C8C8C8"/>
<path d="M245.896 206.36C243.976 206.36 242.188 206.048 240.532 205.424C238.9 204.776 237.472 203.876 236.248 202.724C235.048 201.548 234.112 200.168 233.44 198.584C232.768 197 232.432 195.272 232.432 193.4C232.432 191.528 232.768 189.8 233.44 188.216C234.112 186.632 235.06 185.264 236.284 184.112C237.508 182.936 238.936 182.036 240.568 181.412C242.2 180.764 243.988 180.44 245.932 180.44C247.996 180.44 249.88 180.8 251.584 181.52C253.288 182.216 254.728 183.26 255.904 184.652L252.88 187.496C251.968 186.512 250.948 185.78 249.82 185.3C248.692 184.796 247.468 184.544 246.148 184.544C244.828 184.544 243.616 184.76 242.512 185.192C241.432 185.624 240.484 186.236 239.668 187.028C238.876 187.82 238.252 188.756 237.796 189.836C237.364 190.916 237.148 192.104 237.148 193.4C237.148 194.696 237.364 195.884 237.796 196.964C238.252 198.044 238.876 198.98 239.668 199.772C240.484 200.564 241.432 201.176 242.512 201.608C243.616 202.04 244.828 202.256 246.148 202.256C247.468 202.256 248.692 202.016 249.82 201.536C250.948 201.032 251.968 200.276 252.88 199.268L255.904 202.148C254.728 203.516 253.288 204.56 251.584 205.28C249.88 206 247.984 206.36 245.896 206.36ZM260.956 206V186.776H265.24V192.068L264.736 190.52C265.312 189.224 266.212 188.24 267.436 187.568C268.684 186.896 270.232 186.56 272.08 186.56V190.844C271.888 190.796 271.708 190.772 271.54 190.772C271.372 190.748 271.204 190.736 271.036 190.736C269.332 190.736 267.976 191.24 266.968 192.248C265.96 193.232 265.456 194.708 265.456 196.676V206H260.956ZM285.758 206.252C283.622 206.252 281.75 205.832 280.142 204.992C278.558 204.128 277.322 202.952 276.434 201.464C275.57 199.976 275.138 198.284 275.138 196.388C275.138 194.468 275.558 192.776 276.398 191.312C277.262 189.824 278.438 188.66 279.926 187.82C281.438 186.98 283.154 186.56 285.074 186.56C286.946 186.56 288.614 186.968 290.078 187.784C291.542 188.6 292.694 189.752 293.534 191.24C294.374 192.728 294.794 194.48 294.794 196.496C294.794 196.688 294.782 196.904 294.758 197.144C294.758 197.384 294.746 197.612 294.722 197.828H278.702V194.84H292.346L290.582 195.776C290.606 194.672 290.378 193.7 289.898 192.86C289.418 192.02 288.758 191.36 287.918 190.88C287.102 190.4 286.154 190.16 285.074 190.16C283.97 190.16 282.998 190.4 282.158 190.88C281.342 191.36 280.694 192.032 280.214 192.896C279.758 193.736 279.53 194.732 279.53 195.884V196.604C279.53 197.756 279.794 198.776 280.322 199.664C280.85 200.552 281.594 201.236 282.554 201.716C283.514 202.196 284.618 202.436 285.866 202.436C286.946 202.436 287.918 202.268 288.782 201.932C289.646 201.596 290.414 201.068 291.086 200.348L293.498 203.12C292.634 204.128 291.542 204.908 290.222 205.46C288.926 205.988 287.438 206.252 285.758 206.252ZM308.252 206.252C306.404 206.252 304.736 205.844 303.248 205.028C301.784 204.188 300.632 203.036 299.792 201.572C298.952 200.108 298.532 198.38 298.532 196.388C298.532 194.396 298.952 192.668 299.792 191.204C300.632 189.74 301.784 188.6 303.248 187.784C304.736 186.968 306.404 186.56 308.252 186.56C309.86 186.56 311.3 186.92 312.572 187.64C313.844 188.336 314.852 189.404 315.596 190.844C316.34 192.284 316.712 194.132 316.712 196.388C316.712 198.62 316.352 200.468 315.632 201.932C314.912 203.372 313.916 204.452 312.644 205.172C311.372 205.892 309.908 206.252 308.252 206.252ZM308.792 202.4C309.872 202.4 310.832 202.16 311.672 201.68C312.536 201.2 313.22 200.504 313.724 199.592C314.252 198.68 314.516 197.612 314.516 196.388C314.516 195.14 314.252 194.072 313.724 193.184C313.22 192.272 312.536 191.576 311.672 191.096C310.832 190.616 309.872 190.376 308.792 190.376C307.712 190.376 306.74 190.616 305.876 191.096C305.036 191.576 304.352 192.272 303.824 193.184C303.32 194.072 303.068 195.14 303.068 196.388C303.068 197.612 303.32 198.68 303.824 199.592C304.352 200.504 305.036 201.2 305.876 201.68C306.74 202.16 307.712 202.4 308.792 202.4ZM314.624 206V201.464L314.804 196.352L314.444 191.24V179.288H318.908V206H314.624ZM325.831 206V186.776H330.331V206H325.831ZM328.099 183.608C327.259 183.608 326.563 183.344 326.011 182.816C325.483 182.288 325.219 181.652 325.219 180.908C325.219 180.14 325.483 179.504 326.011 179C326.563 178.472 327.259 178.208 328.099 178.208C328.939 178.208 329.623 178.46 330.151 178.964C330.703 179.444 330.979 180.056 330.979 180.8C330.979 181.592 330.715 182.264 330.187 182.816C329.659 183.344 328.963 183.608 328.099 183.608ZM344.473 206.252C342.361 206.252 340.729 205.712 339.577 204.632C338.425 203.528 337.849 201.908 337.849 199.772V182.528H342.349V199.664C342.349 200.576 342.577 201.284 343.033 201.788C343.513 202.292 344.173 202.544 345.013 202.544C346.021 202.544 346.861 202.28 347.533 201.752L348.793 204.956C348.265 205.388 347.617 205.712 346.849 205.928C346.081 206.144 345.289 206.252 344.473 206.252ZM334.681 190.52V186.92H347.497V190.52H334.681ZM376.54 206.36C374.62 206.36 372.832 206.048 371.176 205.424C369.544 204.776 368.116 203.876 366.892 202.724C365.692 201.548 364.756 200.168 364.084 198.584C363.412 197 363.076 195.272 363.076 193.4C363.076 191.528 363.412 189.8 364.084 188.216C364.756 186.632 365.704 185.264 366.928 184.112C368.152 182.936 369.58 182.036 371.212 181.412C372.844 180.764 374.632 180.44 376.576 180.44C378.64 180.44 380.524 180.8 382.228 181.52C383.932 182.216 385.372 183.26 386.548 184.652L383.524 187.496C382.612 186.512 381.592 185.78 380.464 185.3C379.336 184.796 378.112 184.544 376.792 184.544C375.472 184.544 374.26 184.76 373.156 185.192C372.076 185.624 371.128 186.236 370.312 187.028C369.52 187.82 368.896 188.756 368.44 189.836C368.008 190.916 367.792 192.104 367.792 193.4C367.792 194.696 368.008 195.884 368.44 196.964C368.896 198.044 369.52 198.98 370.312 199.772C371.128 200.564 372.076 201.176 373.156 201.608C374.26 202.04 375.472 202.256 376.792 202.256C378.112 202.256 379.336 202.016 380.464 201.536C381.592 201.032 382.612 200.276 383.524 199.268L386.548 202.148C385.372 203.516 383.932 204.56 382.228 205.28C380.524 206 378.628 206.36 376.54 206.36ZM403.269 206V202.112L403.017 201.284V194.48C403.017 193.16 402.621 192.14 401.829 191.42C401.037 190.676 399.837 190.304 398.229 190.304C397.149 190.304 396.081 190.472 395.025 190.808C393.993 191.144 393.117 191.612 392.397 192.212L390.633 188.936C391.665 188.144 392.889 187.556 394.305 187.172C395.745 186.764 397.233 186.56 398.769 186.56C401.553 186.56 403.701 187.232 405.213 188.576C406.749 189.896 407.517 191.948 407.517 194.732V206H403.269ZM397.221 206.252C395.781 206.252 394.521 206.012 393.441 205.532C392.361 205.028 391.521 204.344 390.921 203.48C390.345 202.592 390.057 201.596 390.057 200.492C390.057 199.412 390.309 198.44 390.813 197.576C391.341 196.712 392.193 196.028 393.369 195.524C394.545 195.02 396.105 194.768 398.049 194.768H403.629V197.756H398.373C396.837 197.756 395.805 198.008 395.277 198.512C394.749 198.992 394.485 199.592 394.485 200.312C394.485 201.128 394.809 201.776 395.457 202.256C396.105 202.736 397.005 202.976 398.157 202.976C399.261 202.976 400.245 202.724 401.109 202.22C401.997 201.716 402.633 200.972 403.017 199.988L403.773 202.688C403.341 203.816 402.561 204.692 401.433 205.316C400.329 205.94 398.925 206.252 397.221 206.252ZM414.292 206V186.776H418.576V192.068L418.072 190.52C418.648 189.224 419.548 188.24 420.772 187.568C422.02 186.896 423.568 186.56 425.416 186.56V190.844C425.224 190.796 425.044 190.772 424.876 190.772C424.708 190.748 424.54 190.736 424.372 190.736C422.668 190.736 421.312 191.24 420.304 192.248C419.296 193.232 418.792 194.708 418.792 196.676V206H414.292ZM438.193 206.252C436.345 206.252 434.677 205.844 433.189 205.028C431.725 204.188 430.573 203.036 429.733 201.572C428.893 200.108 428.473 198.38 428.473 196.388C428.473 194.396 428.893 192.668 429.733 191.204C430.573 189.74 431.725 188.6 433.189 187.784C434.677 186.968 436.345 186.56 438.193 186.56C439.801 186.56 441.241 186.92 442.513 187.64C443.785 188.336 444.793 189.404 445.537 190.844C446.281 192.284 446.653 194.132 446.653 196.388C446.653 198.62 446.293 200.468 445.573 201.932C444.853 203.372 443.857 204.452 442.585 205.172C441.313 205.892 439.849 206.252 438.193 206.252ZM438.733 202.4C439.813 202.4 440.773 202.16 441.613 201.68C442.477 201.2 443.161 200.504 443.665 199.592C444.193 198.68 444.457 197.612 444.457 196.388C444.457 195.14 444.193 194.072 443.665 193.184C443.161 192.272 442.477 191.576 441.613 191.096C440.773 190.616 439.813 190.376 438.733 190.376C437.653 190.376 436.681 190.616 435.817 191.096C434.977 191.576 434.293 192.272 433.765 193.184C433.261 194.072 433.009 195.14 433.009 196.388C433.009 197.612 433.261 198.68 433.765 199.592C434.293 200.504 434.977 201.2 435.817 201.68C436.681 202.16 437.653 202.4 438.733 202.4ZM444.565 206V201.464L444.745 196.352L444.385 191.24V179.288H448.849V206H444.565ZM463.59 206L474.93 180.8H479.538L490.914 206H486.018L476.262 183.284H478.134L468.414 206H463.59ZM468.81 200.168L470.07 196.496H483.678L484.938 200.168H468.81ZM495.118 206V180.8H505.486C507.718 180.8 509.626 181.16 511.21 181.88C512.818 182.6 514.054 183.632 514.918 184.976C515.782 186.32 516.214 187.916 516.214 189.764C516.214 191.612 515.782 193.208 514.918 194.552C514.054 195.896 512.818 196.928 511.21 197.648C509.626 198.368 507.718 198.728 505.486 198.728H497.71L499.798 196.532V206H495.118ZM499.798 197.036L497.71 194.768H505.27C507.334 194.768 508.882 194.336 509.914 193.472C510.97 192.584 511.498 191.348 511.498 189.764C511.498 188.156 510.97 186.92 509.914 186.056C508.882 185.192 507.334 184.76 505.27 184.76H497.71L499.798 182.456V197.036ZM521.888 206V180.8H526.568V206H521.888Z" fill="#C8C8C8"/>
</svg>
