<svg width="629" height="205" viewBox="0 0 629 205" fill="none" xmlns="http://www.w3.org/2000/svg">
<path d="M7.3125 117V34.0625H34.9375V117H7.3125ZM39.3125 50.625V34.0625H70.875L87.5 50.625V75.5L74.75 88.25L73.875 86.5L47.9375 89.9375L48.9375 92.125H39.3125V76.0625H60.0625V50.625H39.3125ZM90.3125 117H60.8125L48.9375 92.125H70.875L74.75 88.25L90.3125 117ZM127.438 117H116.375L99.8125 100.438V67.1875L116.375 50.625H127.438V117ZM131.812 90.375V78.8125H146.375V67.1875H131.812V50.625H155.25L171.812 67.1875V90.375H131.812ZM131.812 117V101.5H168.938V108.688L160.688 117H131.812ZM177.25 50.625H203.625L214.438 85.1875L222.125 61.25L232.062 91.8125L224.188 117.062L224.125 117H201.062L177.25 50.625ZM222.5 50.625H248.562L269.938 117H244.875L222.5 50.625ZM272.688 112.875L261.062 77.125L268.5 50.625H294.375L272.688 112.875ZM344.75 117V67.1875H305.438V58.9375L313.75 50.625H355.188L371.75 67.1875V117H344.75ZM340.375 78.375V89.875H326.125V101.5H340.375V108.812L332.125 117H311L299.875 106.062V89.4375L311 78.375H340.375ZM429.062 67.1875H417.312V59.9375L426.562 50.625H443.312L456.75 66.125V83.3125H429.062V67.1875ZM385.25 117V50.625H412.875V117H385.25ZM538.625 25.3125V117H511V25.3125H538.625ZM493.312 101.5H506.625V110.438L500.062 117H480.625L465.688 102.062V65.5625L480.625 50.625H506.625V67.1875H493.312V101.5ZM567.062 50.625H578.125V74.0625H609.625L624 88.5625V101.5L608.562 117H596.375V91.9375H566.5L552.125 78.125V65.5L567.062 50.625ZM579.75 104.812H592V117L563.562 116.938L552.062 103.312V98H579.75V104.812ZM596.375 62.8125H582.5V50.625H611.875L621.75 60.5V68H596.375V62.8125Z" fill="black"/>
<path d="M302.659 195.432C299.371 195.432 296.935 194.304 295.351 192.048C293.791 189.792 293.011 186.588 293.011 182.436C293.011 178.308 293.791 175.116 295.351 172.86C296.935 170.58 299.371 169.44 302.659 169.44C303.907 169.44 304.999 169.608 305.935 169.944C306.895 170.28 307.723 170.748 308.419 171.348C309.115 171.924 309.691 172.632 310.147 173.472C310.603 174.288 310.963 175.188 311.227 176.172L306.907 177.396C306.739 176.82 306.547 176.28 306.331 175.776C306.115 175.272 305.839 174.84 305.503 174.48C305.191 174.096 304.795 173.808 304.315 173.616C303.835 173.4 303.259 173.292 302.587 173.292C300.955 173.292 299.779 173.916 299.059 175.164C298.363 176.412 298.015 178.116 298.015 180.276V184.596C298.015 186.756 298.363 188.46 299.059 189.708C299.779 190.956 300.955 191.58 302.587 191.58C303.259 191.58 303.835 191.484 304.315 191.292C304.795 191.076 305.191 190.788 305.503 190.428C305.839 190.044 306.115 189.6 306.331 189.096C306.547 188.592 306.739 188.052 306.907 187.476L311.227 188.7C310.963 189.684 310.603 190.596 310.147 191.436C309.691 192.252 309.115 192.96 308.419 193.56C307.723 194.136 306.895 194.592 305.935 194.928C304.999 195.264 303.907 195.432 302.659 195.432ZM316.497 191.364H321.105V180.06H316.497V176.424H325.713V181.5H326.001C326.169 180.852 326.397 180.228 326.685 179.628C326.997 179.004 327.381 178.464 327.837 178.008C328.317 177.528 328.893 177.144 329.565 176.856C330.237 176.568 331.041 176.424 331.977 176.424H333.993V180.744H330.177C328.785 180.744 327.693 181.152 326.901 181.968C326.109 182.784 325.713 183.828 325.713 185.1V191.364H332.157V195H316.497V191.364ZM347.615 195.432C346.127 195.432 344.807 195.204 343.655 194.748C342.503 194.292 341.531 193.644 340.739 192.804C339.971 191.964 339.383 190.956 338.975 189.78C338.567 188.58 338.363 187.236 338.363 185.748C338.363 184.236 338.567 182.88 338.975 181.68C339.407 180.48 340.007 179.46 340.775 178.62C341.543 177.78 342.467 177.132 343.547 176.676C344.651 176.22 345.887 175.992 347.255 175.992C348.599 175.992 349.811 176.22 350.891 176.676C351.971 177.108 352.883 177.732 353.627 178.548C354.395 179.364 354.983 180.348 355.391 181.5C355.799 182.652 356.003 183.924 356.003 185.316V186.828H342.971V187.296C342.971 188.64 343.391 189.732 344.231 190.572C345.071 191.388 346.247 191.796 347.759 191.796C348.911 191.796 349.895 191.568 350.711 191.112C351.551 190.632 352.247 190.008 352.799 189.24L355.427 191.868C354.755 192.852 353.771 193.692 352.475 194.388C351.203 195.084 349.583 195.432 347.615 195.432ZM347.291 179.376C345.995 179.376 344.951 179.784 344.159 180.6C343.367 181.416 342.971 182.496 342.971 183.84V184.092H351.395V183.768C351.395 182.424 351.023 181.356 350.279 180.564C349.559 179.772 348.563 179.376 347.291 179.376ZM373.477 191.724H373.225C372.721 192.852 372.025 193.752 371.137 194.424C370.273 195.096 369.121 195.432 367.681 195.432C366.625 195.432 365.653 195.24 364.765 194.856C363.901 194.448 363.157 193.848 362.533 193.056C361.909 192.24 361.429 191.22 361.093 189.996C360.757 188.772 360.589 187.344 360.589 185.712C360.589 182.448 361.237 180.012 362.533 178.404C363.829 176.796 365.545 175.992 367.681 175.992C369.121 175.992 370.273 176.328 371.137 177C372.025 177.672 372.721 178.572 373.225 179.7H373.477V168.36H378.085V195H373.477V191.724ZM369.625 191.76C370.153 191.76 370.645 191.7 371.101 191.58C371.581 191.436 371.989 191.244 372.325 191.004C372.685 190.74 372.961 190.416 373.153 190.032C373.369 189.624 373.477 189.156 373.477 188.628V182.796C373.477 182.268 373.369 181.812 373.153 181.428C372.961 181.02 372.685 180.696 372.325 180.456C371.989 180.192 371.581 180 371.101 179.88C370.645 179.736 370.153 179.664 369.625 179.664C368.281 179.664 367.237 180.072 366.493 180.888C365.773 181.704 365.413 182.82 365.413 184.236V187.188C365.413 188.604 365.773 189.72 366.493 190.536C367.237 191.352 368.281 191.76 369.625 191.76ZM393.507 173.544C392.427 173.544 391.659 173.316 391.203 172.86C390.771 172.404 390.555 171.852 390.555 171.204V170.34C390.555 169.692 390.771 169.14 391.203 168.684C391.659 168.228 392.427 168 393.507 168C394.587 168 395.343 168.228 395.775 168.684C396.231 169.14 396.459 169.692 396.459 170.34V171.204C396.459 171.852 396.231 172.404 395.775 172.86C395.343 173.316 394.587 173.544 393.507 173.544ZM385.083 191.364H391.203V180.06H385.083V176.424H395.811V191.364H401.499V195H385.083V191.364ZM416.201 195C414.425 195 413.117 194.532 412.277 193.596C411.437 192.66 411.017 191.448 411.017 189.96V180.06H405.617V176.424H409.289C410.033 176.424 410.561 176.28 410.873 175.992C411.185 175.68 411.341 175.14 411.341 174.372V169.872H415.625V176.424H423.185V180.06H415.625V191.364H423.185V195H416.201ZM460.761 195.432C457.473 195.432 455.037 194.304 453.453 192.048C451.893 189.792 451.113 186.588 451.113 182.436C451.113 178.308 451.893 175.116 453.453 172.86C455.037 170.58 457.473 169.44 460.761 169.44C462.009 169.44 463.101 169.608 464.037 169.944C464.997 170.28 465.825 170.748 466.521 171.348C467.217 171.924 467.793 172.632 468.249 173.472C468.705 174.288 469.065 175.188 469.329 176.172L465.009 177.396C464.841 176.82 464.649 176.28 464.433 175.776C464.217 175.272 463.941 174.84 463.605 174.48C463.293 174.096 462.897 173.808 462.417 173.616C461.937 173.4 461.361 173.292 460.689 173.292C459.057 173.292 457.881 173.916 457.161 175.164C456.465 176.412 456.117 178.116 456.117 180.276V184.596C456.117 186.756 456.465 188.46 457.161 189.708C457.881 190.956 459.057 191.58 460.689 191.58C461.361 191.58 461.937 191.484 462.417 191.292C462.897 191.076 463.293 190.788 463.605 190.428C463.941 190.044 464.217 189.6 464.433 189.096C464.649 188.592 464.841 188.052 465.009 187.476L469.329 188.7C469.065 189.684 468.705 190.596 468.249 191.436C467.793 192.252 467.217 192.96 466.521 193.56C465.825 194.136 464.997 194.592 464.037 194.928C463.101 195.264 462.009 195.432 460.761 195.432ZM489.538 195C488.41 195 487.534 194.724 486.91 194.172C486.31 193.596 485.95 192.804 485.83 191.796H485.65C485.314 192.948 484.654 193.848 483.67 194.496C482.686 195.12 481.474 195.432 480.034 195.432C478.162 195.432 476.674 194.94 475.57 193.956C474.466 192.972 473.914 191.604 473.914 189.852C473.914 186.108 476.662 184.236 482.158 184.236H485.434V183.012C485.434 181.836 485.146 180.948 484.57 180.348C483.994 179.748 483.058 179.448 481.762 179.448C480.586 179.448 479.638 179.676 478.918 180.132C478.198 180.588 477.586 181.176 477.082 181.896L474.454 179.664C475.03 178.632 475.954 177.768 477.226 177.072C478.522 176.352 480.19 175.992 482.23 175.992C484.678 175.992 486.586 176.568 487.954 177.72C489.346 178.848 490.042 180.54 490.042 182.796V191.544H492.238V195H489.538ZM481.582 192.264C482.686 192.264 483.598 192.012 484.318 191.508C485.062 190.98 485.434 190.272 485.434 189.384V186.9H482.266C479.746 186.9 478.486 187.692 478.486 189.276V189.996C478.486 190.74 478.762 191.304 479.314 191.688C479.866 192.072 480.622 192.264 481.582 192.264ZM497.184 191.364H501.792V180.06H497.184V176.424H506.4V181.5H506.688C506.856 180.852 507.084 180.228 507.372 179.628C507.684 179.004 508.068 178.464 508.524 178.008C509.004 177.528 509.58 177.144 510.252 176.856C510.924 176.568 511.728 176.424 512.664 176.424H514.68V180.744H510.864C509.472 180.744 508.38 181.152 507.588 181.968C506.796 182.784 506.4 183.828 506.4 185.1V191.364H512.844V195H497.184V191.364ZM531.578 191.724H531.326C530.822 192.852 530.126 193.752 529.238 194.424C528.374 195.096 527.222 195.432 525.782 195.432C524.726 195.432 523.754 195.24 522.866 194.856C522.002 194.448 521.258 193.848 520.634 193.056C520.01 192.24 519.53 191.22 519.194 189.996C518.858 188.772 518.69 187.344 518.69 185.712C518.69 182.448 519.338 180.012 520.634 178.404C521.93 176.796 523.646 175.992 525.782 175.992C527.222 175.992 528.374 176.328 529.238 177C530.126 177.672 530.822 178.572 531.326 179.7H531.578V168.36H536.186V195H531.578V191.724ZM527.726 191.76C528.254 191.76 528.746 191.7 529.202 191.58C529.682 191.436 530.09 191.244 530.426 191.004C530.786 190.74 531.062 190.416 531.254 190.032C531.47 189.624 531.578 189.156 531.578 188.628V182.796C531.578 182.268 531.47 181.812 531.254 181.428C531.062 181.02 530.786 180.696 530.426 180.456C530.09 180.192 529.682 180 529.202 179.88C528.746 179.736 528.254 179.664 527.726 179.664C526.382 179.664 525.338 180.072 524.594 180.888C523.874 181.704 523.514 182.82 523.514 184.236V187.188C523.514 188.604 523.874 189.72 524.594 190.536C525.338 191.352 526.382 191.76 527.726 191.76ZM578.406 195L576.642 188.628H569.19L567.462 195H562.71L569.766 169.872H576.318L583.41 195H578.406ZM573.078 174.516H572.79L570.018 184.776H575.85L573.078 174.516ZM587.708 195V169.872H597.248C599.696 169.872 601.568 170.568 602.864 171.96C604.16 173.352 604.808 175.248 604.808 177.648C604.808 180.048 604.16 181.944 602.864 183.336C601.568 184.728 599.696 185.424 597.248 185.424H592.424V195H587.708ZM592.424 181.572H596.276C597.548 181.572 598.46 181.32 599.012 180.816C599.564 180.288 599.84 179.46 599.84 178.332V176.964C599.84 175.836 599.564 175.02 599.012 174.516C598.46 173.988 597.548 173.724 596.276 173.724H592.424V181.572ZM610.222 195V191.472H615.874V173.4H610.222V169.872H626.206V173.4H620.554V191.472H626.206V195H610.222Z" fill="black"/>
</svg>
