<svg width="1962" height="1732" viewBox="0 0 1962 1732" fill="none" xmlns="http://www.w3.org/2000/svg">
<g filter="url(#filter0_f_25_1902)">
<rect x="1602.14" y="1253.85" width="752.584" height="440.261" transform="rotate(171.009 1602.14 1253.85)" fill="url(#paint0_linear_25_1902)"/>
</g>
<rect x="656.8" y="863.601" width="1000.35" height="632.821" rx="41.4511" transform="rotate(-8.78356 656.8 863.601)" fill="#18181B"/>
<mask id="mask0_25_1902" style="mask-type:alpha" maskUnits="userSpaceOnUse" x="662" y="716" width="1075" height="768">
<rect x="656.8" y="863.601" width="1000.35" height="632.821" rx="41.4511" transform="rotate(-8.78356 656.8 863.601)" fill="white"/>
</mask>
<g mask="url(#mask0_25_1902)">
<g opacity="0.18">
<line x1="644.057" y1="847.717" x2="1525.13" y2="1374.28" stroke="white" stroke-width="2.76341"/>
<line x1="631.247" y1="855.289" x2="1512.32" y2="1381.85" stroke="white" stroke-width="2.76341"/>
<line x1="618.439" y1="862.861" x2="1499.51" y2="1389.42" stroke="white" stroke-width="2.76341"/>
<line x1="605.623" y1="870.432" x2="1486.7" y2="1396.99" stroke="white" stroke-width="2.76341"/>
<line x1="592.815" y1="878.004" x2="1473.89" y2="1404.57" stroke="white" stroke-width="2.76341"/>
<line x1="580.002" y1="885.576" x2="1461.08" y2="1412.14" stroke="white" stroke-width="2.76341"/>
<line x1="567.195" y1="893.148" x2="1448.27" y2="1419.71" stroke="white" stroke-width="2.76341"/>
<line x1="554.384" y1="900.72" x2="1435.46" y2="1427.28" stroke="white" stroke-width="2.76341"/>
<line x1="541.571" y1="908.292" x2="1422.65" y2="1434.85" stroke="white" stroke-width="2.76341"/>
<line x1="528.761" y1="915.864" x2="1409.84" y2="1442.43" stroke="white" stroke-width="2.76341"/>
<line x1="515.947" y1="923.436" x2="1397.02" y2="1450" stroke="white" stroke-width="2.76341"/>
<line x1="503.138" y1="931.007" x2="1384.21" y2="1457.57" stroke="white" stroke-width="2.76341"/>
<line x1="490.325" y1="938.58" x2="1371.4" y2="1465.14" stroke="white" stroke-width="2.76341"/>
<line x1="477.516" y1="946.152" x2="1358.59" y2="1472.71" stroke="white" stroke-width="2.76341"/>
<line x1="464.706" y1="953.724" x2="1345.78" y2="1480.28" stroke="white" stroke-width="2.76341"/>
<line x1="451.892" y1="961.295" x2="1332.97" y2="1487.86" stroke="white" stroke-width="2.76341"/>
<line x1="439.084" y1="968.867" x2="1320.16" y2="1495.43" stroke="white" stroke-width="2.76341"/>
<line x1="426.27" y1="976.439" x2="1307.35" y2="1503" stroke="white" stroke-width="2.76341"/>
<line x1="413.459" y1="984.011" x2="1294.53" y2="1510.57" stroke="white" stroke-width="2.76341"/>
<line x1="400.649" y1="991.583" x2="1281.72" y2="1518.14" stroke="white" stroke-width="2.76341"/>
<line x1="387.839" y1="999.155" x2="1268.91" y2="1525.72" stroke="white" stroke-width="2.76341"/>
<line x1="375.029" y1="1006.73" x2="1256.1" y2="1533.29" stroke="white" stroke-width="2.76341"/>
<line x1="362.213" y1="1014.3" x2="1243.29" y2="1540.86" stroke="white" stroke-width="2.76341"/>
<line x1="349.405" y1="1021.87" x2="1230.48" y2="1548.43" stroke="white" stroke-width="2.76341"/>
<line x1="336.596" y1="1029.44" x2="1217.67" y2="1556" stroke="white" stroke-width="2.76341"/>
<line x1="323.782" y1="1037.01" x2="1204.86" y2="1563.58" stroke="white" stroke-width="2.76341"/>
<line x1="310.97" y1="1044.59" x2="1192.04" y2="1571.15" stroke="white" stroke-width="2.76341"/>
<line x1="298.16" y1="1052.16" x2="1179.24" y2="1578.72" stroke="white" stroke-width="2.76341"/>
<line x1="285.35" y1="1059.73" x2="1166.43" y2="1586.29" stroke="white" stroke-width="2.76341"/>
<line x1="272.541" y1="1067.3" x2="1153.62" y2="1593.86" stroke="white" stroke-width="2.76341"/>
<line x1="259.726" y1="1074.87" x2="1140.8" y2="1601.44" stroke="white" stroke-width="2.76341"/>
<line x1="660.022" y1="842.453" x2="1541.1" y2="1369.01" stroke="white" stroke-width="2.76341"/>
<line x1="675.985" y1="837.191" x2="1557.06" y2="1363.75" stroke="white" stroke-width="2.76341"/>
<line x1="691.954" y1="831.928" x2="1573.03" y2="1358.49" stroke="white" stroke-width="2.76341"/>
<line x1="707.913" y1="826.665" x2="1588.99" y2="1353.23" stroke="white" stroke-width="2.76341"/>
<line x1="723.878" y1="821.403" x2="1604.95" y2="1347.96" stroke="white" stroke-width="2.76341"/>
<line x1="739.845" y1="816.14" x2="1620.92" y2="1342.7" stroke="white" stroke-width="2.76341"/>
<line x1="755.807" y1="810.877" x2="1636.88" y2="1337.44" stroke="white" stroke-width="2.76341"/>
<line x1="771.772" y1="805.614" x2="1652.85" y2="1332.18" stroke="white" stroke-width="2.76341"/>
<line x1="787.735" y1="800.351" x2="1668.81" y2="1326.91" stroke="white" stroke-width="2.76341"/>
<line x1="803.698" y1="795.088" x2="1684.77" y2="1321.65" stroke="white" stroke-width="2.76341"/>
<line x1="819.66" y1="789.826" x2="1700.74" y2="1316.39" stroke="white" stroke-width="2.76341"/>
<line x1="835.63" y1="784.562" x2="1716.71" y2="1311.12" stroke="white" stroke-width="2.76341"/>
<line x1="851.593" y1="779.299" x2="1732.67" y2="1305.86" stroke="white" stroke-width="2.76341"/>
<line x1="867.556" y1="774.036" x2="1748.63" y2="1300.6" stroke="white" stroke-width="2.76341"/>
<line x1="883.519" y1="768.774" x2="1764.59" y2="1295.33" stroke="white" stroke-width="2.76341"/>
<line x1="899.484" y1="763.511" x2="1780.56" y2="1290.07" stroke="white" stroke-width="2.76341"/>
<line x1="915.446" y1="758.248" x2="1796.52" y2="1284.81" stroke="white" stroke-width="2.76341"/>
<line x1="931.411" y1="752.986" x2="1812.49" y2="1279.55" stroke="white" stroke-width="2.76341"/>
<line x1="947.376" y1="747.722" x2="1828.45" y2="1274.28" stroke="white" stroke-width="2.76341"/>
<line x1="963.341" y1="742.46" x2="1844.42" y2="1269.02" stroke="white" stroke-width="2.76341"/>
<line x1="979.304" y1="737.197" x2="1860.38" y2="1263.76" stroke="white" stroke-width="2.76341"/>
<line x1="995.269" y1="731.934" x2="1876.34" y2="1258.5" stroke="white" stroke-width="2.76341"/>
<line x1="1011.23" y1="726.671" x2="1892.31" y2="1253.23" stroke="white" stroke-width="2.76341"/>
</g>
<rect x="656.8" y="863.601" width="1000.35" height="632.821" rx="41.4511" transform="rotate(-8.78356 656.8 863.601)" fill="url(#paint1_linear_25_1902)"/>
<g filter="url(#filter1_f_25_1902)">
<circle cx="702.857" cy="926.39" r="248.707" transform="rotate(-8.78356 702.857 926.39)" fill="#B4C9FF"/>
</g>
<g filter="url(#filter2_f_25_1902)">
<circle cx="1699.38" cy="1295.3" r="248.707" transform="rotate(-8.78356 1699.38 1295.3)" fill="white"/>
</g>
</g>
<path d="M926.606 1162.02L915.101 1087.56C913.619 1077.97 902.744 1071.66 890.854 1073.5L783.774 1090.05C771.881 1091.89 763.414 1101.18 764.896 1110.77L776.401 1185.23C777.883 1194.82 788.763 1201.12 800.653 1199.29L907.733 1182.74C919.623 1180.9 928.088 1171.61 926.606 1162.02ZM800.437 1197.89C789.499 1199.58 779.493 1193.78 778.13 1184.96L766.625 1110.5C765.262 1101.68 773.051 1093.13 783.989 1091.44L891.069 1074.9C902.002 1073.21 912.008 1079.01 913.372 1087.83L924.877 1162.29C926.239 1171.11 918.45 1179.66 907.517 1181.35L800.437 1197.89Z" fill="#3F3F46"/>
<path d="M907.526 1181.35L800.447 1197.89C795.189 1198.7 789.886 1197.8 785.704 1195.37C781.521 1192.95 778.801 1189.21 778.141 1184.97L766.635 1110.5C765.272 1101.68 773.061 1093.13 783.999 1091.44L891.078 1074.9C902.011 1073.21 912.017 1079.01 913.38 1087.83L924.886 1162.29C926.247 1171.11 918.459 1179.66 907.526 1181.35Z" fill="url(#paint2_linear_25_1902)"/>
<path d="M774.736 1172.53L774.52 1171.14L823.83 1163.52C827.097 1163.01 830.068 1161.48 832.09 1159.26C834.113 1157.04 835.022 1154.31 834.619 1151.68L830.526 1125.19C830.115 1122.55 828.425 1120.23 825.827 1118.72C823.228 1117.22 819.933 1116.65 816.665 1117.15L767.356 1124.77L767.14 1123.38L816.449 1115.76C820.176 1115.18 823.933 1115.83 826.897 1117.55C829.86 1119.26 831.787 1121.92 832.255 1124.92L836.348 1151.41C836.808 1154.41 835.772 1157.52 833.465 1160.06C831.159 1162.59 827.771 1164.34 824.045 1164.92L774.736 1172.53Z" fill="#383335"/>
<path d="M864.977 1146.99L860.884 1120.5C860.424 1117.49 861.461 1114.38 863.768 1111.85C866.074 1109.32 869.462 1107.57 873.189 1106.99L916.982 1100.22L917.198 1101.62L873.404 1108.39C870.137 1108.89 867.166 1110.43 865.143 1112.65C863.12 1114.87 862.21 1117.59 862.614 1120.23L866.706 1146.72C867.118 1149.35 868.808 1151.68 871.407 1153.19C874.006 1154.69 877.3 1155.26 880.569 1154.75L924.362 1147.99L924.578 1149.38L880.784 1156.15C877.057 1156.72 873.3 1156.08 870.336 1154.36C867.373 1152.64 865.445 1149.99 864.977 1146.99Z" fill="#383335"/>
<path d="M862.048 1122.3L861.833 1120.9L831.475 1125.59L831.691 1126.99L862.048 1122.3Z" fill="#383335"/>
<path d="M865.76 1146.31L865.544 1144.92L835.187 1149.61L835.402 1151L865.76 1146.31Z" fill="#383335"/>
<path d="M818.251 1195.86L813.609 1165.81L811.88 1166.08L816.521 1196.12L818.251 1195.86Z" fill="#383335"/>
<path d="M806.227 1118.05L801.585 1088.01L799.856 1088.28L804.498 1118.32L806.227 1118.05Z" fill="#383335"/>
<path d="M894.868 1184.02L890.226 1153.98L888.497 1154.24L893.138 1184.28L894.868 1184.02Z" fill="#383335"/>
<path d="M882.844 1106.21L878.202 1076.17L876.473 1076.44L881.115 1106.48L882.844 1106.21Z" fill="#383335"/>
<path d="M920.118 1125.75L919.902 1124.36L863.705 1133.04L863.92 1134.44L920.118 1125.75Z" fill="#383335"/>
<path d="M833.015 1139.21L832.799 1137.82L770.836 1147.39L771.052 1148.79L833.015 1139.21Z" fill="#383335"/>
<path d="M1534.59 1299.05L1514.98 1301.41L1510.15 1214.08L1529.77 1211.72L1534.59 1299.05ZM1481.38 1217.53L1474.43 1278.83L1469.69 1266.38L1469.69 1266.38L1455.41 1228.56C1455.41 1228.56 1453.07 1220.93 1444.56 1221.95L1413.64 1225.66L1413.57 1227.15C1413.57 1227.15 1423.47 1228.26 1436.04 1234.5L1467.93 1307.05L1488.37 1304.6L1502.5 1215L1481.38 1217.53V1217.53ZM1652.78 1284.88L1670.79 1282.72L1638 1198.74L1622.23 1200.63C1614.95 1201.5 1614.45 1208.12 1614.45 1208.12L1601 1291.09L1621.45 1288.64L1623 1275.39L1647.94 1272.4L1652.78 1284.88ZM1625.15 1257.1L1629.06 1223.73L1641.25 1255.16L1625.15 1257.1ZM1589.56 1225.69L1588.69 1206.92C1588.69 1206.92 1579.3 1204.21 1570.3 1205.29C1560.56 1206.46 1538.41 1214.08 1543.1 1237.66C1547.51 1259.84 1574.7 1256.86 1577.02 1268.51C1579.34 1280.16 1554.59 1280.99 1545.09 1274.61L1546.01 1294.24C1546.01 1294.24 1555.74 1298.04 1569.12 1296.43C1582.51 1294.82 1601.13 1284.5 1596.85 1263.01C1592.41 1240.68 1564.62 1241.89 1562.69 1232.18C1560.76 1222.47 1580.11 1221.43 1589.56 1225.69V1225.69Z" fill="white"/>
<path d="M1467.86 1268.8L1455.76 1235.2C1455.76 1235.2 1453.87 1228.39 1445.17 1229.73L1413.56 1234.62L1413.39 1235.98C1413.39 1235.98 1429.07 1236.78 1445.47 1246.32C1461.14 1255.45 1467.86 1268.8 1467.86 1268.8Z" fill="#E6A540"/>
<path d="M803.214 1350.98L802.633 1347.22L803.925 1347.02C804.887 1346.87 805.606 1346.48 806.083 1345.86C806.577 1345.21 806.753 1344.42 806.611 1343.5L804.202 1327.91L808.317 1327.27L810.703 1342.71C810.917 1344.1 810.803 1345.35 810.364 1346.49C809.944 1347.62 809.228 1348.56 808.216 1349.31C807.224 1350.06 805.987 1350.55 804.505 1350.78L803.214 1350.98ZM818.729 1348.58L815.271 1326.2L830.142 1323.9L830.699 1327.5L819.914 1329.17L820.801 1334.91L830.984 1333.34L831.541 1336.94L821.358 1338.51L822.258 1344.34L833.043 1342.68L833.6 1346.28L818.729 1348.58ZM847.373 1344.52C845.951 1344.74 844.589 1344.69 843.287 1344.35C842.005 1344.02 840.852 1343.46 839.829 1342.67C838.822 1341.86 838.023 1340.87 837.43 1339.69L840.597 1337.69C841.336 1338.89 842.273 1339.78 843.409 1340.37C844.542 1340.93 845.749 1341.11 847.031 1340.91C847.752 1340.8 848.356 1340.6 848.843 1340.3C849.346 1339.97 849.707 1339.59 849.926 1339.14C850.164 1338.7 850.24 1338.19 850.154 1337.63C850.051 1336.97 849.768 1336.46 849.302 1336.1C848.854 1335.72 848.22 1335.47 847.402 1335.35L842.893 1334.63C841.067 1334.36 839.63 1333.75 838.581 1332.81C837.533 1331.86 836.896 1330.66 836.67 1329.2C836.472 1327.91 836.607 1326.74 837.077 1325.66C837.566 1324.58 838.33 1323.68 839.367 1322.97C840.422 1322.23 841.681 1321.75 843.143 1321.52C844.485 1321.31 845.753 1321.36 846.949 1321.67C848.142 1321.96 849.204 1322.46 850.135 1323.18C851.083 1323.87 851.844 1324.75 852.418 1325.81L849.285 1327.83C848.671 1326.78 847.877 1326.02 846.903 1325.55C845.926 1325.07 844.857 1324.92 843.695 1325.1C843.014 1325.2 842.432 1325.42 841.948 1325.74C841.462 1326.04 841.101 1326.42 840.865 1326.89C840.647 1327.33 840.581 1327.83 840.668 1328.39C840.763 1329.02 841.049 1329.54 841.524 1329.95C841.995 1330.35 842.662 1330.62 843.523 1330.75L847.838 1331.41C849.711 1331.71 851.166 1332.31 852.205 1333.19C853.264 1334.08 853.91 1335.27 854.142 1336.77C854.34 1338.05 854.184 1339.23 853.675 1340.32C853.166 1341.4 852.374 1342.31 851.299 1343.05C850.224 1343.79 848.915 1344.28 847.373 1344.52ZM869.555 1341.09C868.133 1341.31 866.771 1341.26 865.469 1340.93C864.186 1340.59 863.034 1340.03 862.01 1339.25C861.003 1338.44 860.204 1337.44 859.612 1336.26L862.779 1334.27C863.518 1335.47 864.455 1336.36 865.591 1336.94C866.724 1337.5 867.931 1337.68 869.213 1337.49C869.934 1337.38 870.537 1337.17 871.024 1336.87C871.528 1336.54 871.889 1336.16 872.107 1335.72C872.346 1335.27 872.422 1334.77 872.335 1334.21C872.233 1333.54 871.949 1333.03 871.484 1332.68C871.035 1332.29 870.402 1332.04 869.583 1331.92L865.074 1331.21C863.248 1330.93 861.811 1330.33 860.763 1329.38C859.714 1328.44 859.077 1327.23 858.851 1325.77C858.653 1324.49 858.789 1323.31 859.258 1322.23C859.747 1321.15 860.511 1320.25 861.549 1319.54C862.604 1318.8 863.862 1318.32 865.324 1318.09C866.666 1317.89 867.935 1317.94 869.131 1318.24C870.323 1318.53 871.385 1319.03 872.316 1319.75C873.264 1320.45 874.025 1321.32 874.599 1322.38L871.467 1324.4C870.853 1323.35 870.059 1322.59 869.085 1322.13C868.108 1321.64 867.038 1321.49 865.877 1321.67C865.196 1321.77 864.613 1321.99 864.13 1322.31C863.643 1322.61 863.282 1322.99 863.047 1323.46C862.828 1323.9 862.762 1324.41 862.849 1324.97C862.945 1325.59 863.23 1326.11 863.705 1326.53C864.177 1326.93 864.843 1327.19 865.705 1327.32L870.02 1327.98C871.892 1328.29 873.348 1328.88 874.387 1329.77C875.446 1330.65 876.091 1331.84 876.323 1333.34C876.521 1334.62 876.366 1335.81 875.857 1336.89C875.347 1337.97 874.555 1338.89 873.48 1339.63C872.405 1340.37 871.097 1340.86 869.555 1341.09ZM883.689 1338.54L880.231 1316.16L895.102 1313.86L895.659 1317.47L884.874 1319.13L885.76 1324.87L895.944 1323.3L896.501 1326.9L886.317 1328.48L887.218 1334.3L898.003 1332.64L898.56 1336.24L883.689 1338.54ZM923.438 1332.77C921.795 1333.02 920.218 1332.97 918.707 1332.61C917.195 1332.25 915.828 1331.63 914.606 1330.75C913.383 1329.87 912.363 1328.78 911.546 1327.47C910.746 1326.14 910.218 1324.65 909.965 1323.01C909.708 1321.35 909.761 1319.77 910.126 1318.28C910.49 1316.79 911.122 1315.44 912.023 1314.23C912.923 1313.03 914.041 1312.03 915.376 1311.25C916.709 1310.45 918.206 1309.92 919.868 1309.67C921.53 1309.41 923.117 1309.46 924.629 1309.82C926.141 1310.18 927.508 1310.8 928.73 1311.68C929.949 1312.54 930.958 1313.62 931.755 1314.94C932.573 1316.24 933.11 1317.73 933.367 1319.39C933.62 1321.03 933.557 1322.61 933.176 1324.13C932.791 1325.62 932.149 1326.97 931.248 1328.18C930.348 1329.38 929.232 1330.39 927.899 1331.19C926.587 1331.98 925.1 1332.51 923.438 1332.77ZM922.862 1329.04C923.964 1328.87 924.946 1328.53 925.808 1328C926.667 1327.46 927.383 1326.79 927.956 1325.98C928.549 1325.17 928.951 1324.26 929.163 1323.24C929.395 1322.22 929.424 1321.15 929.251 1320.03C929.078 1318.91 928.728 1317.9 928.202 1317.02C927.693 1316.12 927.034 1315.37 926.225 1314.77C925.432 1314.16 924.546 1313.73 923.566 1313.49C922.586 1313.26 921.545 1313.22 920.444 1313.39C919.362 1313.56 918.39 1313.9 917.528 1314.43C916.665 1314.95 915.939 1315.63 915.35 1316.46C914.777 1317.26 914.375 1318.17 914.143 1319.19C913.908 1320.19 913.877 1321.26 914.05 1322.38C914.224 1323.5 914.575 1324.51 915.104 1325.41C915.633 1326.32 916.292 1327.06 917.081 1327.66C917.89 1328.25 918.787 1328.68 919.77 1328.94C920.75 1329.17 921.781 1329.21 922.862 1329.04ZM941.462 1329.61L938.004 1307.23L946.325 1305.95C947.847 1305.71 949.232 1305.79 950.481 1306.17C951.746 1306.53 952.791 1307.18 953.616 1308.14C954.437 1309.08 954.964 1310.3 955.196 1311.81C955.435 1313.35 955.267 1314.72 954.693 1315.91C954.139 1317.11 953.282 1318.06 952.12 1318.77L958.645 1326.96L954.019 1327.67L947.004 1318.7L949.889 1319.85L944.271 1320.72L945.547 1328.98L941.462 1329.61ZM943.714 1317.12L948.01 1316.45C948.751 1316.34 949.37 1316.1 949.867 1315.74C950.362 1315.35 950.719 1314.88 950.939 1314.31C951.159 1313.74 951.216 1313.12 951.111 1312.44C951.003 1311.74 950.76 1311.16 950.382 1310.7C950.001 1310.23 949.518 1309.89 948.934 1309.7C948.347 1309.48 947.683 1309.43 946.942 1309.54L942.646 1310.21L943.714 1317.12ZM975.135 1324.78C973.492 1325.03 971.915 1324.98 970.404 1324.62C968.892 1324.26 967.525 1323.64 966.303 1322.76C965.08 1321.88 964.06 1320.79 963.243 1319.48C962.443 1318.15 961.915 1316.66 961.662 1315.02C961.405 1313.36 961.458 1311.78 961.823 1310.29C962.187 1308.8 962.819 1307.45 963.72 1306.24C964.62 1305.04 965.738 1304.05 967.073 1303.26C968.406 1302.46 969.903 1301.94 971.565 1301.68C973.227 1301.42 974.814 1301.47 976.326 1301.84C977.838 1302.2 979.205 1302.82 980.427 1303.69C981.646 1304.55 982.655 1305.64 983.452 1306.95C984.27 1308.26 984.807 1309.74 985.064 1311.4C985.317 1313.05 985.254 1314.63 984.873 1316.14C984.488 1317.63 983.846 1318.98 982.945 1320.19C982.045 1321.4 980.929 1322.4 979.596 1323.2C978.284 1324 976.797 1324.52 975.135 1324.78ZM974.559 1321.06C975.661 1320.89 976.643 1320.54 977.505 1320.02C978.364 1319.47 979.08 1318.8 979.653 1317.99C980.246 1317.18 980.648 1316.27 980.86 1315.25C981.092 1314.23 981.121 1313.16 980.948 1312.04C980.775 1310.92 980.425 1309.92 979.899 1309.03C979.39 1308.13 978.731 1307.38 977.922 1306.79C977.129 1306.17 976.243 1305.74 975.263 1305.51C974.283 1305.27 973.242 1305.23 972.141 1305.4C971.059 1305.57 970.087 1305.92 969.225 1306.44C968.362 1306.96 967.636 1307.64 967.047 1308.47C966.474 1309.27 966.072 1310.19 965.84 1311.21C965.605 1312.21 965.574 1313.27 965.747 1314.39C965.921 1315.51 966.272 1316.52 966.801 1317.43C967.33 1318.33 967.989 1319.08 968.778 1319.67C969.587 1320.27 970.484 1320.69 971.467 1320.95C972.447 1321.19 973.478 1321.22 974.559 1321.06ZM1001.21 1320.75C999.783 1320.97 998.421 1320.92 997.119 1320.58C995.837 1320.25 994.684 1319.69 993.661 1318.9C992.654 1318.1 991.855 1317.1 991.262 1315.92L994.43 1313.93C995.168 1315.12 996.106 1316.01 997.242 1316.6C998.374 1317.16 999.582 1317.34 1000.86 1317.14C1001.58 1317.03 1002.19 1316.83 1002.67 1316.53C1003.18 1316.2 1003.54 1315.82 1003.76 1315.37C1004 1314.93 1004.07 1314.42 1003.99 1313.86C1003.88 1313.2 1003.6 1312.69 1003.13 1312.33C1002.69 1311.95 1002.05 1311.7 1001.23 1311.58L996.725 1310.86C994.899 1310.59 993.462 1309.98 992.413 1309.04C991.365 1308.09 990.728 1306.89 990.502 1305.43C990.304 1304.15 990.44 1302.97 990.909 1301.89C991.398 1300.81 992.162 1299.91 993.2 1299.2C994.255 1298.46 995.513 1297.98 996.975 1297.75C998.317 1297.55 999.586 1297.6 1000.78 1297.9C1001.97 1298.19 1003.04 1298.69 1003.97 1299.41C1004.92 1300.1 1005.68 1300.98 1006.25 1302.04L1003.12 1304.06C1002.5 1303.01 1001.71 1302.25 1000.74 1301.79C999.758 1301.3 998.689 1301.15 997.527 1301.33C996.846 1301.43 996.264 1301.65 995.781 1301.97C995.294 1302.27 994.933 1302.65 994.697 1303.12C994.479 1303.56 994.413 1304.06 994.5 1304.63C994.596 1305.25 994.881 1305.77 995.356 1306.18C995.828 1306.58 996.494 1306.85 997.355 1306.98L1001.67 1307.64C1003.54 1307.94 1005 1308.54 1006.04 1309.42C1007.1 1310.31 1007.74 1311.5 1007.97 1313C1008.17 1314.28 1008.02 1315.47 1007.51 1316.55C1007 1317.63 1006.21 1318.54 1005.13 1319.28C1004.06 1320.02 1002.75 1320.51 1001.21 1320.75ZM1013.6 1318.47L1013.1 1315.25L1021.54 1298.02L1011.33 1299.6L1010.77 1295.99L1026.18 1293.61L1026.68 1296.82L1018.27 1314.06L1029.38 1312.34L1029.94 1315.94L1013.6 1318.47Z" fill="white"/>
<path opacity="0.5" d="M812.645 1405.44L809.187 1383.06L817.508 1381.78C819.03 1381.54 820.415 1381.61 821.663 1382C822.929 1382.35 823.974 1383.01 824.799 1383.97C825.62 1384.91 826.147 1386.13 826.379 1387.63C826.618 1389.18 826.45 1390.55 825.876 1391.74C825.322 1392.93 824.465 1393.89 823.303 1394.6L829.828 1402.79L825.202 1403.5L818.187 1394.53L821.071 1395.68L815.454 1396.55L816.73 1404.81L812.645 1405.44ZM814.897 1392.95L819.193 1392.28C819.934 1392.17 820.553 1391.93 821.05 1391.56C821.545 1391.18 821.902 1390.7 822.122 1390.14C822.342 1389.57 822.399 1388.95 822.294 1388.27C822.186 1387.56 821.942 1386.99 821.565 1386.53C821.184 1386.06 820.701 1385.72 820.117 1385.53C819.53 1385.31 818.866 1385.26 818.125 1385.37L813.829 1386.04L814.897 1392.95ZM835.237 1401.95L831.779 1379.57L846.649 1377.27L847.206 1380.88L836.421 1382.55L837.308 1388.28L847.492 1386.71L848.049 1390.31L837.865 1391.89L838.765 1397.72L849.55 1396.05L850.107 1399.65L835.237 1401.95ZM860.01 1398.12L850.543 1376.67L854.929 1375.99L862.593 1394.34L861.452 1394.52L863.431 1374.68L867.667 1374.03L875.511 1392.35L874.369 1392.52L876.138 1372.72L880.524 1372.04L877.974 1395.35L873.288 1396.07L865.462 1378.27L866.784 1378.07L864.696 1397.4L860.01 1398.12ZM886.157 1394.08L890.42 1370.51L895.707 1369.69L906.886 1390.88L902.44 1391.57L900.105 1387.01L891.453 1388.34L890.573 1393.4L886.157 1394.08ZM892.068 1384.56L898.376 1383.58L892.929 1373.01L894.071 1372.84L892.068 1384.56ZM912.108 1390.07L908.649 1367.69L916.971 1366.41C918.493 1366.17 919.878 1366.25 921.126 1366.63C922.391 1366.99 923.436 1367.64 924.261 1368.6C925.083 1369.54 925.61 1370.76 925.842 1372.27C926.081 1373.81 925.913 1375.18 925.339 1376.37C924.785 1377.57 923.927 1378.52 922.766 1379.23L929.291 1387.42L924.665 1388.13L917.649 1379.16L920.534 1380.31L914.917 1381.18L916.193 1389.44L912.108 1390.07ZM914.36 1377.58L918.655 1376.91C919.397 1376.8 920.016 1376.56 920.513 1376.2C921.007 1375.81 921.365 1375.34 921.585 1374.77C921.805 1374.2 921.862 1373.58 921.757 1372.9C921.648 1372.2 921.405 1371.62 921.028 1371.16C920.647 1370.69 920.164 1370.35 919.58 1370.16C918.993 1369.94 918.329 1369.89 917.588 1370L913.292 1370.67L914.36 1377.58ZM934.7 1386.58L931.242 1364.2L938.542 1363.08C940.905 1362.71 943.032 1362.87 944.923 1363.57C946.831 1364.23 948.395 1365.34 949.616 1366.87C950.835 1368.38 951.614 1370.24 951.954 1372.44C952.291 1374.63 952.111 1376.64 951.413 1378.5C950.711 1380.33 949.554 1381.86 947.94 1383.09C946.343 1384.3 944.363 1385.09 942 1385.46L934.7 1386.58ZM938.228 1382.35L941.533 1381.84C943.055 1381.6 944.319 1381.09 945.324 1380.3C946.347 1379.48 947.082 1378.47 947.529 1377.25C947.974 1376.01 948.077 1374.62 947.839 1373.08C947.597 1371.52 947.079 1370.22 946.285 1369.2C945.491 1368.17 944.485 1367.44 943.268 1366.99C942.07 1366.54 940.711 1366.43 939.189 1366.67L935.884 1367.18L938.228 1382.35ZM967.715 1381.85C966.293 1382.07 964.931 1382.02 963.629 1381.68C962.346 1381.35 961.194 1380.79 960.17 1380C959.163 1379.19 958.364 1378.2 957.772 1377.02L960.939 1375.02C961.678 1376.22 962.615 1377.11 963.751 1377.7C964.884 1378.26 966.091 1378.44 967.373 1378.24C968.094 1378.13 968.697 1377.93 969.184 1377.63C969.688 1377.3 970.049 1376.92 970.267 1376.47C970.506 1376.03 970.582 1375.52 970.495 1374.96C970.393 1374.3 970.109 1373.79 969.644 1373.43C969.195 1373.05 968.562 1372.8 967.743 1372.68L963.234 1371.96C961.408 1371.69 959.971 1371.08 958.923 1370.14C957.874 1369.19 957.237 1367.99 957.011 1366.53C956.813 1365.25 956.949 1364.07 957.418 1362.99C957.907 1361.91 958.671 1361.01 959.709 1360.3C960.764 1359.56 962.022 1359.08 963.484 1358.85C964.826 1358.64 966.095 1358.69 967.291 1359C968.483 1359.29 969.545 1359.79 970.476 1360.51C971.424 1361.2 972.185 1362.08 972.759 1363.14L969.627 1365.16C969.013 1364.11 968.219 1363.35 967.245 1362.88C966.268 1362.4 965.198 1362.25 964.037 1362.43C963.356 1362.53 962.773 1362.75 962.29 1363.07C961.803 1363.37 961.442 1363.75 961.207 1364.22C960.988 1364.66 960.922 1365.16 961.009 1365.72C961.105 1366.35 961.39 1366.87 961.865 1367.28C962.337 1367.68 963.003 1367.95 963.865 1368.08L968.18 1368.74C970.052 1369.04 971.508 1369.64 972.547 1370.52C973.606 1371.41 974.251 1372.6 974.483 1374.1C974.681 1375.38 974.526 1376.56 974.017 1377.65C973.507 1378.73 972.715 1379.64 971.64 1380.38C970.565 1381.12 969.257 1381.61 967.715 1381.85ZM992.419 1378.03C990.817 1378.28 989.29 1378.22 987.839 1377.85C986.407 1377.48 985.1 1376.85 983.918 1375.96C982.756 1375.08 981.786 1373.98 981.008 1372.66C980.231 1371.35 979.714 1369.86 979.457 1368.2C979.2 1366.53 979.234 1364.96 979.558 1363.47C979.899 1361.97 980.491 1360.62 981.335 1359.45C982.195 1358.25 983.263 1357.26 984.538 1356.49C985.811 1355.7 987.248 1355.18 988.85 1354.93C990.452 1354.69 991.926 1354.73 993.271 1355.08C994.636 1355.42 995.829 1355.98 996.85 1356.74C997.867 1357.49 998.648 1358.36 999.193 1359.36L995.792 1361.64C995.198 1360.59 994.345 1359.77 993.232 1359.21C992.116 1358.62 990.847 1358.44 989.426 1358.66C988.024 1358.87 986.833 1359.4 985.854 1360.22C984.894 1361.05 984.204 1362.09 983.783 1363.34C983.381 1364.6 983.301 1366 983.543 1367.56C983.784 1369.13 984.286 1370.45 985.05 1371.55C985.83 1372.61 986.802 1373.4 987.966 1373.89C989.149 1374.39 990.442 1374.53 991.844 1374.31C993.266 1374.09 994.422 1373.54 995.312 1372.67C996.199 1371.77 996.766 1370.73 997.013 1369.54L1000.94 1370.69C1000.73 1371.81 1000.25 1372.89 999.505 1373.93C998.76 1374.94 997.788 1375.82 996.59 1376.56C995.412 1377.3 994.022 1377.79 992.419 1378.03ZM1018.41 1374.02C1016.81 1374.27 1015.29 1374.2 1013.83 1373.83C1012.4 1373.46 1011.1 1372.83 1009.91 1371.95C1008.75 1371.06 1007.78 1369.96 1007 1368.65C1006.23 1367.33 1005.71 1365.84 1005.45 1364.18C1005.2 1362.52 1005.23 1360.94 1005.55 1359.46C1005.89 1357.95 1006.49 1356.61 1007.33 1355.43C1008.19 1354.23 1009.26 1353.25 1010.53 1352.47C1011.81 1351.68 1013.24 1351.16 1014.85 1350.92C1016.45 1350.67 1017.92 1350.72 1019.27 1351.06C1020.63 1351.41 1021.82 1351.96 1022.84 1352.73C1023.86 1353.47 1024.64 1354.34 1025.19 1355.35L1021.79 1357.63C1021.19 1356.57 1020.34 1355.76 1019.23 1355.19C1018.11 1354.6 1016.84 1354.42 1015.42 1354.64C1014.02 1354.86 1012.83 1355.38 1011.85 1356.21C1010.89 1357.03 1010.2 1358.07 1009.78 1359.33C1009.38 1360.58 1009.3 1361.99 1009.54 1363.55C1009.78 1365.11 1010.28 1366.44 1011.05 1367.53C1011.83 1368.6 1012.8 1369.38 1013.96 1369.88C1015.14 1370.37 1016.44 1370.51 1017.84 1370.29C1019.26 1370.07 1020.42 1369.53 1021.31 1368.65C1022.19 1367.75 1022.76 1366.71 1023.01 1365.53L1026.94 1366.67C1026.72 1367.79 1026.24 1368.87 1025.5 1369.91C1024.76 1370.93 1023.78 1371.8 1022.59 1372.54C1021.41 1373.28 1020.02 1373.77 1018.41 1374.02ZM1032.01 1371.55L1036.27 1347.97L1041.56 1347.16L1052.74 1368.35L1048.29 1369.03L1045.95 1364.47L1037.3 1365.81L1036.42 1370.87L1032.01 1371.55ZM1037.92 1362.02L1044.23 1361.05L1038.78 1350.48L1039.92 1350.3L1037.92 1362.02ZM1057.96 1367.54L1054.5 1345.16L1062.85 1343.87C1064.37 1343.63 1065.76 1343.71 1067.01 1344.09C1068.27 1344.45 1069.32 1345.1 1070.14 1346.06C1070.96 1347 1071.49 1348.22 1071.72 1349.73C1071.95 1351.21 1071.81 1352.53 1071.29 1353.7C1070.79 1354.84 1070 1355.78 1068.93 1356.52C1067.85 1357.26 1066.55 1357.75 1065.03 1357.99L1060.77 1358.65L1062.04 1366.91L1057.96 1367.54ZM1060.21 1355.04L1064.54 1354.37C1065.28 1354.26 1065.9 1354.02 1066.39 1353.66C1066.89 1353.27 1067.24 1352.8 1067.46 1352.23C1067.68 1351.66 1067.74 1351.04 1067.64 1350.36C1067.53 1349.66 1067.29 1349.08 1066.91 1348.62C1066.53 1348.15 1066.04 1347.81 1065.46 1347.62C1064.87 1347.4 1064.21 1347.35 1063.47 1347.46L1059.14 1348.13L1060.21 1355.04ZM1080.17 1364.11L1076.71 1341.73L1080.8 1341.1L1084.25 1363.48L1080.17 1364.11Z" fill="white"/>
<g clip-path="url(#clip0_25_1902)">
<path d="M1249.17 842.299C1246.78 842.669 1244.91 844.55 1243.58 847.942C1242.24 851.334 1241.9 855.169 1242.56 859.448L1246.59 885.507L1253.49 884.44L1253.76 886.191L1223.43 890.876L1223.16 889.126L1228.5 888.3L1221.9 845.516L1216.55 846.342L1216.28 844.592L1239.71 840.973L1241.15 850.307C1241.49 846.871 1242.72 844.093 1244.84 841.972C1246.96 839.787 1249.54 838.459 1252.59 837.988C1255.64 837.517 1258.24 838.012 1260.39 839.472C1262.59 840.857 1263.94 843.138 1264.43 846.314C1264.91 849.426 1264.57 851.934 1263.4 853.84C1262.24 855.746 1260.16 856.929 1257.18 857.389C1254.26 857.84 1251.94 857.203 1250.21 855.478C1248.55 853.744 1247.98 851.079 1248.48 847.483L1251.98 846.942C1253.09 843.386 1252.16 841.838 1249.17 842.299ZM1297.58 880.419C1289.22 881.711 1282.6 880.543 1277.72 876.915C1272.9 873.213 1269.9 867.537 1268.72 859.888C1267.53 852.174 1268.95 845.914 1272.99 841.11C1277.09 836.295 1282.77 833.327 1290.03 832.205C1304.75 829.933 1312.95 836.231 1314.65 851.101L1287.23 855.336L1287.82 859.128C1288.8 865.481 1290.35 870.153 1292.47 873.144C1294.59 876.135 1297.66 877.32 1301.68 876.699C1309.2 875.538 1313.51 870.757 1314.6 862.359L1316.39 862.38C1315.88 867.238 1314.21 871.214 1311.37 874.307C1308.59 877.39 1303.99 879.428 1297.58 880.419ZM1287.03 853.377L1297.04 851.83L1296.31 847.065C1295.5 841.814 1294.62 838.299 1293.68 836.519C1292.8 834.665 1291.42 833.883 1289.54 834.173C1287.72 834.453 1286.52 835.701 1285.94 837.915C1285.4 840.055 1285.52 843.62 1286.29 848.612L1287.03 853.377ZM1346.18 826.32L1345.91 824.57L1371 820.695L1371.27 822.445L1367.28 823.061L1381.1 854.478L1384.69 820.373L1377.98 821.409L1377.71 819.659L1390.84 817.631L1391.11 819.382L1387.02 820.012L1382.23 866.349L1368.91 868.406L1355.84 839.861L1351.31 871.124L1338.28 873.137L1317.01 830.826L1312.64 831.501L1312.37 829.751L1341.83 825.201L1342.1 826.951L1336.27 827.852L1350.32 859.53L1353.8 835.696L1349.78 825.764L1346.18 826.32ZM1417.29 837.539L1420.11 837.103L1418.95 829.616C1418 823.458 1417.01 819.396 1415.98 817.432C1415 815.393 1413.54 814.524 1411.59 814.824C1410.42 815.004 1409.4 815.494 1408.53 816.292C1407.71 817.016 1407.39 817.928 1407.56 819.03C1407.72 820.068 1408.08 821.107 1408.64 822.149L1411.07 821.774C1411.8 823.055 1412.31 824.668 1412.62 826.613C1412.91 828.492 1412.35 830.271 1410.95 831.947C1409.54 833.559 1407.6 834.555 1405.14 834.935C1399.56 835.796 1396.36 833.537 1395.53 828.156C1394.3 820.183 1400.46 815.15 1414.01 813.057C1421.72 811.866 1427.24 812.374 1430.57 814.581C1433.95 816.713 1436.18 821.28 1437.26 828.281L1440.31 848.02C1440.83 851.391 1442.03 852.931 1443.91 852.641C1446.12 852.3 1446.9 848.761 1446.26 842.025L1447.73 841.897C1448.35 847.641 1447.89 851.728 1446.34 854.158C1444.79 856.587 1441.87 858.132 1437.6 858.793C1429.82 859.995 1424.97 858.287 1423.07 853.67C1422.6 856.264 1421.62 858.274 1420.12 859.701C1418.61 861.128 1416.24 862.092 1413 862.593C1403.4 864.075 1398 860.893 1396.79 853.05C1396.08 848.447 1397.41 845.023 1400.78 842.777C1404.2 840.456 1409.7 838.71 1417.29 837.539ZM1415.25 850.099C1415.77 853.47 1416.26 855.617 1416.74 856.539C1417.28 857.451 1418.03 857.832 1419.01 857.682C1420.04 857.522 1420.86 856.566 1421.45 854.816C1422.1 852.99 1422.2 850.619 1421.75 847.702L1420.35 838.659L1419.67 838.764C1415.65 839.385 1414.1 842.645 1415.01 848.544L1415.25 850.099ZM1477.36 807.056C1474.96 807.426 1473.09 809.308 1471.76 812.699C1470.42 816.091 1470.09 819.926 1470.75 824.205L1474.77 850.264L1481.67 849.198L1481.94 850.948L1451.61 855.634L1451.34 853.883L1456.69 853.057L1450.08 810.274L1444.73 811.1L1444.46 809.349L1467.89 805.73L1469.33 815.065C1469.67 811.629 1470.9 808.85 1473.02 806.729C1475.14 804.544 1477.72 803.216 1480.77 802.745C1483.82 802.275 1486.42 802.769 1488.57 804.229C1490.77 805.614 1492.12 807.895 1492.61 811.071C1493.09 814.183 1492.75 816.692 1491.58 818.597C1490.42 820.503 1488.34 821.686 1485.36 822.147C1482.44 822.597 1480.12 821.96 1478.4 820.236C1476.73 818.501 1476.16 815.836 1476.66 812.24L1480.16 811.7C1481.27 808.143 1480.34 806.595 1477.36 807.056ZM1527.84 817.463C1527.79 817.115 1527.68 816.419 1527.52 815.374C1527.35 814.298 1527.13 813.085 1526.86 811.733C1526.58 810.35 1526.24 808.896 1525.85 807.369C1525.45 805.843 1524.97 804.441 1524.42 803.166C1523.51 802.302 1522.52 801.564 1521.45 800.951C1520.41 800.301 1519.16 800.089 1517.71 800.314C1515.24 800.695 1513.67 802.59 1512.99 806C1512.35 809.404 1512.56 814.493 1513.6 821.267C1514.06 824.242 1514.61 826.945 1515.24 829.374C1515.91 831.799 1516.65 833.857 1517.46 835.546C1518.3 837.23 1519.23 838.497 1520.24 839.347C1521.27 840.191 1522.39 840.52 1523.6 840.334C1528.66 839.552 1530.08 831.928 1527.84 817.463ZM1524.04 796.661C1522.95 793.589 1521.66 790.775 1520.16 788.219C1518.66 785.631 1517 783.458 1515.17 781.698C1513.38 779.934 1511.42 778.631 1509.32 777.79C1507.24 776.944 1505.1 776.692 1502.88 777.034C1501.62 777.229 1500.48 777.566 1499.49 778.044C1498.53 778.517 1497.7 779.034 1497.01 779.594C1496.31 780.123 1495.74 780.632 1495.3 781.122C1494.88 781.575 1494.58 781.914 1494.39 782.138L1492.89 780.667C1493.5 779.568 1494.28 778.509 1495.22 777.488C1496.2 776.462 1497.29 775.548 1498.49 774.746C1499.7 773.945 1500.99 773.259 1502.36 772.691C1503.76 772.118 1505.17 771.722 1506.6 771.502C1511.28 770.778 1515.55 771.171 1519.42 772.681C1523.28 774.16 1526.68 776.583 1529.63 779.951C1532.58 783.319 1535.07 787.554 1537.09 792.654C1539.11 797.754 1540.61 803.532 1541.61 809.99C1542.42 815.212 1542.59 819.885 1542.12 824.007C1541.69 828.126 1540.7 831.681 1539.15 834.675C1537.6 837.637 1535.52 840.015 1532.91 841.812C1530.33 843.571 1527.29 844.723 1523.77 845.265C1521.34 845.642 1518.79 845.598 1516.12 845.134C1513.48 844.635 1510.99 843.562 1508.63 841.918C1506.3 840.268 1504.24 837.961 1502.45 834.996C1500.66 831.999 1499.41 828.19 1498.69 823.569C1498.08 819.581 1498.08 815.951 1498.71 812.678C1499.37 809.4 1500.49 806.554 1502.06 804.14C1503.63 801.694 1505.58 799.724 1507.91 798.23C1510.23 796.704 1512.78 795.727 1515.57 795.296C1516.65 795.13 1517.63 795.076 1518.51 795.134C1519.39 795.16 1520.17 795.251 1520.84 795.406C1521.51 795.562 1522.11 795.761 1522.63 796.004C1523.15 796.216 1523.62 796.435 1524.04 796.661ZM1553.7 840.861L1551.01 823.456L1552.18 823.276C1554.73 828.655 1557.61 832.259 1560.82 834.087C1564.02 835.916 1567.76 836.499 1572.04 835.838C1578.65 834.817 1581.63 832.2 1580.98 827.986C1580.7 826.171 1579.68 824.935 1577.92 824.278C1575.17 823.242 1571.76 822.641 1567.68 822.474C1563.1 821.988 1559.16 821.003 1555.88 819.518C1551.95 817.735 1549.6 814.316 1548.82 809.259C1548.04 804.203 1548.97 799.944 1551.62 796.481C1554.26 792.954 1558.18 790.79 1563.36 789.989C1566.54 789.498 1569.93 789.738 1573.53 790.709C1574.84 791.037 1575.82 791.151 1576.47 791.051C1577.12 790.951 1577.63 790.639 1578.02 790.115C1578.4 789.591 1578.82 788.663 1579.28 787.332L1580.35 787.166L1582.65 802.043L1581.48 802.224C1576.87 794.307 1571.1 790.885 1564.16 791.956C1561.12 792.426 1558.93 793.328 1557.61 794.66C1556.28 795.928 1555.74 797.372 1555.99 798.992C1556.14 799.965 1556.49 800.707 1557.03 801.221C1557.57 801.669 1557.98 802.003 1558.28 802.222C1558.58 802.442 1559.05 802.668 1559.68 802.902C1560.31 803.071 1560.83 803.223 1561.25 803.358C1561.66 803.427 1562.27 803.532 1563.09 803.671C1563.97 803.8 1564.61 803.867 1565.01 803.872C1569.59 804.293 1572.91 804.775 1574.99 805.317C1577.05 805.794 1579.05 806.481 1580.98 807.378C1584.93 809.291 1587.33 813.002 1588.18 818.512C1589.02 823.957 1588.04 828.356 1585.24 831.709C1582.43 834.997 1578.2 837.077 1572.56 837.948C1568.54 838.568 1564.51 838.229 1560.46 836.93C1559.6 836.531 1558.94 836.367 1558.49 836.437C1557.07 836.658 1555.86 838.072 1554.87 840.681L1553.7 840.861Z" fill="white"/>
<path d="M1417.51 915.625C1416.05 915.85 1414.65 915.823 1413.32 915.543C1412.01 915.242 1410.82 914.726 1409.75 913.995C1408.7 913.242 1407.83 912.304 1407.13 911.179C1406.44 910.055 1405.98 908.781 1405.76 907.359C1405.54 905.937 1405.59 904.585 1405.91 903.303C1406.24 902.021 1406.8 900.87 1407.59 899.852C1408.39 898.815 1409.36 897.963 1410.53 897.298C1411.7 896.614 1413.02 896.158 1414.49 895.93C1416.06 895.688 1417.53 895.74 1418.91 896.087C1420.29 896.416 1421.5 897.04 1422.56 897.96L1420.6 900.475C1419.79 899.835 1418.93 899.398 1418.02 899.166C1417.1 898.915 1416.14 898.868 1415.14 899.022C1414.14 899.177 1413.24 899.484 1412.45 899.941C1411.68 900.396 1411.03 900.972 1410.51 901.67C1410 902.364 1409.63 903.149 1409.41 904.023C1409.21 904.894 1409.19 905.821 1409.34 906.806C1409.49 907.79 1409.8 908.668 1410.25 909.437C1410.72 910.204 1411.31 910.842 1412 911.351C1412.71 911.857 1413.51 912.21 1414.38 912.412C1415.27 912.61 1416.21 912.632 1417.22 912.477C1418.22 912.323 1419.12 911.997 1419.92 911.5C1420.72 910.984 1421.4 910.291 1421.98 909.418L1424.61 911.251C1423.88 912.428 1422.91 913.39 1421.7 914.137C1420.49 914.884 1419.09 915.38 1417.51 915.625ZM1428.9 913.584L1426.65 898.981L1429.9 898.478L1430.52 902.498L1429.96 901.381C1430.24 900.329 1430.81 899.476 1431.66 898.822C1432.53 898.165 1433.67 897.728 1435.07 897.511L1435.58 900.766C1435.42 900.752 1435.29 900.755 1435.16 900.774C1435.03 900.776 1434.9 900.786 1434.77 900.806C1433.48 901.006 1432.51 901.548 1431.86 902.432C1431.21 903.298 1431 904.478 1431.23 905.973L1432.32 913.056L1428.9 913.584ZM1447.77 910.866C1446.15 911.116 1444.68 911.017 1443.36 910.567C1442.06 910.097 1440.98 909.349 1440.13 908.322C1439.3 907.293 1438.77 906.059 1438.55 904.618C1438.32 903.16 1438.45 901.825 1438.91 900.615C1439.39 899.383 1440.15 898.361 1441.18 897.548C1442.23 896.732 1443.49 896.212 1444.94 895.987C1446.37 895.767 1447.68 895.881 1448.89 896.329C1450.1 896.778 1451.11 897.518 1451.92 898.549C1452.73 899.581 1453.26 900.863 1453.49 902.394C1453.52 902.54 1453.53 902.706 1453.54 902.891C1453.57 903.073 1453.59 903.248 1453.6 903.415L1441.43 905.294L1441.08 903.024L1451.44 901.424L1450.21 902.342C1450.1 901.5 1449.81 900.788 1449.35 900.207C1448.89 899.625 1448.31 899.201 1447.61 898.935C1446.94 898.666 1446.19 898.595 1445.37 898.722C1444.53 898.851 1443.82 899.147 1443.24 899.611C1442.67 900.071 1442.26 900.658 1442 901.37C1441.75 902.062 1441.69 902.845 1441.83 903.72L1441.91 904.267C1442.05 905.142 1442.37 905.886 1442.87 906.499C1443.38 907.111 1444.02 907.544 1444.81 907.796C1445.59 908.048 1446.46 908.101 1447.41 907.954C1448.23 907.827 1448.95 907.586 1449.57 907.229C1450.18 906.873 1450.7 906.381 1451.13 905.756L1453.29 907.578C1452.75 908.445 1452.01 909.166 1451.07 909.74C1450.15 910.293 1449.05 910.669 1447.77 910.866ZM1464.86 908.226C1463.46 908.443 1462.14 908.329 1460.92 907.884C1459.71 907.417 1458.7 906.677 1457.89 905.664C1457.08 904.65 1456.55 903.387 1456.32 901.874C1456.09 900.36 1456.2 898.998 1456.67 897.788C1457.14 896.577 1457.88 895.576 1458.89 894.784C1459.93 893.99 1461.15 893.484 1462.55 893.267C1463.77 893.079 1464.91 893.183 1465.96 893.581C1467.01 893.96 1467.9 894.653 1468.63 895.66C1469.37 896.667 1469.87 898.027 1470.13 899.741C1470.39 901.436 1470.34 902.882 1469.96 904.079C1469.58 905.257 1468.95 906.195 1468.07 906.891C1467.19 907.587 1466.12 908.032 1464.86 908.226ZM1464.82 905.237C1465.64 905.11 1466.34 904.815 1466.92 904.352C1467.52 903.886 1467.96 903.277 1468.24 902.525C1468.53 901.77 1468.61 900.928 1468.46 899.998C1468.32 899.05 1467.99 898.27 1467.49 897.657C1467 897.024 1466.39 896.575 1465.68 896.312C1464.99 896.046 1464.23 895.976 1463.41 896.103C1462.59 896.23 1461.88 896.526 1461.28 896.992C1460.7 897.455 1460.26 898.064 1459.97 898.819C1459.69 899.553 1459.62 900.393 1459.77 901.341C1459.91 902.271 1460.23 903.053 1460.72 903.687C1461.23 904.318 1461.83 904.766 1462.52 905.032C1463.23 905.295 1464 905.364 1464.82 905.237ZM1469.67 907.287L1469.14 903.842L1468.68 899.937L1467.8 896.096L1466.4 887.017L1469.79 886.493L1472.93 906.785L1469.67 907.287ZM1478.19 905.972L1475.93 891.369L1479.35 890.841L1481.61 905.445L1478.19 905.972ZM1477.28 888.696C1476.64 888.795 1476.08 888.676 1475.6 888.34C1475.14 888 1474.87 887.548 1474.78 886.983C1474.69 886.4 1474.81 885.886 1475.16 885.441C1475.51 884.975 1476.01 884.693 1476.65 884.594C1477.29 884.496 1477.84 884.607 1478.3 884.928C1478.77 885.227 1479.05 885.66 1479.14 886.225C1479.23 886.827 1479.11 887.368 1478.78 887.85C1478.44 888.313 1477.94 888.595 1477.28 888.696ZM1492.38 903.977C1490.77 904.224 1489.47 904.006 1488.47 903.32C1487.46 902.617 1486.84 901.454 1486.59 899.831L1484.56 886.732L1487.98 886.204L1489.99 899.221C1490.1 899.914 1490.35 900.425 1490.76 900.755C1491.18 901.081 1491.71 901.195 1492.35 901.097C1493.12 900.978 1493.73 900.679 1494.17 900.199L1495.51 902.485C1495.16 902.875 1494.7 903.198 1494.14 903.452C1493.59 903.706 1493 903.881 1492.38 903.977ZM1483.09 893.175L1482.67 890.44L1492.41 888.936L1492.83 891.671L1483.09 893.175ZM1516.75 900.296C1515.29 900.522 1513.9 900.494 1512.57 900.215C1511.25 899.914 1510.06 899.398 1508.99 898.666C1507.94 897.914 1507.07 896.975 1506.38 895.851C1505.68 894.726 1505.22 893.453 1505 892.031C1504.78 890.609 1504.83 889.257 1505.16 887.975C1505.48 886.692 1506.04 885.542 1506.84 884.523C1507.63 883.486 1508.61 882.635 1509.78 881.97C1510.94 881.286 1512.26 880.83 1513.74 880.602C1515.3 880.36 1516.78 880.412 1518.16 880.759C1519.53 881.088 1520.75 881.712 1521.81 882.632L1519.84 885.147C1519.03 884.506 1518.17 884.07 1517.26 883.838C1516.34 883.587 1515.38 883.539 1514.38 883.694C1513.38 883.849 1512.48 884.155 1511.7 884.613C1510.93 885.068 1510.28 885.644 1509.75 886.341C1509.24 887.036 1508.88 887.82 1508.66 888.694C1508.46 889.565 1508.43 890.493 1508.58 891.478C1508.74 892.462 1509.04 893.339 1509.49 894.109C1509.97 894.876 1510.55 895.514 1511.25 896.022C1511.96 896.528 1512.75 896.882 1513.62 897.083C1514.51 897.282 1515.46 897.304 1516.46 897.149C1517.46 896.994 1518.36 896.668 1519.17 896.171C1519.96 895.656 1520.65 894.962 1521.22 894.089L1523.86 895.922C1523.13 897.1 1522.15 898.062 1520.94 898.809C1519.73 899.555 1518.34 900.051 1516.75 900.296ZM1537.01 896.887L1536.56 893.933L1536.27 893.334L1535.47 888.165C1535.31 887.162 1534.89 886.434 1534.21 885.98C1533.52 885.508 1532.56 885.366 1531.34 885.555C1530.52 885.681 1529.73 885.934 1528.97 886.313C1528.22 886.69 1527.61 887.148 1527.14 887.688L1525.41 885.407C1526.1 884.684 1526.96 884.094 1527.99 883.636C1529.04 883.157 1530.15 882.827 1531.31 882.647C1533.43 882.32 1535.14 882.579 1536.45 883.422C1537.77 884.245 1538.59 885.714 1538.92 887.829L1540.24 896.388L1537.01 896.887ZM1532.45 897.788C1531.35 897.957 1530.37 897.922 1529.49 897.684C1528.61 897.428 1527.89 897.007 1527.34 896.421C1526.8 895.814 1526.46 895.091 1526.33 894.253C1526.2 893.432 1526.28 892.664 1526.56 891.949C1526.86 891.231 1527.43 890.611 1528.26 890.09C1529.1 889.569 1530.25 889.195 1531.73 888.967L1535.97 888.312L1536.32 890.582L1532.33 891.199C1531.16 891.379 1530.41 891.691 1530.06 892.136C1529.72 892.563 1529.59 893.05 1529.67 893.596C1529.77 894.216 1530.09 894.671 1530.64 894.959C1531.19 895.248 1531.9 895.325 1532.77 895.189C1533.61 895.06 1534.33 894.753 1534.93 894.269C1535.54 893.782 1535.94 893.142 1536.12 892.349L1537.01 894.312C1536.81 895.219 1536.32 895.976 1535.54 896.583C1534.77 897.186 1533.74 897.588 1532.45 897.788ZM1545.39 895.593L1543.13 880.99L1546.39 880.487L1547.01 884.507L1546.44 883.39C1546.73 882.338 1547.3 881.485 1548.15 880.831C1549.02 880.174 1550.15 879.737 1551.56 879.521L1552.06 882.775C1551.91 882.761 1551.77 882.764 1551.64 882.784C1551.51 882.785 1551.38 882.796 1551.25 882.815C1549.96 883.015 1548.99 883.557 1548.34 884.441C1547.69 885.307 1547.48 886.487 1547.71 887.982L1548.8 895.065L1545.39 895.593ZM1563.57 892.981C1562.17 893.197 1560.85 893.083 1559.63 892.638C1558.42 892.172 1557.41 891.432 1556.6 890.418C1555.79 889.404 1555.27 888.141 1555.03 886.628C1554.8 885.115 1554.91 883.753 1555.38 882.542C1555.85 881.331 1556.59 880.33 1557.6 879.538C1558.64 878.744 1559.86 878.238 1561.26 878.021C1562.48 877.833 1563.62 877.937 1564.67 878.335C1565.72 878.715 1566.61 879.408 1567.34 880.414C1568.08 881.421 1568.58 882.781 1568.84 884.495C1569.1 886.19 1569.05 887.636 1568.67 888.833C1568.29 890.011 1567.66 890.949 1566.78 891.645C1565.9 892.341 1564.83 892.786 1563.57 892.981ZM1563.53 889.991C1564.35 889.864 1565.05 889.569 1565.63 889.106C1566.23 888.64 1566.67 888.031 1566.95 887.279C1567.24 886.524 1567.32 885.682 1567.17 884.752C1567.03 883.804 1566.7 883.024 1566.2 882.411C1565.71 881.778 1565.11 881.329 1564.39 881.066C1563.7 880.8 1562.94 880.73 1562.12 880.857C1561.3 880.984 1560.59 881.28 1559.99 881.746C1559.41 882.209 1558.97 882.818 1558.68 883.573C1558.4 884.307 1558.33 885.148 1558.48 886.096C1558.62 887.025 1558.94 887.807 1559.43 888.441C1559.94 889.072 1560.54 889.52 1561.23 889.786C1561.94 890.049 1562.71 890.118 1563.53 889.991ZM1568.38 892.042L1567.85 888.596L1567.39 884.691L1566.52 880.85L1565.11 871.771L1568.5 871.247L1571.64 891.539L1568.38 892.042ZM1582.84 889.809L1588.49 869.336L1591.99 868.795L1603.59 886.603L1599.87 887.178L1589.8 871.066L1591.22 870.847L1586.5 889.243L1582.84 889.809ZM1586.12 884.767L1586.64 881.829L1596.98 880.233L1598.37 882.874L1586.12 884.767ZM1606.79 886.11L1603.83 866.967L1611.71 865.75C1613.4 865.489 1614.89 865.538 1616.18 865.899C1617.49 866.258 1618.55 866.896 1619.36 867.816C1620.17 868.736 1620.69 869.897 1620.91 871.301C1621.12 872.705 1620.98 873.968 1620.48 875.091C1619.99 876.213 1619.17 877.142 1618.03 877.877C1616.91 878.61 1615.5 879.108 1613.81 879.37L1607.9 880.282L1609.23 878.369L1610.34 885.561L1606.79 886.11ZM1609.29 878.752L1607.44 877.274L1613.18 876.387C1614.75 876.144 1615.87 875.635 1616.56 874.857C1617.25 874.059 1617.51 873.058 1617.32 871.855C1617.14 870.633 1616.59 869.756 1615.69 869.224C1614.8 868.688 1613.57 868.542 1612.01 868.784L1606.26 869.671L1607.58 867.676L1609.29 878.752ZM1627.12 882.969L1624.17 863.826L1627.72 863.277L1630.68 882.42L1627.12 882.969Z" fill="white"/>
</g>
<g filter="url(#filter3_f_25_1902)">
<rect x="413.92" y="208.756" width="925.52" height="515.014" transform="rotate(16.72 413.92 208.756)" fill="url(#paint3_linear_25_1902)"/>
</g>
<g filter="url(#filter4_d_25_1902)">
<rect x="367.602" y="103" width="1074.73" height="679.873" rx="44.5332" transform="rotate(16.7205 367.602 103)" fill="white"/>
</g>
<mask id="mask1_25_1902" style="mask-type:alpha" maskUnits="userSpaceOnUse" x="182" y="113" width="1204" height="940">
<rect x="367.602" y="103" width="1074.73" height="679.873" rx="44.5332" transform="rotate(16.7205 367.602 103)" fill="white"/>
</mask>
<g mask="url(#mask1_25_1902)">
<g opacity="0.18">
<line x1="362.585" y1="81.7001" x2="973.349" y2="999.864" stroke="#18181B" stroke-width="2.96888"/>
<line x1="346.66" y1="83.1153" x2="957.424" y2="1001.28" stroke="#18181B" stroke-width="2.96888"/>
<line x1="330.734" y1="84.5318" x2="941.498" y2="1002.7" stroke="#18181B" stroke-width="2.96888"/>
<line x1="314.811" y1="85.9483" x2="925.575" y2="1004.11" stroke="#18181B" stroke-width="2.96888"/>
<line x1="298.885" y1="87.3637" x2="909.649" y2="1005.53" stroke="#18181B" stroke-width="2.96888"/>
<line x1="282.961" y1="88.7796" x2="893.725" y2="1006.94" stroke="#18181B" stroke-width="2.96888"/>
<line x1="267.032" y1="90.1961" x2="877.796" y2="1008.36" stroke="#18181B" stroke-width="2.96888"/>
<line x1="251.11" y1="91.612" x2="861.874" y2="1009.78" stroke="#18181B" stroke-width="2.96888"/>
<line x1="235.182" y1="93.0273" x2="845.946" y2="1011.19" stroke="#18181B" stroke-width="2.96888"/>
<line x1="219.259" y1="94.4427" x2="830.023" y2="1012.61" stroke="#18181B" stroke-width="2.96888"/>
<line x1="203.331" y1="95.8597" x2="814.095" y2="1014.02" stroke="#18181B" stroke-width="2.96888"/>
<line x1="187.41" y1="97.2757" x2="798.174" y2="1015.44" stroke="#18181B" stroke-width="2.96888"/>
<line x1="171.482" y1="98.691" x2="782.246" y2="1016.85" stroke="#18181B" stroke-width="2.96888"/>
<line x1="155.557" y1="100.107" x2="766.321" y2="1018.27" stroke="#18181B" stroke-width="2.96888"/>
<line x1="139.631" y1="101.523" x2="750.395" y2="1019.69" stroke="#18181B" stroke-width="2.96888"/>
<line x1="123.707" y1="102.939" x2="734.471" y2="1021.1" stroke="#18181B" stroke-width="2.96888"/>
<line x1="107.782" y1="104.355" x2="718.546" y2="1022.52" stroke="#18181B" stroke-width="2.96888"/>
<line x1="91.8563" y1="105.77" x2="702.62" y2="1023.93" stroke="#18181B" stroke-width="2.96888"/>
<line x1="75.9315" y1="107.187" x2="686.696" y2="1025.35" stroke="#18181B" stroke-width="2.96888"/>
<line x1="60.0077" y1="108.603" x2="670.772" y2="1026.77" stroke="#18181B" stroke-width="2.96888"/>
<line x1="44.0829" y1="110.018" x2="654.847" y2="1028.18" stroke="#18181B" stroke-width="2.96888"/>
<line x1="28.1569" y1="111.434" x2="638.921" y2="1029.6" stroke="#18181B" stroke-width="2.96888"/>
<line x1="12.2321" y1="112.851" x2="622.996" y2="1031.01" stroke="#18181B" stroke-width="2.96888"/>
<line x1="-3.69177" y1="114.267" x2="607.072" y2="1032.43" stroke="#18181B" stroke-width="2.96888"/>
<line x1="-19.6166" y1="115.682" x2="591.147" y2="1033.85" stroke="#18181B" stroke-width="2.96888"/>
<line x1="-35.5448" y1="117.097" x2="575.219" y2="1035.26" stroke="#18181B" stroke-width="2.96888"/>
<line x1="-51.4696" y1="118.514" x2="559.294" y2="1036.68" stroke="#18181B" stroke-width="2.96888"/>
<line x1="-67.3912" y1="119.93" x2="543.373" y2="1038.09" stroke="#18181B" stroke-width="2.96888"/>
<line x1="-83.3173" y1="121.346" x2="527.447" y2="1039.51" stroke="#18181B" stroke-width="2.96888"/>
<line x1="-99.2443" y1="122.762" x2="511.52" y2="1040.93" stroke="#18181B" stroke-width="2.96888"/>
<line x1="-115.166" y1="124.178" x2="495.598" y2="1042.34" stroke="#18181B" stroke-width="2.96888"/>
<line x1="380.499" y1="83.9815" x2="991.263" y2="1002.15" stroke="#18181B" stroke-width="2.96888"/>
<line x1="398.412" y1="86.2635" x2="1009.18" y2="1004.43" stroke="#18181B" stroke-width="2.96888"/>
<line x1="416.327" y1="88.5455" x2="1027.09" y2="1006.71" stroke="#18181B" stroke-width="2.96888"/>
<line x1="434.241" y1="90.8264" x2="1045.01" y2="1008.99" stroke="#18181B" stroke-width="2.96888"/>
<line x1="452.153" y1="93.1084" x2="1062.92" y2="1011.27" stroke="#18181B" stroke-width="2.96888"/>
<line x1="470.069" y1="95.3899" x2="1080.83" y2="1013.55" stroke="#18181B" stroke-width="2.96888"/>
<line x1="487.984" y1="97.6712" x2="1098.75" y2="1015.83" stroke="#18181B" stroke-width="2.96888"/>
<line x1="505.895" y1="99.9527" x2="1116.66" y2="1018.12" stroke="#18181B" stroke-width="2.96888"/>
<line x1="523.812" y1="102.234" x2="1134.58" y2="1020.4" stroke="#18181B" stroke-width="2.96888"/>
<line x1="541.726" y1="104.516" x2="1152.49" y2="1022.68" stroke="#18181B" stroke-width="2.96888"/>
<line x1="559.64" y1="106.798" x2="1170.4" y2="1024.96" stroke="#18181B" stroke-width="2.96888"/>
<line x1="577.556" y1="109.079" x2="1188.32" y2="1027.24" stroke="#18181B" stroke-width="2.96888"/>
<line x1="595.473" y1="111.361" x2="1206.24" y2="1029.52" stroke="#18181B" stroke-width="2.96888"/>
<line x1="613.382" y1="113.643" x2="1224.15" y2="1031.81" stroke="#18181B" stroke-width="2.96888"/>
<line x1="631.298" y1="115.924" x2="1242.06" y2="1034.09" stroke="#18181B" stroke-width="2.96888"/>
<line x1="649.213" y1="118.205" x2="1259.98" y2="1036.37" stroke="#18181B" stroke-width="2.96888"/>
<line x1="667.125" y1="120.487" x2="1277.89" y2="1038.65" stroke="#18181B" stroke-width="2.96888"/>
<line x1="685.041" y1="122.769" x2="1295.8" y2="1040.93" stroke="#18181B" stroke-width="2.96888"/>
<line x1="702.956" y1="125.05" x2="1313.72" y2="1043.21" stroke="#18181B" stroke-width="2.96888"/>
<line x1="720.867" y1="127.332" x2="1331.63" y2="1045.5" stroke="#18181B" stroke-width="2.96888"/>
<line x1="738.782" y1="129.614" x2="1349.55" y2="1047.78" stroke="#18181B" stroke-width="2.96888"/>
<line x1="756.696" y1="131.895" x2="1367.46" y2="1050.06" stroke="#18181B" stroke-width="2.96888"/>
<line x1="774.612" y1="134.176" x2="1385.38" y2="1052.34" stroke="#18181B" stroke-width="2.96888"/>
</g>
<rect x="367.602" y="103" width="1074.73" height="679.873" rx="44.5332" transform="rotate(16.7205 367.602 103)" fill="url(#paint4_linear_25_1902)"/>
<g filter="url(#filter5_f_25_1902)">
<circle cx="383.208" cy="185.188" r="267.199" transform="rotate(16.7205 383.208 185.188)" fill="#D2D2D2"/>
</g>
<g filter="url(#filter6_f_25_1902)">
<circle cx="1178.85" cy="1003.89" r="267.199" transform="rotate(16.7205 1178.85 1003.89)" fill="#C8C8C8"/>
</g>
</g>
<path d="M491.175 517.177L514.463 439.655C517.463 429.669 509.835 418.523 497.456 414.804L385.971 381.314C373.589 377.594 361.078 382.693 358.079 392.677L334.791 470.199C331.791 480.185 339.426 491.328 351.805 495.047L463.29 528.537C475.67 532.254 488.176 527.161 491.175 517.177ZM352.241 493.594C340.852 490.173 333.833 479.92 336.591 470.739L359.879 393.217C362.638 384.033 374.146 379.344 385.535 382.766L497.02 416.256C508.403 419.676 515.422 429.929 512.663 439.114L489.375 516.636C486.617 525.817 475.109 530.505 463.727 527.085L352.241 493.594Z" fill="#3F3F46"/>
<path d="M463.729 527.087L352.245 493.596C346.772 491.95 342.049 488.619 339.114 484.335C336.179 480.051 335.273 475.164 336.594 470.747L359.884 393.22C362.643 384.035 374.15 379.347 385.539 382.768L497.023 416.258C508.406 419.677 515.425 429.931 512.665 439.116L489.376 516.644C486.62 525.818 475.112 530.506 463.729 527.087Z" fill="url(#paint5_linear_25_1902)"/>
<path d="M339.045 457.116L339.482 455.664L390.819 471.086C394.222 472.105 397.812 471.994 400.8 470.776C403.789 469.559 405.932 467.335 406.76 464.592L415.045 437.015C415.865 434.27 415.302 431.233 413.479 428.57C411.656 425.907 408.723 423.836 405.321 422.811L353.984 407.389L354.42 405.935L405.758 421.357C409.636 422.527 412.982 424.889 415.06 427.925C417.139 430.962 417.781 434.425 416.845 437.556L408.561 465.133C407.617 468.26 405.173 470.796 401.765 472.185C398.357 473.573 394.264 473.7 390.383 472.538L339.045 457.116Z" fill="#383335"/>
<path d="M438.366 474.087L446.65 446.51C447.594 443.382 450.039 440.845 453.447 439.457C456.855 438.068 460.949 437.941 464.83 439.103L510.425 452.8L509.988 454.254L464.393 440.557C460.99 439.537 457.4 439.649 454.411 440.866C451.422 442.083 449.279 444.308 448.451 447.05L440.166 474.628C439.346 477.373 439.91 480.41 441.733 483.073C443.556 485.736 446.49 487.807 449.891 488.832L495.486 502.529L495.05 503.981L449.455 490.284C445.576 489.116 442.23 486.754 440.151 483.717C438.072 480.68 437.43 477.217 438.366 474.087Z" fill="#383335"/>
<path d="M446.946 448.791L447.383 447.339L415.776 437.845L415.34 439.297L446.946 448.791Z" fill="#383335"/>
<path d="M439.438 473.795L439.874 472.343L408.267 462.849L407.831 464.301L439.438 473.795Z" fill="#383335"/>
<path d="M370.451 499.858L379.846 468.582L378.046 468.041L368.65 499.317L370.451 499.858Z" fill="#383335"/>
<path d="M394.787 418.854L404.183 387.576L402.383 387.035L392.987 418.313L394.787 418.854Z" fill="#383335"/>
<path d="M450.222 523.821L459.617 492.544L457.817 492.004L448.421 523.28L450.222 523.821Z" fill="#383335"/>
<path d="M474.554 442.816L483.95 411.539L482.15 410.998L472.754 442.276L474.554 442.816Z" fill="#383335"/>
<path d="M501.66 479.008L502.096 477.555L443.587 459.979L443.151 461.431L501.66 479.008Z" fill="#383335"/>
<path d="M410.974 451.764L411.41 450.312L346.898 430.932L346.462 432.384L410.974 451.764Z" fill="#383335"/>
<path d="M1012.62 933.416L992.446 928.207L1037.5 838.657L1057.68 843.866L1012.62 933.416ZM1007.92 831.02L966.367 889.887L968.896 875.554L968.896 875.56L976.697 832.072C976.697 832.072 978.798 823.504 970.048 821.245L938.249 813.036L937.327 814.511C937.327 814.511 946.204 819.444 954.723 830.567L944.065 915.721L965.087 921.147L1029.63 836.626L1007.92 831.02V831.02ZM1134.17 964.792L1152.69 969.574L1168.98 872.597L1152.77 868.41C1145.28 866.477 1141.03 872.922 1141.03 872.922L1080.92 951.046L1101.95 956.475L1110.97 943.776L1136.62 950.397L1134.17 964.792ZM1123.44 926.233L1146.18 894.239L1140.01 930.509L1123.44 926.233ZM1107.14 880.965L1116.98 861.779C1116.98 861.779 1109.51 855.439 1100.25 853.048C1090.24 850.464 1064.63 849.566 1055.72 875.049C1047.34 899.025 1075.14 906.527 1070.74 919.12C1066.34 931.714 1042.09 922.996 1036.61 912.922L1026.33 932.986C1026.33 932.986 1033.5 940.552 1047.27 944.105C1061.04 947.659 1084.79 944.484 1092.91 921.248C1101.35 897.118 1073.98 887.603 1077.65 877.112C1081.32 866.619 1100.49 873.039 1107.14 880.965V880.965Z" fill="#2566AF"/>
<path d="M966.608 871.088L970.417 832.91C970.417 832.91 971.737 825.433 962.681 822.713L929.771 812.826L928.977 814.068C928.977 814.068 943.81 822.098 955.292 838.938C966.273 855.036 966.608 871.088 966.608 871.088Z" fill="#E6A540"/>
<path d="M284.041 643.555L285.215 639.646L286.56 640.05C287.561 640.35 288.438 640.307 289.191 639.919C289.971 639.517 290.505 638.836 290.793 637.877L295.67 621.645L299.955 622.932L295.125 639.008C294.693 640.447 294.001 641.614 293.05 642.511C292.12 643.413 290.99 643.995 289.662 644.255C288.354 644.521 286.929 644.423 285.386 643.959L284.041 643.555ZM300.195 648.408L307.195 625.107L322.677 629.758L321.55 633.511L310.321 630.138L308.527 636.112L319.129 639.297L318.002 643.05L307.399 639.865L305.576 645.933L316.805 649.306L315.677 653.059L300.195 648.408ZM329.847 657.725C328.366 657.28 327.071 656.596 325.962 655.671C324.874 654.753 324.015 653.677 323.386 652.442C322.784 651.193 322.468 649.859 322.44 648.441L326.434 647.97C326.596 649.474 327.093 650.771 327.925 651.862C328.763 652.932 329.849 653.668 331.184 654.069C331.934 654.294 332.615 654.374 333.226 654.307C333.864 654.226 334.392 654.021 334.809 653.691C335.247 653.368 335.554 652.915 335.729 652.331C335.936 651.643 335.897 651.017 335.611 650.454C335.353 649.876 334.855 649.34 334.117 648.846L330.076 646.064C328.431 644.956 327.319 643.701 326.74 642.299C326.161 640.898 326.1 639.436 326.557 637.914C326.958 636.579 327.635 635.498 328.588 634.671C329.562 633.849 330.718 633.333 332.055 633.12C333.419 632.894 334.862 633.009 336.384 633.466C337.781 633.886 338.988 634.521 340.005 635.372C341.029 636.203 341.826 637.181 342.397 638.307C342.995 639.419 343.327 640.621 343.394 641.914L339.421 642.426C339.313 641.12 338.894 640.017 338.165 639.116C337.441 638.194 336.475 637.551 335.266 637.188C334.557 636.975 333.894 636.912 333.276 637C332.665 637.066 332.138 637.271 331.693 637.615C331.276 637.945 330.98 638.401 330.804 638.985C330.61 639.631 330.647 640.267 330.913 640.893C331.186 641.498 331.709 642.064 332.483 642.592L336.364 645.224C338.038 646.387 339.174 647.637 339.772 648.976C340.391 650.321 340.465 651.776 339.996 653.34C339.595 654.674 338.897 655.749 337.902 656.564C336.907 657.379 335.717 657.897 334.332 658.117C332.947 658.338 331.452 658.207 329.847 657.725ZM352.94 664.662C351.46 664.218 350.165 663.533 349.056 662.609C347.968 661.691 347.109 660.614 346.48 659.38C345.878 658.13 345.562 656.797 345.534 655.379L349.528 654.908C349.69 656.411 350.187 657.709 351.019 658.8C351.857 659.87 352.943 660.605 354.278 661.006C355.028 661.232 355.709 661.311 356.32 661.245C356.958 661.163 357.486 660.958 357.903 660.629C358.341 660.306 358.648 659.852 358.823 659.269C359.03 658.58 358.991 657.955 358.705 657.392C358.447 656.814 357.948 656.278 357.21 655.783L353.17 653.001C351.525 651.893 350.413 650.638 349.834 649.237C349.255 647.835 349.194 646.373 349.651 644.851C350.052 643.517 350.729 642.436 351.682 641.608C352.656 640.787 353.812 640.27 355.149 640.058C356.513 639.831 357.956 639.946 359.478 640.404C360.875 640.823 362.082 641.459 363.099 642.31C364.123 643.14 364.92 644.119 365.491 645.245C366.089 646.357 366.421 647.559 366.488 648.852L362.515 649.363C362.407 648.058 361.988 646.955 361.259 646.054C360.535 645.132 359.569 644.489 358.36 644.126C357.651 643.913 356.988 643.85 356.37 643.937C355.759 644.004 355.232 644.209 354.787 644.553C354.37 644.882 354.074 645.339 353.898 645.923C353.704 646.569 353.74 647.205 354.007 647.831C354.28 648.436 354.803 649.002 355.577 649.53L359.458 652.162C361.132 653.324 362.268 654.575 362.866 655.914C363.485 657.259 363.559 658.714 363.089 660.277C362.689 661.612 361.991 662.687 360.996 663.502C360.001 664.317 358.811 664.834 357.426 665.055C356.041 665.275 354.546 665.145 352.94 664.662ZM367.827 668.725L374.827 645.424L390.309 650.075L389.182 653.828L377.953 650.455L376.159 656.429L386.762 659.614L385.634 663.367L375.031 660.182L373.209 666.25L384.437 669.623L383.31 673.376L367.827 668.725ZM409.04 681.515C407.33 681.001 405.826 680.22 404.527 679.17C403.229 678.121 402.189 676.888 401.41 675.472C400.631 674.056 400.147 672.524 399.96 670.876C399.8 669.214 399.977 667.528 400.491 665.818C401.011 664.088 401.792 662.583 402.835 661.305C403.879 660.028 405.116 659.012 406.546 658.26C407.977 657.508 409.521 657.062 411.176 656.923C412.839 656.763 414.535 656.943 416.266 657.463C417.996 657.983 419.511 658.768 420.81 659.817C422.109 660.866 423.148 662.099 423.927 663.515C424.713 664.911 425.189 666.429 425.355 668.07C425.542 669.718 425.375 671.407 424.856 673.138C424.342 674.847 423.55 676.349 422.48 677.641C421.416 678.913 420.168 679.925 418.737 680.677C417.307 681.429 415.76 681.885 414.098 682.045C412.457 682.212 410.771 682.035 409.04 681.515ZM410.205 677.637C411.352 677.981 412.465 678.099 413.543 677.991C414.627 677.862 415.634 677.54 416.562 677.023C417.511 676.512 418.323 675.813 418.999 674.925C419.696 674.043 420.22 673.018 420.571 671.85C420.921 670.683 421.046 669.549 420.944 668.45C420.869 667.337 420.577 666.305 420.066 665.356C419.583 664.393 418.921 663.569 418.081 662.885C417.241 662.2 416.247 661.686 415.1 661.341C413.975 661.003 412.872 660.888 411.794 660.996C410.716 661.104 409.699 661.424 408.744 661.955C407.816 662.472 407.003 663.171 406.307 664.053C405.616 664.914 405.095 665.928 404.745 667.096C404.394 668.264 404.266 669.408 404.362 670.527C404.457 671.647 404.75 672.679 405.239 673.621C405.75 674.57 406.422 675.398 407.256 676.103C408.096 676.787 409.079 677.298 410.205 677.637ZM427.977 686.794L434.976 663.493L443.64 666.096C445.225 666.572 446.534 667.283 447.568 668.23C448.629 669.163 449.338 670.285 449.694 671.597C450.056 672.888 450.003 674.315 449.533 675.879C449.051 677.485 448.255 678.735 447.145 679.629C446.056 680.529 444.784 681.056 443.328 681.21L445.867 692.169L441.05 690.722L438.399 678.775L440.663 681.228L434.814 679.471L432.23 688.072L427.977 686.794ZM435.942 675.718L440.414 677.061C441.186 677.293 441.897 677.348 442.547 677.225C443.204 677.081 443.771 676.785 444.246 676.337C444.722 675.889 445.066 675.31 445.279 674.601C445.498 673.872 445.53 673.199 445.374 672.584C445.224 671.948 444.911 671.399 444.436 670.938C443.967 670.456 443.347 670.099 442.575 669.868L438.103 668.524L435.942 675.718ZM462.864 697.684C461.154 697.17 459.65 696.389 458.351 695.339C457.052 694.29 456.013 693.057 455.234 691.641C454.454 690.224 453.971 688.693 453.784 687.045C453.624 685.383 453.801 683.697 454.315 681.987C454.835 680.257 455.616 678.752 456.659 677.474C457.702 676.196 458.939 675.181 460.37 674.429C461.801 673.677 463.344 673.231 465 673.092C466.662 672.932 468.359 673.112 470.089 673.632C471.82 674.152 473.335 674.936 474.633 675.986C475.932 677.035 476.971 678.268 477.751 679.684C478.536 681.08 479.012 682.598 479.179 684.239C479.366 685.887 479.199 687.576 478.679 689.307C478.166 691.016 477.374 692.518 476.304 693.81C475.24 695.082 473.992 696.094 472.561 696.846C471.13 697.598 469.584 698.054 467.922 698.214C466.281 698.381 464.595 698.204 462.864 697.684ZM464.029 693.805C465.176 694.15 466.288 694.268 467.367 694.16C468.451 694.031 469.457 693.708 470.385 693.192C471.335 692.681 472.147 691.982 472.823 691.094C473.52 690.212 474.044 689.187 474.394 688.019C474.745 686.852 474.87 685.718 474.768 684.619C474.693 683.506 474.401 682.474 473.89 681.525C473.407 680.562 472.745 679.738 471.905 679.053C471.065 678.369 470.071 677.855 468.924 677.51C467.798 677.172 466.696 677.057 465.618 677.165C464.54 677.273 463.523 677.593 462.568 678.124C461.64 678.641 460.827 679.34 460.13 680.222C459.44 681.083 458.919 682.097 458.568 683.265C458.218 684.433 458.09 685.577 458.185 686.696C458.281 687.816 458.574 688.848 459.063 689.79C459.574 690.739 460.246 691.566 461.08 692.272C461.92 692.956 462.903 693.467 464.029 693.805ZM490.007 705.838C488.527 705.393 487.232 704.709 486.123 703.784C485.035 702.866 484.176 701.79 483.547 700.555C482.945 699.306 482.629 697.972 482.6 696.554L486.595 696.083C486.757 697.587 487.254 698.884 488.086 699.975C488.924 701.045 490.01 701.781 491.344 702.182C492.095 702.407 492.776 702.487 493.387 702.42C494.025 702.339 494.553 702.134 494.97 701.804C495.408 701.481 495.715 701.028 495.89 700.444C496.097 699.756 496.057 699.13 495.772 698.567C495.513 697.989 495.015 697.453 494.277 696.959L490.237 694.177C488.592 693.069 487.48 691.814 486.901 690.412C486.321 689.011 486.26 687.549 486.718 686.027C487.119 684.692 487.796 683.611 488.749 682.784C489.723 681.962 490.879 681.446 492.215 681.233C493.579 681.007 495.022 681.122 496.545 681.579C497.942 681.999 499.149 682.634 500.166 683.485C501.19 684.316 501.987 685.294 502.558 686.42C503.156 687.532 503.488 688.735 503.554 690.027L499.582 690.539C499.474 689.233 499.055 688.13 498.325 687.229C497.602 686.307 496.636 685.664 495.426 685.301C494.718 685.088 494.054 685.025 493.437 685.113C492.826 685.179 492.298 685.384 491.854 685.728C491.437 686.058 491.141 686.514 490.965 687.098C490.771 687.744 490.807 688.38 491.074 689.006C491.347 689.611 491.87 690.177 492.644 690.705L496.525 693.337C498.199 694.5 499.335 695.75 499.933 697.089C500.552 698.434 500.626 699.889 500.156 701.453C499.755 702.787 499.057 703.862 498.062 704.677C497.067 705.492 495.878 706.01 494.493 706.23C493.108 706.451 491.613 706.32 490.007 705.838ZM503.08 709.356L504.086 706.009L520.244 693.2L509.609 690.005L510.737 686.252L526.782 691.072L525.777 694.418L509.65 707.237L521.222 710.714L520.095 714.467L503.08 709.356Z" fill="#18181B"/>
<path opacity="0.5" d="M267.993 700.732L274.993 677.431L283.656 680.034C285.241 680.51 286.55 681.221 287.584 682.168C288.645 683.101 289.354 684.223 289.71 685.535C290.073 686.826 290.019 688.253 289.549 689.817C289.067 691.423 288.271 692.673 287.161 693.567C286.072 694.467 284.8 694.994 283.344 695.148L285.883 706.107L281.067 704.66L278.415 692.713L280.679 695.166L274.83 693.409L272.246 702.01L267.993 700.732ZM275.958 689.656L280.43 690.999C281.202 691.231 281.913 691.286 282.564 691.163C283.221 691.019 283.787 690.723 284.262 690.275C284.738 689.827 285.082 689.248 285.295 688.539C285.515 687.81 285.546 687.137 285.39 686.522C285.24 685.886 284.927 685.337 284.452 684.876C283.983 684.394 283.363 684.037 282.591 683.806L278.119 682.462L275.958 689.656ZM291.514 707.798L298.514 684.497L313.996 689.148L312.869 692.901L301.64 689.528L299.846 695.502L310.449 698.687L309.321 702.44L298.718 699.255L296.895 705.323L308.124 708.696L306.996 712.449L291.514 707.798ZM317.306 715.546L318.051 690.366L322.617 691.738L321.561 713.074L320.373 712.717L331.469 694.397L335.879 695.722L335.01 717.114L333.822 716.757L344.699 698.371L349.265 699.743L336.01 721.165L331.131 719.699L331.777 698.82L333.153 699.233L322.186 717.012L317.306 715.546ZM344.53 723.724L359.568 702.838L365.073 704.491L366.111 730.207L361.482 728.817L361.328 723.315L352.32 720.609L349.128 725.106L344.53 723.724ZM354.667 717.222L361.235 719.195L360.843 706.426L362.031 706.783L354.667 717.222ZM371.548 731.841L378.547 708.539L387.211 711.142C388.796 711.618 390.105 712.33 391.139 713.277C392.2 714.209 392.909 715.332 393.265 716.643C393.627 717.934 393.574 719.362 393.104 720.926C392.621 722.531 391.825 723.781 390.716 724.675C389.627 725.576 388.355 726.103 386.899 726.257L389.438 737.215L384.621 735.768L381.97 723.821L384.234 726.274L378.385 724.517L375.801 733.118L371.548 731.841ZM379.512 720.764L383.985 722.108C384.757 722.339 385.468 722.394 386.118 722.271C386.775 722.128 387.342 721.832 387.817 721.383C388.293 720.935 388.637 720.357 388.85 719.648C389.069 718.918 389.101 718.245 388.945 717.63C388.795 716.994 388.482 716.446 388.007 715.984C387.538 715.503 386.918 715.146 386.146 714.914L381.674 713.57L379.512 720.764ZM395.069 738.907L402.069 715.605L409.669 717.889C412.13 718.628 414.117 719.77 415.63 721.316C417.17 722.847 418.178 724.639 418.653 726.691C419.134 728.722 419.03 730.885 418.341 733.178C417.658 735.451 416.55 737.323 415.017 738.795C413.49 740.246 411.658 741.196 409.523 741.646C407.414 742.081 405.13 741.929 402.669 741.19L395.069 738.907ZM400.45 736.431L403.891 737.465C405.475 737.941 406.938 738.028 408.279 737.726C409.647 737.41 410.83 736.765 411.827 735.791C412.831 734.797 413.573 733.497 414.056 731.891C414.544 730.265 414.641 728.771 414.345 727.409C414.05 726.047 413.415 724.868 412.441 723.87C411.489 722.879 410.22 722.146 408.635 721.67L405.195 720.636L400.45 736.431ZM429.272 749.59C427.791 749.146 426.496 748.461 425.387 747.537C424.299 746.619 423.44 745.543 422.811 744.308C422.209 743.059 421.893 741.725 421.865 740.307L425.859 739.836C426.021 741.34 426.518 742.637 427.35 743.728C428.188 744.798 429.274 745.533 430.609 745.934C431.359 746.16 432.04 746.239 432.651 746.173C433.289 746.092 433.817 745.886 434.234 745.557C434.672 745.234 434.979 744.781 435.154 744.197C435.361 743.509 435.322 742.883 435.036 742.32C434.778 741.742 434.28 741.206 433.541 740.712L429.501 737.929C427.856 736.821 426.744 735.566 426.165 734.165C425.586 732.763 425.525 731.301 425.982 729.779C426.383 728.445 427.06 727.364 428.013 726.536C428.987 725.715 430.143 725.198 431.48 724.986C432.844 724.759 434.287 724.875 435.809 725.332C437.206 725.751 438.413 726.387 439.43 727.238C440.454 728.068 441.251 729.047 441.822 730.173C442.42 731.285 442.752 732.487 442.819 733.78L438.846 734.292C438.738 732.986 438.319 731.883 437.59 730.982C436.866 730.06 435.9 729.417 434.691 729.054C433.982 728.841 433.319 728.778 432.701 728.865C432.09 728.932 431.563 729.137 431.118 729.481C430.701 729.81 430.405 730.267 430.229 730.851C430.035 731.497 430.071 732.133 430.338 732.759C430.611 733.364 431.134 733.93 431.908 734.458L435.789 737.09C437.463 738.252 438.599 739.503 439.197 740.842C439.816 742.187 439.89 743.642 439.421 745.206C439.02 746.54 438.322 747.615 437.327 748.43C436.332 749.245 435.142 749.763 433.757 749.983C432.372 750.204 430.877 750.073 429.272 749.59ZM454.993 757.317C453.325 756.816 451.872 756.05 450.636 755.02C449.421 753.995 448.444 752.781 447.707 751.377C446.99 749.98 446.559 748.464 446.413 746.829C446.268 745.194 446.455 743.511 446.975 741.78C447.495 740.05 448.256 738.539 449.257 737.249C450.286 735.944 451.481 734.916 452.843 734.166C454.232 733.401 455.723 732.94 457.317 732.782C458.916 732.603 460.55 732.764 462.218 733.265C463.886 733.766 465.292 734.496 466.437 735.453C467.602 736.417 468.503 737.506 469.138 738.72C469.78 739.913 470.133 741.122 470.197 742.346L465.846 742.982C465.759 741.683 465.307 740.502 464.49 739.438C463.679 738.353 462.533 737.588 461.053 737.144C459.593 736.705 458.197 736.661 456.865 737.011C455.553 737.367 454.402 738.056 453.414 739.077C452.446 740.105 451.717 741.432 451.229 743.058C450.74 744.685 450.613 746.204 450.849 747.616C451.111 749.013 451.691 750.222 452.589 751.242C453.509 752.268 454.698 753 456.158 753.439C457.638 753.884 459.012 753.887 460.281 753.45C461.555 752.991 462.586 752.244 463.375 751.208L466.655 754.137C465.927 755.123 464.963 755.948 463.764 756.61C462.571 757.252 461.223 757.654 459.719 757.816C458.236 757.985 456.661 757.818 454.993 757.317ZM482.057 765.448C480.389 764.946 478.937 764.181 477.701 763.15C476.485 762.126 475.509 760.912 474.771 759.508C474.054 758.11 473.623 756.594 473.478 754.959C473.333 753.324 473.52 751.641 474.04 749.911C474.56 748.18 475.32 746.669 476.322 745.379C477.35 744.074 478.546 743.046 479.908 742.296C481.297 741.531 482.788 741.07 484.381 740.912C485.981 740.733 487.615 740.894 489.283 741.396C490.951 741.897 492.357 742.626 493.502 743.584C494.667 744.548 495.567 745.636 496.203 746.85C496.845 748.043 497.198 749.252 497.262 750.476L492.911 751.113C492.824 749.813 492.371 748.632 491.554 747.568C490.744 746.483 489.598 745.719 488.118 745.274C486.658 744.835 485.262 744.791 483.929 745.141C482.617 745.497 481.467 746.186 480.478 747.207C479.51 748.235 478.782 749.562 478.293 751.189C477.805 752.815 477.678 754.334 477.913 755.746C478.175 757.143 478.756 758.352 479.654 759.372C480.573 760.398 481.763 761.131 483.222 761.569C484.703 762.014 486.077 762.018 487.345 761.58C488.619 761.122 489.651 760.375 490.44 759.338L493.72 762.267C492.992 763.254 492.028 764.078 490.829 764.741C489.636 765.383 488.287 765.785 486.784 765.947C485.301 766.115 483.725 765.949 482.057 765.448ZM496.38 769.341L511.418 748.454L516.923 750.108L517.961 775.824L513.332 774.433L513.178 768.931L504.17 766.225L500.978 770.722L496.38 769.341ZM506.517 762.838L513.085 764.811L512.693 752.043L513.881 752.4L506.517 762.838ZM523.398 777.457L530.397 754.156L539.092 756.768C540.677 757.244 541.986 757.956 543.02 758.903C544.081 759.835 544.79 760.957 545.146 762.269C545.509 763.56 545.455 764.988 544.985 766.551C544.522 768.094 543.769 769.312 542.728 770.204C541.715 771.082 540.515 771.631 539.131 771.851C537.746 772.072 536.261 771.944 534.676 771.468L530.235 770.134L527.651 778.735L523.398 777.457ZM531.363 766.381L535.866 767.734C536.638 767.965 537.349 768.02 538 767.897C538.657 767.753 539.223 767.457 539.699 767.009C540.174 766.561 540.518 765.983 540.731 765.274C540.951 764.544 540.982 763.871 540.826 763.256C540.676 762.62 540.364 762.071 539.888 761.61C539.419 761.128 538.799 760.772 538.027 760.54L533.524 759.187L531.363 766.381ZM546.522 784.404L553.522 761.103L557.776 762.38L550.776 785.682L546.522 784.404Z" fill="#18181B"/>
<g clip-path="url(#clip1_25_1902)">
<path d="M927.525 345.249C925.044 344.503 922.381 345.458 919.537 348.113C916.692 350.767 914.605 354.307 913.276 358.733L905.179 385.689L912.32 387.834L911.776 389.645L880.395 380.218L880.938 378.407L886.47 380.069L899.765 335.813L894.233 334.151L894.777 332.341L919.017 339.623L916.116 349.278C918.015 346.12 920.477 344.009 923.502 342.944C926.547 341.811 929.645 341.719 932.797 342.665C935.948 343.612 938.224 345.283 939.625 347.677C941.113 350.025 941.364 352.842 940.377 356.127C939.41 359.346 937.927 361.605 935.928 362.906C933.929 364.206 931.387 364.393 928.303 363.466C925.285 362.56 923.341 360.879 922.47 358.425C921.666 355.99 922.335 353.157 924.475 349.925L928.096 351.013C930.8 348.097 930.609 346.175 927.525 345.249ZM956.64 404.218C947.99 401.62 942.15 397.453 939.121 391.718C936.179 385.937 935.897 379.089 938.274 371.177C940.671 363.197 944.917 357.82 951.014 355.046C957.178 352.292 964.015 352.043 971.525 354.299C986.747 358.872 991.759 368.711 986.563 383.819L958.199 375.298L957.021 379.221C955.047 385.792 954.395 391.006 955.064 394.862C955.733 398.719 958.146 401.271 962.304 402.52C970.082 404.857 976.427 402.23 981.339 394.64L983.059 395.486C980.334 399.931 976.893 402.992 972.734 404.666C968.643 406.361 963.278 406.212 956.64 404.218ZM958.904 373.317L969.264 376.429L970.745 371.5C972.376 366.069 973.149 362.28 973.062 360.134C973.063 357.941 972.092 356.553 970.147 355.969C968.269 355.405 966.539 356.054 964.955 357.918C963.459 359.735 961.936 363.225 960.385 368.388L958.904 373.317ZM1028.33 374.433L1028.87 372.623L1054.82 380.418L1054.28 382.229L1050.16 380.99L1049.03 417.605L1068.16 386.398L1061.22 384.313L1061.76 382.503L1075.34 386.582L1074.8 388.392L1070.57 387.123L1044.67 429.564L1030.89 425.425L1031.41 391.917L1012.68 419.956L999.203 415.907L998.155 365.369L993.629 364.009L994.172 362.199L1024.65 371.354L1024.1 373.164L1018.07 371.351L1017.05 408.329L1031.36 386.968L1032.05 375.551L1028.33 374.433ZM1091.68 417.917L1094.6 418.793L1096.92 411.048C1098.84 404.678 1099.75 400.31 1099.65 397.942C1099.65 395.528 1098.64 394.019 1096.63 393.415C1095.42 393.052 1094.21 393.055 1093.01 393.423C1091.89 393.745 1091.15 394.475 1090.81 395.615C1090.49 396.688 1090.36 397.855 1090.42 399.116L1092.93 399.871C1093.05 401.441 1092.8 403.231 1092.2 405.243C1091.61 407.187 1090.26 408.645 1088.14 409.617C1086.04 410.522 1083.72 410.591 1081.17 409.826C1075.4 408.093 1073.36 404.444 1075.03 398.879C1077.51 390.631 1085.75 388.612 1099.77 392.822C1107.75 395.219 1112.83 398.245 1115.02 401.901C1117.3 405.51 1117.35 410.935 1115.18 418.177L1109.04 438.595C1108 442.082 1108.45 444.117 1110.39 444.702C1112.67 445.386 1115.05 442.336 1117.53 435.55L1119 436.104C1116.96 441.924 1114.64 445.649 1112.03 447.277C1109.42 448.906 1105.9 449.056 1101.48 447.726C1093.43 445.309 1089.55 441.438 1089.83 436.114C1088.2 438.4 1086.32 439.885 1084.22 440.568C1082.11 441.251 1079.38 441.089 1076.03 440.082C1066.11 437.101 1062.36 431.553 1064.8 423.44C1066.23 418.679 1069.08 415.991 1073.36 415.375C1077.73 414.713 1083.83 415.56 1091.68 417.917ZM1083.94 429.08C1082.89 432.567 1082.39 434.863 1082.42 435.97C1082.52 437.097 1083.07 437.811 1084.08 438.113C1085.15 438.435 1086.37 437.889 1087.75 436.475C1089.21 435.013 1090.4 432.774 1091.3 429.757L1094.11 420.403L1093.41 420.191C1089.25 418.942 1086.26 421.369 1084.42 427.471L1083.94 429.08ZM1163.56 416.152C1161.08 415.407 1158.41 416.361 1155.57 419.016C1152.73 421.67 1150.64 425.21 1149.31 429.636L1141.21 456.592L1148.35 458.737L1147.81 460.548L1116.43 451.121L1116.97 449.31L1122.5 450.972L1135.8 406.716L1130.27 405.054L1130.81 403.244L1155.05 410.526L1152.15 420.181C1154.05 417.023 1156.51 414.912 1159.53 413.847C1162.58 412.714 1165.68 412.622 1168.83 413.568C1171.98 414.515 1174.26 416.186 1175.66 418.58C1177.15 420.928 1177.4 423.745 1176.41 427.03C1175.44 430.249 1173.96 432.508 1171.96 433.809C1169.96 435.109 1167.42 435.296 1164.34 434.369C1161.32 433.463 1159.37 431.782 1158.5 429.328C1157.7 426.893 1158.37 424.06 1160.51 420.828L1164.13 421.916C1166.83 419 1166.64 417.078 1163.56 416.152ZM1207.41 449.378C1207.52 449.018 1207.74 448.298 1208.06 447.218C1208.4 446.104 1208.74 444.834 1209.1 443.406C1209.47 441.946 1209.81 440.389 1210.13 438.736C1210.45 437.082 1210.63 435.514 1210.69 434.031C1210.21 432.779 1209.59 431.613 1208.84 430.532C1208.14 429.429 1207.04 428.651 1205.53 428.198C1202.98 427.431 1200.59 428.535 1198.38 431.511C1196.2 434.497 1194.05 439.493 1191.95 446.5C1191.02 449.578 1190.31 452.432 1189.8 455.065C1189.33 457.707 1189.1 460.029 1189.1 462.029C1189.14 464.04 1189.45 465.686 1190.03 466.966C1190.64 468.256 1191.57 469.089 1192.81 469.462C1198.05 471.036 1202.92 464.341 1207.41 449.378ZM1213.32 427.592C1213.68 424.131 1213.72 420.825 1213.46 417.675C1213.2 414.492 1212.59 411.633 1211.64 409.099C1210.72 406.574 1209.44 404.422 1207.8 402.643C1206.19 400.874 1204.24 399.646 1201.95 398.958C1200.64 398.564 1199.39 398.369 1198.21 398.372C1197.07 398.384 1196.03 398.502 1195.11 398.724C1194.2 398.914 1193.41 399.143 1192.76 399.411C1192.15 399.656 1191.7 399.843 1191.41 399.97L1190.65 397.868C1191.74 397.089 1192.98 396.425 1194.36 395.875C1195.77 395.335 1197.24 394.956 1198.77 394.737C1200.3 394.518 1201.85 394.45 1203.44 394.532C1205.05 394.625 1206.59 394.892 1208.07 395.335C1212.91 396.79 1216.85 399.133 1219.88 402.363C1222.91 405.56 1225.08 409.459 1226.38 414.06C1227.67 418.661 1228.12 423.883 1227.72 429.724C1227.32 435.566 1226.12 441.826 1224.11 448.505C1222.49 453.907 1220.51 458.488 1218.17 462.246C1215.86 466.015 1213.27 468.985 1210.4 471.159C1207.55 473.299 1204.45 474.635 1201.11 475.168C1197.82 475.677 1194.35 475.386 1190.72 474.295C1188.2 473.537 1185.76 472.324 1183.41 470.652C1181.1 468.959 1179.18 466.777 1177.66 464.108C1176.18 461.448 1175.26 458.28 1174.9 454.602C1174.55 450.892 1175.09 446.647 1176.53 441.867C1177.77 437.741 1179.44 434.247 1181.55 431.382C1183.69 428.528 1186.08 426.299 1188.7 424.695C1191.33 423.059 1194.11 422.056 1197.05 421.687C1199.99 421.285 1202.9 421.517 1205.78 422.383C1206.89 422.717 1207.86 423.115 1208.69 423.578C1209.52 424.007 1210.23 424.451 1210.8 424.909C1211.38 425.368 1211.86 425.835 1212.26 426.31C1212.66 426.752 1213.01 427.179 1213.32 427.592ZM1221.57 483.803L1226.98 465.799L1228.19 466.161C1228.18 472.519 1229.3 477.314 1231.54 480.547C1233.79 483.781 1237.12 486.062 1241.55 487.391C1248.39 489.446 1252.46 488.294 1253.77 483.935C1254.34 482.058 1253.92 480.398 1252.53 478.955C1250.36 476.695 1247.35 474.548 1243.5 472.514C1239.3 469.937 1235.96 467.18 1233.48 464.242C1230.52 460.72 1229.82 456.344 1231.39 451.114C1232.96 445.884 1235.82 442.21 1239.97 440.092C1244.13 437.907 1248.9 437.621 1254.26 439.232C1257.55 440.219 1260.7 442.007 1263.73 444.597C1264.84 445.516 1265.73 446.077 1266.4 446.278C1267.07 446.479 1267.71 446.416 1268.32 446.088C1268.93 445.759 1269.77 445.059 1270.82 443.986L1271.92 444.318L1267.3 459.707L1266.1 459.345C1265.29 449.601 1261.31 443.651 1254.13 441.495C1250.98 440.549 1248.46 440.414 1246.58 441.09C1244.71 441.7 1243.53 442.843 1243.02 444.519C1242.72 445.525 1242.72 446.4 1243 447.145C1243.31 447.822 1243.56 448.335 1243.75 448.684C1243.93 449.033 1244.28 449.465 1244.78 449.982C1245.31 450.431 1245.74 450.817 1246.08 451.139C1246.44 451.394 1246.99 451.777 1247.71 452.287C1248.5 452.817 1249.09 453.176 1249.47 453.364C1253.69 455.873 1256.67 457.866 1258.42 459.342C1260.19 460.751 1261.8 462.331 1263.25 464.082C1266.17 467.738 1266.77 472.416 1265.06 478.115C1263.37 483.748 1260.41 487.535 1256.17 489.479C1251.95 491.355 1246.92 491.417 1241.09 489.664C1236.93 488.415 1233.2 486.235 1229.89 483.122C1229.25 482.343 1228.69 481.884 1228.22 481.743C1226.75 481.3 1224.93 482.108 1222.78 484.165L1221.57 483.803Z" fill="#0C3636"/>
<path d="M1056 493.149C1054.5 492.696 1053.16 492.029 1052.01 491.148C1050.88 490.253 1049.97 489.209 1049.28 488.015C1048.62 486.808 1048.21 485.502 1048.05 484.099C1047.9 482.696 1048.04 481.258 1048.48 479.787C1048.93 478.316 1049.6 477.038 1050.5 475.952C1051.4 474.866 1052.47 474.015 1053.7 473.398C1054.94 472.763 1056.28 472.393 1057.71 472.288C1059.14 472.164 1060.62 472.331 1062.15 472.79C1063.77 473.277 1065.17 474.005 1066.34 474.973C1067.51 475.922 1068.4 477.082 1068.99 478.454L1065.95 479.975C1065.46 478.986 1064.83 478.17 1064.06 477.527C1063.29 476.865 1062.39 476.378 1061.35 476.066C1060.31 475.754 1059.31 475.638 1058.34 475.717C1057.39 475.801 1056.5 476.059 1055.67 476.488C1054.86 476.924 1054.15 477.512 1053.54 478.253C1052.95 479 1052.5 479.882 1052.19 480.901C1051.88 481.919 1051.77 482.903 1051.86 483.854C1051.96 484.81 1052.23 485.693 1052.67 486.503C1053.12 487.317 1053.72 488.022 1054.47 488.617C1055.23 489.217 1056.13 489.672 1057.17 489.984C1058.21 490.296 1059.23 490.396 1060.23 490.285C1061.23 490.155 1062.21 489.802 1063.17 489.225L1064.86 492.202C1063.62 492.999 1062.24 493.48 1060.73 493.643C1059.22 493.807 1057.65 493.642 1056 493.149ZM1067.92 496.421L1072.46 481.315L1075.83 482.327L1074.58 486.485L1074.55 485.15C1075.31 484.267 1076.25 483.706 1077.37 483.467C1078.51 483.234 1079.8 483.335 1081.25 483.771L1080.24 487.138C1080.1 487.055 1079.97 486.993 1079.83 486.954C1079.71 486.895 1079.58 486.846 1079.45 486.806C1078.11 486.404 1076.92 486.48 1075.89 487.034C1074.87 487.57 1074.12 488.61 1073.66 490.157L1071.46 497.484L1067.92 496.421ZM1087.35 502.474C1085.67 501.97 1084.3 501.198 1083.24 500.158C1082.2 499.105 1081.5 497.89 1081.16 496.511C1080.83 495.137 1080.89 493.706 1081.34 492.216C1081.79 490.707 1082.52 489.477 1083.52 488.525C1084.55 487.559 1085.75 486.922 1087.12 486.614C1088.51 486.31 1089.96 486.385 1091.46 486.839C1092.93 487.281 1094.15 487.995 1095.11 488.982C1096.06 489.968 1096.7 491.146 1097.01 492.513C1097.32 493.881 1097.23 495.356 1096.76 496.941C1096.71 497.092 1096.65 497.258 1096.58 497.441C1096.52 497.63 1096.46 497.806 1096.39 497.97L1083.8 494.189L1084.5 491.841L1095.22 495.062L1093.62 495.381C1093.9 494.519 1093.95 493.701 1093.77 492.928C1093.59 492.154 1093.23 491.48 1092.68 490.905C1092.15 490.335 1091.46 489.922 1090.61 489.667C1089.75 489.407 1088.93 489.366 1088.15 489.545C1087.4 489.729 1086.73 490.105 1086.15 490.67C1085.59 491.223 1085.18 491.951 1084.91 492.857L1084.74 493.422C1084.46 494.328 1084.43 495.192 1084.64 496.014C1084.84 496.836 1085.27 497.549 1085.91 498.153C1086.55 498.757 1087.36 499.206 1088.34 499.501C1089.19 499.756 1089.99 499.853 1090.75 499.793C1091.51 499.733 1092.24 499.499 1092.93 499.092L1094.17 501.84C1093.26 502.428 1092.22 502.783 1091.05 502.905C1089.9 503.014 1088.67 502.87 1087.35 502.474ZM1105.03 507.784C1103.58 507.347 1102.36 506.633 1101.39 505.641C1100.43 504.635 1099.8 503.458 1099.49 502.109C1099.17 500.76 1099.25 499.303 1099.72 497.738C1100.19 496.173 1100.93 494.914 1101.93 493.962C1102.94 493.01 1104.11 492.386 1105.46 492.09C1106.82 491.8 1108.22 491.874 1109.68 492.31C1110.94 492.689 1111.99 493.312 1112.82 494.178C1113.65 495.025 1114.19 496.102 1114.44 497.41C1114.68 498.717 1114.54 500.257 1114.01 502.029C1113.48 503.783 1112.76 505.151 1111.85 506.131C1110.94 507.093 1109.9 507.706 1108.73 507.972C1107.57 508.237 1106.33 508.174 1105.03 507.784ZM1106.36 504.884C1107.21 505.139 1108.02 505.177 1108.8 504.998C1109.59 504.825 1110.29 504.44 1110.9 503.842C1111.53 503.25 1111.99 502.473 1112.28 501.511C1112.57 500.53 1112.62 499.629 1112.41 498.807C1112.23 497.971 1111.86 497.263 1111.29 496.681C1110.75 496.106 1110.05 495.691 1109.2 495.436C1108.35 495.181 1107.53 495.14 1106.74 495.313C1105.97 495.492 1105.26 495.878 1104.63 496.47C1104.03 497.048 1103.58 497.828 1103.28 498.809C1102.99 499.771 1102.94 500.669 1103.12 501.505C1103.32 502.346 1103.69 503.055 1104.24 503.63C1104.81 504.211 1105.51 504.629 1106.36 504.884ZM1110.1 509.09L1111.17 505.525L1112.51 501.551L1113.44 497.449L1116.26 488.057L1119.77 489.111L1113.46 510.101L1110.1 509.09ZM1118.9 511.735L1123.44 496.629L1126.98 497.691L1122.44 512.797L1118.9 511.735ZM1125.97 494.675C1125.31 494.477 1124.82 494.105 1124.52 493.56C1124.23 493.02 1124.17 492.458 1124.34 491.873C1124.53 491.27 1124.88 490.833 1125.42 490.561C1125.97 490.277 1126.58 490.233 1127.24 490.432C1127.9 490.63 1128.38 490.989 1128.68 491.51C1129 492.018 1129.07 492.564 1128.9 493.148C1128.71 493.771 1128.34 494.236 1127.8 494.545C1127.26 494.836 1126.65 494.879 1125.97 494.675ZM1133.49 516.334C1131.83 515.835 1130.68 515.025 1130.03 513.905C1129.38 512.765 1129.31 511.356 1129.82 509.678L1133.89 496.128L1137.42 497.19L1133.38 510.655C1133.16 511.372 1133.17 511.982 1133.41 512.486C1133.67 512.995 1134.13 513.349 1134.79 513.547C1135.58 513.785 1136.31 513.776 1136.96 513.52L1137.19 516.335C1136.67 516.55 1136.09 516.651 1135.43 516.64C1134.78 516.628 1134.13 516.526 1133.49 516.334ZM1129.51 501.66L1130.36 498.831L1140.43 501.856L1139.58 504.685L1129.51 501.66ZM1158.66 523.988C1157.15 523.535 1155.82 522.867 1154.67 521.986C1153.54 521.092 1152.63 520.047 1151.94 518.853C1151.28 517.646 1150.87 516.341 1150.71 514.937C1150.56 513.534 1150.7 512.097 1151.14 510.626C1151.58 509.155 1152.26 507.876 1153.16 506.79C1154.06 505.704 1155.13 504.853 1156.36 504.237C1157.6 503.601 1158.94 503.231 1160.37 503.126C1161.8 503.002 1163.28 503.17 1164.81 503.628C1166.43 504.116 1167.83 504.843 1169 505.811C1170.17 506.76 1171.06 507.921 1171.65 509.292L1168.6 510.813C1168.12 509.825 1167.49 509.009 1166.72 508.365C1165.95 507.703 1165.05 507.216 1164.01 506.904C1162.97 506.593 1161.97 506.476 1161 506.555C1160.05 506.64 1159.16 506.897 1158.33 507.327C1157.52 507.762 1156.81 508.35 1156.2 509.091C1155.6 509.838 1155.15 510.721 1154.85 511.739C1154.54 512.757 1154.43 513.742 1154.52 514.692C1154.62 515.649 1154.89 516.532 1155.32 517.341C1155.78 518.156 1156.38 518.86 1157.13 519.455C1157.89 520.055 1158.79 520.511 1159.83 520.822C1160.87 521.134 1161.89 521.234 1162.89 521.123C1163.89 520.994 1164.87 520.64 1165.83 520.063L1167.52 523.04C1166.28 523.838 1164.9 524.318 1163.39 524.482C1161.88 524.645 1160.3 524.481 1158.66 523.988ZM1179.75 530.014L1180.67 526.959L1180.67 526.249L1182.27 520.902C1182.58 519.865 1182.51 518.97 1182.06 518.217C1181.62 517.446 1180.76 516.87 1179.5 516.491C1178.65 516.236 1177.77 516.116 1176.86 516.13C1175.97 516.151 1175.17 516.312 1174.46 516.613L1173.85 513.623C1174.85 513.244 1175.95 513.071 1177.15 513.103C1178.38 513.123 1179.6 513.314 1180.8 513.676C1182.99 514.333 1184.52 515.368 1185.39 516.781C1186.29 518.181 1186.41 519.975 1185.75 522.163L1183.09 531.017L1179.75 530.014ZM1174.94 528.785C1173.81 528.445 1172.88 527.959 1172.14 527.327C1171.41 526.676 1170.91 525.94 1170.64 525.119C1170.4 524.286 1170.41 523.435 1170.67 522.567C1170.93 521.719 1171.35 521.014 1171.95 520.454C1172.57 519.9 1173.4 519.564 1174.45 519.445C1175.49 519.327 1176.77 519.497 1178.3 519.956L1182.69 521.273L1181.98 523.621L1177.85 522.38C1176.64 522.018 1175.77 521.972 1175.24 522.244C1174.71 522.496 1174.36 522.905 1174.19 523.471C1174 524.112 1174.1 524.698 1174.5 525.228C1174.89 525.758 1175.54 526.159 1176.45 526.431C1177.32 526.692 1178.15 526.726 1178.95 526.534C1179.76 526.348 1180.44 525.913 1180.97 525.231L1180.93 527.531C1180.32 528.315 1179.5 528.819 1178.47 529.043C1177.46 529.273 1176.28 529.187 1174.94 528.785ZM1188.41 532.616L1192.95 517.51L1196.32 518.521L1195.07 522.68L1195.04 521.344C1195.8 520.462 1196.74 519.901 1197.86 519.662C1199 519.429 1200.29 519.53 1201.74 519.966L1200.73 523.332C1200.59 523.249 1200.46 523.188 1200.33 523.148C1200.2 523.09 1200.07 523.041 1199.94 523.001C1198.6 522.599 1197.41 522.675 1196.38 523.229C1195.36 523.764 1194.62 524.805 1194.15 526.352L1191.95 533.678L1188.41 532.616ZM1207.14 538.456C1205.68 538.02 1204.47 537.305 1203.49 536.313C1202.54 535.307 1201.91 534.13 1201.59 532.781C1201.28 531.433 1201.36 529.976 1201.83 528.41C1202.3 526.845 1203.03 525.586 1204.04 524.634C1205.05 523.682 1206.22 523.058 1207.56 522.763C1208.92 522.473 1210.33 522.546 1211.78 522.982C1213.05 523.362 1214.09 523.984 1214.92 524.85C1215.76 525.698 1216.3 526.775 1216.54 528.082C1216.79 529.389 1216.64 530.929 1216.11 532.702C1215.58 534.456 1214.87 535.823 1213.95 536.803C1213.05 537.765 1212.01 538.379 1210.84 538.644C1209.67 538.91 1208.44 538.847 1207.14 538.456ZM1208.47 535.557C1209.32 535.811 1210.13 535.849 1210.9 535.671C1211.69 535.497 1212.4 535.112 1213.01 534.514C1213.64 533.922 1214.1 533.145 1214.39 532.183C1214.68 531.203 1214.73 530.301 1214.52 529.479C1214.34 528.643 1213.97 527.935 1213.4 527.354C1212.85 526.778 1212.16 526.363 1211.31 526.108C1210.46 525.853 1209.64 525.812 1208.85 525.986C1208.07 526.165 1207.37 526.55 1206.74 527.142C1206.14 527.721 1205.69 528.501 1205.39 529.481C1205.1 530.443 1205.05 531.342 1205.23 532.177C1205.43 533.019 1205.8 533.727 1206.35 534.302C1206.91 534.884 1207.62 535.302 1208.47 535.557ZM1212.2 539.762L1213.27 536.198L1214.62 532.223L1215.54 528.121L1218.37 518.729L1221.87 519.783L1215.57 540.773L1212.2 539.762ZM1227.15 544.253L1242.01 527.128L1245.63 528.215L1248.62 550.703L1244.78 549.547L1242.47 529.394L1243.94 529.836L1230.94 545.392L1227.15 544.253ZM1232.63 540.902L1234.49 538.314L1245.18 541.526L1245.3 544.709L1232.63 540.902ZM1251.93 551.695L1257.87 531.893L1266.02 534.34C1267.78 534.867 1269.19 535.6 1270.26 536.54C1271.36 537.485 1272.09 538.588 1272.45 539.848C1272.81 541.108 1272.77 542.464 1272.34 543.917C1271.9 545.369 1271.18 546.521 1270.19 547.373C1269.19 548.225 1267.98 548.744 1266.54 548.931C1265.13 549.122 1263.54 548.955 1261.79 548.428L1255.68 546.593L1257.84 545.36L1255.6 552.8L1251.93 551.695ZM1257.72 545.756L1256.61 543.481L1262.56 545.265C1264.18 545.753 1265.5 545.778 1266.51 545.343C1267.55 544.895 1268.26 544.048 1268.63 542.803C1269.01 541.54 1268.89 540.444 1268.26 539.516C1267.65 538.593 1266.54 537.888 1264.92 537.401L1258.98 535.617L1261.16 534.299L1257.72 545.756ZM1272.96 558.014L1278.91 538.212L1282.59 539.317L1276.64 559.119L1272.96 558.014Z" fill="#7F56D9"/>
</g>
<defs>
<filter id="filter0_f_25_1902" x="430.194" y="459.195" width="1531.75" height="1272.08" filterUnits="userSpaceOnUse" color-interpolation-filters="sRGB">
<feFlood flood-opacity="0" result="BackgroundImageFix"/>
<feBlend mode="normal" in="SourceGraphic" in2="BackgroundImageFix" result="shape"/>
<feGaussianBlur stdDeviation="179.903" result="effect1_foregroundBlur_25_1902"/>
</filter>
<filter id="filter1_f_25_1902" x="-385.961" y="-162.429" width="2177.64" height="2177.64" filterUnits="userSpaceOnUse" color-interpolation-filters="sRGB">
<feFlood flood-opacity="0" result="BackgroundImageFix"/>
<feBlend mode="normal" in="SourceGraphic" in2="BackgroundImageFix" result="shape"/>
<feGaussianBlur stdDeviation="420.038" result="effect1_foregroundBlur_25_1902"/>
</filter>
<filter id="filter2_f_25_1902" x="610.564" y="206.484" width="2177.64" height="2177.64" filterUnits="userSpaceOnUse" color-interpolation-filters="sRGB">
<feFlood flood-opacity="0" result="BackgroundImageFix"/>
<feBlend mode="normal" in="SourceGraphic" in2="BackgroundImageFix" result="shape"/>
<feGaussianBlur stdDeviation="420.038" result="effect1_foregroundBlur_25_1902"/>
</filter>
<filter id="filter3_f_25_1902" x="57.9317" y="0.93425" width="1450.2" height="1175.15" filterUnits="userSpaceOnUse" color-interpolation-filters="sRGB">
<feFlood flood-opacity="0" result="BackgroundImageFix"/>
<feBlend mode="normal" in="SourceGraphic" in2="BackgroundImageFix" result="shape"/>
<feGaussianBlur stdDeviation="103.911" result="effect1_foregroundBlur_25_1902"/>
</filter>
<filter id="filter4_d_25_1902" x="0.901093" y="57.9126" width="1567.09" height="1302.53" filterUnits="userSpaceOnUse" color-interpolation-filters="sRGB">
<feFlood flood-opacity="0" result="BackgroundImageFix"/>
<feColorMatrix in="SourceAlpha" type="matrix" values="0 0 0 0 0 0 0 0 0 0 0 0 0 0 0 0 0 0 127 0" result="hardAlpha"/>
<feOffset dy="126.012"/>
<feGaussianBlur stdDeviation="91.0083"/>
<feComposite in2="hardAlpha" operator="out"/>
<feColorMatrix type="matrix" values="0 0 0 0 0.1375 0 0 0 0 0.155242 0 0 0 0 0.4125 0 0 0 0.08 0"/>
<feBlend mode="normal" in2="BackgroundImageFix" result="effect1_dropShadow_25_1902"/>
<feBlend mode="normal" in="SourceGraphic" in2="effect1_dropShadow_25_1902" result="shape"/>
</filter>
<filter id="filter5_f_25_1902" x="-786.601" y="-984.621" width="2339.62" height="2339.62" filterUnits="userSpaceOnUse" color-interpolation-filters="sRGB">
<feFlood flood-opacity="0" result="BackgroundImageFix"/>
<feBlend mode="normal" in="SourceGraphic" in2="BackgroundImageFix" result="shape"/>
<feGaussianBlur stdDeviation="451.27" result="effect1_foregroundBlur_25_1902"/>
</filter>
<filter id="filter6_f_25_1902" x="9.03973" y="-165.918" width="2339.62" height="2339.62" filterUnits="userSpaceOnUse" color-interpolation-filters="sRGB">
<feFlood flood-opacity="0" result="BackgroundImageFix"/>
<feBlend mode="normal" in="SourceGraphic" in2="BackgroundImageFix" result="shape"/>
<feGaussianBlur stdDeviation="451.27" result="effect1_foregroundBlur_25_1902"/>
</filter>
<linearGradient id="paint0_linear_25_1902" x1="1598.02" y1="1473.98" x2="2349.78" y2="1473.98" gradientUnits="userSpaceOnUse">
<stop stop-color="#4484FF"/>
<stop offset="0.234375" stop-color="#44B0FF"/>
<stop offset="0.489583" stop-color="#FF44EC"/>
<stop offset="0.739583" stop-color="#44A5FF"/>
<stop offset="1" stop-color="#F2FF5E"/>
</linearGradient>
<linearGradient id="paint1_linear_25_1902" x1="1337.98" y1="1496.42" x2="622.257" y2="816.623" gradientUnits="userSpaceOnUse">
<stop offset="0.507336"/>
<stop offset="1" stop-opacity="0"/>
</linearGradient>
<linearGradient id="paint2_linear_25_1902" x1="835.589" y1="1070.57" x2="862.744" y2="1246.31" gradientUnits="userSpaceOnUse">
<stop stop-color="#F3EC58"/>
<stop offset="0.4" stop-color="#F6CA45"/>
<stop offset="0.77" stop-color="#F9B036"/>
<stop offset="1" stop-color="#FAA631"/>
</linearGradient>
<linearGradient id="paint3_linear_25_1902" x1="408.852" y1="466.263" x2="1333.36" y2="466.263" gradientUnits="userSpaceOnUse">
<stop stop-color="#44BCFF"/>
<stop offset="0.234375" stop-color="#44B0FF"/>
<stop offset="0.489583" stop-color="#FF44EC"/>
<stop offset="0.739583" stop-color="#FF44EC"/>
<stop offset="1" stop-color="#FF675E"/>
</linearGradient>
<linearGradient id="paint4_linear_25_1902" x1="1099.43" y1="782.873" x2="330.491" y2="52.5291" gradientUnits="userSpaceOnUse">
<stop offset="0.507336" stop-color="white"/>
<stop offset="1" stop-color="white" stop-opacity="0"/>
</linearGradient>
<linearGradient id="paint5_linear_25_1902" x1="445.22" y1="386.392" x2="390.255" y2="569.361" gradientUnits="userSpaceOnUse">
<stop stop-color="#F3EC58"/>
<stop offset="0.4" stop-color="#F6CA45"/>
<stop offset="0.77" stop-color="#F9B036"/>
<stop offset="1" stop-color="#FAA631"/>
</linearGradient>
<clipPath id="clip0_25_1902">
<rect width="407.391" height="165.262" fill="white" transform="translate(1206.5 787.713) rotate(-8.78)"/>
</clipPath>
<clipPath id="clip1_25_1902">
<rect width="434.855" height="176.404" fill="white" transform="translate(911.492 273.047) rotate(16.72)"/>
</clipPath>
</defs>
</svg>
