<svg width="1532" height="1273" viewBox="0 0 1532 1273" fill="none" xmlns="http://www.w3.org/2000/svg">
<g filter="url(#filter0_f_25_812)">
<rect x="1172.14" y="794.852" width="752.584" height="440.261" transform="rotate(171.009 1172.14 794.852)" fill="url(#paint0_linear_25_812)"/>
</g>
<rect x="226.8" y="404.601" width="1000.35" height="632.821" rx="41.4511" transform="rotate(-8.78356 226.8 404.601)" fill="#18181B"/>
<mask id="mask0_25_812" style="mask-type:alpha" maskUnits="userSpaceOnUse" x="232" y="257" width="1075" height="768">
<rect x="226.8" y="404.601" width="1000.35" height="632.821" rx="41.4511" transform="rotate(-8.78356 226.8 404.601)" fill="white"/>
</mask>
<g mask="url(#mask0_25_812)">
<g opacity="0.18">
<line x1="214.057" y1="388.717" x2="1095.13" y2="915.278" stroke="white" stroke-width="2.76341"/>
<line x1="201.247" y1="396.289" x2="1082.32" y2="922.85" stroke="white" stroke-width="2.76341"/>
<line x1="188.439" y1="403.861" x2="1069.51" y2="930.422" stroke="white" stroke-width="2.76341"/>
<line x1="175.623" y1="411.432" x2="1056.7" y2="937.994" stroke="white" stroke-width="2.76341"/>
<line x1="162.815" y1="419.004" x2="1043.89" y2="945.566" stroke="white" stroke-width="2.76341"/>
<line x1="150.002" y1="426.576" x2="1031.08" y2="953.138" stroke="white" stroke-width="2.76341"/>
<line x1="137.195" y1="434.148" x2="1018.27" y2="960.709" stroke="white" stroke-width="2.76341"/>
<line x1="124.384" y1="441.72" x2="1005.46" y2="968.281" stroke="white" stroke-width="2.76341"/>
<line x1="111.571" y1="449.292" x2="992.646" y2="975.854" stroke="white" stroke-width="2.76341"/>
<line x1="98.7606" y1="456.864" x2="979.836" y2="983.425" stroke="white" stroke-width="2.76341"/>
<line x1="85.9469" y1="464.436" x2="967.022" y2="990.997" stroke="white" stroke-width="2.76341"/>
<line x1="73.1375" y1="472.007" x2="954.213" y2="998.569" stroke="white" stroke-width="2.76341"/>
<line x1="60.325" y1="479.58" x2="941.4" y2="1006.14" stroke="white" stroke-width="2.76341"/>
<line x1="47.5159" y1="487.152" x2="928.591" y2="1013.71" stroke="white" stroke-width="2.76341"/>
<line x1="34.7056" y1="494.724" x2="915.781" y2="1021.28" stroke="white" stroke-width="2.76341"/>
<line x1="21.8919" y1="502.295" x2="902.967" y2="1028.86" stroke="white" stroke-width="2.76341"/>
<line x1="9.08382" y1="509.867" x2="890.159" y2="1036.43" stroke="white" stroke-width="2.76341"/>
<line x1="-3.7299" y1="517.439" x2="877.345" y2="1044" stroke="white" stroke-width="2.76341"/>
<line x1="-16.5412" y1="525.011" x2="864.534" y2="1051.57" stroke="white" stroke-width="2.76341"/>
<line x1="-29.3515" y1="532.583" x2="851.724" y2="1059.14" stroke="white" stroke-width="2.76341"/>
<line x1="-42.1608" y1="540.155" x2="838.914" y2="1066.72" stroke="white" stroke-width="2.76341"/>
<line x1="-54.9711" y1="547.727" x2="826.104" y2="1074.29" stroke="white" stroke-width="2.76341"/>
<line x1="-67.787" y1="555.298" x2="813.288" y2="1081.86" stroke="white" stroke-width="2.76341"/>
<line x1="-80.5949" y1="562.871" x2="800.48" y2="1089.43" stroke="white" stroke-width="2.76341"/>
<line x1="-93.4042" y1="570.443" x2="787.671" y2="1097" stroke="white" stroke-width="2.76341"/>
<line x1="-106.218" y1="578.015" x2="774.857" y2="1104.58" stroke="white" stroke-width="2.76341"/>
<line x1="-119.03" y1="585.586" x2="762.045" y2="1112.15" stroke="white" stroke-width="2.76341"/>
<line x1="-131.84" y1="593.158" x2="749.236" y2="1119.72" stroke="white" stroke-width="2.76341"/>
<line x1="-144.65" y1="600.73" x2="736.425" y2="1127.29" stroke="white" stroke-width="2.76341"/>
<line x1="-157.459" y1="608.302" x2="723.616" y2="1134.86" stroke="white" stroke-width="2.76341"/>
<line x1="-170.274" y1="615.874" x2="710.801" y2="1142.44" stroke="white" stroke-width="2.76341"/>
<line x1="230.022" y1="383.453" x2="1111.1" y2="910.015" stroke="white" stroke-width="2.76341"/>
<line x1="245.985" y1="378.191" x2="1127.06" y2="904.752" stroke="white" stroke-width="2.76341"/>
<line x1="261.954" y1="372.928" x2="1143.03" y2="899.49" stroke="white" stroke-width="2.76341"/>
<line x1="277.913" y1="367.665" x2="1158.99" y2="894.227" stroke="white" stroke-width="2.76341"/>
<line x1="293.878" y1="362.403" x2="1174.95" y2="888.964" stroke="white" stroke-width="2.76341"/>
<line x1="309.845" y1="357.14" x2="1190.92" y2="883.701" stroke="white" stroke-width="2.76341"/>
<line x1="325.807" y1="351.877" x2="1206.88" y2="878.439" stroke="white" stroke-width="2.76341"/>
<line x1="341.772" y1="346.614" x2="1222.85" y2="873.175" stroke="white" stroke-width="2.76341"/>
<line x1="357.735" y1="341.351" x2="1238.81" y2="867.912" stroke="white" stroke-width="2.76341"/>
<line x1="373.698" y1="336.088" x2="1254.77" y2="862.65" stroke="white" stroke-width="2.76341"/>
<line x1="389.66" y1="330.826" x2="1270.74" y2="857.387" stroke="white" stroke-width="2.76341"/>
<line x1="405.63" y1="325.562" x2="1286.71" y2="852.124" stroke="white" stroke-width="2.76341"/>
<line x1="421.593" y1="320.299" x2="1302.67" y2="846.86" stroke="white" stroke-width="2.76341"/>
<line x1="437.556" y1="315.036" x2="1318.63" y2="841.597" stroke="white" stroke-width="2.76341"/>
<line x1="453.519" y1="309.774" x2="1334.59" y2="836.335" stroke="white" stroke-width="2.76341"/>
<line x1="469.484" y1="304.511" x2="1350.56" y2="831.072" stroke="white" stroke-width="2.76341"/>
<line x1="485.446" y1="299.248" x2="1366.52" y2="825.809" stroke="white" stroke-width="2.76341"/>
<line x1="501.411" y1="293.986" x2="1382.49" y2="820.547" stroke="white" stroke-width="2.76341"/>
<line x1="517.376" y1="288.722" x2="1398.45" y2="815.284" stroke="white" stroke-width="2.76341"/>
<line x1="533.341" y1="283.46" x2="1414.42" y2="810.021" stroke="white" stroke-width="2.76341"/>
<line x1="549.304" y1="278.197" x2="1430.38" y2="804.758" stroke="white" stroke-width="2.76341"/>
<line x1="565.269" y1="272.934" x2="1446.34" y2="799.495" stroke="white" stroke-width="2.76341"/>
<line x1="581.232" y1="267.671" x2="1462.31" y2="794.232" stroke="white" stroke-width="2.76341"/>
</g>
<rect x="226.8" y="404.601" width="1000.35" height="632.821" rx="41.4511" transform="rotate(-8.78356 226.8 404.601)" fill="url(#paint1_linear_25_812)"/>
<g filter="url(#filter1_f_25_812)">
<circle cx="272.857" cy="467.39" r="248.707" transform="rotate(-8.78356 272.857 467.39)" fill="#B4C9FF"/>
</g>
<g filter="url(#filter2_f_25_812)">
<circle cx="1269.38" cy="836.303" r="248.707" transform="rotate(-8.78356 1269.38 836.303)" fill="white"/>
</g>
</g>
<path d="M496.606 703.022L485.101 628.563C483.619 618.972 472.744 612.665 460.854 614.502L353.774 631.048C341.881 632.885 333.414 642.183 334.896 651.772L346.401 726.231C347.883 735.822 358.763 742.124 370.653 740.287L477.733 723.741C489.623 721.902 498.088 712.611 496.606 703.022ZM370.437 738.892C359.499 740.582 349.493 734.781 348.13 725.964L336.625 651.505C335.262 642.683 343.051 634.132 353.989 632.442L461.069 615.897C472.002 614.208 482.008 620.008 483.372 628.83L494.877 703.289C496.239 712.107 488.45 720.657 477.517 722.346L370.437 738.892Z" fill="#3F3F46"/>
<path d="M477.526 722.346L370.447 738.891C365.189 739.702 359.886 738.797 355.704 736.374C351.521 733.951 348.801 730.209 348.141 725.969L336.635 651.505C335.272 642.683 343.061 634.132 353.999 632.442L461.078 615.897C472.011 614.208 482.017 620.008 483.38 628.83L494.886 703.295C496.247 712.107 488.459 720.657 477.526 722.346Z" fill="url(#paint2_linear_25_812)"/>
<path d="M344.736 713.535L344.52 712.14L393.83 704.521C397.097 704.013 400.068 702.481 402.09 700.26C404.113 698.04 405.022 695.312 404.619 692.676L400.526 666.189C400.115 663.554 398.425 661.228 395.827 659.722C393.228 658.215 389.933 657.651 386.665 658.153L337.356 665.772L337.14 664.376L386.449 656.757C390.176 656.185 393.933 656.828 396.897 658.546C399.86 660.265 401.787 662.917 402.255 665.922L406.348 692.409C406.808 695.415 405.772 698.525 403.465 701.057C401.159 703.589 397.771 705.337 394.045 705.916L344.736 713.535Z" fill="#383335"/>
<path d="M434.977 687.986L430.884 661.498C430.424 658.492 431.461 655.382 433.768 652.849C436.074 650.317 439.462 648.569 443.189 647.99L486.982 641.224L487.198 642.62L443.404 649.386C440.137 649.894 437.166 651.426 435.143 653.647C433.12 655.867 432.21 658.595 432.614 661.231L436.706 687.719C437.118 690.353 438.808 692.679 441.407 694.186C444.006 695.692 447.3 696.256 450.569 695.754L494.362 688.987L494.578 690.382L450.784 697.149C447.057 697.722 443.3 697.079 440.336 695.361C437.373 693.643 435.445 690.991 434.977 687.986Z" fill="#383335"/>
<path d="M432.048 663.297L431.833 661.902L401.475 666.593L401.691 667.987L432.048 663.297Z" fill="#383335"/>
<path d="M435.76 687.313L435.544 685.918L405.187 690.609L405.402 692.003L435.76 687.313Z" fill="#383335"/>
<path d="M388.251 736.855L383.609 706.815L381.88 707.082L386.521 737.123L388.251 736.855Z" fill="#383335"/>
<path d="M376.227 659.052L371.585 629.01L369.856 629.277L374.498 659.319L376.227 659.052Z" fill="#383335"/>
<path d="M464.868 725.017L460.226 694.976L458.497 695.243L463.138 725.284L464.868 725.017Z" fill="#383335"/>
<path d="M452.844 647.214L448.202 617.172L446.473 617.439L451.115 647.481L452.844 647.214Z" fill="#383335"/>
<path d="M490.118 666.754L489.902 665.359L433.705 674.042L433.92 675.437L490.118 666.754Z" fill="#383335"/>
<path d="M403.015 680.213L402.799 678.818L340.836 688.392L341.052 689.787L403.015 680.213Z" fill="#383335"/>
<path d="M1104.59 840.055L1084.98 842.408L1080.15 755.078L1099.77 752.724L1104.59 840.055ZM1051.38 758.529L1044.43 819.827L1039.69 807.376L1039.69 807.38L1025.41 769.56C1025.41 769.56 1023.07 761.925 1014.56 762.946L983.644 766.655L983.57 768.153C983.57 768.153 993.472 769.26 1006.04 775.505L1037.93 848.054L1058.37 845.602L1072.5 755.996L1051.38 758.529V758.529ZM1222.78 825.877L1240.79 823.716L1208 739.738L1192.23 741.63C1184.95 742.504 1184.45 749.115 1184.45 749.115L1171 832.088L1191.45 829.635L1193 816.391L1217.94 813.399L1222.78 825.877ZM1195.15 798.095L1199.06 764.728L1211.25 796.163L1195.15 798.095ZM1159.56 766.692L1158.69 747.918C1158.69 747.918 1149.3 745.211 1140.3 746.292C1130.56 747.459 1108.41 755.081 1113.1 778.657C1117.51 800.838 1144.7 797.859 1147.02 809.51C1149.34 821.161 1124.59 821.993 1115.09 815.61L1116.01 835.238C1116.01 835.238 1125.74 839.035 1139.12 837.43C1152.51 835.824 1171.13 825.502 1166.85 804.005C1162.41 781.682 1134.62 782.887 1132.69 773.182C1130.76 763.473 1150.11 762.428 1159.56 766.692V766.692Z" fill="white"/>
<path d="M1037.86 809.798L1025.76 776.198C1025.76 776.198 1023.87 769.388 1015.17 770.732L983.561 775.616L983.392 776.978C983.392 776.978 999.071 777.779 1015.47 787.324C1031.14 796.447 1037.86 809.798 1037.86 809.798Z" fill="#E6A540"/>
<path d="M373.214 891.976L372.633 888.22L373.925 888.021C374.887 887.872 375.606 887.484 376.083 886.857C376.577 886.207 376.753 885.421 376.611 884.499L374.202 868.908L378.317 868.272L380.703 883.713C380.917 885.095 380.803 886.353 380.364 887.487C379.944 888.619 379.228 889.56 378.216 890.311C377.224 891.059 375.987 891.547 374.505 891.776L373.214 891.976ZM388.729 889.578L385.271 867.198L400.142 864.9L400.699 868.505L389.914 870.171L390.801 875.909L400.984 874.336L401.541 877.94L391.358 879.514L392.258 885.342L403.043 883.676L403.6 887.281L388.729 889.578ZM417.373 885.521C415.951 885.741 414.589 885.685 413.287 885.353C412.005 885.018 410.852 884.458 409.829 883.673C408.822 882.865 408.023 881.871 407.43 880.691L410.597 878.694C411.336 879.892 412.273 880.783 413.409 881.366C414.542 881.93 415.749 882.112 417.031 881.914C417.752 881.803 418.356 881.597 418.843 881.296C419.346 880.972 419.707 880.588 419.926 880.144C420.164 879.697 420.24 879.193 420.154 878.633C420.051 877.972 419.768 877.462 419.302 877.103C418.854 876.721 418.22 876.471 417.402 876.351L412.893 875.633C411.067 875.361 409.63 874.753 408.581 873.808C407.533 872.862 406.896 871.659 406.67 870.197C406.472 868.915 406.607 867.735 407.077 866.658C407.566 865.578 408.33 864.681 409.367 863.967C410.422 863.229 411.681 862.748 413.143 862.522C414.485 862.315 415.753 862.365 416.949 862.672C418.142 862.959 419.204 863.462 420.135 864.179C421.083 864.873 421.844 865.75 422.418 866.81L419.285 868.832C418.671 867.778 417.877 867.019 416.903 866.555C415.926 866.07 414.857 865.917 413.695 866.097C413.014 866.202 412.432 866.415 411.948 866.736C411.462 867.037 411.101 867.421 410.865 867.888C410.647 868.331 410.581 868.834 410.668 869.394C410.763 870.015 411.049 870.535 411.524 870.954C411.995 871.353 412.662 871.619 413.523 871.752L417.838 872.408C419.711 872.713 421.166 873.309 422.205 874.194C423.264 875.076 423.91 876.268 424.142 877.77C424.34 879.052 424.184 880.235 423.675 881.318C423.166 882.402 422.374 883.313 421.299 884.054C420.224 884.794 418.915 885.283 417.373 885.521ZM439.555 882.094C438.133 882.314 436.771 882.258 435.469 881.926C434.186 881.591 433.034 881.031 432.01 880.246C431.003 879.437 430.204 878.443 429.612 877.263L432.779 875.267C433.518 876.465 434.455 877.356 435.591 877.939C436.724 878.502 437.931 878.685 439.213 878.487C439.934 878.375 440.537 878.169 441.024 877.868C441.528 877.545 441.889 877.161 442.107 876.717C442.346 876.27 442.422 875.766 442.335 875.205C442.233 874.544 441.949 874.035 441.484 873.676C441.035 873.294 440.402 873.043 439.583 872.924L435.074 872.206C433.248 871.934 431.811 871.326 430.763 870.38C429.714 869.435 429.077 868.231 428.851 866.769C428.653 865.488 428.789 864.308 429.258 863.231C429.747 862.15 430.511 861.253 431.549 860.539C432.604 859.802 433.862 859.321 435.324 859.095C436.666 858.887 437.935 858.937 439.131 859.245C440.323 859.532 441.385 860.034 442.316 860.752C443.264 861.446 444.025 862.323 444.599 863.383L441.467 865.405C440.853 864.351 440.059 863.592 439.085 863.127C438.108 862.643 437.038 862.49 435.877 862.67C435.196 862.775 434.613 862.988 434.13 863.309C433.643 863.609 433.282 863.993 433.047 864.46C432.828 864.904 432.762 865.406 432.849 865.967C432.945 866.588 433.23 867.108 433.705 867.527C434.177 867.925 434.843 868.191 435.705 868.325L440.02 868.981C441.892 869.286 443.348 869.881 444.387 870.767C445.446 871.649 446.091 872.841 446.323 874.343C446.521 875.625 446.366 876.807 445.857 877.891C445.347 878.974 444.555 879.886 443.48 880.626C442.405 881.367 441.097 881.856 439.555 882.094ZM453.689 879.541L450.231 857.16L465.102 854.863L465.659 858.468L454.874 860.134L455.76 865.872L465.944 864.298L466.501 867.903L456.317 869.477L457.218 875.305L468.003 873.638L468.56 877.243L453.689 879.541ZM493.438 873.768C491.795 874.022 490.218 873.968 488.707 873.607C487.195 873.246 485.828 872.627 484.606 871.75C483.383 870.872 482.363 869.779 481.546 868.47C480.746 867.138 480.218 865.65 479.965 864.008C479.708 862.346 479.761 860.769 480.126 859.277C480.49 857.786 481.122 856.437 482.023 855.232C482.923 854.026 484.041 853.033 485.376 852.253C486.709 851.452 488.206 850.924 489.868 850.667C491.53 850.41 493.117 850.462 494.629 850.823C496.141 851.184 497.508 851.804 498.73 852.681C499.949 853.538 500.958 854.623 501.755 855.935C502.573 857.244 503.11 858.73 503.367 860.392C503.62 862.035 503.557 863.613 503.176 865.128C502.791 866.623 502.149 867.973 501.248 869.178C500.348 870.384 499.232 871.387 497.899 872.187C496.587 872.984 495.1 873.512 493.438 873.768ZM492.862 870.043C493.964 869.873 494.946 869.527 495.808 869.004C496.667 868.461 497.383 867.786 497.956 866.98C498.549 866.171 498.951 865.258 499.163 864.241C499.395 863.221 499.424 862.15 499.251 861.028C499.078 859.907 498.728 858.905 498.202 858.022C497.693 857.117 497.034 856.367 496.225 855.775C495.432 855.159 494.546 854.732 493.566 854.494C492.586 854.256 491.545 854.222 490.444 854.392C489.362 854.559 488.39 854.904 487.528 855.427C486.665 855.95 485.939 856.626 485.35 857.455C484.777 858.261 484.375 859.174 484.143 860.195C483.908 861.195 483.877 862.255 484.05 863.377C484.224 864.498 484.575 865.511 485.104 866.413C485.633 867.316 486.292 868.065 487.081 868.66C487.89 869.253 488.787 869.679 489.77 869.937C490.75 870.175 491.781 870.21 492.862 870.043ZM511.462 870.614L508.004 848.234L516.325 846.948C517.847 846.713 519.232 846.786 520.481 847.167C521.746 847.525 522.791 848.184 523.616 849.143C524.437 850.083 524.964 851.303 525.196 852.805C525.435 854.348 525.267 855.717 524.693 856.913C524.139 858.105 523.282 859.058 522.12 859.771L528.645 867.959L524.019 868.674L517.004 859.7L519.889 860.854L514.271 861.722L515.547 869.983L511.462 870.614ZM513.714 858.117L518.01 857.453C518.751 857.339 519.37 857.099 519.867 856.735C520.362 856.351 520.719 855.876 520.939 855.309C521.159 854.742 521.216 854.118 521.111 853.437C521.003 852.736 520.76 852.158 520.382 851.704C520.001 851.23 519.518 850.894 518.934 850.697C518.347 850.48 517.683 850.429 516.942 850.544L512.646 851.207L513.714 858.117ZM545.135 865.78C543.492 866.034 541.915 865.981 540.404 865.619C538.892 865.258 537.525 864.639 536.303 863.762C535.08 862.884 534.06 861.791 533.243 860.482C532.443 859.15 531.915 857.663 531.662 856.02C531.405 854.358 531.458 852.781 531.823 851.289C532.187 849.798 532.819 848.449 533.72 847.244C534.62 846.038 535.738 845.045 537.073 844.265C538.406 843.464 539.903 842.936 541.565 842.679C543.227 842.422 544.814 842.474 546.326 842.835C547.838 843.196 549.205 843.816 550.427 844.693C551.646 845.55 552.655 846.635 553.452 847.947C554.27 849.256 554.807 850.742 555.064 852.404C555.317 854.047 555.254 855.625 554.873 857.14C554.488 858.635 553.846 859.985 552.945 861.19C552.045 862.396 550.929 863.399 549.596 864.199C548.284 864.996 546.797 865.524 545.135 865.78ZM544.559 862.055C545.661 861.885 546.643 861.539 547.505 861.016C548.364 860.473 549.08 859.798 549.653 858.992C550.246 858.183 550.648 857.27 550.86 856.253C551.092 855.233 551.121 854.162 550.948 853.04C550.775 851.919 550.425 850.917 549.899 850.034C549.39 849.129 548.731 848.38 547.922 847.787C547.129 847.171 546.243 846.744 545.263 846.506C544.283 846.268 543.242 846.234 542.141 846.404C541.059 846.571 540.087 846.916 539.225 847.439C538.362 847.962 537.636 848.638 537.047 849.467C536.474 850.273 536.072 851.187 535.84 852.207C535.605 853.207 535.574 854.268 535.747 855.389C535.921 856.511 536.272 857.523 536.801 858.425C537.33 859.328 537.989 860.077 538.778 860.673C539.587 861.265 540.484 861.691 541.467 861.949C542.447 862.187 543.478 862.222 544.559 862.055ZM571.205 861.752C569.783 861.972 568.421 861.916 567.119 861.584C565.837 861.249 564.684 860.689 563.661 859.904C562.654 859.095 561.855 858.101 561.262 856.922L564.43 854.925C565.168 856.123 566.106 857.014 567.242 857.597C568.374 858.16 569.582 858.343 570.863 858.145C571.584 858.033 572.188 857.827 572.675 857.527C573.178 857.203 573.539 856.819 573.758 856.375C573.996 855.928 574.072 855.424 573.986 854.863C573.884 854.202 573.6 853.693 573.134 853.334C572.686 852.952 572.052 852.701 571.234 852.582L566.725 851.864C564.899 851.592 563.462 850.984 562.413 850.038C561.365 849.093 560.728 847.889 560.502 846.427C560.304 845.146 560.44 843.966 560.909 842.889C561.398 841.809 562.162 840.911 563.2 840.197C564.255 839.46 565.513 838.979 566.975 838.753C568.317 838.545 569.586 838.595 570.781 838.903C571.974 839.19 573.036 839.692 573.967 840.41C574.915 841.104 575.676 841.981 576.25 843.041L573.117 845.063C572.503 844.009 571.709 843.25 570.735 842.785C569.758 842.301 568.689 842.148 567.527 842.328C566.846 842.433 566.264 842.646 565.781 842.967C565.294 843.267 564.933 843.651 564.697 844.118C564.479 844.562 564.413 845.064 564.5 845.625C564.596 846.246 564.881 846.766 565.356 847.185C565.828 847.583 566.494 847.849 567.355 847.983L571.671 848.639C573.543 848.944 574.998 849.539 576.037 850.425C577.096 851.307 577.742 852.499 577.974 854.001C578.172 855.283 578.017 856.465 577.507 857.549C576.998 858.632 576.206 859.544 575.131 860.284C574.056 861.025 572.748 861.514 571.205 861.752ZM583.598 859.468L583.101 856.254L591.542 839.017L581.328 840.595L580.771 836.99L596.182 834.609L596.678 837.823L588.268 855.056L599.383 853.338L599.94 856.943L583.598 859.468Z" fill="white"/>
<path opacity="0.5" d="M382.645 946.443L379.187 924.062L387.508 922.777C389.03 922.542 390.415 922.615 391.663 922.996C392.929 923.354 393.974 924.013 394.799 924.972C395.62 925.911 396.147 927.132 396.379 928.634C396.618 930.176 396.45 931.545 395.876 932.741C395.322 933.934 394.465 934.887 393.303 935.599L399.828 943.788L395.202 944.503L388.187 935.529L391.071 936.682L385.454 937.55L386.73 945.812L382.645 946.443ZM384.897 933.946L389.193 933.282C389.934 933.167 390.553 932.928 391.05 932.564C391.545 932.18 391.902 931.705 392.122 931.138C392.342 930.57 392.399 929.946 392.294 929.265C392.186 928.564 391.942 927.987 391.565 927.533C391.184 927.058 390.701 926.723 390.117 926.526C389.53 926.309 388.866 926.258 388.125 926.372L383.829 927.036L384.897 933.946ZM405.237 942.952L401.779 920.572L416.649 918.274L417.206 921.879L406.421 923.545L407.308 929.283L417.492 927.71L418.049 931.315L407.865 932.888L408.765 938.716L419.55 937.05L420.107 940.655L405.237 942.952ZM430.01 939.124L420.543 917.672L424.929 916.995L432.593 935.342L431.452 935.518L433.431 915.681L437.667 915.026L445.511 933.346L444.369 933.522L446.138 913.717L450.524 913.04L447.974 936.349L443.288 937.073L435.462 919.273L436.784 919.069L434.696 938.4L430.01 939.124ZM456.157 935.084L460.42 911.511L465.707 910.694L476.886 931.881L472.44 932.568L470.105 928.008L461.453 929.345L460.573 934.402L456.157 935.084ZM462.068 925.559L468.376 924.584L462.929 914.014L464.071 913.838L462.068 925.559ZM482.108 931.075L478.649 908.694L486.971 907.408C488.493 907.173 489.878 907.246 491.126 907.627C492.391 907.986 493.436 908.644 494.261 909.604C495.083 910.543 495.61 911.764 495.842 913.266C496.081 914.808 495.913 916.177 495.339 917.373C494.785 918.566 493.927 919.518 492.766 920.231L499.291 928.42L494.665 929.134L487.649 920.16L490.534 921.314L484.917 922.182L486.193 930.443L482.108 931.075ZM484.36 918.577L488.655 917.913C489.397 917.799 490.016 917.56 490.513 917.196C491.007 916.812 491.365 916.336 491.585 915.769C491.805 915.202 491.862 914.578 491.757 913.897C491.648 913.196 491.405 912.618 491.028 912.164C490.647 911.69 490.164 911.354 489.58 911.157C488.993 910.941 488.329 910.889 487.588 911.004L483.292 911.668L484.36 918.577ZM504.7 927.584L501.242 905.203L508.542 904.075C510.905 903.71 513.032 903.874 514.923 904.566C516.831 905.235 518.395 906.336 519.616 907.87C520.835 909.384 521.614 911.242 521.954 913.445C522.291 915.628 522.111 917.645 521.413 919.496C520.711 921.327 519.554 922.859 517.94 924.092C516.343 925.303 514.363 926.091 512 926.456L504.7 927.584ZM508.228 923.348L511.533 922.837C513.055 922.602 514.319 922.089 515.324 921.298C516.347 920.484 517.082 919.468 517.529 918.25C517.974 917.013 518.077 915.623 517.839 914.081C517.597 912.519 517.079 911.225 516.285 910.199C515.491 909.174 514.485 908.437 513.268 907.99C512.07 907.539 510.711 907.431 509.189 907.666L505.884 908.177L508.228 923.348ZM537.715 922.852C536.293 923.071 534.931 923.015 533.629 922.683C532.346 922.348 531.194 921.788 530.17 921.003C529.163 920.195 528.364 919.201 527.772 918.021L530.939 916.024C531.678 917.223 532.615 918.113 533.751 918.697C534.884 919.26 536.091 919.442 537.373 919.244C538.094 919.133 538.697 918.927 539.184 918.626C539.688 918.302 540.049 917.918 540.267 917.474C540.506 917.027 540.582 916.524 540.495 915.963C540.393 915.302 540.109 914.792 539.644 914.433C539.195 914.052 538.562 913.801 537.743 913.681L533.234 912.963C531.408 912.692 529.971 912.083 528.923 911.138C527.874 910.193 527.237 908.989 527.011 907.527C526.813 906.245 526.949 905.066 527.418 903.988C527.907 902.908 528.671 902.011 529.709 901.297C530.764 900.56 532.022 900.078 533.484 899.852C534.826 899.645 536.095 899.695 537.291 900.002C538.483 900.29 539.545 900.792 540.476 901.509C541.424 902.204 542.185 903.08 542.759 904.14L539.627 906.162C539.013 905.109 538.219 904.35 537.245 903.885C536.268 903.4 535.198 903.248 534.037 903.427C533.356 903.532 532.773 903.745 532.29 904.066C531.803 904.367 531.442 904.751 531.207 905.218C530.988 905.662 530.922 906.164 531.009 906.725C531.105 907.346 531.39 907.865 531.865 908.284C532.337 908.683 533.003 908.949 533.865 909.082L538.18 909.738C540.052 910.044 541.508 910.639 542.547 911.524C543.606 912.406 544.251 913.598 544.483 915.1C544.681 916.382 544.526 917.565 544.017 918.648C543.507 919.732 542.715 920.644 541.64 921.384C540.565 922.124 539.257 922.613 537.715 922.852ZM562.419 919.034C560.817 919.282 559.29 919.221 557.839 918.85C556.407 918.477 555.1 917.848 553.918 916.965C552.756 916.078 551.786 914.977 551.008 913.662C550.231 912.346 549.714 910.858 549.457 909.195C549.2 907.533 549.234 905.959 549.558 904.474C549.899 902.965 550.491 901.623 551.335 900.447C552.195 899.247 553.263 898.262 554.538 897.491C555.811 896.7 557.248 896.18 558.85 895.933C560.452 895.685 561.926 895.734 563.271 896.08C564.636 896.423 565.829 896.977 566.85 897.742C567.867 898.487 568.648 899.361 569.193 900.363L565.792 902.642C565.198 901.585 564.345 900.774 563.232 900.208C562.116 899.622 560.847 899.438 559.426 899.658C558.024 899.875 556.833 900.397 555.854 901.225C554.894 902.05 554.204 903.089 553.783 904.344C553.381 905.595 553.301 907.002 553.543 908.564C553.784 910.126 554.286 911.453 555.05 912.545C555.83 913.614 556.802 914.397 557.966 914.894C559.149 915.387 560.442 915.526 561.844 915.309C563.266 915.09 564.422 914.542 565.312 913.666C566.199 912.77 566.766 911.729 567.013 910.543L570.943 911.689C570.726 912.809 570.247 913.888 569.505 914.925C568.76 915.943 567.788 916.821 566.59 917.559C565.412 918.295 564.022 918.787 562.419 919.034ZM588.415 915.018C586.812 915.265 585.286 915.204 583.834 914.834C582.402 914.46 581.095 913.832 579.913 912.948C578.751 912.061 577.781 910.96 577.004 909.645C576.226 908.33 575.709 906.841 575.452 905.179C575.195 903.516 575.229 901.943 575.553 900.457C575.894 898.949 576.487 897.606 577.33 896.43C578.191 895.231 579.258 894.246 580.534 893.474C581.806 892.683 583.243 892.164 584.845 891.916C586.447 891.669 587.921 891.718 589.266 892.064C590.632 892.406 591.825 892.96 592.845 893.725C593.862 894.47 594.643 895.344 595.188 896.347L591.787 898.625C591.194 897.569 590.34 896.757 589.227 896.191C588.112 895.605 586.843 895.422 585.421 895.641C584.019 895.858 582.828 896.38 581.849 897.208C580.889 898.033 580.199 899.073 579.778 900.327C579.376 901.579 579.297 902.985 579.538 904.547C579.779 906.11 580.282 907.437 581.045 908.528C581.825 909.597 582.797 910.38 583.961 910.877C585.144 911.371 586.437 911.509 587.839 911.293C589.261 911.073 590.417 910.525 591.307 909.65C592.194 908.754 592.761 907.713 593.008 906.526L596.938 907.672C596.721 908.792 596.242 909.871 595.5 910.909C594.755 911.926 593.783 912.804 592.585 913.543C591.407 914.279 590.017 914.77 588.415 915.018ZM602.007 912.548L606.27 888.975L611.557 888.158L622.736 909.346L618.29 910.033L615.955 905.472L607.303 906.809L606.423 911.866L602.007 912.548ZM607.917 903.023L614.226 902.048L608.779 891.478L609.92 891.302L607.917 903.023ZM627.957 908.539L624.499 886.158L632.851 884.868C634.373 884.633 635.758 884.706 637.006 885.087C638.271 885.445 639.316 886.104 640.141 887.063C640.963 888.002 641.49 889.223 641.722 890.725C641.951 892.207 641.807 893.532 641.29 894.698C640.79 895.842 640.003 896.784 638.928 897.524C637.853 898.264 636.554 898.752 635.032 898.987L630.766 899.646L632.043 907.907L627.957 908.539ZM630.209 896.041L634.535 895.373C635.276 895.258 635.896 895.019 636.393 894.655C636.887 894.271 637.244 893.796 637.464 893.229C637.684 892.661 637.742 892.037 637.637 891.356C637.528 890.656 637.285 890.078 636.907 889.624C636.527 889.149 636.044 888.814 635.46 888.617C634.873 888.4 634.209 888.349 633.468 888.463L629.142 889.132L630.209 896.041ZM650.168 905.107L646.71 882.726L650.796 882.095L654.254 904.476L650.168 905.107Z" fill="white"/>
<g clip-path="url(#clip0_25_812)">
<path d="M819.175 383.299C816.776 383.669 814.91 385.55 813.575 388.942C812.241 392.334 811.904 396.169 812.565 400.448L816.59 426.507L823.493 425.44L823.764 427.191L793.426 431.876L793.156 430.126L798.504 429.3L791.896 386.516L786.548 387.342L786.278 385.592L809.711 381.973L811.153 391.307C811.485 387.871 812.715 385.093 814.843 382.972C816.962 380.787 819.544 379.459 822.591 378.988C825.637 378.517 828.236 379.012 830.386 380.472C832.591 381.857 833.939 384.138 834.43 387.314C834.91 390.426 834.568 392.934 833.402 394.84C832.236 396.746 830.162 397.929 827.18 398.389C824.263 398.84 821.941 398.203 820.215 396.478C818.553 394.744 817.976 392.079 818.482 388.483L821.983 387.942C823.093 384.386 822.157 382.838 819.175 383.299ZM867.577 421.419C859.215 422.711 852.597 421.543 847.722 417.915C842.903 414.213 839.902 408.537 838.721 400.888C837.529 393.174 838.952 386.914 842.989 382.11C847.09 377.295 852.771 374.327 860.031 373.205C874.746 370.933 882.953 377.231 884.653 392.101L857.232 396.336L857.818 400.128C858.799 406.481 860.35 411.153 862.471 414.144C864.593 417.135 867.663 418.32 871.682 417.699C879.202 416.538 883.507 411.757 884.599 403.359L886.395 403.38C885.884 408.238 884.208 412.214 881.367 415.307C878.592 418.39 873.995 420.428 867.577 421.419ZM857.029 394.377L867.044 392.83L866.308 388.065C865.497 382.814 864.622 379.299 863.684 377.519C862.8 375.665 861.419 374.883 859.539 375.173C857.723 375.453 856.522 376.701 855.935 378.915C855.403 381.055 855.522 384.62 856.293 389.612L857.029 394.377ZM916.184 367.32L915.913 365.57L941 361.695L941.27 363.445L937.284 364.061L951.096 395.478L954.689 361.373L947.98 362.409L947.709 360.659L960.836 358.631L961.107 360.382L957.023 361.012L952.233 407.349L938.911 409.406L925.841 380.861L921.312 412.124L908.282 414.137L887.013 371.826L882.637 372.501L882.367 370.751L911.829 366.201L912.1 367.951L906.266 368.852L920.317 400.53L923.804 376.696L919.781 366.764L916.184 367.32ZM987.289 378.539L990.109 378.103L988.953 370.616C988.002 364.458 987.01 360.396 985.976 358.432C984.997 356.393 983.536 355.524 981.591 355.824C980.424 356.004 979.404 356.494 978.532 357.292C977.715 358.016 977.391 358.928 977.561 360.03C977.722 361.068 978.081 362.107 978.64 363.149L981.071 362.774C981.8 364.055 982.315 365.668 982.615 367.613C982.905 369.492 982.35 371.271 980.95 372.947C979.54 374.559 977.603 375.555 975.14 375.935C969.565 376.796 966.362 374.537 965.531 369.156C964.299 361.183 970.458 356.15 984.006 354.057C991.72 352.866 997.241 353.374 1000.57 355.581C1003.95 357.713 1006.18 362.28 1007.26 369.281L1010.31 389.02C1010.83 392.391 1012.03 393.931 1013.91 393.641C1016.12 393.3 1016.9 389.761 1016.26 383.025L1017.73 382.897C1018.35 388.641 1017.89 392.728 1016.34 395.158C1014.79 397.587 1011.87 399.132 1007.6 399.793C999.817 400.995 994.974 399.287 993.066 394.67C992.604 397.264 991.62 399.274 990.115 400.701C988.61 402.128 986.237 403.092 982.995 403.593C973.402 405.075 967.999 401.893 966.787 394.05C966.076 389.447 967.406 386.023 970.776 383.777C974.2 381.456 979.705 379.71 987.289 378.539ZM985.247 391.099C985.768 394.47 986.265 396.617 986.739 397.539C987.279 398.451 988.034 398.832 989.007 398.682C990.044 398.522 990.859 397.566 991.451 395.816C992.099 393.99 992.197 391.619 991.746 388.702L990.349 379.659L989.669 379.764C985.649 380.385 984.096 383.645 985.007 389.544L985.247 391.099ZM1047.36 348.056C1044.96 348.426 1043.09 350.308 1041.76 353.699C1040.42 357.091 1040.09 360.926 1040.75 365.205L1044.77 391.264L1051.67 390.198L1051.94 391.948L1021.61 396.634L1021.34 394.883L1026.69 394.057L1020.08 351.274L1014.73 352.1L1014.46 350.349L1037.89 346.73L1039.33 356.065C1039.67 352.629 1040.9 349.85 1043.02 347.729C1045.14 345.544 1047.72 344.216 1050.77 343.745C1053.82 343.275 1056.42 343.769 1058.57 345.229C1060.77 346.614 1062.12 348.895 1062.61 352.071C1063.09 355.183 1062.75 357.692 1061.58 359.597C1060.42 361.503 1058.34 362.686 1055.36 363.147C1052.44 363.597 1050.12 362.96 1048.4 361.236C1046.73 359.501 1046.16 356.836 1046.66 353.24L1050.16 352.7C1051.27 349.143 1050.34 347.595 1047.36 348.056ZM1097.84 358.463C1097.79 358.115 1097.68 357.419 1097.52 356.374C1097.35 355.298 1097.13 354.085 1096.86 352.733C1096.58 351.35 1096.24 349.896 1095.85 348.369C1095.45 346.843 1094.97 345.441 1094.42 344.166C1093.51 343.302 1092.52 342.564 1091.45 341.951C1090.41 341.301 1089.16 341.089 1087.71 341.314C1085.24 341.695 1083.67 343.59 1082.99 347C1082.35 350.404 1082.56 355.493 1083.6 362.267C1084.06 365.242 1084.61 367.945 1085.24 370.374C1085.91 372.799 1086.65 374.857 1087.46 376.546C1088.3 378.23 1089.23 379.497 1090.24 380.347C1091.27 381.191 1092.39 381.52 1093.6 381.334C1098.66 380.552 1100.08 372.928 1097.84 358.463ZM1094.04 337.661C1092.95 334.589 1091.66 331.775 1090.16 329.219C1088.66 326.631 1087 324.458 1085.17 322.698C1083.38 320.934 1081.42 319.631 1079.32 318.79C1077.24 317.944 1075.1 317.692 1072.88 318.034C1071.62 318.229 1070.48 318.566 1069.49 319.044C1068.53 319.517 1067.7 320.034 1067.01 320.594C1066.31 321.123 1065.74 321.632 1065.3 322.122C1064.88 322.575 1064.58 322.914 1064.39 323.138L1062.89 321.667C1063.5 320.568 1064.28 319.509 1065.22 318.488C1066.2 317.462 1067.29 316.548 1068.49 315.746C1069.7 314.945 1070.99 314.259 1072.36 313.691C1073.76 313.118 1075.17 312.722 1076.6 312.502C1081.28 311.778 1085.55 312.171 1089.42 313.681C1093.28 315.16 1096.68 317.583 1099.63 320.951C1102.58 324.319 1105.07 328.554 1107.09 333.654C1109.11 338.754 1110.61 344.532 1111.61 350.99C1112.42 356.212 1112.59 360.885 1112.12 365.007C1111.69 369.126 1110.7 372.681 1109.15 375.675C1107.6 378.637 1105.52 381.015 1102.91 382.812C1100.33 384.571 1097.29 385.723 1093.77 386.265C1091.34 386.642 1088.79 386.598 1086.12 386.134C1083.48 385.635 1080.99 384.562 1078.63 382.918C1076.3 381.268 1074.24 378.961 1072.45 375.996C1070.66 372.999 1069.41 369.19 1068.69 364.569C1068.08 360.581 1068.08 356.951 1068.71 353.678C1069.37 350.4 1070.49 347.554 1072.06 345.14C1073.63 342.694 1075.58 340.724 1077.91 339.23C1080.23 337.704 1082.78 336.727 1085.57 336.296C1086.65 336.13 1087.63 336.076 1088.51 336.134C1089.39 336.16 1090.17 336.251 1090.84 336.406C1091.51 336.562 1092.11 336.761 1092.63 337.004C1093.15 337.216 1093.62 337.435 1094.04 337.661ZM1123.7 381.861L1121.01 364.456L1122.18 364.276C1124.73 369.655 1127.61 373.259 1130.82 375.087C1134.02 376.916 1137.76 377.499 1142.04 376.838C1148.65 375.817 1151.63 373.2 1150.98 368.986C1150.7 367.171 1149.68 365.935 1147.92 365.278C1145.17 364.242 1141.76 363.641 1137.68 363.474C1133.1 362.988 1129.16 362.003 1125.88 360.518C1121.95 358.735 1119.6 355.316 1118.82 350.259C1118.04 345.203 1118.97 340.944 1121.62 337.481C1124.26 333.954 1128.18 331.79 1133.36 330.989C1136.54 330.498 1139.93 330.738 1143.53 331.709C1144.84 332.037 1145.82 332.151 1146.47 332.051C1147.12 331.951 1147.63 331.639 1148.02 331.115C1148.4 330.591 1148.82 329.663 1149.28 328.332L1150.35 328.166L1152.65 343.043L1151.48 343.224C1146.87 335.307 1141.1 331.885 1134.16 332.956C1131.12 333.426 1128.93 334.328 1127.61 335.66C1126.28 336.928 1125.74 338.372 1125.99 339.992C1126.14 340.965 1126.49 341.707 1127.03 342.221C1127.57 342.669 1127.98 343.003 1128.28 343.222C1128.58 343.442 1129.05 343.668 1129.68 343.902C1130.31 344.071 1130.83 344.223 1131.25 344.358C1131.66 344.427 1132.27 344.532 1133.09 344.671C1133.97 344.8 1134.61 344.867 1135.01 344.872C1139.59 345.293 1142.91 345.775 1144.99 346.317C1147.05 346.794 1149.05 347.481 1150.98 348.378C1154.93 350.291 1157.33 354.002 1158.18 359.512C1159.02 364.957 1158.04 369.356 1155.24 372.709C1152.43 375.997 1148.2 378.077 1142.56 378.948C1138.54 379.568 1134.51 379.229 1130.46 377.93C1129.6 377.531 1128.94 377.367 1128.49 377.437C1127.07 377.658 1125.86 379.072 1124.87 381.681L1123.7 381.861Z" fill="white"/>
<path d="M987.506 456.625C986.047 456.85 984.653 456.823 983.321 456.543C982.006 456.242 980.815 455.726 979.75 454.995C978.701 454.242 977.828 453.304 977.131 452.179C976.435 451.055 975.977 449.781 975.757 448.359C975.538 446.937 975.59 445.585 975.915 444.303C976.24 443.021 976.799 441.87 977.594 440.852C978.386 439.815 979.365 438.963 980.531 438.298C981.695 437.614 983.015 437.158 984.492 436.93C986.06 436.688 987.534 436.74 988.912 437.087C990.289 437.416 991.505 438.04 992.562 438.96L990.598 441.475C989.79 440.835 988.929 440.398 988.016 440.166C987.1 439.915 986.141 439.868 985.138 440.022C984.135 440.177 983.24 440.484 982.452 440.941C981.682 441.396 981.034 441.972 980.507 442.67C979.998 443.364 979.634 444.149 979.414 445.023C979.213 445.894 979.188 446.821 979.34 447.806C979.492 448.79 979.796 449.668 980.25 450.437C980.724 451.204 981.307 451.842 982.002 452.351C982.715 452.857 983.507 453.21 984.378 453.412C985.267 453.61 986.213 453.632 987.216 453.477C988.219 453.323 989.12 452.997 989.921 452.5C990.719 451.984 991.405 451.291 991.979 450.418L994.614 452.251C993.882 453.428 992.91 454.39 991.7 455.137C990.49 455.884 989.092 456.38 987.506 456.625ZM998.904 454.584L996.649 439.981L999.903 439.478L1000.52 443.498L999.959 442.381C1000.24 441.329 1000.81 440.476 1001.66 439.822C1002.53 439.165 1003.67 438.728 1005.07 438.511L1005.58 441.766C1005.42 441.752 1005.29 441.755 1005.16 441.774C1005.03 441.776 1004.9 441.786 1004.77 441.806C1003.48 442.006 1002.51 442.548 1001.86 443.432C1001.21 444.298 1001 445.478 1001.23 446.973L1002.32 454.056L998.904 454.584ZM1017.77 451.866C1016.15 452.116 1014.68 452.017 1013.36 451.567C1012.06 451.097 1010.98 450.349 1010.13 449.322C1009.3 448.293 1008.77 447.059 1008.55 445.618C1008.32 444.16 1008.45 442.825 1008.91 441.615C1009.39 440.383 1010.15 439.361 1011.18 438.548C1012.23 437.732 1013.49 437.212 1014.94 436.987C1016.37 436.767 1017.68 436.881 1018.89 437.329C1020.1 437.778 1021.11 438.518 1021.92 439.549C1022.73 440.581 1023.26 441.863 1023.49 443.394C1023.52 443.54 1023.53 443.706 1023.54 443.891C1023.57 444.073 1023.59 444.248 1023.6 444.415L1011.43 446.294L1011.08 444.024L1021.44 442.424L1020.21 443.342C1020.1 442.5 1019.81 441.788 1019.35 441.207C1018.89 440.625 1018.31 440.201 1017.61 439.935C1016.94 439.666 1016.19 439.595 1015.37 439.722C1014.53 439.851 1013.82 440.147 1013.24 440.611C1012.67 441.071 1012.26 441.658 1012 442.37C1011.75 443.062 1011.69 443.845 1011.83 444.72L1011.91 445.267C1012.05 446.142 1012.37 446.886 1012.87 447.499C1013.38 448.111 1014.02 448.544 1014.81 448.796C1015.59 449.048 1016.46 449.101 1017.41 448.954C1018.23 448.827 1018.95 448.586 1019.57 448.229C1020.18 447.873 1020.7 447.381 1021.13 446.756L1023.29 448.578C1022.75 449.445 1022.01 450.166 1021.07 450.74C1020.15 451.293 1019.05 451.669 1017.77 451.866ZM1034.86 449.226C1033.46 449.443 1032.14 449.329 1030.92 448.884C1029.71 448.417 1028.7 447.677 1027.89 446.664C1027.08 445.65 1026.55 444.387 1026.32 442.874C1026.09 441.36 1026.2 439.998 1026.67 438.788C1027.14 437.577 1027.88 436.576 1028.89 435.784C1029.93 434.99 1031.15 434.484 1032.55 434.267C1033.77 434.079 1034.91 434.183 1035.96 434.581C1037.01 434.96 1037.9 435.653 1038.63 436.66C1039.37 437.667 1039.87 439.027 1040.13 440.741C1040.39 442.436 1040.34 443.882 1039.96 445.079C1039.58 446.257 1038.95 447.195 1038.07 447.891C1037.19 448.587 1036.12 449.032 1034.86 449.226ZM1034.82 446.237C1035.64 446.11 1036.34 445.815 1036.92 445.352C1037.52 444.886 1037.96 444.277 1038.24 443.525C1038.53 442.77 1038.61 441.928 1038.46 440.998C1038.32 440.05 1037.99 439.27 1037.49 438.657C1037 438.024 1036.39 437.575 1035.68 437.312C1034.99 437.046 1034.23 436.976 1033.41 437.103C1032.59 437.23 1031.88 437.526 1031.28 437.992C1030.7 438.455 1030.26 439.064 1029.97 439.819C1029.69 440.553 1029.62 441.393 1029.77 442.341C1029.91 443.271 1030.23 444.053 1030.72 444.687C1031.23 445.318 1031.83 445.766 1032.52 446.032C1033.23 446.295 1034 446.364 1034.82 446.237ZM1039.67 448.287L1039.14 444.842L1038.68 440.937L1037.8 437.096L1036.4 428.017L1039.79 427.493L1042.93 447.785L1039.67 448.287ZM1048.19 446.972L1045.93 432.369L1049.35 431.841L1051.61 446.445L1048.19 446.972ZM1047.28 429.696C1046.64 429.795 1046.08 429.676 1045.6 429.34C1045.14 429 1044.87 428.548 1044.78 427.983C1044.69 427.4 1044.81 426.886 1045.16 426.441C1045.51 425.975 1046.01 425.693 1046.65 425.594C1047.29 425.496 1047.84 425.607 1048.3 425.928C1048.77 426.227 1049.05 426.66 1049.14 427.225C1049.23 427.827 1049.11 428.368 1048.78 428.85C1048.44 429.313 1047.94 429.595 1047.28 429.696ZM1062.38 444.977C1060.77 445.224 1059.47 445.006 1058.47 444.32C1057.46 443.617 1056.84 442.454 1056.59 440.831L1054.56 427.732L1057.98 427.204L1059.99 440.221C1060.1 440.914 1060.35 441.425 1060.76 441.755C1061.18 442.081 1061.71 442.195 1062.35 442.097C1063.12 441.978 1063.73 441.679 1064.17 441.199L1065.51 443.485C1065.16 443.875 1064.7 444.198 1064.14 444.452C1063.59 444.706 1063 444.881 1062.38 444.977ZM1053.09 434.175L1052.67 431.44L1062.41 429.936L1062.83 432.671L1053.09 434.175ZM1086.75 441.296C1085.29 441.522 1083.9 441.494 1082.57 441.215C1081.25 440.914 1080.06 440.398 1078.99 439.666C1077.94 438.914 1077.07 437.975 1076.38 436.851C1075.68 435.726 1075.22 434.453 1075 433.031C1074.78 431.609 1074.83 430.257 1075.16 428.975C1075.48 427.692 1076.04 426.542 1076.84 425.523C1077.63 424.486 1078.61 423.635 1079.78 422.97C1080.94 422.286 1082.26 421.83 1083.74 421.602C1085.3 421.36 1086.78 421.412 1088.16 421.759C1089.53 422.088 1090.75 422.712 1091.81 423.632L1089.84 426.147C1089.03 425.506 1088.17 425.07 1087.26 424.838C1086.34 424.587 1085.38 424.539 1084.38 424.694C1083.38 424.849 1082.48 425.155 1081.7 425.613C1080.93 426.068 1080.28 426.644 1079.75 427.341C1079.24 428.036 1078.88 428.82 1078.66 429.694C1078.46 430.565 1078.43 431.493 1078.58 432.478C1078.74 433.462 1079.04 434.339 1079.49 435.109C1079.97 435.876 1080.55 436.514 1081.25 437.022C1081.96 437.528 1082.75 437.882 1083.62 438.083C1084.51 438.282 1085.46 438.304 1086.46 438.149C1087.46 437.994 1088.36 437.668 1089.17 437.171C1089.96 436.656 1090.65 435.962 1091.22 435.089L1093.86 436.922C1093.13 438.1 1092.15 439.062 1090.94 439.809C1089.73 440.555 1088.34 441.051 1086.75 441.296ZM1107.01 437.887L1106.56 434.933L1106.27 434.334L1105.47 429.165C1105.31 428.162 1104.89 427.434 1104.21 426.98C1103.52 426.508 1102.56 426.366 1101.34 426.555C1100.52 426.681 1099.73 426.934 1098.97 427.313C1098.22 427.69 1097.61 428.148 1097.14 428.688L1095.41 426.407C1096.1 425.684 1096.96 425.094 1097.99 424.636C1099.04 424.157 1100.15 423.827 1101.31 423.647C1103.43 423.32 1105.14 423.579 1106.45 424.422C1107.77 425.245 1108.59 426.714 1108.92 428.829L1110.24 437.388L1107.01 437.887ZM1102.45 438.788C1101.35 438.957 1100.37 438.922 1099.49 438.684C1098.61 438.428 1097.89 438.007 1097.34 437.421C1096.8 436.814 1096.46 436.091 1096.33 435.253C1096.2 434.432 1096.28 433.664 1096.56 432.949C1096.86 432.231 1097.43 431.611 1098.26 431.09C1099.1 430.569 1100.25 430.195 1101.73 429.967L1105.97 429.312L1106.32 431.582L1102.33 432.199C1101.16 432.379 1100.41 432.691 1100.06 433.136C1099.72 433.563 1099.59 434.05 1099.67 434.596C1099.77 435.216 1100.09 435.671 1100.64 435.959C1101.19 436.248 1101.9 436.325 1102.77 436.189C1103.61 436.06 1104.33 435.753 1104.93 435.269C1105.54 434.782 1105.94 434.142 1106.12 433.349L1107.01 435.312C1106.81 436.219 1106.32 436.976 1105.54 437.583C1104.77 438.186 1103.74 438.588 1102.45 438.788ZM1115.39 436.593L1113.13 421.99L1116.39 421.487L1117.01 425.507L1116.44 424.39C1116.73 423.338 1117.3 422.485 1118.15 421.831C1119.02 421.174 1120.15 420.737 1121.56 420.521L1122.06 423.775C1121.91 423.761 1121.77 423.764 1121.64 423.784C1121.51 423.785 1121.38 423.796 1121.25 423.815C1119.96 424.015 1118.99 424.557 1118.34 425.441C1117.69 426.307 1117.48 427.487 1117.71 428.982L1118.8 436.065L1115.39 436.593ZM1133.57 433.981C1132.17 434.197 1130.85 434.083 1129.63 433.638C1128.42 433.172 1127.41 432.432 1126.6 431.418C1125.79 430.404 1125.27 429.141 1125.03 427.628C1124.8 426.115 1124.91 424.753 1125.38 423.542C1125.85 422.331 1126.59 421.33 1127.6 420.538C1128.64 419.744 1129.86 419.238 1131.26 419.021C1132.48 418.833 1133.62 418.937 1134.67 419.335C1135.72 419.715 1136.61 420.408 1137.34 421.414C1138.08 422.421 1138.58 423.781 1138.84 425.495C1139.1 427.19 1139.05 428.636 1138.67 429.833C1138.29 431.011 1137.66 431.949 1136.78 432.645C1135.9 433.341 1134.83 433.786 1133.57 433.981ZM1133.53 430.991C1134.35 430.864 1135.05 430.569 1135.63 430.106C1136.23 429.64 1136.67 429.031 1136.95 428.279C1137.24 427.524 1137.32 426.682 1137.17 425.752C1137.03 424.804 1136.7 424.024 1136.2 423.411C1135.71 422.778 1135.11 422.329 1134.39 422.066C1133.7 421.8 1132.94 421.73 1132.12 421.857C1131.3 421.984 1130.59 422.28 1129.99 422.746C1129.41 423.209 1128.97 423.818 1128.68 424.573C1128.4 425.307 1128.33 426.148 1128.48 427.096C1128.62 428.025 1128.94 428.807 1129.43 429.441C1129.94 430.072 1130.54 430.52 1131.23 430.786C1131.94 431.049 1132.71 431.118 1133.53 430.991ZM1138.38 433.042L1137.85 429.596L1137.39 425.691L1136.52 421.85L1135.11 412.771L1138.5 412.247L1141.64 432.539L1138.38 433.042ZM1152.84 430.809L1158.49 410.336L1161.99 409.795L1173.59 427.603L1169.87 428.178L1159.8 412.066L1161.22 411.847L1156.5 430.243L1152.84 430.809ZM1156.12 425.767L1156.64 422.829L1166.98 421.233L1168.37 423.874L1156.12 425.767ZM1176.79 427.11L1173.83 407.967L1181.71 406.75C1183.4 406.489 1184.89 406.538 1186.18 406.899C1187.49 407.258 1188.55 407.896 1189.36 408.816C1190.17 409.736 1190.69 410.897 1190.91 412.301C1191.12 413.705 1190.98 414.968 1190.48 416.091C1189.99 417.213 1189.17 418.142 1188.03 418.877C1186.91 419.61 1185.5 420.108 1183.81 420.37L1177.9 421.282L1179.23 419.369L1180.34 426.561L1176.79 427.11ZM1179.29 419.752L1177.44 418.274L1183.18 417.387C1184.75 417.144 1185.87 416.635 1186.56 415.857C1187.25 415.059 1187.51 414.058 1187.32 412.855C1187.14 411.633 1186.59 410.756 1185.69 410.224C1184.8 409.688 1183.57 409.542 1182.01 409.784L1176.26 410.671L1177.58 408.676L1179.29 419.752ZM1197.12 423.969L1194.17 404.826L1197.72 404.277L1200.68 423.42L1197.12 423.969Z" fill="white"/>
</g>
<defs>
<filter id="filter0_f_25_812" x="0.194183" y="0.194672" width="1531.75" height="1272.08" filterUnits="userSpaceOnUse" color-interpolation-filters="sRGB">
<feFlood flood-opacity="0" result="BackgroundImageFix"/>
<feBlend mode="normal" in="SourceGraphic" in2="BackgroundImageFix" result="shape"/>
<feGaussianBlur stdDeviation="179.903" result="effect1_foregroundBlur_25_812"/>
</filter>
<filter id="filter1_f_25_812" x="-815.961" y="-621.429" width="2177.64" height="2177.64" filterUnits="userSpaceOnUse" color-interpolation-filters="sRGB">
<feFlood flood-opacity="0" result="BackgroundImageFix"/>
<feBlend mode="normal" in="SourceGraphic" in2="BackgroundImageFix" result="shape"/>
<feGaussianBlur stdDeviation="420.038" result="effect1_foregroundBlur_25_812"/>
</filter>
<filter id="filter2_f_25_812" x="180.564" y="-252.516" width="2177.64" height="2177.64" filterUnits="userSpaceOnUse" color-interpolation-filters="sRGB">
<feFlood flood-opacity="0" result="BackgroundImageFix"/>
<feBlend mode="normal" in="SourceGraphic" in2="BackgroundImageFix" result="shape"/>
<feGaussianBlur stdDeviation="420.038" result="effect1_foregroundBlur_25_812"/>
</filter>
<linearGradient id="paint0_linear_25_812" x1="1168.02" y1="1014.98" x2="1919.78" y2="1014.98" gradientUnits="userSpaceOnUse">
<stop stop-color="#4484FF"/>
<stop offset="0.234375" stop-color="#44B0FF"/>
<stop offset="0.489583" stop-color="#FF44EC"/>
<stop offset="0.739583" stop-color="#44A5FF"/>
<stop offset="1" stop-color="#F2FF5E"/>
</linearGradient>
<linearGradient id="paint1_linear_25_812" x1="907.98" y1="1037.42" x2="192.257" y2="357.623" gradientUnits="userSpaceOnUse">
<stop offset="0.507336"/>
<stop offset="1" stop-opacity="0"/>
</linearGradient>
<linearGradient id="paint2_linear_25_812" x1="405.589" y1="611.568" x2="432.744" y2="787.308" gradientUnits="userSpaceOnUse">
<stop stop-color="#F3EC58"/>
<stop offset="0.4" stop-color="#F6CA45"/>
<stop offset="0.77" stop-color="#F9B036"/>
<stop offset="1" stop-color="#FAA631"/>
</linearGradient>
<clipPath id="clip0_25_812">
<rect width="407.391" height="165.262" fill="white" transform="translate(776.497 328.713) rotate(-8.78)"/>
</clipPath>
</defs>
</svg>
